<svg xmlns="http://www.w3.org/2000/svg" xmlns:xlink="http://www.w3.org/1999/xlink" viewBox="0 0 203.41 177.58"><defs><style>.cls-1{isolation:isolate;}.cls-2{fill:#999;opacity:0.26;}.cls-100,.cls-101,.cls-107,.cls-108,.cls-109,.cls-110,.cls-116,.cls-117,.cls-118,.cls-119,.cls-125,.cls-126,.cls-127,.cls-128,.cls-17,.cls-18,.cls-19,.cls-2,.cls-20,.cls-26,.cls-27,.cls-28,.cls-29,.cls-35,.cls-36,.cls-37,.cls-38,.cls-44,.cls-45,.cls-46,.cls-47,.cls-53,.cls-54,.cls-55,.cls-56,.cls-62,.cls-63,.cls-64,.cls-65,.cls-71,.cls-72,.cls-73,.cls-74,.cls-80,.cls-81,.cls-82,.cls-83,.cls-89,.cls-90,.cls-91,.cls-92,.cls-98,.cls-99{mix-blend-mode:multiply;}.cls-3{fill:#fa80ff;}.cls-4{fill:#602e11;}.cls-5{fill:#c4a045;}.cls-6{fill:#9e7413;}.cls-7{fill:#9f5529;}.cls-8{fill:#00b7ee;}.cls-9{fill:#dd4cb9;}.cls-10{fill:#ff3e3e;}.cls-11{fill:#00e564;}.cls-12{fill:#25285f;}.cls-13{fill:#ac18a9;}.cls-14{fill:#fff;}.cls-15{fill:#c9733e;}.cls-16{fill:#b28c36;}.cls-17{fill:url(#radial-gradient);}.cls-18{fill:url(#radial-gradient-2);}.cls-100,.cls-109,.cls-118,.cls-127,.cls-19,.cls-28,.cls-37,.cls-46,.cls-55,.cls-64,.cls-73,.cls-82,.cls-91{opacity:0.3;}.cls-19{fill:url(#radial-gradient-3);}.cls-101,.cls-110,.cls-119,.cls-128,.cls-20,.cls-29,.cls-38,.cls-47,.cls-56,.cls-65,.cls-74,.cls-83,.cls-92{opacity:0.8;}.cls-20{fill:url(#radial-gradient-4);}.cls-102,.cls-103,.cls-104,.cls-105,.cls-106,.cls-111,.cls-112,.cls-113,.cls-114,.cls-115,.cls-120,.cls-121,.cls-122,.cls-123,.cls-124,.cls-129,.cls-130,.cls-131,.cls-132,.cls-133,.cls-21,.cls-22,.cls-23,.cls-24,.cls-25,.cls-30,.cls-31,.cls-32,.cls-33,.cls-34,.cls-39,.cls-40,.cls-41,.cls-42,.cls-43,.cls-48,.cls-49,.cls-50,.cls-51,.cls-52,.cls-57,.cls-58,.cls-59,.cls-60,.cls-61,.cls-66,.cls-67,.cls-68,.cls-69,.cls-70,.cls-75,.cls-76,.cls-77,.cls-78,.cls-79,.cls-84,.cls-85,.cls-86,.cls-87,.cls-88,.cls-93,.cls-94,.cls-95,.cls-96,.cls-97{opacity:0.7;mix-blend-mode:screen;}.cls-21{fill:url(#linear-gradient);}.cls-22{fill:url(#linear-gradient-2);}.cls-23{fill:url(#linear-gradient-3);}.cls-24{fill:url(#linear-gradient-4);}.cls-25{fill:url(#linear-gradient-5);}.cls-26{fill:url(#radial-gradient-5);}.cls-27{fill:url(#radial-gradient-6);}.cls-28{fill:url(#radial-gradient-7);}.cls-29{fill:url(#radial-gradient-8);}.cls-30{fill:url(#linear-gradient-6);}.cls-31{fill:url(#linear-gradient-7);}.cls-32{fill:url(#linear-gradient-8);}.cls-33{fill:url(#linear-gradient-9);}.cls-34{fill:url(#linear-gradient-10);}.cls-35{fill:url(#radial-gradient-9);}.cls-36{fill:url(#radial-gradient-10);}.cls-37{fill:url(#radial-gradient-11);}.cls-38{fill:url(#radial-gradient-12);}.cls-39{fill:url(#linear-gradient-11);}.cls-40{fill:url(#linear-gradient-12);}.cls-41{fill:url(#linear-gradient-13);}.cls-42{fill:url(#linear-gradient-14);}.cls-43{fill:url(#linear-gradient-15);}.cls-44{fill:url(#radial-gradient-13);}.cls-45{fill:url(#radial-gradient-14);}.cls-46{fill:url(#radial-gradient-15);}.cls-47{fill:url(#radial-gradient-16);}.cls-48{fill:url(#linear-gradient-16);}.cls-49{fill:url(#linear-gradient-17);}.cls-50{fill:url(#linear-gradient-18);}.cls-51{fill:url(#linear-gradient-19);}.cls-52{fill:url(#linear-gradient-20);}.cls-53{fill:url(#radial-gradient-17);}.cls-54{fill:url(#radial-gradient-18);}.cls-55{fill:url(#radial-gradient-19);}.cls-56{fill:url(#radial-gradient-20);}.cls-57{fill:url(#linear-gradient-21);}.cls-58{fill:url(#linear-gradient-22);}.cls-59{fill:url(#linear-gradient-23);}.cls-60{fill:url(#linear-gradient-24);}.cls-61{fill:url(#linear-gradient-25);}.cls-62{fill:url(#radial-gradient-21);}.cls-63{fill:url(#radial-gradient-22);}.cls-64{fill:url(#radial-gradient-23);}.cls-65{fill:url(#radial-gradient-24);}.cls-66{fill:url(#linear-gradient-26);}.cls-67{fill:url(#linear-gradient-27);}.cls-68{fill:url(#linear-gradient-28);}.cls-69{fill:url(#linear-gradient-29);}.cls-70{fill:url(#linear-gradient-30);}.cls-71{fill:url(#radial-gradient-25);}.cls-72{fill:url(#radial-gradient-26);}.cls-73{fill:url(#radial-gradient-27);}.cls-74{fill:url(#radial-gradient-28);}.cls-75{fill:url(#linear-gradient-31);}.cls-76{fill:url(#linear-gradient-32);}.cls-77{fill:url(#linear-gradient-33);}.cls-78{fill:url(#linear-gradient-34);}.cls-79{fill:url(#linear-gradient-35);}.cls-80{fill:url(#radial-gradient-29);}.cls-81{fill:url(#radial-gradient-30);}.cls-82{fill:url(#radial-gradient-31);}.cls-83{fill:url(#radial-gradient-32);}.cls-84{fill:url(#linear-gradient-36);}.cls-85{fill:url(#linear-gradient-37);}.cls-86{fill:url(#linear-gradient-38);}.cls-87{fill:url(#linear-gradient-39);}.cls-88{fill:url(#linear-gradient-40);}.cls-89{fill:url(#radial-gradient-33);}.cls-90{fill:url(#radial-gradient-34);}.cls-91{fill:url(#radial-gradient-35);}.cls-92{fill:url(#radial-gradient-36);}.cls-93{fill:url(#linear-gradient-41);}.cls-94{fill:url(#linear-gradient-42);}.cls-95{fill:url(#linear-gradient-43);}.cls-96{fill:url(#linear-gradient-44);}.cls-97{fill:url(#linear-gradient-45);}.cls-98{fill:url(#radial-gradient-37);}.cls-99{fill:url(#radial-gradient-38);}.cls-100{fill:url(#radial-gradient-39);}.cls-101{fill:url(#radial-gradient-40);}.cls-102{fill:url(#linear-gradient-46);}.cls-103{fill:url(#linear-gradient-47);}.cls-104{fill:url(#linear-gradient-48);}.cls-105{fill:url(#linear-gradient-49);}.cls-106{fill:url(#linear-gradient-50);}.cls-107{fill:url(#radial-gradient-41);}.cls-108{fill:url(#radial-gradient-42);}.cls-109{fill:url(#radial-gradient-43);}.cls-110{fill:url(#radial-gradient-44);}.cls-111{fill:url(#linear-gradient-51);}.cls-112{fill:url(#linear-gradient-52);}.cls-113{fill:url(#linear-gradient-53);}.cls-114{fill:url(#linear-gradient-54);}.cls-115{fill:url(#linear-gradient-55);}.cls-116{fill:url(#radial-gradient-45);}.cls-117{fill:url(#radial-gradient-46);}.cls-118{fill:url(#radial-gradient-47);}.cls-119{fill:url(#radial-gradient-48);}.cls-120{fill:url(#linear-gradient-56);}.cls-121{fill:url(#linear-gradient-57);}.cls-122{fill:url(#linear-gradient-58);}.cls-123{fill:url(#linear-gradient-59);}.cls-124{fill:url(#linear-gradient-60);}.cls-125{fill:url(#radial-gradient-49);}.cls-126{fill:url(#radial-gradient-50);}.cls-127{fill:url(#radial-gradient-51);}.cls-128{fill:url(#radial-gradient-52);}.cls-129{fill:url(#linear-gradient-61);}.cls-130{fill:url(#linear-gradient-62);}.cls-131{fill:url(#linear-gradient-63);}.cls-132{fill:url(#linear-gradient-64);}.cls-133{fill:url(#linear-gradient-65);}.cls-134{stroke:#000;stroke-miterlimit:10;opacity:0.3;}</style><radialGradient id="radial-gradient" cx="287.9" cy="-710.92" r="115.75" gradientTransform="matrix(-0.51, 0.79, -0.91, -0.44, 743.9, -260.43)" gradientUnits="userSpaceOnUse"><stop offset="0.56" stop-color="#fff"/><stop offset="0.64" stop-color="#fefbfd"/><stop offset="0.71" stop-color="#fbf0f6"/><stop offset="0.78" stop-color="#f7ddeb"/><stop offset="0.8" stop-color="#f5d5e6"/><stop offset="0.83" stop-color="#efcbe1"/><stop offset="0.88" stop-color="#e0b1d3"/><stop offset="0.94" stop-color="#c787bc"/><stop offset="1" stop-color="#aa55a1"/></radialGradient><radialGradient id="radial-gradient-2" cx="25.22" cy="534.83" r="115.75" gradientTransform="matrix(0.51, -0.79, 0.91, 0.44, 794.95, 10.14)" gradientUnits="userSpaceOnUse"><stop offset="0.56" stop-color="#fff"/><stop offset="0.6" stop-color="#fbfeff"/><stop offset="0.64" stop-color="#f0fcff"/><stop offset="0.67" stop-color="#ddf9ff"/><stop offset="0.71" stop-color="#c3f4ff"/><stop offset="0.75" stop-color="#a1eeff"/><stop offset="0.78" stop-color="#78e6ff"/><stop offset="0.8" stop-color="#5ae1ff"/><stop offset="0.83" stop-color="#56d7f8"/><stop offset="0.87" stop-color="#4bbde4"/><stop offset="0.92" stop-color="#3993c3"/><stop offset="0.98" stop-color="#215997"/><stop offset="1" stop-color="#194789"/></radialGradient><radialGradient id="radial-gradient-3" cx="25.22" cy="534.83" r="115.75" gradientTransform="matrix(0.51, -0.79, 0.91, 0.44, 794.95, 10.14)" gradientUnits="userSpaceOnUse"><stop offset="0.23" stop-color="#fff"/><stop offset="0.31" stop-color="#f0fcff"/><stop offset="0.46" stop-color="#c9f5ff"/><stop offset="0.66" stop-color="#8beaff"/><stop offset="0.8" stop-color="#5ae1ff"/></radialGradient><radialGradient id="radial-gradient-4" cx="553.65" cy="389.4" r="66.07" gradientTransform="translate(692.06 -98.83) scale(1.05 0.91)" gradientUnits="userSpaceOnUse"><stop offset="0.82" stop-color="#fff"/><stop offset="0.85" stop-color="#fcfeff"/><stop offset="0.87" stop-color="#f1fbfe"/><stop offset="0.89" stop-color="#e0f5fc"/><stop offset="0.91" stop-color="#c8edfa"/><stop offset="0.93" stop-color="#a8e3f7"/><stop offset="0.95" stop-color="#82d7f3"/><stop offset="0.97" stop-color="#54c9ef"/><stop offset="0.99" stop-color="#20b8ea"/><stop offset="1" stop-color="#00aee7"/></radialGradient><linearGradient id="linear-gradient" x1="1326.05" y1="318.85" x2="1234.54" y2="210.06" gradientUnits="userSpaceOnUse"><stop offset="0" stop-color="#fff"/><stop offset="0.31" stop-color="#969696"/><stop offset="0.57" stop-color="#454545"/><stop offset="0.75" stop-color="#131313"/><stop offset="0.84"/></linearGradient><linearGradient id="linear-gradient-2" x1="1220.79" y1="309.75" x2="1276.42" y2="250.55" xlink:href="#linear-gradient"/><linearGradient id="linear-gradient-3" x1="144.17" y1="57.48" x2="113.03" y2="98.35" xlink:href="#linear-gradient"/><linearGradient id="linear-gradient-4" x1="133.29" y1="49.61" x2="122.92" y2="63.23" xlink:href="#linear-gradient"/><linearGradient id="linear-gradient-5" x1="128.05" y1="46.89" x2="124.75" y2="51.22" xlink:href="#linear-gradient"/><radialGradient id="radial-gradient-5" cx="337.54" cy="-684.84" r="75.46" xlink:href="#radial-gradient"/><radialGradient id="radial-gradient-6" cx="-51.27" cy="504.76" r="75.46" xlink:href="#radial-gradient-2"/><radialGradient id="radial-gradient-7" cx="-51.27" cy="504.76" r="75.46" xlink:href="#radial-gradient-3"/><radialGradient id="radial-gradient-8" cx="498.4" cy="430.77" r="43.08" xlink:href="#radial-gradient-4"/><linearGradient id="linear-gradient-6" x1="1249.37" y1="334.38" x2="1189.71" y2="263.46" xlink:href="#linear-gradient"/><linearGradient id="linear-gradient-7" x1="1180.75" y1="328.45" x2="1217.01" y2="289.85" xlink:href="#linear-gradient"/><linearGradient id="linear-gradient-8" x1="71.06" y1="106.9" x2="50.77" y2="133.54" xlink:href="#linear-gradient"/><linearGradient id="linear-gradient-9" x1="63.97" y1="101.77" x2="57.21" y2="110.65" xlink:href="#linear-gradient"/><linearGradient id="linear-gradient-10" x1="60.55" y1="100" x2="58.4" y2="102.82" xlink:href="#linear-gradient"/><radialGradient id="radial-gradient-9" cx="278.34" cy="-799.12" r="54.18" xlink:href="#radial-gradient"/><radialGradient id="radial-gradient-10" cx="-6.26" cy="616.92" r="54.18" xlink:href="#radial-gradient-2"/><radialGradient id="radial-gradient-11" cx="-6.26" cy="616.92" r="54.18" xlink:href="#radial-gradient-3"/><radialGradient id="radial-gradient-12" cx="622.66" cy="440.48" r="30.93" xlink:href="#radial-gradient-4"/><linearGradient id="linear-gradient-11" x1="1369.61" y1="331.53" x2="1326.77" y2="280.61" xlink:href="#linear-gradient"/><linearGradient id="linear-gradient-12" x1="1320.34" y1="327.27" x2="1346.38" y2="299.56" xlink:href="#linear-gradient"/><linearGradient id="linear-gradient-13" x1="193.19" y1="121.96" x2="178.61" y2="141.08" xlink:href="#linear-gradient"/><linearGradient id="linear-gradient-14" x1="188.1" y1="118.27" x2="183.24" y2="124.64" xlink:href="#linear-gradient"/><linearGradient id="linear-gradient-15" x1="185.64" y1="117" x2="184.1" y2="119.02" xlink:href="#linear-gradient"/><radialGradient id="radial-gradient-13" cx="214.31" cy="-770.3" r="40.5" xlink:href="#radial-gradient"/><radialGradient id="radial-gradient-14" cx="48.65" cy="586.74" r="40.5" xlink:href="#radial-gradient-2"/><radialGradient id="radial-gradient-15" cx="48.65" cy="586.74" r="40.5" xlink:href="#radial-gradient-3"/><radialGradient id="radial-gradient-16" cx="625.89" cy="374.17" r="23.12" xlink:href="#radial-gradient-4"/><linearGradient id="linear-gradient-16" x1="1366.61" y1="263.72" x2="1334.6" y2="225.65" xlink:href="#linear-gradient"/><linearGradient id="linear-gradient-17" x1="1329.79" y1="260.53" x2="1349.25" y2="239.82" xlink:href="#linear-gradient"/><linearGradient id="linear-gradient-18" x1="191.41" y1="65.65" x2="180.51" y2="79.95" xlink:href="#linear-gradient"/><linearGradient id="linear-gradient-19" x1="187.6" y1="62.89" x2="183.97" y2="67.66" xlink:href="#linear-gradient"/><linearGradient id="linear-gradient-20" x1="185.77" y1="61.94" x2="184.61" y2="63.46" xlink:href="#linear-gradient"/><radialGradient id="radial-gradient-17" cx="243.31" cy="-717.07" r="40.5" xlink:href="#radial-gradient"/><radialGradient id="radial-gradient-18" cx="19.65" cy="533.52" r="40.5" xlink:href="#radial-gradient-2"/><radialGradient id="radial-gradient-19" cx="19.65" cy="533.52" r="40.5" xlink:href="#radial-gradient-3"/><radialGradient id="radial-gradient-20" cx="565.28" cy="373.54" r="23.12" xlink:href="#radial-gradient-4"/><linearGradient id="linear-gradient-21" x1="1303.12" y1="263.15" x2="1271.1" y2="225.08" xlink:href="#linear-gradient"/><linearGradient id="linear-gradient-22" x1="1266.29" y1="259.96" x2="1285.76" y2="239.25" xlink:href="#linear-gradient"/><linearGradient id="linear-gradient-23" x1="127.91" y1="65.08" x2="117.02" y2="79.38" xlink:href="#linear-gradient"/><linearGradient id="linear-gradient-24" x1="124.11" y1="62.32" x2="120.48" y2="67.09" xlink:href="#linear-gradient"/><linearGradient id="linear-gradient-25" x1="122.27" y1="61.37" x2="121.12" y2="62.89" xlink:href="#linear-gradient"/><radialGradient id="radial-gradient-21" cx="151.05" cy="-718.49" r="18.75" xlink:href="#radial-gradient"/><radialGradient id="radial-gradient-22" cx="97.41" cy="532.78" r="18.75" xlink:href="#radial-gradient-2"/><radialGradient id="radial-gradient-23" cx="97.41" cy="532.78" r="18.75" xlink:href="#radial-gradient-3"/><radialGradient id="radial-gradient-24" cx="607.02" cy="299.49" r="10.7" xlink:href="#radial-gradient-4"/><linearGradient id="linear-gradient-26" x1="1336.7" y1="183.86" x2="1321.88" y2="166.23" xlink:href="#linear-gradient"/><linearGradient id="linear-gradient-27" x1="1319.65" y1="182.39" x2="1328.66" y2="172.79" xlink:href="#linear-gradient"/><linearGradient id="linear-gradient-28" x1="163.42" y1="4.09" x2="158.38" y2="10.7" xlink:href="#linear-gradient"/><linearGradient id="linear-gradient-29" x1="161.66" y1="2.81" x2="159.98" y2="5.02" xlink:href="#linear-gradient"/><linearGradient id="linear-gradient-30" x1="160.81" y1="2.37" x2="160.28" y2="3.07" xlink:href="#linear-gradient"/><radialGradient id="radial-gradient-25" cx="327.31" cy="-686.06" r="18.75" xlink:href="#radial-gradient"/><radialGradient id="radial-gradient-26" cx="-78.84" cy="500.34" r="18.75" xlink:href="#radial-gradient-2"/><radialGradient id="radial-gradient-27" cx="-78.84" cy="500.34" r="18.75" xlink:href="#radial-gradient-3"/><radialGradient id="radial-gradient-28" cx="492.78" cy="437.56" r="10.7" xlink:href="#radial-gradient-4"/><linearGradient id="linear-gradient-31" x1="1217.02" y1="309.44" x2="1202.2" y2="291.81" xlink:href="#linear-gradient"/><linearGradient id="linear-gradient-32" x1="1199.97" y1="307.97" x2="1208.98" y2="298.38" xlink:href="#linear-gradient"/><linearGradient id="linear-gradient-33" x1="43.74" y1="129.67" x2="38.7" y2="136.29" xlink:href="#linear-gradient"/><linearGradient id="linear-gradient-34" x1="41.98" y1="128.39" x2="40.3" y2="130.6" xlink:href="#linear-gradient"/><linearGradient id="linear-gradient-35" x1="41.13" y1="127.95" x2="40.6" y2="128.65" xlink:href="#linear-gradient"/><radialGradient id="radial-gradient-29" cx="334.92" cy="-746.5" r="18.75" xlink:href="#radial-gradient"/><radialGradient id="radial-gradient-30" cx="-86.46" cy="560.78" r="18.75" xlink:href="#radial-gradient-2"/><radialGradient id="radial-gradient-31" cx="-86.46" cy="560.78" r="18.75" xlink:href="#radial-gradient-3"/><radialGradient id="radial-gradient-32" cx="541.83" cy="473.67" r="10.7" xlink:href="#radial-gradient-4"/><linearGradient id="linear-gradient-36" x1="1268.41" y1="342.29" x2="1253.59" y2="324.67" xlink:href="#linear-gradient"/><linearGradient id="linear-gradient-37" x1="1251.36" y1="340.82" x2="1260.37" y2="331.23" xlink:href="#linear-gradient"/><linearGradient id="linear-gradient-38" x1="95.13" y1="162.52" x2="90.09" y2="169.14" xlink:href="#linear-gradient"/><linearGradient id="linear-gradient-39" x1="93.37" y1="161.24" x2="91.69" y2="163.45" xlink:href="#linear-gradient"/><linearGradient id="linear-gradient-40" x1="92.52" y1="160.8" x2="91.99" y2="161.5" xlink:href="#linear-gradient"/><radialGradient id="radial-gradient-33" cx="204.64" cy="-640.3" r="18.75" xlink:href="#radial-gradient"/><radialGradient id="radial-gradient-34" cx="43.83" cy="454.58" r="18.75" xlink:href="#radial-gradient-2"/><radialGradient id="radial-gradient-35" cx="43.83" cy="454.58" r="18.75" xlink:href="#radial-gradient-3"/><radialGradient id="radial-gradient-36" cx="512.63" cy="308.15" r="10.7" xlink:href="#radial-gradient-4"/><linearGradient id="linear-gradient-41" x1="1237.82" y1="191.74" x2="1222.99" y2="174.11" xlink:href="#linear-gradient"/><linearGradient id="linear-gradient-42" x1="1220.77" y1="190.26" x2="1229.78" y2="180.67" xlink:href="#linear-gradient"/><linearGradient id="linear-gradient-43" x1="64.54" y1="11.96" x2="59.49" y2="18.58" xlink:href="#linear-gradient"/><linearGradient id="linear-gradient-44" x1="62.78" y1="10.69" x2="61.1" y2="12.89" xlink:href="#linear-gradient"/><linearGradient id="linear-gradient-45" x1="61.93" y1="10.24" x2="61.39" y2="10.95" xlink:href="#linear-gradient"/><radialGradient id="radial-gradient-37" cx="261.63" cy="-636.23" r="9.92" xlink:href="#radial-gradient"/><radialGradient id="radial-gradient-38" cx="-19.05" cy="449.64" r="9.92" xlink:href="#radial-gradient-2"/><radialGradient id="radial-gradient-39" cx="-19.05" cy="449.64" r="9.92" xlink:href="#radial-gradient-3"/><radialGradient id="radial-gradient-40" cx="479.47" cy="358.28" r="5.66" xlink:href="#radial-gradient-4"/><linearGradient id="linear-gradient-46" x1="1198.97" y1="232.49" x2="1191.13" y2="223.17" xlink:href="#linear-gradient"/><linearGradient id="linear-gradient-47" x1="1189.95" y1="231.71" x2="1194.71" y2="226.64" xlink:href="#linear-gradient"/><linearGradient id="linear-gradient-48" x1="26.47" y1="60.14" x2="23.8" y2="63.65" xlink:href="#linear-gradient"/><linearGradient id="linear-gradient-49" x1="25.54" y1="59.47" x2="24.65" y2="60.64" xlink:href="#linear-gradient"/><linearGradient id="linear-gradient-50" x1="25.09" y1="59.24" x2="24.81" y2="59.61" xlink:href="#linear-gradient"/><radialGradient id="radial-gradient-41" cx="298.62" cy="-652.98" r="9.92" xlink:href="#radial-gradient"/><radialGradient id="radial-gradient-42" cx="-56.04" cy="466.39" r="9.92" xlink:href="#radial-gradient-2"/><radialGradient id="radial-gradient-43" cx="-56.04" cy="466.39" r="9.92" xlink:href="#radial-gradient-3"/><radialGradient id="radial-gradient-44" cx="476.07" cy="398.74" r="5.66" xlink:href="#radial-gradient-4"/><linearGradient id="linear-gradient-51" x1="1195.39" y1="269.29" x2="1187.55" y2="259.97" xlink:href="#linear-gradient"/><linearGradient id="linear-gradient-52" x1="1186.38" y1="268.51" x2="1191.14" y2="263.44" xlink:href="#linear-gradient"/><linearGradient id="linear-gradient-53" x1="22.9" y1="96.95" x2="20.23" y2="100.45" xlink:href="#linear-gradient"/><linearGradient id="linear-gradient-54" x1="21.97" y1="96.27" x2="21.08" y2="97.44" xlink:href="#linear-gradient"/><linearGradient id="linear-gradient-55" x1="21.52" y1="96.04" x2="21.24" y2="96.41" xlink:href="#linear-gradient"/><radialGradient id="radial-gradient-45" cx="191.97" cy="-687.17" r="9.92" xlink:href="#radial-gradient"/><radialGradient id="radial-gradient-46" cx="50.61" cy="500.58" r="9.92" xlink:href="#radial-gradient-2"/><radialGradient id="radial-gradient-47" cx="50.61" cy="500.58" r="9.92" xlink:href="#radial-gradient-3"/><radialGradient id="radial-gradient-48" cx="557.91" cy="322.3" r="5.66" xlink:href="#radial-gradient-4"/><linearGradient id="linear-gradient-56" x1="1281.13" y1="199.76" x2="1273.29" y2="190.44" xlink:href="#linear-gradient"/><linearGradient id="linear-gradient-57" x1="1272.11" y1="198.98" x2="1276.88" y2="193.91" xlink:href="#linear-gradient"/><linearGradient id="linear-gradient-58" x1="108.64" y1="27.42" x2="105.97" y2="30.92" xlink:href="#linear-gradient"/><linearGradient id="linear-gradient-59" x1="107.7" y1="26.74" x2="106.82" y2="27.91" xlink:href="#linear-gradient"/><linearGradient id="linear-gradient-60" x1="107.26" y1="26.51" x2="106.97" y2="26.88" xlink:href="#linear-gradient"/><radialGradient id="radial-gradient-49" cx="242.35" cy="-773.03" r="9.92" xlink:href="#radial-gradient"/><radialGradient id="radial-gradient-50" cx="0.23" cy="586.44" r="9.92" xlink:href="#radial-gradient-2"/><radialGradient id="radial-gradient-51" cx="0.23" cy="586.44" r="9.92" xlink:href="#radial-gradient-3"/><radialGradient id="radial-gradient-52" cx="608.31" cy="408.14" r="5.66" xlink:href="#radial-gradient-4"/><linearGradient id="linear-gradient-61" x1="1333.93" y1="277.84" x2="1326.09" y2="268.52" xlink:href="#linear-gradient"/><linearGradient id="linear-gradient-62" x1="1324.91" y1="277.06" x2="1329.68" y2="271.99" xlink:href="#linear-gradient"/><linearGradient id="linear-gradient-63" x1="161.44" y1="105.5" x2="158.77" y2="109" xlink:href="#linear-gradient"/><linearGradient id="linear-gradient-64" x1="160.51" y1="104.82" x2="159.62" y2="105.99" xlink:href="#linear-gradient"/><linearGradient id="linear-gradient-65" x1="160.06" y1="104.59" x2="159.77" y2="104.96" xlink:href="#linear-gradient"/></defs><title>bubble</title><g class="cls-1"><g id="objects"><ellipse class="cls-2" cx="102.17" cy="119.38" rx="47.95" ry="5.35"/><path class="cls-3" d="M1241.2,283.38h-9.39s-7.35-2.89-5.6-4.77,4.94-.32,4.94-.32-1.42-5.54,1.2-5.67,4.81,3.69,4.81,3.69,1.46-3.82,4-2.9S1241.2,283.38,1241.2,283.38Z" transform="translate(-1171.62 -164)"/><path class="cls-3" d="M1304.62,283.38H1314s7.35-2.89,5.6-4.77-4.94-.32-4.94-.32,1.42-5.54-1.2-5.67-4.81,3.69-4.81,3.69-1.46-3.82-4-2.9S1304.62,283.38,1304.62,283.38Z" transform="translate(-1171.62 -164)"/><polygon class="cls-4" points="107.38 53.03 131.9 85.08 150.13 85.08 125.46 52.84 107.38 53.03"/><polygon class="cls-5" points="141.28 85.08 133.46 119.38 69.14 119.38 61.31 85.08 83.08 56.63 119.52 56.63 119.64 56.79 141.28 85.08"/><polygon class="cls-6" points="141.28 85.08 133.46 119.38 105.82 119.38 98 85.08 119.64 56.79 141.28 85.08"/><polygon class="cls-7" points="125.51 53.03 100.98 85.08 53.28 85.08 77.94 52.84 125.51 53.03"/><path class="cls-8" d="M1231.84,246.09a5.1,5.1,0,0,1-3.47,2.11c-1.07,0-1.27-.94-.42-2.11a5.1,5.1,0,0,1,3.47-2.11C1232.49,244,1232.68,244.93,1231.84,246.09Z" transform="translate(-1171.62 -164)"/><path class="cls-9" d="M1238.55,246.09a5.1,5.1,0,0,1-3.47,2.11c-1.07,0-1.27-.94-.42-2.11a5.1,5.1,0,0,1,3.47-2.11C1239.2,244,1239.39,244.93,1238.55,246.09Z" transform="translate(-1171.62 -164)"/><path class="cls-10" d="M1245.25,246.09a5.1,5.1,0,0,1-3.47,2.11c-1.07,0-1.27-.94-.42-2.11a5.1,5.1,0,0,1,3.47-2.11C1245.91,244,1246.1,244.93,1245.25,246.09Z" transform="translate(-1171.62 -164)"/><path class="cls-11" d="M1252,246.09a5.1,5.1,0,0,1-3.47,2.11c-1.07,0-1.27-.94-.42-2.11a5.1,5.1,0,0,1,3.47-2.11C1252.61,244,1252.8,244.93,1252,246.09Z" transform="translate(-1171.62 -164)"/><path class="cls-12" d="M1258.67,246.09a5.1,5.1,0,0,1-3.47,2.11c-1.07,0-1.27-.94-.42-2.11a5.1,5.1,0,0,1,3.47-2.11C1259.32,244,1259.51,244.93,1258.67,246.09Z" transform="translate(-1171.62 -164)"/><path class="cls-13" d="M1265.38,246.09a5.1,5.1,0,0,1-3.47,2.11c-1.07,0-1.27-.94-.42-2.11A5.1,5.1,0,0,1,1265,244C1266,244,1266.22,244.93,1265.38,246.09Z" transform="translate(-1171.62 -164)"/><path class="cls-14" d="M1272.08,246.09a5.1,5.1,0,0,1-3.47,2.11c-1.07,0-1.27-.94-.42-2.11a5.1,5.1,0,0,1,3.47-2.11C1272.73,244,1272.92,244.93,1272.08,246.09Z" transform="translate(-1171.62 -164)"/><path class="cls-9" d="M1235.94,241a5.1,5.1,0,0,1-3.47,2.11c-1.07,0-1.27-.94-.42-2.11a5.1,5.1,0,0,1,3.47-2.11C1236.59,238.88,1236.78,239.83,1235.94,241Z" transform="translate(-1171.62 -164)"/><path class="cls-10" d="M1242.64,241a5.1,5.1,0,0,1-3.47,2.11c-1.07,0-1.27-.94-.42-2.11a5.1,5.1,0,0,1,3.47-2.11C1243.29,238.88,1243.48,239.83,1242.64,241Z" transform="translate(-1171.62 -164)"/><path class="cls-11" d="M1249.35,241a5.1,5.1,0,0,1-3.47,2.11c-1.07,0-1.27-.94-.42-2.11a5.1,5.1,0,0,1,3.47-2.11C1250,238.88,1250.19,239.83,1249.35,241Z" transform="translate(-1171.62 -164)"/><path class="cls-12" d="M1256.06,241a5.1,5.1,0,0,1-3.47,2.11c-1.07,0-1.27-.94-.42-2.11a5.1,5.1,0,0,1,3.47-2.11C1256.71,238.88,1256.9,239.83,1256.06,241Z" transform="translate(-1171.62 -164)"/><path class="cls-13" d="M1262.76,241a5.1,5.1,0,0,1-3.47,2.11c-1.07,0-1.27-.94-.42-2.11a5.1,5.1,0,0,1,3.47-2.11C1263.41,238.88,1263.6,239.83,1262.76,241Z" transform="translate(-1171.62 -164)"/><path class="cls-14" d="M1269.47,241a5.1,5.1,0,0,1-3.47,2.11c-1.07,0-1.27-.94-.42-2.11a5.1,5.1,0,0,1,3.47-2.11C1270.12,238.88,1270.31,239.83,1269.47,241Z" transform="translate(-1171.62 -164)"/><path class="cls-8" d="M1276.18,241a5.1,5.1,0,0,1-3.47,2.11c-1.07,0-1.27-.94-.42-2.11a5.1,5.1,0,0,1,3.47-2.11C1276.83,238.88,1277,239.83,1276.18,241Z" transform="translate(-1171.62 -164)"/><path class="cls-10" d="M1240,235.89a5.1,5.1,0,0,1-3.47,2.11c-1.07,0-1.27-.94-.42-2.11a5.1,5.1,0,0,1,3.47-2.11C1240.68,233.78,1240.87,234.73,1240,235.89Z" transform="translate(-1171.62 -164)"/><path class="cls-11" d="M1246.74,235.89a5.1,5.1,0,0,1-3.47,2.11c-1.07,0-1.27-.94-.42-2.11a5.1,5.1,0,0,1,3.47-2.11C1247.39,233.78,1247.58,234.73,1246.74,235.89Z" transform="translate(-1171.62 -164)"/><path class="cls-10" d="M1253.45,235.89A5.1,5.1,0,0,1,1250,238c-1.07,0-1.27-.94-.42-2.11a5.1,5.1,0,0,1,3.47-2.11C1254.1,233.78,1254.29,234.73,1253.45,235.89Z" transform="translate(-1171.62 -164)"/><path class="cls-11" d="M1260.15,235.89a5.1,5.1,0,0,1-3.47,2.11c-1.07,0-1.27-.94-.42-2.11a5.1,5.1,0,0,1,3.47-2.11C1260.8,233.78,1261,234.73,1260.15,235.89Z" transform="translate(-1171.62 -164)"/><path class="cls-14" d="M1266.86,235.89a5.1,5.1,0,0,1-3.47,2.11c-1.07,0-1.27-.94-.42-2.11a5.1,5.1,0,0,1,3.47-2.11C1267.51,233.78,1267.7,234.73,1266.86,235.89Z" transform="translate(-1171.62 -164)"/><path class="cls-8" d="M1273.57,235.89a5.1,5.1,0,0,1-3.47,2.11c-1.07,0-1.27-.94-.42-2.11a5.1,5.1,0,0,1,3.47-2.11C1274.22,233.78,1274.41,234.73,1273.57,235.89Z" transform="translate(-1171.62 -164)"/><path class="cls-9" d="M1280.27,235.89a5.1,5.1,0,0,1-3.47,2.11c-1.07,0-1.27-.94-.42-2.11a5.1,5.1,0,0,1,3.47-2.11C1280.92,233.78,1281.11,234.73,1280.27,235.89Z" transform="translate(-1171.62 -164)"/><path class="cls-11" d="M1244.13,230.79a5.1,5.1,0,0,1-3.47,2.11c-1.07,0-1.27-.94-.42-2.11a5.1,5.1,0,0,1,3.47-2.11C1244.78,228.68,1245,229.63,1244.13,230.79Z" transform="translate(-1171.62 -164)"/><path class="cls-12" d="M1250.83,230.79a5.1,5.1,0,0,1-3.47,2.11c-1.07,0-1.27-.94-.42-2.11a5.1,5.1,0,0,1,3.47-2.11C1251.49,228.68,1251.68,229.63,1250.83,230.79Z" transform="translate(-1171.62 -164)"/><path class="cls-10" d="M1257.54,230.79a5.1,5.1,0,0,1-3.47,2.11c-1.07,0-1.27-.94-.42-2.11a5.1,5.1,0,0,1,3.47-2.11C1258.19,228.68,1258.38,229.63,1257.54,230.79Z" transform="translate(-1171.62 -164)"/><path class="cls-14" d="M1264.25,230.79a5.1,5.1,0,0,1-3.47,2.11c-1.07,0-1.27-.94-.42-2.11a5.1,5.1,0,0,1,3.47-2.11C1264.9,228.68,1265.09,229.63,1264.25,230.79Z" transform="translate(-1171.62 -164)"/><path class="cls-8" d="M1271,230.79a5.1,5.1,0,0,1-3.47,2.11c-1.07,0-1.27-.94-.42-2.11a5.1,5.1,0,0,1,3.47-2.11C1271.61,228.68,1271.8,229.63,1271,230.79Z" transform="translate(-1171.62 -164)"/><path class="cls-9" d="M1277.66,230.79a5.1,5.1,0,0,1-3.47,2.11c-1.07,0-1.27-.94-.42-2.11a5.1,5.1,0,0,1,3.47-2.11C1278.31,228.68,1278.5,229.63,1277.66,230.79Z" transform="translate(-1171.62 -164)"/><path class="cls-10" d="M1284.37,230.79a5.1,5.1,0,0,1-3.47,2.11c-1.07,0-1.27-.94-.42-2.11a5.1,5.1,0,0,1,3.47-2.11C1285,228.68,1285.21,229.63,1284.37,230.79Z" transform="translate(-1171.62 -164)"/><path class="cls-12" d="M1248.22,225.69a5.1,5.1,0,0,1-3.47,2.11c-1.07,0-1.27-.94-.42-2.11a5.1,5.1,0,0,1,3.47-2.11C1248.87,223.58,1249.06,224.53,1248.22,225.69Z" transform="translate(-1171.62 -164)"/><path class="cls-9" d="M1254.93,225.69a5.1,5.1,0,0,1-3.47,2.11c-1.07,0-1.27-.94-.42-2.11a5.1,5.1,0,0,1,3.47-2.11C1255.58,223.58,1255.77,224.53,1254.93,225.69Z" transform="translate(-1171.62 -164)"/><path class="cls-10" d="M1261.64,225.69a5.1,5.1,0,0,1-3.47,2.11c-1.07,0-1.27-.94-.42-2.11a5.1,5.1,0,0,1,3.47-2.11C1262.29,223.58,1262.48,224.53,1261.64,225.69Z" transform="translate(-1171.62 -164)"/><path class="cls-8" d="M1268.34,225.69a5.1,5.1,0,0,1-3.47,2.11c-1.07,0-1.27-.94-.42-2.11a5.1,5.1,0,0,1,3.47-2.11C1269,223.58,1269.18,224.53,1268.34,225.69Z" transform="translate(-1171.62 -164)"/><path class="cls-9" d="M1275.05,225.69a5.1,5.1,0,0,1-3.47,2.11c-1.07,0-1.27-.94-.42-2.11a5.1,5.1,0,0,1,3.47-2.11C1275.7,223.58,1275.89,224.53,1275.05,225.69Z" transform="translate(-1171.62 -164)"/><path class="cls-10" d="M1281.76,225.69a5.1,5.1,0,0,1-3.47,2.11c-1.07,0-1.27-.94-.42-2.11a5.1,5.1,0,0,1,3.47-2.11C1282.41,223.58,1282.6,224.53,1281.76,225.69Z" transform="translate(-1171.62 -164)"/><path class="cls-11" d="M1288.47,225.69a5.1,5.1,0,0,1-3.47,2.11c-1.07,0-1.27-.94-.42-2.11a5.1,5.1,0,0,1,3.47-2.11C1289.12,223.58,1289.31,224.53,1288.47,225.69Z" transform="translate(-1171.62 -164)"/><path class="cls-13" d="M1252.32,220.59a5.1,5.1,0,0,1-3.47,2.11c-1.07,0-1.27-.94-.42-2.11a5.1,5.1,0,0,1,3.47-2.11C1253,218.48,1253.16,219.43,1252.32,220.59Z" transform="translate(-1171.62 -164)"/><path class="cls-14" d="M1259,220.59a5.1,5.1,0,0,1-3.47,2.11c-1.07,0-1.27-.94-.42-2.11a5.1,5.1,0,0,1,3.47-2.11C1259.68,218.48,1259.87,219.43,1259,220.59Z" transform="translate(-1171.62 -164)"/><path class="cls-8" d="M1265.73,220.59a5.1,5.1,0,0,1-3.47,2.11c-1.07,0-1.27-.94-.42-2.11a5.1,5.1,0,0,1,3.47-2.11C1266.38,218.48,1266.57,219.43,1265.73,220.59Z" transform="translate(-1171.62 -164)"/><path class="cls-9" d="M1272.44,220.59a5.1,5.1,0,0,1-3.47,2.11c-1.07,0-1.27-.94-.42-2.11a5.1,5.1,0,0,1,3.47-2.11C1273.09,218.48,1273.28,219.43,1272.44,220.59Z" transform="translate(-1171.62 -164)"/><path class="cls-10" d="M1279.15,220.59a5.1,5.1,0,0,1-3.47,2.11c-1.07,0-1.27-.94-.42-2.11a5.1,5.1,0,0,1,3.47-2.11C1279.8,218.48,1280,219.43,1279.15,220.59Z" transform="translate(-1171.62 -164)"/><path class="cls-11" d="M1285.85,220.59a5.1,5.1,0,0,1-3.47,2.11c-1.07,0-1.27-.94-.42-2.11a5.1,5.1,0,0,1,3.47-2.11C1286.5,218.48,1286.69,219.43,1285.85,220.59Z" transform="translate(-1171.62 -164)"/><path class="cls-12" d="M1292.56,220.59a5.1,5.1,0,0,1-3.47,2.11c-1.07,0-1.27-.94-.42-2.11a5.1,5.1,0,0,1,3.47-2.11C1293.21,218.48,1293.4,219.43,1292.56,220.59Z" transform="translate(-1171.62 -164)"/><polygon class="cls-4" points="53.28 85.08 53.28 87.24 101.3 87.24 125.51 55.96 147.25 85.08 141.28 85.08 140.81 87.24 150.13 87.24 150.13 85.08 125.51 53.03 100.98 85.08 53.28 85.08"/><polygon class="cls-9" points="98.81 109.4 72.56 109.4 69.43 96.55 95.67 96.55 98.81 109.4"/><polygon class="cls-12" points="83.08 102.37 72.44 102.37 71.29 97.63 81.92 97.63 83.08 102.37"/><polygon class="cls-12" points="95.5 102.37 84.86 102.37 83.71 97.63 94.34 97.63 95.5 102.37"/><polygon class="cls-12" points="84.53 108.32 73.89 108.32 72.74 103.58 83.37 103.58 84.53 108.32"/><polygon class="cls-12" points="96.94 108.32 86.31 108.32 85.16 103.58 95.79 103.58 96.94 108.32"/><polygon class="cls-14" points="70.8 119.38 68.68 119.38 61.41 87.24 63.52 87.24 70.8 119.38"/><polygon class="cls-10" points="64.24 90.4 62.49 92.02 61.95 89.65 63.7 88.03 64.24 90.4"/><polygon class="cls-10" points="65.44 95.71 63.69 97.33 63.15 94.96 64.91 93.34 65.44 95.71"/><polygon class="cls-10" points="66.64 101.03 64.89 102.65 64.36 100.28 66.11 98.66 66.64 101.03"/><polygon class="cls-10" points="67.85 106.34 66.1 107.97 65.56 105.59 67.31 103.97 67.85 106.34"/><polygon class="cls-10" points="69.05 111.66 67.3 113.28 66.76 110.91 68.52 109.29 69.05 111.66"/><polygon class="cls-10" points="70.25 116.98 68.5 118.6 67.97 116.22 69.72 114.61 70.25 116.98"/><polygon class="cls-14" points="132.64 119.38 134.9 119.38 142.66 85.08 140.4 85.08 132.64 119.38"/><polygon class="cls-10" points="139.64 88.45 141.51 90.18 142.09 87.65 140.22 85.92 139.64 88.45"/><polygon class="cls-10" points="138.36 94.12 140.23 95.85 140.8 93.32 138.93 91.59 138.36 94.12"/><polygon class="cls-10" points="137.07 99.8 138.94 101.52 139.52 98.99 137.65 97.27 137.07 99.8"/><polygon class="cls-10" points="135.79 105.47 137.66 107.2 138.23 104.67 136.36 102.94 135.79 105.47"/><polygon class="cls-10" points="134.5 111.14 136.38 112.87 136.95 110.34 135.08 108.61 134.5 111.14"/><polygon class="cls-10" points="133.22 116.81 135.09 118.54 135.66 116.01 133.79 114.28 133.22 116.81"/><polygon class="cls-14" points="106.87 119.38 104.75 119.38 97.48 87.24 99.6 87.24 106.87 119.38"/><polygon class="cls-10" points="100.31 90.4 98.56 92.02 98.02 89.65 99.78 88.03 100.31 90.4"/><polygon class="cls-10" points="101.52 95.71 99.76 97.33 99.22 94.96 100.98 93.34 101.52 95.71"/><polygon class="cls-10" points="102.72 101.03 100.97 102.65 100.43 100.28 102.18 98.66 102.72 101.03"/><polygon class="cls-10" points="103.92 106.34 102.17 107.97 101.63 105.59 103.38 103.97 103.92 106.34"/><polygon class="cls-10" points="105.12 111.66 103.37 113.28 102.83 110.91 104.59 109.29 105.12 111.66"/><polygon class="cls-10" points="106.33 116.98 104.58 118.6 104.04 116.22 105.79 114.61 106.33 116.98"/><ellipse class="cls-8" cx="119.64" cy="78.77" rx="7.89" ry="6.85"/><path class="cls-12" d="M1290.52,242.12H1285a5.93,5.93,0,0,1,5.51-4.79Z" transform="translate(-1171.62 -164)"/><path class="cls-12" d="M1285,243.41h5.52v4.79A5.93,5.93,0,0,1,1285,243.41Z" transform="translate(-1171.62 -164)"/><path class="cls-12" d="M1297.51,243.41a5.93,5.93,0,0,1-5.52,4.79v-4.79Z" transform="translate(-1171.62 -164)"/><path class="cls-12" d="M1297.51,242.12H1292v-4.79A5.94,5.94,0,0,1,1297.51,242.12Z" transform="translate(-1171.62 -164)"/><polygon class="cls-4" points="113.1 98.66 126.18 98.66 125.02 119.38 114.26 119.38 113.1 98.66"/><polygon class="cls-14" points="127.56 96.28 127.56 98.99 120.77 98.99 115.76 98.98 111.72 98.98 111.72 96.27 114.47 96.27 118.51 96.28 127.56 96.28"/><polygon class="cls-10" points="115.76 98.99 118.51 96.27 114.48 96.27 111.72 98.99 115.76 98.99"/><polygon class="cls-10" points="124.8 98.99 127.56 96.28 123.52 96.27 120.77 98.99 124.8 98.99"/><rect class="cls-15" x="76.58" y="61.73" width="10.31" height="12.42"/><polygon class="cls-4" points="92.77 61.73 86.89 61.73 86.89 74.15 92.77 66.93 92.77 61.73"/><polygon class="cls-14" points="93.92 58.98 93.92 62.15 85.99 62.15 80.15 62.14 75.43 62.14 75.43 58.97 78.65 58.97 83.36 58.98 93.92 58.98"/><polygon class="cls-10" points="80.14 62.15 83.36 58.98 78.65 58.98 75.43 62.15 80.14 62.15"/><polygon class="cls-10" points="90.7 62.15 93.92 58.98 89.21 58.98 85.99 62.15 90.7 62.15"/><ellipse class="cls-16" cx="123.38" cy="109.62" rx="1.29" ry="1.12"/><path class="cls-17" d="M1240.61,304.24c-31.1-15.08-42.23-49.18-24.87-76.18s56.64-36.67,87.74-21.59,42.23,49.18,24.87,76.18S1271.71,319.31,1240.61,304.24Z" transform="translate(-1171.62 -164)"/><path class="cls-18" d="M1303.48,206.47c31.1,15.08,42.23,49.18,24.87,76.18s-56.64,36.66-87.74,21.59-42.23-49.18-24.87-76.18S1272.39,191.39,1303.48,206.47Z" transform="translate(-1171.62 -164)"/><path class="cls-19" d="M1303.48,206.47c31.1,15.08,42.23,49.18,24.87,76.18s-56.64,36.66-87.74,21.59-42.23-49.18-24.87-76.18S1272.39,191.39,1303.48,206.47Z" transform="translate(-1171.62 -164)"/><path class="cls-20" d="M1303.48,206.47c31.1,15.08,42.23,49.18,24.87,76.18s-56.64,36.66-87.74,21.59-42.23-49.18-24.87-76.18S1272.39,191.39,1303.48,206.47Z" transform="translate(-1171.62 -164)"/><path class="cls-21" d="M1303.48,206.47c-31.1-15.07-70.38-5.41-87.74,21.59a49.38,49.38,0,0,0-3.13,49,64.54,64.54,0,0,0,14,9.18c31.1,15.07,70.38,5.41,87.74-21.59a49.38,49.38,0,0,0,3.13-49A64.48,64.48,0,0,0,1303.48,206.47Z" transform="translate(-1171.62 -164)"/><path class="cls-22" d="M1251.75,293.38c-29.38-14.24-39.9-46.47-23.49-72a53.53,53.53,0,0,1,5.37-7,55.57,55.57,0,0,0-15.5,15.78c-16.4,25.51-5.89,57.73,23.49,72,26.52,12.85,59.33,6.66,77.53-13.42C1300.39,301.56,1273.88,304.1,1251.75,293.38Z" transform="translate(-1171.62 -164)"/><ellipse class="cls-23" cx="139.72" cy="63.32" rx="9.32" ry="8.09"/><ellipse class="cls-24" cx="131.81" cy="51.56" rx="3.11" ry="2.7"/><ellipse class="cls-25" cx="127.58" cy="47.51" rx="0.99" ry="0.86"/><path class="cls-26" d="M1193.67,324.86c-20.27-9.83-27.53-32.06-16.21-49.67s36.93-23.9,57.2-14.08,27.53,32.06,16.21,49.67S1213.94,334.68,1193.67,324.86Z" transform="translate(-1171.62 -164)"/><path class="cls-27" d="M1234.66,261.11c20.28,9.83,27.53,32.06,16.21,49.67s-36.93,23.9-57.2,14.08-27.53-32.06-16.21-49.67S1214.39,251.29,1234.66,261.11Z" transform="translate(-1171.62 -164)"/><path class="cls-28" d="M1234.66,261.11c20.28,9.83,27.53,32.06,16.21,49.67s-36.93,23.9-57.2,14.08-27.53-32.06-16.21-49.67S1214.39,251.29,1234.66,261.11Z" transform="translate(-1171.62 -164)"/><path class="cls-29" d="M1234.66,261.11c20.28,9.83,27.53,32.06,16.21,49.67s-36.93,23.9-57.2,14.08-27.53-32.06-16.21-49.67S1214.39,251.29,1234.66,261.11Z" transform="translate(-1171.62 -164)"/><path class="cls-30" d="M1234.66,261.11c-20.27-9.83-45.88-3.52-57.2,14.08a32.19,32.19,0,0,0-2,31.94,42.1,42.1,0,0,0,9.14,6c20.27,9.83,45.88,3.52,57.2-14.08a32.19,32.19,0,0,0,2-31.94A42,42,0,0,0,1234.66,261.11Z" transform="translate(-1171.62 -164)"/><path class="cls-31" d="M1200.93,317.77c-19.15-9.29-26-30.29-15.32-46.93a34.81,34.81,0,0,1,3.5-4.55A36.2,36.2,0,0,0,1179,276.59c-10.69,16.63-3.84,37.64,15.32,46.93,17.29,8.38,38.68,4.34,50.55-8.75A44.72,44.72,0,0,1,1200.93,317.77Z" transform="translate(-1171.62 -164)"/><ellipse class="cls-32" cx="68.16" cy="110.71" rx="6.08" ry="5.27"/><ellipse class="cls-33" cx="63.01" cy="103.04" rx="2.03" ry="1.76"/><ellipse class="cls-34" cx="60.25" cy="100.4" rx="0.64" ry="0.56"/><path class="cls-35" d="M1329.62,324.69c-14.56-7.06-19.77-23-11.64-35.66s26.51-17.16,41.07-10.11,19.77,23,11.64,35.66S1344.17,331.75,1329.62,324.69Z" transform="translate(-1171.62 -164)"/><path class="cls-36" d="M1359,278.93c14.56,7.06,19.77,23,11.64,35.66s-26.51,17.16-41.07,10.11-19.77-23-11.64-35.66S1344.49,271.87,1359,278.93Z" transform="translate(-1171.62 -164)"/><path class="cls-37" d="M1359,278.93c14.56,7.06,19.77,23,11.64,35.66s-26.51,17.16-41.07,10.11-19.77-23-11.64-35.66S1344.49,271.87,1359,278.93Z" transform="translate(-1171.62 -164)"/><path class="cls-38" d="M1359,278.93c14.56,7.06,19.77,23,11.64,35.66s-26.51,17.16-41.07,10.11-19.77-23-11.64-35.66S1344.49,271.87,1359,278.93Z" transform="translate(-1171.62 -164)"/><path class="cls-39" d="M1359,278.93c-14.55-7.06-32.94-2.53-41.07,10.11a23.12,23.12,0,0,0-1.46,22.93,30.2,30.2,0,0,0,6.56,4.29c14.56,7.06,32.94,2.53,41.07-10.11a23.11,23.11,0,0,0,1.46-22.93A30.15,30.15,0,0,0,1359,278.93Z" transform="translate(-1171.62 -164)"/><path class="cls-40" d="M1334.83,319.61c-13.75-6.67-18.68-21.75-11-33.69a25.23,25.23,0,0,1,2.51-3.27,26,26,0,0,0-7.26,7.39c-7.68,11.94-2.76,27,11,33.69,12.41,6,27.77,3.12,36.29-6.28A32.1,32.1,0,0,1,1334.83,319.61Z" transform="translate(-1171.62 -164)"/><ellipse class="cls-41" cx="191.1" cy="124.69" rx="4.36" ry="3.79"/><ellipse class="cls-42" cx="187.4" cy="119.18" rx="1.45" ry="1.26"/><ellipse class="cls-43" cx="185.42" cy="117.29" rx="0.46" ry="0.4"/><path class="cls-44" d="M1336.72,258.6c-10.88-5.28-14.77-17.21-8.7-26.65s19.82-12.83,30.7-7.55,14.77,17.21,8.7,26.65S1347.6,263.88,1336.72,258.6Z" transform="translate(-1171.62 -164)"/><path class="cls-45" d="M1358.72,224.4c10.88,5.27,14.78,17.21,8.7,26.66s-19.82,12.83-30.7,7.55S1321.94,241.4,1328,232,1347.84,219.12,1358.72,224.4Z" transform="translate(-1171.62 -164)"/><path class="cls-46" d="M1358.72,224.4c10.88,5.27,14.78,17.21,8.7,26.66s-19.82,12.83-30.7,7.55S1321.94,241.4,1328,232,1347.84,219.12,1358.72,224.4Z" transform="translate(-1171.62 -164)"/><path class="cls-47" d="M1358.72,224.4c10.88,5.27,14.78,17.21,8.7,26.66s-19.82,12.83-30.7,7.55S1321.94,241.4,1328,232,1347.84,219.12,1358.72,224.4Z" transform="translate(-1171.62 -164)"/><path class="cls-48" d="M1358.72,224.4c-10.88-5.27-24.62-1.89-30.7,7.56a17.28,17.28,0,0,0-1.1,17.14,22.57,22.57,0,0,0,4.91,3.21c10.88,5.27,24.63,1.89,30.7-7.55a17.28,17.28,0,0,0,1.09-17.14A22.58,22.58,0,0,0,1358.72,224.4Z" transform="translate(-1171.62 -164)"/><path class="cls-49" d="M1340.62,254.8c-10.28-5-14-16.26-8.22-25.18a18.77,18.77,0,0,1,1.88-2.44,19.45,19.45,0,0,0-5.42,5.52c-5.74,8.93-2.06,20.2,8.22,25.18,9.28,4.5,20.76,2.33,27.13-4.7A24,24,0,0,1,1340.62,254.8Z" transform="translate(-1171.62 -164)"/><ellipse class="cls-50" cx="189.85" cy="67.69" rx="3.26" ry="2.83"/><ellipse class="cls-51" cx="187.08" cy="63.58" rx="1.09" ry="0.94"/><ellipse class="cls-52" cx="185.6" cy="62.16" rx="0.35" ry="0.3"/><path class="cls-53" d="M1273.23,258c-10.88-5.28-14.78-17.21-8.7-26.65s19.82-12.83,30.7-7.56,14.77,17.21,8.7,26.66S1284.11,263.31,1273.23,258Z" transform="translate(-1171.62 -164)"/><path class="cls-54" d="M1295.23,223.82c10.88,5.28,14.77,17.21,8.7,26.66s-19.82,12.83-30.7,7.55-14.77-17.21-8.7-26.65S1284.34,218.55,1295.23,223.82Z" transform="translate(-1171.62 -164)"/><path class="cls-55" d="M1295.23,223.82c10.88,5.28,14.77,17.21,8.7,26.66s-19.82,12.83-30.7,7.55-14.77-17.21-8.7-26.65S1284.34,218.55,1295.23,223.82Z" transform="translate(-1171.62 -164)"/><path class="cls-56" d="M1295.23,223.82c10.88,5.28,14.77,17.21,8.7,26.66s-19.82,12.83-30.7,7.55-14.77-17.21-8.7-26.65S1284.34,218.55,1295.23,223.82Z" transform="translate(-1171.62 -164)"/><path class="cls-57" d="M1295.23,223.82c-10.88-5.27-24.63-1.89-30.7,7.56a17.28,17.28,0,0,0-1.09,17.14,22.62,22.62,0,0,0,4.91,3.21c10.88,5.27,24.63,1.89,30.7-7.55a17.28,17.28,0,0,0,1.09-17.14A22.62,22.62,0,0,0,1295.23,223.82Z" transform="translate(-1171.62 -164)"/><path class="cls-58" d="M1277.12,254.23c-10.28-5-14-16.26-8.22-25.18a18.71,18.71,0,0,1,1.88-2.44,19.43,19.43,0,0,0-5.42,5.52c-5.74,8.93-2.06,20.2,8.22,25.18,9.28,4.5,20.76,2.33,27.13-4.7A24,24,0,0,1,1277.12,254.23Z" transform="translate(-1171.62 -164)"/><ellipse class="cls-59" cx="126.36" cy="67.12" rx="3.26" ry="2.83"/><ellipse class="cls-60" cx="123.59" cy="63" rx="1.09" ry="0.94"/><ellipse class="cls-61" cx="122.11" cy="61.59" rx="0.35" ry="0.3"/><path class="cls-62" d="M1322.86,181.49c-5-2.44-6.84-8-4-12.34s9.18-5.94,14.21-3.5,6.84,8,4,12.34S1327.9,183.93,1322.86,181.49Z" transform="translate(-1171.62 -164)"/><path class="cls-63" d="M1333,165.65c5,2.44,6.84,8,4,12.34s-9.18,5.94-14.21,3.5-6.84-8-4-12.34S1328,163.21,1333,165.65Z" transform="translate(-1171.62 -164)"/><path class="cls-64" d="M1333,165.65c5,2.44,6.84,8,4,12.34s-9.18,5.94-14.21,3.5-6.84-8-4-12.34S1328,163.21,1333,165.65Z" transform="translate(-1171.62 -164)"/><path class="cls-65" d="M1333,165.65c5,2.44,6.84,8,4,12.34s-9.18,5.94-14.21,3.5-6.84-8-4-12.34S1328,163.21,1333,165.65Z" transform="translate(-1171.62 -164)"/><path class="cls-66" d="M1333,165.65c-5-2.44-11.4-.88-14.21,3.5a8,8,0,0,0-.51,7.94,10.48,10.48,0,0,0,2.27,1.49c5,2.44,11.4.88,14.21-3.5a8,8,0,0,0,.51-7.94A10.55,10.55,0,0,0,1333,165.65Z" transform="translate(-1171.62 -164)"/><path class="cls-67" d="M1324.67,179.73c-4.76-2.31-6.46-7.53-3.81-11.66a8.5,8.5,0,0,1,.87-1.13,9,9,0,0,0-2.51,2.56c-2.66,4.13-1,9.35,3.81,11.66a10.9,10.9,0,0,0,12.56-2.17A11.11,11.11,0,0,1,1324.67,179.73Z" transform="translate(-1171.62 -164)"/><ellipse class="cls-68" cx="162.7" cy="5.03" rx="1.51" ry="1.31"/><ellipse class="cls-69" cx="161.42" cy="3.13" rx="0.5" ry="0.44"/><ellipse class="cls-70" cx="160.74" cy="2.47" rx="0.16" ry="0.14"/><path class="cls-71" d="M1203.18,307.07c-5-2.44-6.84-8-4-12.34s9.18-5.94,14.21-3.5,6.84,8,4,12.34S1208.22,309.52,1203.18,307.07Z" transform="translate(-1171.62 -164)"/><path class="cls-72" d="M1213.37,291.23c5,2.44,6.84,8,4,12.34s-9.18,5.94-14.21,3.5-6.84-8-4-12.34S1208.33,288.79,1213.37,291.23Z" transform="translate(-1171.62 -164)"/><path class="cls-73" d="M1213.37,291.23c5,2.44,6.84,8,4,12.34s-9.18,5.94-14.21,3.5-6.84-8-4-12.34S1208.33,288.79,1213.37,291.23Z" transform="translate(-1171.62 -164)"/><path class="cls-74" d="M1213.37,291.23c5,2.44,6.84,8,4,12.34s-9.18,5.94-14.21,3.5-6.84-8-4-12.34S1208.33,288.79,1213.37,291.23Z" transform="translate(-1171.62 -164)"/><path class="cls-75" d="M1213.37,291.23c-5-2.44-11.4-.88-14.21,3.5a8,8,0,0,0-.51,7.94,10.41,10.41,0,0,0,2.27,1.49c5,2.44,11.4.88,14.21-3.5a8,8,0,0,0,.51-7.94A10.52,10.52,0,0,0,1213.37,291.23Z" transform="translate(-1171.62 -164)"/><path class="cls-76" d="M1205,305.31c-4.76-2.31-6.46-7.53-3.81-11.66a8.63,8.63,0,0,1,.87-1.13,9,9,0,0,0-2.51,2.56c-2.66,4.13-1,9.35,3.81,11.66a10.9,10.9,0,0,0,12.56-2.17A11.11,11.11,0,0,1,1205,305.31Z" transform="translate(-1171.62 -164)"/><ellipse class="cls-77" cx="43.02" cy="130.61" rx="1.51" ry="1.31"/><ellipse class="cls-78" cx="41.74" cy="128.71" rx="0.5" ry="0.44"/><ellipse class="cls-79" cx="41.06" cy="128.05" rx="0.16" ry="0.14"/><path class="cls-80" d="M1254.57,339.92c-5-2.44-6.84-8-4-12.34s9.18-5.94,14.21-3.5,6.84,8,4,12.34S1259.61,342.37,1254.57,339.92Z" transform="translate(-1171.62 -164)"/><path class="cls-81" d="M1264.75,324.08c5,2.44,6.84,8,4,12.34s-9.18,5.94-14.21,3.5-6.84-8-4-12.34S1259.72,321.64,1264.75,324.08Z" transform="translate(-1171.62 -164)"/><path class="cls-82" d="M1264.75,324.08c5,2.44,6.84,8,4,12.34s-9.18,5.94-14.21,3.5-6.84-8-4-12.34S1259.72,321.64,1264.75,324.08Z" transform="translate(-1171.62 -164)"/><path class="cls-83" d="M1264.75,324.08c5,2.44,6.84,8,4,12.34s-9.18,5.94-14.21,3.5-6.84-8-4-12.34S1259.72,321.64,1264.75,324.08Z" transform="translate(-1171.62 -164)"/><path class="cls-84" d="M1264.75,324.08c-5-2.44-11.4-.88-14.21,3.5a8,8,0,0,0-.51,7.94,10.46,10.46,0,0,0,2.27,1.49c5,2.44,11.4.88,14.21-3.5a8,8,0,0,0,.51-7.94A10.49,10.49,0,0,0,1264.75,324.08Z" transform="translate(-1171.62 -164)"/><path class="cls-85" d="M1256.37,338.16c-4.76-2.31-6.46-7.53-3.81-11.66a8.63,8.63,0,0,1,.87-1.13,9,9,0,0,0-2.51,2.56c-2.66,4.13-1,9.35,3.81,11.66a10.9,10.9,0,0,0,12.56-2.17A11.11,11.11,0,0,1,1256.37,338.16Z" transform="translate(-1171.62 -164)"/><ellipse class="cls-86" cx="94.41" cy="163.46" rx="1.51" ry="1.31"/><ellipse class="cls-87" cx="93.13" cy="161.56" rx="0.5" ry="0.44"/><ellipse class="cls-88" cx="92.44" cy="160.9" rx="0.16" ry="0.14"/><path class="cls-89" d="M1224,189.37c-5-2.44-6.84-8-4-12.34s9.18-5.94,14.21-3.5,6.84,8,4,12.34S1229,191.81,1224,189.37Z" transform="translate(-1171.62 -164)"/><path class="cls-90" d="M1234.16,173.53c5,2.44,6.84,8,4,12.34s-9.18,5.94-14.21,3.5-6.84-8-4-12.34S1229.12,171.09,1234.16,173.53Z" transform="translate(-1171.62 -164)"/><path class="cls-91" d="M1234.16,173.53c5,2.44,6.84,8,4,12.34s-9.18,5.94-14.21,3.5-6.84-8-4-12.34S1229.12,171.09,1234.16,173.53Z" transform="translate(-1171.62 -164)"/><path class="cls-92" d="M1234.16,173.53c5,2.44,6.84,8,4,12.34s-9.18,5.94-14.21,3.5-6.84-8-4-12.34S1229.12,171.09,1234.16,173.53Z" transform="translate(-1171.62 -164)"/><path class="cls-93" d="M1234.16,173.53c-5-2.44-11.4-.88-14.21,3.5a8,8,0,0,0-.51,7.94,10.46,10.46,0,0,0,2.27,1.49c5,2.44,11.4.88,14.21-3.5a8,8,0,0,0,.51-7.94A10.49,10.49,0,0,0,1234.16,173.53Z" transform="translate(-1171.62 -164)"/><path class="cls-94" d="M1225.78,187.61c-4.76-2.31-6.46-7.53-3.81-11.66a8.61,8.61,0,0,1,.87-1.13,9,9,0,0,0-2.51,2.56c-2.66,4.13-1,9.35,3.81,11.66a10.9,10.9,0,0,0,12.56-2.17A11.11,11.11,0,0,1,1225.78,187.61Z" transform="translate(-1171.62 -164)"/><ellipse class="cls-95" cx="63.82" cy="12.91" rx="1.51" ry="1.31"/><ellipse class="cls-96" cx="62.54" cy="11" rx="0.5" ry="0.44"/><ellipse class="cls-97" cx="61.85" cy="10.35" rx="0.16" ry="0.14"/><path class="cls-98" d="M1191.65,231.23a4.48,4.48,0,0,1-2.13-6.53,6,6,0,0,1,7.52-1.85,4.48,4.48,0,0,1,2.13,6.53A6,6,0,0,1,1191.65,231.23Z" transform="translate(-1171.62 -164)"/><path class="cls-99" d="M1197,222.86a4.48,4.48,0,0,1,2.13,6.53,6,6,0,0,1-7.52,1.85,4.48,4.48,0,0,1-2.13-6.53A6,6,0,0,1,1197,222.86Z" transform="translate(-1171.62 -164)"/><path class="cls-100" d="M1197,222.86a4.48,4.48,0,0,1,2.13,6.53,6,6,0,0,1-7.52,1.85,4.48,4.48,0,0,1-2.13-6.53A6,6,0,0,1,1197,222.86Z" transform="translate(-1171.62 -164)"/><path class="cls-101" d="M1197,222.86a4.48,4.48,0,0,1,2.13,6.53,6,6,0,0,1-7.52,1.85,4.48,4.48,0,0,1-2.13-6.53A6,6,0,0,1,1197,222.86Z" transform="translate(-1171.62 -164)"/><path class="cls-102" d="M1197,222.86a6,6,0,0,0-7.52,1.85,4.23,4.23,0,0,0-.27,4.2,5.54,5.54,0,0,0,1.2.78,6,6,0,0,0,7.52-1.85,4.23,4.23,0,0,0,.27-4.2A5.55,5.55,0,0,0,1197,222.86Z" transform="translate(-1171.62 -164)"/><path class="cls-103" d="M1192.6,230.3a4.24,4.24,0,0,1-2-6.17,4.43,4.43,0,0,1,.46-.6,4.75,4.75,0,0,0-1.33,1.35,4.23,4.23,0,0,0,2,6.17,5.76,5.76,0,0,0,6.64-1.15A5.88,5.88,0,0,1,1192.6,230.3Z" transform="translate(-1171.62 -164)"/><ellipse class="cls-104" cx="26.09" cy="60.65" rx="0.8" ry="0.69"/><ellipse class="cls-105" cx="25.41" cy="59.64" rx="0.27" ry="0.23"/><ellipse class="cls-106" cx="25.05" cy="59.29" rx="0.08" ry="0.07"/><path class="cls-107" d="M1188.08,268a4.48,4.48,0,0,1-2.13-6.53,6,6,0,0,1,7.52-1.85c2.66,1.29,3.62,4.21,2.13,6.53A6,6,0,0,1,1188.08,268Z" transform="translate(-1171.62 -164)"/><path class="cls-108" d="M1193.46,259.66a4.48,4.48,0,0,1,2.13,6.53,6,6,0,0,1-7.52,1.85,4.48,4.48,0,0,1-2.13-6.53A6,6,0,0,1,1193.46,259.66Z" transform="translate(-1171.62 -164)"/><path class="cls-109" d="M1193.46,259.66a4.48,4.48,0,0,1,2.13,6.53,6,6,0,0,1-7.52,1.85,4.48,4.48,0,0,1-2.13-6.53A6,6,0,0,1,1193.46,259.66Z" transform="translate(-1171.62 -164)"/><path class="cls-110" d="M1193.46,259.66a4.48,4.48,0,0,1,2.13,6.53,6,6,0,0,1-7.52,1.85,4.48,4.48,0,0,1-2.13-6.53A6,6,0,0,1,1193.46,259.66Z" transform="translate(-1171.62 -164)"/><path class="cls-111" d="M1193.46,259.66a6,6,0,0,0-7.52,1.85,4.23,4.23,0,0,0-.27,4.2,5.54,5.54,0,0,0,1.2.79,6,6,0,0,0,7.52-1.85,4.23,4.23,0,0,0,.27-4.2A5.52,5.52,0,0,0,1193.46,259.66Z" transform="translate(-1171.62 -164)"/><path class="cls-112" d="M1189,267.11a4.24,4.24,0,0,1-2-6.17,4.61,4.61,0,0,1,.46-.6,4.77,4.77,0,0,0-1.33,1.35,4.23,4.23,0,0,0,2,6.17,5.76,5.76,0,0,0,6.64-1.15A5.88,5.88,0,0,1,1189,267.11Z" transform="translate(-1171.62 -164)"/><ellipse class="cls-113" cx="22.52" cy="97.45" rx="0.8" ry="0.69"/><ellipse class="cls-114" cx="21.84" cy="96.44" rx="0.27" ry="0.23"/><ellipse class="cls-115" cx="21.48" cy="96.09" rx="0.08" ry="0.07"/><path class="cls-116" d="M1273.81,198.51a4.48,4.48,0,0,1-2.13-6.53,6,6,0,0,1,7.52-1.85,4.48,4.48,0,0,1,2.13,6.53A6,6,0,0,1,1273.81,198.51Z" transform="translate(-1171.62 -164)"/><path class="cls-117" d="M1279.2,190.13a4.48,4.48,0,0,1,2.13,6.53,6,6,0,0,1-7.52,1.85,4.48,4.48,0,0,1-2.13-6.53A6,6,0,0,1,1279.2,190.13Z" transform="translate(-1171.62 -164)"/><path class="cls-118" d="M1279.2,190.13a4.48,4.48,0,0,1,2.13,6.53,6,6,0,0,1-7.52,1.85,4.48,4.48,0,0,1-2.13-6.53A6,6,0,0,1,1279.2,190.13Z" transform="translate(-1171.62 -164)"/><path class="cls-119" d="M1279.2,190.13a4.48,4.48,0,0,1,2.13,6.53,6,6,0,0,1-7.52,1.85,4.48,4.48,0,0,1-2.13-6.53A6,6,0,0,1,1279.2,190.13Z" transform="translate(-1171.62 -164)"/><path class="cls-120" d="M1279.2,190.13a6,6,0,0,0-7.52,1.85,4.23,4.23,0,0,0-.27,4.2,5.5,5.5,0,0,0,1.2.79,6,6,0,0,0,7.52-1.85,4.23,4.23,0,0,0,.27-4.2A5.53,5.53,0,0,0,1279.2,190.13Z" transform="translate(-1171.62 -164)"/><path class="cls-121" d="M1274.76,197.58a4.24,4.24,0,0,1-2-6.17,4.38,4.38,0,0,1,.46-.6,4.74,4.74,0,0,0-1.33,1.35,4.23,4.23,0,0,0,2,6.17,5.76,5.76,0,0,0,6.64-1.15A5.88,5.88,0,0,1,1274.76,197.58Z" transform="translate(-1171.62 -164)"/><ellipse class="cls-122" cx="108.26" cy="27.92" rx="0.8" ry="0.69"/><ellipse class="cls-123" cx="107.58" cy="26.91" rx="0.27" ry="0.23"/><ellipse class="cls-124" cx="107.22" cy="26.56" rx="0.08" ry="0.07"/><path class="cls-125" d="M1326.61,276.59a4.48,4.48,0,0,1-2.13-6.53,6,6,0,0,1,7.52-1.85c2.66,1.29,3.62,4.21,2.13,6.53A6,6,0,0,1,1326.61,276.59Z" transform="translate(-1171.62 -164)"/><path class="cls-126" d="M1332,268.21c2.67,1.29,3.62,4.21,2.13,6.53a6,6,0,0,1-7.52,1.85,4.48,4.48,0,0,1-2.13-6.53A6,6,0,0,1,1332,268.21Z" transform="translate(-1171.62 -164)"/><path class="cls-127" d="M1332,268.21c2.67,1.29,3.62,4.21,2.13,6.53a6,6,0,0,1-7.52,1.85,4.48,4.48,0,0,1-2.13-6.53A6,6,0,0,1,1332,268.21Z" transform="translate(-1171.62 -164)"/><path class="cls-128" d="M1332,268.21c2.67,1.29,3.62,4.21,2.13,6.53a6,6,0,0,1-7.52,1.85,4.48,4.48,0,0,1-2.13-6.53A6,6,0,0,1,1332,268.21Z" transform="translate(-1171.62 -164)"/><path class="cls-129" d="M1332,268.21a6,6,0,0,0-7.52,1.85,4.23,4.23,0,0,0-.27,4.2,5.51,5.51,0,0,0,1.2.79,6,6,0,0,0,7.52-1.85,4.23,4.23,0,0,0,.27-4.2A5.57,5.57,0,0,0,1332,268.21Z" transform="translate(-1171.62 -164)"/><path class="cls-130" d="M1327.57,275.66a4.24,4.24,0,0,1-2-6.17,4.53,4.53,0,0,1,.46-.6,4.73,4.73,0,0,0-1.33,1.35,4.23,4.23,0,0,0,2,6.17,5.76,5.76,0,0,0,6.64-1.15A5.88,5.88,0,0,1,1327.57,275.66Z" transform="translate(-1171.62 -164)"/><ellipse class="cls-131" cx="161.06" cy="106" rx="0.8" ry="0.69"/><ellipse class="cls-132" cx="160.38" cy="104.99" rx="0.27" ry="0.23"/><ellipse class="cls-133" cx="160.01" cy="104.64" rx="0.08" ry="0.07"/><rect class="cls-134" x="0.5" y="0.5" width="202.41" height="176.58"/></g></g></svg>