<svg xmlns="http://www.w3.org/2000/svg" xmlns:xlink="http://www.w3.org/1999/xlink" viewBox="0 0 202.41 159.68"><defs><style>.cls-1{mask:url(#mask);}.cls-11,.cls-14,.cls-15,.cls-17,.cls-2,.cls-23,.cls-6,.cls-7,.cls-8,.cls-9{mix-blend-mode:multiply;}.cls-2{fill:url(#linear-gradient);}.cls-3{fill:none;}.cls-4{isolation:isolate;}.cls-5{fill:url(#linear-gradient-2);}.cls-6,.cls-9{opacity:0.3;}.cls-6{fill:url(#linear-gradient-3);}.cls-8{fill:#592e17;}.cls-14,.cls-15,.cls-23,.cls-8{opacity:0.2;}.cls-9{fill:#c9663c;}.cls-10{fill:url(#linear-gradient-4);}.cls-11{fill:#64a443;opacity:0.4;}.cls-12{mask:url(#mask-2);}.cls-13{mix-blend-mode:screen;fill:url(#linear-gradient-5);}.cls-14,.cls-16{fill:#713a1f;}.cls-17{fill:#9b9a9a;opacity:0.26;}.cls-18{fill:#00ad56;}.cls-19{fill:#4080a9;}.cls-20{fill:#d6a93d;}.cls-21,.cls-23{fill:#ae7a2b;}.cls-22{clip-path:url(#clip-path);}.cls-24{fill:#edcabd;}.cls-25{fill:#c957a0;}.cls-26{fill:#252960;}.cls-27{fill:#603014;}.cls-28{fill:#ca723e;}.cls-29{fill:#b38d34;}.cls-30{fill:#da79b1;}.cls-31{filter:url(#luminosity-noclip);}</style><filter id="luminosity-noclip" x="-499.69" y="-8613" width="105.09" height="32766" filterUnits="userSpaceOnUse" color-interpolation-filters="sRGB"><feFlood flood-color="#fff" result="bg"/><feBlend in="SourceGraphic" in2="bg"/></filter><mask id="mask" x="-499.69" y="-8613" width="105.09" height="32766" maskUnits="userSpaceOnUse"><g class="cls-31"/></mask><linearGradient id="linear-gradient" x1="-463.41" y1="426.85" x2="-442.79" y2="477.85" gradientUnits="userSpaceOnUse"><stop offset="0.07" stop-color="#fff"/><stop offset="0.18" stop-color="#fbfbfb"/><stop offset="0.3" stop-color="#eee"/><stop offset="0.41" stop-color="#d8d8d8"/><stop offset="0.54" stop-color="#bababa"/><stop offset="0.66" stop-color="#939393"/><stop offset="0.79" stop-color="#646464"/><stop offset="0.91" stop-color="#2d2d2d"/><stop offset="1"/></linearGradient><linearGradient id="linear-gradient-2" x1="-407.37" y1="550.57" x2="-411.29" y2="463.31" gradientUnits="userSpaceOnUse"><stop offset="0.01" stop-color="#d0782d"/><stop offset="0.54" stop-color="#935a2f"/><stop offset="0.94" stop-color="#624231"/></linearGradient><linearGradient id="linear-gradient-3" x1="-410.21" y1="526.25" x2="-410.21" y2="500.94" xlink:href="#linear-gradient-2"/><linearGradient id="linear-gradient-4" x1="-415.47" y1="507.46" x2="-384.63" y2="399.28" gradientUnits="userSpaceOnUse"><stop offset="0.07" stop-color="#aecb39"/><stop offset="0.2" stop-color="#aac839"/><stop offset="0.33" stop-color="#9dbd3a"/><stop offset="0.47" stop-color="#87ac3c"/><stop offset="0.61" stop-color="#6a953d"/><stop offset="0.65" stop-color="#618e3e"/></linearGradient><mask id="mask-2" x="11.46" y="77.5" width="105.09" height="56.83" maskUnits="userSpaceOnUse"><g transform="translate(511.15 -359.99)"><g class="cls-1"><path class="cls-2" d="M-499.36,492.27s5.17-4.49,13.3-14.8,37.32-34.92,65.9-38.58c0,0,33.26-5.65,23.9,5.65C-404,453.88-506.26,505.08-499.36,492.27Z"/></g></g></mask><linearGradient id="linear-gradient-5" x1="-463.41" y1="426.85" x2="-442.79" y2="477.85" gradientUnits="userSpaceOnUse"><stop offset="0.07" stop-color="#c5d331"/><stop offset="0.25" stop-color="#c1d032"/><stop offset="0.44" stop-color="#b4c733"/><stop offset="0.63" stop-color="#9eb836"/><stop offset="0.83" stop-color="#81a43a"/><stop offset="1" stop-color="#618e3e"/></linearGradient><clipPath id="clip-path" transform="translate(511.15 -359.99)"><polygon class="cls-3" points="-349.77 412.73 -360.88 468.83 -452.25 468.83 -463.37 412.73 -432.45 366.18 -380.69 366.18 -380.51 366.44 -349.77 412.73"/></clipPath></defs><title>ground</title><g class="cls-4"><g id="Layer_1" data-name="Layer 1"><path class="cls-5" d="M-318.42,473.27c-1.67-.45-2.86,1.55-4.5.93-3.12-1.19-6.07-3-9.19-4.16-6.12-2.26-12.76-2.15-19.06-2.38-7-.26-14-.28-21-.28-3.16,0-6.32,0-9.47.22-1.73.11-3.46.26-5.2.44a15.88,15.88,0,0,1-5.06,0c-.33-.07-.75.54-.26.64l.67.12a82.14,82.14,0,0,0-12.92,2.57c-7.78,2-15.57,3.95-23.31,6.23-7.91,2.33-15.79,4.84-23.71,7.14s-15.8,4.08-23.68,6.25q-8,2.19-15.9,4.73c-2.63.84-5.27,1.67-7.92,2.42a30.47,30.47,0,0,1-7.54,1c.35,3.86.67,7.84.95,11.88a7.79,7.79,0,0,0,2.61,1.52,40.38,40.38,0,0,0,5.63,2c2,.54,3.93,1.13,5.91,1.54a15.18,15.18,0,0,0,3.22.38,25.15,25.15,0,0,1,3.06,0,.15.15,0,0,1,.12.17c0,.1,0,.21,0,.31l.06.06a4,4,0,0,0,1,.91l.07,0a34,34,0,0,0,6.29,1.07c3.29.19,6.58.3,9.87.4l.94,0c.85,0,1.7,0,2.55-.06l1.27-.07c.87-.24,1.73-.51,2.6-.76a10.46,10.46,0,0,0,3.07-1.29c.09-.06.18,0,.18.14,0,.51.07,1,.11,1.54a8.75,8.75,0,0,0,2.88.73l4.13,0c1.06,0,2.13-.1,3.19-.12,1.93-.05,3.87-.1,5.8-.29l.42-.1c.66-.16,1.32-.32,2-.5a14.15,14.15,0,0,0,3.81-1.75c.09-.05.18,0,.19.14,0,.32,0,.63,0,.95a.16.16,0,0,1,.1.16c0,.2,0,.4,0,.6a7.59,7.59,0,0,0,1.31.29,14.45,14.45,0,0,0,2.25.21c.71,0,1.43.06,2.14.1s1.49-.11,2.23-.17c2.22-.2,4.44-.18,6.66-.31,1.42-.08,2.84-.2,4.26-.39a8.66,8.66,0,0,0,3.79-1.19.09.09,0,0,1,.1,0,.07.07,0,0,1,.07,0c1.87.9,4,.67,5.95.77s4,.23,6,.32a56.72,56.72,0,0,0,6.17,0c1-.07,1.95-.22,2.92-.37.74-.12,1.48-.14,1.66-1.31a.16.16,0,0,1,0-.09c0-.09.06-.17.15-.14a22,22,0,0,0,5.64.72c1.88.06,3.75.18,5.63.23a52,52,0,0,0,5.79-.09c1.41-.11,3.19,0,4.34-1.29a2.42,2.42,0,0,0,.21-.68c0-.11.11-.14.18-.1a6.19,6.19,0,0,0,1.49.48c.43.14.86.3,1.29.46a21.61,21.61,0,0,0,2.85.79,34.4,34.4,0,0,0,6.3,1,54,54,0,0,0,6.11-.22,31.82,31.82,0,0,0,3.25-.4,9.7,9.7,0,0,1,1.84-.49l0,0,.13-.53c0-.09.11-.17.18-.1,1.25,1.17,3,.83,4.42,1a27.15,27.15,0,0,0,6.13,0c1.47-.15,3-.29,4.43-.5l.53-.14a8.93,8.93,0,0,0,2.41-.85c.12-.08.25-.18.38-.28a7.13,7.13,0,0,0,.43-.61,6.85,6.85,0,0,0,.06-1c0-.21.24-.21.25,0a11.82,11.82,0,0,0,2.59-.55c.69-.25,1.4-.46,2.09-.73a5.9,5.9,0,0,0,3-2.16q.3-4.08.61-8.17c.69-8.9,1.67-17.76,2.28-26.67C-314.65,475.24-317.3,473.58-318.42,473.27Z" transform="translate(511.15 -359.99)"/><path class="cls-6" d="M-318.42,473.27c-1.67-.45-2.86,1.55-4.5.93-3.12-1.19-6.07-3-9.19-4.16-6.12-2.26-12.76-2.15-19.06-2.38-7-.26-14-.28-21-.28-3.16,0-6.32,0-9.47.22-1.73.11-3.46.26-5.2.44a15.88,15.88,0,0,1-5.06,0c-.33-.07-.75.54-.26.64l.67.12a82.14,82.14,0,0,0-12.92,2.57c-7.78,2-15.57,3.95-23.31,6.23-7.91,2.33-15.79,4.84-23.71,7.14s-15.8,4.08-23.68,6.25q-8,2.19-15.9,4.73c-2.63.84-5.27,1.67-7.92,2.42a30.47,30.47,0,0,1-7.54,1c.28,3.08.54,6.24.77,9.43a16.87,16.87,0,0,1,2.85-3.73c.1-.1.22.09.17.23a18.26,18.26,0,0,0-1.14,3.31,10.7,10.7,0,0,1,4.46-2.89c.14,0,.21.2.09.31a13.25,13.25,0,0,0-2.7,4.41,29.69,29.69,0,0,0,10.54-4c.13-.08.24.12.15.26-.71,1.16-1.43,2.32-2.11,3.51,1.6-.88,3-2.36,4.7-2.9.13,0,.2.15.12.28-1.32,2.13-2.29,4.58-3.46,6.85a26.78,26.78,0,0,1,4.4-2c.11,0,.19.11.14.25-.17.45-.33.91-.48,1.37a11.81,11.81,0,0,1,1.87-1.93c.07-.05.15,0,.18.1a30.31,30.31,0,0,1,.78,4.53h0a.15.15,0,0,1,.12.17c0,.1,0,.21,0,.31l.06.06,0,0c0-.21,0-.41,0-.62a9.3,9.3,0,0,1,.72-4.12c1.33-2.37,3.76-3.23,5.7-4.34.13-.08.23.11.15.26-1,1.75-2,3.47-3,5.21,3.33-.58,6.88-1.23,9.76-3.7.12-.1.24.13.15.26-1,1.31-2,2.58-2.91,3.92a16.25,16.25,0,0,0,6.84-4.15c.11-.11.25,0,.19.2a27.2,27.2,0,0,1-1.26,2.68c1.16-.41,2-2.29,2.79-3.32a.11.11,0,0,1,.21.07c.25,2.66.12,5.31.17,8,0,.69,0,1.37.08,2.06l1.13,0,1.27-.07c.87-.24,1.73-.51,2.6-.76a10.46,10.46,0,0,0,3.07-1.29c.09-.06.18,0,.18.14,0,.51.07,1,.11,1.53.19.09.37.17.57.24-.16-2.32-.26-4.65-.49-7,0-.15.12-.3.21-.16.66,1,1.24,2.08,1.84,3.15a24.06,24.06,0,0,0-.44-3.65c0-.11.06-.25.15-.2a13.28,13.28,0,0,1,2.78,2.4c-.09-1-.45-2-.59-3,0-.13.06-.23.15-.2,2.63.67,4.76,2.65,6.64,5.12a19.11,19.11,0,0,1,.78-3.58c0-.15.21-.17.24,0a22.71,22.71,0,0,1,.16,2.29c.8-.94,1.44-2.08,2.29-2.95.09-.09.24,0,.21.16a30.34,30.34,0,0,1-1.3,3.58c.81.21,1.71-.42,2.4-.9s1.44-1.11,2.17-1.62c.09-.06.22,0,.18.19a11.61,11.61,0,0,1-1.12,2.42,3.66,3.66,0,0,1,1.09-.88c.1,0,.17.09.15.2a32.27,32.27,0,0,0-.17,4.27l.5-.13a14.15,14.15,0,0,0,3.81-1.75c.09-.05.18,0,.19.14,0,.32,0,.63,0,.95a.16.16,0,0,1,.1.16c0,.2,0,.4,0,.6l.14,0c0-.73-.06-1.47-.06-2.19,0-2,.13-3.92.07-5.88,0-.16.13-.2.21-.12a12.18,12.18,0,0,1,2,3.51,20.67,20.67,0,0,0-.46-2.27c0-.12.06-.24.15-.2a8.65,8.65,0,0,1,3.09,2.91,5.45,5.45,0,0,0-1.3-2.8c-.08-.11,0-.28.09-.28,4-.12,7.84,2,11.19,4.84-.18-1.61-1.35-2.57-2.16-3.64-.06-.08,0-.26.06-.28a2.68,2.68,0,0,1,2.41,1.29c0-.52-.09-1-.1-1.55,0-.13.11-.2.18-.14.57.43.72,1.31,1,2.06a10.41,10.41,0,0,1,2.44-1.91c.1,0,.2.13.14.24a23,23,0,0,0-1.72,3.1,16.55,16.55,0,0,1,1.58-.84c.09,0,.18.09.15.2a32.24,32.24,0,0,1-1.16,3.75l.89-.11a8.66,8.66,0,0,0,3.79-1.19.09.09,0,0,1,.1,0,.07.07,0,0,1,.07,0,6.75,6.75,0,0,0,1.91.57c-.1-3-.08-6.08,0-9.11,0-.16.13-.21.21-.12,1.46,1.58,2.29,3.78,3.34,5.82.1-1.86-.62-3.52-.72-5.37,0-.11.08-.19.16-.16,1.45.57,2,2.5,2.64,4.18l0-.07c-.17-1.62-.19-3.45-1.07-4.66-.09-.13,0-.3.12-.28a3.39,3.39,0,0,1,1.81,1.16c.23-.73.46-1.45.63-2.2,0-.09.11-.17.18-.1,1.17,1.19,1.16,3.17.9,5l.24-.27a9.45,9.45,0,0,0,.83-4.94c0-.11,0-.21.12-.21a4.5,4.5,0,0,1,3.83,2.4,9.81,9.81,0,0,0-.74-3.64c0-.12,0-.28.14-.24a6.7,6.7,0,0,1,4.22,5.38,38.8,38.8,0,0,1,.22,7.9c.68-.08,1.36-.18,2-.29s1.48-.14,1.66-1.31a.16.16,0,0,1,0-.09c0-.09.06-.17.15-.14a15.19,15.19,0,0,0,1.63.38c.31-4.35.37-8.73.59-13.08,0-.14.13-.22.21-.12,1.13,1.51,1.31,3.79,1.4,5.87a20.49,20.49,0,0,0,.45-5.76c0-.15.14-.21.21-.12a12,12,0,0,1,2,5.26c1.38-2.65,2.8-5.48,5.06-6.84.12-.07.21.07.17.23-.64,2.09-1.55,4-2,6.19,2.59-2.25,4.22-6,6.6-8.61.1-.11.28,0,.19.2a25.1,25.1,0,0,0-2.28,6.42,26.41,26.41,0,0,0,3.16-3.52c.1-.12.27,0,.2.2a12.54,12.54,0,0,0-.71,4.56c-.08,1.68-.18,3.36-.26,5-.07,1.53-.14,3.06-.23,4.59l.69,0c1.41-.11,3.19,0,4.34-1.29a2.42,2.42,0,0,0,.21-.68c0-.11.11-.14.18-.1a6.19,6.19,0,0,0,1.49.48l1.06.38c.11-1.32.19-2.65.34-4,.5-4.51,2.22-8.66,2.35-13.27,0-.18.21-.23.24,0a48.34,48.34,0,0,1,.55,6.32,31.53,31.53,0,0,0,.77-4.77.12.12,0,0,1,.23,0c.75,1.62.74,3.55,1.17,5.31,2.23-3.19,4.71-6.07,7.8-7.61.1-.05.19.13.14.24-.61,1.31-1.34,2.53-1.86,3.91a29.58,29.58,0,0,0,4.3-5.22c.07-.1.22,0,.21.12-.12,2.24-.46,4.45-.78,6.65s-.55,4.52-.84,6.78c-.31,2.45-.66,4.88-1,7.31l1.89-.13a31.82,31.82,0,0,0,3.25-.4,9.7,9.7,0,0,1,1.84-.49l0,0,.13-.53c0-.09.11-.17.18-.1a2.87,2.87,0,0,0,.43.33c.24-8.21,1.41-16.34,2.42-24.42,0-.18.2-.15.24,0,.37,1.58.54,3.22.81,4.82a26.69,26.69,0,0,0,.51-4,.12.12,0,0,1,.18-.1,9,9,0,0,1,3.53,5.17c.39,1.27.68,2.59,1,3.88,0-.83.09-1.66.14-2.48a48.36,48.36,0,0,0-.26-7.16c0-.15.11-.29.21-.16,1.39,2,1.88,4.71,2.22,7.32a42.1,42.1,0,0,0-.13-6.54c0-.18.17-.21.23-.08.77,1.63,1,3.69,1.84,5.21,1-2.59,1.83-5.85,4-7,.11-.06.23.07.17.23a48.46,48.46,0,0,0-3.11,11.12,7.49,7.49,0,0,1,1.38-2c.09-.08.21.05.18.19-1.29,5.33-1.49,10.91-1.93,16.44l.92-.12.53-.14a8.93,8.93,0,0,0,2.41-.85c.12-.08.25-.18.38-.28a7.13,7.13,0,0,0,.43-.61,6.85,6.85,0,0,0,.06-1c0-.21.24-.21.25,0a11.82,11.82,0,0,0,2.59-.55c.69-.25,1.4-.46,2.09-.73a5.9,5.9,0,0,0,3-2.16q.3-4.08.61-8.17c.69-8.9,1.67-17.76,2.28-26.67C-314.65,475.24-317.3,473.58-318.42,473.27Z" transform="translate(511.15 -359.99)"/><g class="cls-7"><path class="cls-8" d="M-485.15,516.44a.15.15,0,0,1,.12.17c0,.1,0,.21,0,.31l.05.05q0-1.73.19-3.44c.23-2.88.51-5.75.69-8.64.24-3.88.64-7.74,1-11.6q-2.65.79-5.3,1.61c.75,5.67,1.57,11.31,2.39,17l0,.05a30.31,30.31,0,0,1,.78,4.53Z" transform="translate(511.15 -359.99)"/><path class="cls-8" d="M-461.56,518.88l1.19-.35a10.46,10.46,0,0,0,3.07-1.29c.09-.06.18,0,.18.14,0,.51.07,1,.11,1.54l0,0c-.26-3-.44-6.1-.62-9.16-.23-3.86-.58-7.71-.86-11.56-.27-3.7-.65-7.44-.76-11.15,0-.07,0-.13,0-.2l-5.33,1.37c.69,6.39,1.44,12.78,2,19.2C-462.23,511.25-461.92,515.07-461.56,518.88Z" transform="translate(511.15 -359.99)"/><path class="cls-8" d="M-435.06,517.06l.26-.16.06,0c-.1-6-.14-12-.17-18,0-6.4-.21-12.86.27-19.23l-3.79,1.15c.43,7.54,1.09,15.07,1.88,22.55C-436.07,507.93-435.48,512.49-435.06,517.06Z" transform="translate(511.15 -359.99)"/><path class="cls-8" d="M-411.74,517.28a.07.07,0,0,1,.07,0h0c.08-2.08.16-4.16.25-6.23.19-4.67.26-9.33.22-14-.06-7.94-.3-15.88-.38-23.82l-5.49,1.43c1.22,14.46,2.21,29,3.53,43.41a6.31,6.31,0,0,0,1.66-.76A.09.09,0,0,1-411.74,517.28Z" transform="translate(511.15 -359.99)"/><path class="cls-8" d="M-377.2,479.28c.26-3.95.59-7.9.86-11.86l-2.49.06c-.1,5.49-.23,11-.23,16.48,0,4.17,0,8.35-.06,12.52,0,2.48-.17,5-.18,7.49l.36-.42c.05-.81.11-1.61.18-2.42.24-2.44.38-4.89.56-7.34C-377.83,489-377.52,484.11-377.2,479.28Z" transform="translate(511.15 -359.99)"/><path class="cls-8" d="M-385.21,492a57.53,57.53,0,0,0,.57,8.82c.34-3.52.35-7.07.35-10.61,0-3.82.12-7.61.3-11.42s.38-7.38.52-11.07l-2.32.2c.14,4.67.24,9.35.4,14C-385.26,485.32-385.23,488.66-385.21,492Z" transform="translate(511.15 -359.99)"/><path class="cls-8" d="M-344.34,467.91c.07,8.11,0,16.23,0,24.34,0,4.88-.11,9.74-.19,14.62,0,2.38,0,4.76-.08,7.14,0,1-.05,2-.06,3a2.65,2.65,0,0,1,.71-.16c.54-3.22.81-6.52,1.28-9.75.34-2.33.69-4.66,1-7,.33-2.68.68-5.35,1-8a.16.16,0,0,1,0-.07c.53-4.78,1.11-9.54,1.6-14.33.24-2.37.44-4.76.76-7.11.09-.67.18-1.34.26-2A57.59,57.59,0,0,0-344.34,467.91Z" transform="translate(511.15 -359.99)"/><path class="cls-8" d="M-354.42,481.51c-.11,3.08-.25,6.14-.4,9.22a68.44,68.44,0,0,0,0,8c1.09-6.85,2.38-13.65,3.89-20.35.8-3.53,1.63-7.06,2.38-10.62l-2.61-.08-2.62-.08C-354,472.23-354.25,476.86-354.42,481.51Z" transform="translate(511.15 -359.99)"/><path class="cls-8" d="M-361.3,497.71c.16-1.09.26-2.2.38-3.3.2-1.83.45-3.65.69-5.47l1.42-11.09c.44-3.45.92-6.89,1.36-10.34l-2.69,0C-360.29,477.56-360.73,487.64-361.3,497.71Z" transform="translate(511.15 -359.99)"/><path class="cls-8" d="M-324.48,491.51c0,4.47-.07,8.94-.05,13.41,0,3.23-.17,6.47-.2,9.7a7,7,0,0,0,0-.82c0-.21.24-.21.25,0l0,0c1-8.14,2.29-16.22,3.29-24.37.6-4.9,1.06-9.81,1.45-14.75q.06-.7.13-1.39c-1.13.33-2.12,1.37-3.37.9-.53-.2-1.06-.43-1.59-.66C-324.67,479.52-324.44,485.53-324.48,491.51Z" transform="translate(511.15 -359.99)"/><path class="cls-8" d="M-316.78,510.36q.3-4.08.61-8.17c.69-8.9,1.67-17.76,2.28-26.67-.43-.16-1.47-.77-2.5-1.32-1.35,12.7-2.13,25.5-3.21,38.25A5.74,5.74,0,0,0-316.78,510.36Z" transform="translate(511.15 -359.99)"/><path class="cls-8" d="M-328.61,471.58c-1.12-.54-2.24-1.06-3.39-1.49-.33,6.61-.4,13.23-.41,19.85C-331.34,483.76-329.73,477.74-328.61,471.58Z" transform="translate(511.15 -359.99)"/><path class="cls-8" d="M-343.48,516.15a2.89,2.89,0,0,0,.43.33c.09-3.09.31-6.17.61-9.24-.43,3-.69,6-1.15,8.9A.08.08,0,0,1-343.48,516.15Z" transform="translate(511.15 -359.99)"/><path class="cls-8" d="M-368.12,516.64a3.09,3.09,0,0,0,.77-.62,2.43,2.43,0,0,0,.21-.68.12.12,0,0,1,.17-.11c.19-2,.32-4.08.47-6.12.13-1.77.38-3.53.59-5.29.32-2.69.6-5.38.87-8.08.94-9.43,1.73-18.88,2.63-28.31l-5.91,0c.24,8.91,0,17.83,0,26.74,0,5.43.12,10.86.15,16.3C-368.21,512.51-368.17,514.57-368.12,516.64Z" transform="translate(511.15 -359.99)"/><path class="cls-8" d="M-388.9,516.55c1.25-16,.19-32.25.64-48.36a12.35,12.35,0,0,1-3.69-.14c-.33-.07-.75.54-.26.64l.67.12-1.6.18c.33,3.6.51,7.22.85,10.82.49,5.29.81,10.62,1.14,15.94.46,7.36,1,14.72,1.25,22.1a1.24,1.24,0,0,0,1-1.19.16.16,0,0,1,0-.08Z" transform="translate(511.15 -359.99)"/></g><path class="cls-9" d="M-485,516.6c0,.1,0,.21,0,.31l0,0c-.12-5.09-.6-10.18-1.07-15.23q-.77-8.31-1.82-16.57c0-.21-.26,0-.25.14.53,5.35,1.08,10.69,1.55,16,.45,5,.72,10.06,1.15,15.07l.27,0A.15.15,0,0,1-485,516.6Z" transform="translate(511.15 -359.99)"/><path class="cls-9" d="M-460.44,477.17c0-.23-.29,0-.27.15,1.68,13.23,2.29,26.59,3.45,39.9.07,0,.13.05.14.16,0,.51.07,1,.11,1.54l.32.14s0,0,0,0C-457.37,505-458.47,490.94-460.44,477.17Z" transform="translate(511.15 -359.99)"/><path class="cls-9" d="M-434.55,518a.18.18,0,0,1,.06.14c0,.2,0,.4,0,.6l.37.12c0-5.19-.39-10.37-.61-15.55s-.26-10.07-.46-15.11c0-.34-.4,0-.39.23.16,5.06.17,10.12.33,15.18C-435.08,508.43-434.8,513.22-434.55,518Z" transform="translate(511.15 -359.99)"/><path class="cls-9" d="M-411.67,517.28l.29.13c.17-10-.42-19.89.09-29.85,0-.27-.33-.06-.35.15-.53,9.8-.38,19.74-.1,29.57A.08.08,0,0,1-411.67,517.28Z" transform="translate(511.15 -359.99)"/><path class="cls-9" d="M-388.79,516.44c.43-6.17.6-12.38.82-18.57.24-6.91.26-13.91.87-20.78,0-.27-.26-.12-.28.07-.63,6.5-.7,13.12-1,19.67-.32,6.89-.54,13.79-.92,20.67a1.54,1.54,0,0,0,.35-.84.16.16,0,0,1,0-.09C-388.9,516.51-388.85,516.44-388.79,516.44Z" transform="translate(511.15 -359.99)"/><path class="cls-9" d="M-367.15,515.34c0-.11.11-.14.18-.1l.06,0c.63-6.11,1-12.26,1.66-18.37.68-6.74,1.46-13.48,2-20.25,0-.25-.24-.11-.25.07-.55,6.79-1.41,13.54-2.13,20.3-.67,6.32-1.22,12.68-1.7,19l0,0A2.42,2.42,0,0,0-367.15,515.34Z" transform="translate(511.15 -359.99)"/><path class="cls-9" d="M-343.79,516.79l.1-.43c.54-5.67,1.13-11.33,1.67-17,.56-5.82,1.65-11.52,2-17.38,0-.26-.25-.12-.27.07-1,11.62-3.54,23.06-3.87,34.79l.27,0Z" transform="translate(511.15 -359.99)"/><path class="cls-9" d="M-323,476.53c-.08,3.3-.53,6.61-.75,9.89-.23,3.46-.53,6.91-.73,10.37-.37,6.15-.73,12.37-.68,18.56.11-.14.24-.32.35-.49.25-6.58.48-13.16.88-19.73.19-3.19.43-6.37.62-9.56s.52-6.13.54-9.19C-322.76,476.15-323,476.37-323,476.53Z" transform="translate(511.15 -359.99)"/><path class="cls-10" d="M-308.75,475.51c-30.64-12.32-56.2-36.45-90.54-38.7A97.37,97.37,0,0,0-448.79,447,131.8,131.8,0,0,0-479,468.11c-10,9.16-17.52,20.73-28,29.35-1.34,1.11-2.71,2.2-4.14,3.22a28.51,28.51,0,0,1,2.89-1.13l1.48-.49c-.19.24-.36.48-.52.7a11.31,11.31,0,0,0-2,4.53.18.18,0,0,0,0,.13l0,.06a.22.22,0,0,0,.34.26,14.49,14.49,0,0,1,5-3.34,5.49,5.49,0,0,0-1,2.13,3,3,0,0,0-.15.8c0,.2.27.22.33,0a6.37,6.37,0,0,1,3-3.23c-.29.51-.58,1-.89,1.53a.16.16,0,0,0,0,.21,3,3,0,0,0-.21.36.18.18,0,0,0,.28.22,11.48,11.48,0,0,1,3.9-2.41l-.22.34a11.82,11.82,0,0,1-3.08,3.36.15.15,0,0,0-.07.14l-.16.13c-.18.14,0,.39.23.3,1.19-.59,2.41-1,3.55-1.61a7.58,7.58,0,0,1-.87,1.3.2.2,0,0,0,.18.33.15.15,0,0,0,.2,0c1.22-.93,2.49-1.75,3.79-2.55l.24-.15-.1.2a9,9,0,0,0-1.18,4,2.85,2.85,0,0,0-.11.49c0,.17.22.2.31.08a8.85,8.85,0,0,1,2.19-2.53,15.86,15.86,0,0,1,3-1.65c.61-.27,1.28-.51,1.95-.76-.68.63-1.29,1.35-1.92,2-.14.15,0,.43.23.3a13.6,13.6,0,0,1,2.62-1.16,12.87,12.87,0,0,1-3.58,2.63c-.21.1-.06.45.16.37a30.86,30.86,0,0,0,5.66-2.51c-1.45,2.32-1.33,5.78-1,8.27a.23.23,0,0,0,.45.06c1.54-3.77,5.28-5.72,8.79-7.44-.57.72-1.28,1.32-1.84,2h0l0,0c-.18.23.18.43.37.28.76-.6,1.54-1.18,2.24-1.84a7.36,7.36,0,0,1-.35,1.9.22.22,0,0,0,.37.21c1.48-1.49,3.39-2.4,4.72-4a10.24,10.24,0,0,1-4.61,6.39c-.16.11-.12.43.11.4a14.43,14.43,0,0,0,6.79-3,16.77,16.77,0,0,0,2.93-2.8,6.93,6.93,0,0,0,.49,3.15c.07.15.29.09.33,0a5.66,5.66,0,0,1,1-2,5.55,5.55,0,0,0,1.11,2.24.2.2,0,0,0,.33-.09,7.08,7.08,0,0,1,.63-2c1,2.67,3.76,3.37,5.93,5,.13.1.3,0,.31-.17.07-1.48,1-2.82,1.13-4.27a9.32,9.32,0,0,0,.69,1.26.2.2,0,0,0,.36-.1,9.94,9.94,0,0,0-.11-1.14,4,4,0,0,0,1.67,1,.19.19,0,0,0,.22-.28,2.55,2.55,0,0,1-.28-1.1,9.68,9.68,0,0,0,1.53,1.27.2.2,0,0,0,.29-.22,1.74,1.74,0,0,1-.07-1c1.24,1,2.8,1.95,3.51,3.4.08.16.31.1.36,0,.53-1.5,1.73-2.73,1.74-4.29.79.87,2.06,1.4,2.73,2.38.11.16.44.12.42-.11-.08-.7-.19-1.4-.25-2.09a11,11,0,0,0,4.06,2.31.22.22,0,0,0,.27-.27c-.16-.52-.28-1.06-.39-1.6a5.75,5.75,0,0,0,1.87,1.56c.15.07.4,0,.32-.24-.18-.45-.37-.91-.54-1.36,3.17,2.51,7.84.13,11.43,1.8.19.09.46-.11.31-.31a11.34,11.34,0,0,0-1.49-1.79,15.06,15.06,0,0,1,2.61,1.24c.2.13.38-.11.29-.29a7.77,7.77,0,0,0-.57-1,9.15,9.15,0,0,1,3.32,1.07c.18.12.4-.12.29-.29a12.92,12.92,0,0,0-.79-1.09,11.85,11.85,0,0,0,3.34,0,19.24,19.24,0,0,1,9,1c.24.1.34-.22.22-.37a13.37,13.37,0,0,0-2.25-2.3c2.89.3,6.26.15,8.31,2.24.19.2.46,0,.35-.27a10.67,10.67,0,0,0-2.59-3.81c1.78.16,3.56.29,4.89,1.64a.23.23,0,0,0,.36-.28,7.45,7.45,0,0,0-2.06-2.75c2.62.2,5.2,1.47,7.55,2.5.16.07.41,0,.34-.26a7.42,7.42,0,0,0-4.77-4.64,11.71,11.71,0,0,1,5.38,1c.19.09.45-.1.31-.31a7,7,0,0,0-2-2,10.32,10.32,0,0,0,5.15-1,.21.21,0,0,0-.11-.39c-2.26.26-3.86-1-5.07-2.66A20.54,20.54,0,0,1-392,494.2c.21.13.39-.19.19-.32a3.12,3.12,0,0,1-1-2.62,7.93,7.93,0,0,0,3.38,1.79c1.6.46,3.83.27,5,1.61.19.22.5-.1.31-.32a14.3,14.3,0,0,0-4.16-3.9,14.59,14.59,0,0,0,2.93-.35c1.75-.39,3.3-1.21,4.91,0,.22.17.53-.11.31-.32s-.52-.48-.81-.71h.47a6.74,6.74,0,0,1,3.89,1.34c.17.12.41-.12.29-.29a7.73,7.73,0,0,0-1.31-1.39,15.28,15.28,0,0,0,4.77-.26c1.17-.17,3.08-.65,4.26,0l.58.47,0,0c.22.16.42-.17.27-.35a2,2,0,0,0-.68-.54,12.66,12.66,0,0,0-3.51-2.53,11.78,11.78,0,0,0-2.77-.65,8.25,8.25,0,0,1,4.17-.33c.2.06.39-.23.22-.37a10.42,10.42,0,0,0-2.72-1.54c1.15,0,2.29-.17,3.42-.26,3.26-.26,6.08,1,8.81,2.63a.23.23,0,0,0,.28-.36,24.67,24.67,0,0,0-2.43-2.3,8.36,8.36,0,0,1,3.54,2.23.21.21,0,0,0,.33-.25,32.68,32.68,0,0,0-2.52-4.24c1.57.55,3.32,1,3.84,2.71a.21.21,0,0,0,.41-.11,13.65,13.65,0,0,0-.49-1.54,4.54,4.54,0,0,1,1.89,2.5.21.21,0,0,0,.41-.06,7,7,0,0,0-.28-1.83c.59.44,1.24.8,1.68,1.07,1.8,1.13,4.42,2.39,4.72,4.7,0,.29.47.31.47,0a22.86,22.86,0,0,0-.61-5.6l.36.2c1.34.76,3,1.27,4.14,2.36a.23.23,0,0,0,.37-.21,11.85,11.85,0,0,0-1.26-2.89c3.74,1.75,7.9,2.57,11.59,4.46.16.08.41-.06.33-.25a16.71,16.71,0,0,0-3.14-5.37c1.35.45,2.9.49,4.15,1.19.2.12.44-.17.25-.32-.59-.47-1.15-1-1.73-1.56a8.05,8.05,0,0,1,2.87,1.28c.19.15.46-.09.28-.27-.68-.68-1.35-1.42-2.06-2.09,3.23,1.21,7.23,1.17,9.34,4.12a.22.22,0,0,0,.38-.22,10.32,10.32,0,0,0-.76-1.46,8.61,8.61,0,0,1,2.24,1,.21.21,0,0,0,.35-.2,5.08,5.08,0,0,0-.43-1.05,20.44,20.44,0,0,0,2.8,1,21.66,21.66,0,0,1,5.79,3.07c.2.13.37-.12.29-.29a16.94,16.94,0,0,0-3.18-5.44,9.8,9.8,0,0,0-2.32-1.67c1.31.18,2.84.44,3.56,1.33.14.18.41,0,.31-.23a8.15,8.15,0,0,0-2.47-2.52c2.3.56,4.79,1,6.34,2.86a.2.2,0,0,0,.35-.15,7.33,7.33,0,0,0-1.62-3.87,27.79,27.79,0,0,0,3.65.76Z" transform="translate(511.15 -359.99)"/><path class="cls-11" d="M-308.75,475.51c-2.68-1.08-5.33-2.25-7.95-3.49,0,.07-.06.13-.12.14a33.6,33.6,0,0,1-7.38-.38,29.9,29.9,0,0,0,3.84,1.05c.15,0,.1.31,0,.33-2.2.29-4.4.61-6.61.79a77.86,77.86,0,0,0,7.13,3.54c.13.05.11.33,0,.33a43.22,43.22,0,0,1-7.59-1c-1.32-.25-2.6-.75-3.91-1.07a25.55,25.55,0,0,0-2.8-.47c-1.51-.19-3-.35-4.53-.65a9.26,9.26,0,0,1,1.57,2.08c.08.14-.07.29-.17.23-1.49-1-3.17-1-4.79-1.22l-1.61-.23a14.53,14.53,0,0,1,2.22,1.66.19.19,0,0,1,0,.3l-.48.19c-3,1-6.22.67-9.25.25l-1.95-.3a7.34,7.34,0,0,1,1.52,2.27c0,.11,0,.3-.14.25a14.13,14.13,0,0,0-3.88-1.35c-1.41-.3-2.81-.67-4.21-1q-4.13-1.05-8.25-2.2l-3.87-1.11a52.28,52.28,0,0,1,7.16,6.08.18.18,0,0,1-.09.28,20.39,20.39,0,0,1-5.81-.74,43,43,0,0,0-4.73-.67l-1.54-.2a8,8,0,0,1,.85,1.37.17.17,0,0,1-.11.25c-2.8.12-5.56,1-8.35,1.24-.6.06-1.21.11-1.82.12a4.77,4.77,0,0,1,2.25,1.86c.05.09,0,.25-.06.28-2.66.7-5.34-.3-8-.12-1.88.13-3.76.37-5.63.64,2.44,1.06,4.86,2.18,7.24,3.48.12.07.12.32,0,.33a44.62,44.62,0,0,1-11.81-.78,14.13,14.13,0,0,1,1.3,1.49.19.19,0,0,1-.05.28c-1.81.61-4,0-5.71-.61-.44-.16-.91-.34-1.38-.55,1.66,2,3.56,3.79,4.58,6.57,0,.13,0,.27-.14.24a43.81,43.81,0,0,1-7.47-2.59,14.88,14.88,0,0,1-6.05-4.79c0,1.3,0,2.6.12,3.9,0,.12-.11.22-.18.14a10,10,0,0,1-2.24-3.79l-1.51,1.12c-1.82,1.34-3.62,2.72-5.46,4a19.2,19.2,0,0,0-5.3,4.63c-.08.1-.21,0-.21-.12a8.78,8.78,0,0,1,1.16-4.47,24.34,24.34,0,0,0-5.39,5.59c-.09.12-.23,0-.21-.16a19.17,19.17,0,0,1,1.59-4.91c-.69.6-1.38,1.2-2.07,1.78-1.7,1.43-3.62,3-5.68,3-.08,0-.14-.11-.12-.21a21.14,21.14,0,0,1,3.18-7.63,32.48,32.48,0,0,0-5.56,5.79c-.08.11-.25,0-.21-.16a25.57,25.57,0,0,1,1.09-3.34,36.77,36.77,0,0,0-6.3,7.82c-.08.14-.23,0-.21-.16a41.23,41.23,0,0,1,1.89-7.4c-3,2.48-6.09,4.68-9.1,7.09-.1.08-.24-.09-.17-.23A22.78,22.78,0,0,1-455.9,496a48.65,48.65,0,0,0-5.92,5.69c-.08.08-.22,0-.21-.12a19.24,19.24,0,0,1,1.42-6.35,61.92,61.92,0,0,1-9,7.32c-.11.07-.23-.08-.17-.23.89-2,1.76-4.12,2.63-6.18q-2.61,1.31-5.18,2.75c-3.49,2-6.72,4.53-10.1,6.82-.12.08-.21-.08-.17-.23a19.31,19.31,0,0,1,3.93-7,14.38,14.38,0,0,1-5.79,2.06c-.09,0-.15-.14-.11-.25a22.74,22.74,0,0,1,2.49-4.32c-1.16.52-2.33,1.06-3.48,1.63-2.42,1.18-4.65,3-7.13,3.94-.12,0-.2-.16-.12-.28a19.08,19.08,0,0,1,2.49-2.94,14.14,14.14,0,0,1-5.23.4c-.13,0-.16-.21-.06-.31,1.24-1.23,2.49-2.43,3.74-3.64-1,.59-2,1.19-3,1.8-1.51.9-3.14,1.76-4.83,1.49a.18.18,0,0,1-.09-.28c.29-.39.59-.77.89-1.14a28.85,28.85,0,0,1-5.48,1.26c-.09,0-.16-.15-.11-.25.8-1.61,1.64-3.18,2.5-4.74-1.6,1.57-3.25,3.08-5,4.51-1.34,1.11-2.71,2.2-4.14,3.22a28.51,28.51,0,0,1,2.89-1.13l1.48-.49c-.19.24-.36.48-.52.7a11.31,11.31,0,0,0-2,4.53.18.18,0,0,0,0,.13l0,.06a.22.22,0,0,0,.34.26,14.49,14.49,0,0,1,5-3.34,5.49,5.49,0,0,0-1,2.13,3,3,0,0,0-.15.8c0,.2.27.22.33,0a6.37,6.37,0,0,1,3-3.23c-.29.51-.58,1-.89,1.53a.16.16,0,0,0,0,.21,3,3,0,0,0-.21.36.18.18,0,0,0,.28.22,11.48,11.48,0,0,1,3.9-2.41l-.22.34a11.82,11.82,0,0,1-3.08,3.36.15.15,0,0,0-.07.14l-.16.13c-.18.14,0,.39.23.3,1.19-.59,2.41-1,3.55-1.61a7.58,7.58,0,0,1-.87,1.3.2.2,0,0,0,.18.33.15.15,0,0,0,.2,0c1.22-.93,2.49-1.75,3.79-2.55l.24-.15-.1.2a9,9,0,0,0-1.18,4,2.85,2.85,0,0,0-.11.49c0,.17.22.2.31.08a8.85,8.85,0,0,1,2.19-2.53,15.86,15.86,0,0,1,3-1.65c.61-.27,1.28-.51,1.95-.76-.68.63-1.29,1.35-1.92,2-.14.15,0,.43.23.3a13.6,13.6,0,0,1,2.62-1.16,12.87,12.87,0,0,1-3.58,2.63c-.21.1-.06.45.16.37a30.86,30.86,0,0,0,5.66-2.51c-1.45,2.32-1.33,5.78-1,8.27a.23.23,0,0,0,.45.06c1.54-3.77,5.28-5.72,8.79-7.44-.57.72-1.28,1.32-1.84,2h0l0,0c-.18.23.18.43.37.28.76-.6,1.54-1.18,2.24-1.84a7.36,7.36,0,0,1-.35,1.9.22.22,0,0,0,.37.21c1.48-1.49,3.39-2.4,4.72-4a10.24,10.24,0,0,1-4.61,6.39c-.16.11-.12.43.11.4a14.43,14.43,0,0,0,6.79-3,16.77,16.77,0,0,0,2.93-2.8,6.93,6.93,0,0,0,.49,3.15c.07.15.29.09.33,0a5.66,5.66,0,0,1,1-2,5.55,5.55,0,0,0,1.11,2.24.2.2,0,0,0,.33-.09,7.08,7.08,0,0,1,.63-2c1,2.67,3.76,3.37,5.93,5,.13.1.3,0,.31-.17.07-1.48,1-2.82,1.13-4.27a9.32,9.32,0,0,0,.69,1.26.2.2,0,0,0,.36-.1,9.94,9.94,0,0,0-.11-1.14,4,4,0,0,0,1.67,1,.19.19,0,0,0,.22-.28,2.55,2.55,0,0,1-.28-1.1,9.68,9.68,0,0,0,1.53,1.27.2.2,0,0,0,.29-.22,1.74,1.74,0,0,1-.07-1c1.24,1,2.8,1.95,3.51,3.4.08.16.31.1.36,0,.53-1.5,1.73-2.73,1.74-4.29.79.87,2.06,1.4,2.73,2.38.11.16.44.12.42-.11-.08-.7-.19-1.4-.25-2.09a11,11,0,0,0,4.06,2.31.22.22,0,0,0,.27-.27c-.16-.52-.28-1.06-.39-1.6a5.75,5.75,0,0,0,1.87,1.56c.15.07.4,0,.32-.24-.18-.45-.37-.91-.54-1.36,3.17,2.51,7.84.13,11.43,1.8.19.09.46-.11.31-.31a11.34,11.34,0,0,0-1.49-1.79,15.06,15.06,0,0,1,2.61,1.24c.2.13.38-.11.29-.29a7.77,7.77,0,0,0-.57-1,9.15,9.15,0,0,1,3.32,1.07c.18.12.4-.12.29-.29a12.92,12.92,0,0,0-.79-1.09,11.85,11.85,0,0,0,3.34,0,19.24,19.24,0,0,1,9,1c.24.1.34-.22.22-.37a13.37,13.37,0,0,0-2.25-2.3c2.89.3,6.26.15,8.31,2.24.19.2.46,0,.35-.27a10.67,10.67,0,0,0-2.59-3.81c1.78.16,3.56.29,4.89,1.64a.23.23,0,0,0,.36-.28,7.45,7.45,0,0,0-2.06-2.75c2.62.2,5.2,1.47,7.55,2.5.16.07.41,0,.34-.26a7.42,7.42,0,0,0-4.77-4.64,11.71,11.71,0,0,1,5.38,1c.19.09.45-.1.31-.31a7,7,0,0,0-2-2,10.32,10.32,0,0,0,5.15-1,.21.21,0,0,0-.11-.39c-2.26.26-3.86-1-5.07-2.66A20.54,20.54,0,0,1-392,494.2c.21.13.39-.19.19-.32a3.12,3.12,0,0,1-1-2.62,7.93,7.93,0,0,0,3.38,1.79c1.6.46,3.83.27,5,1.61.19.22.5-.1.31-.32a14.3,14.3,0,0,0-4.16-3.9,14.59,14.59,0,0,0,2.93-.35c1.75-.39,3.3-1.21,4.91,0,.22.17.53-.11.31-.32s-.52-.48-.81-.71h.47a6.74,6.74,0,0,1,3.89,1.34c.17.12.41-.12.29-.29a7.73,7.73,0,0,0-1.31-1.39,15.28,15.28,0,0,0,4.77-.26c1.17-.17,3.08-.65,4.26,0l.58.47,0,0c.22.16.42-.17.27-.35a2,2,0,0,0-.68-.54,12.66,12.66,0,0,0-3.51-2.53,11.78,11.78,0,0,0-2.77-.65,8.25,8.25,0,0,1,4.17-.33c.2.06.39-.23.22-.37a10.42,10.42,0,0,0-2.72-1.54c1.15,0,2.29-.17,3.42-.26,3.26-.26,6.08,1,8.81,2.63a.23.23,0,0,0,.28-.36,24.67,24.67,0,0,0-2.43-2.3,8.36,8.36,0,0,1,3.54,2.23.21.21,0,0,0,.33-.25,32.68,32.68,0,0,0-2.52-4.24c1.57.55,3.32,1,3.84,2.71a.21.21,0,0,0,.41-.11,13.65,13.65,0,0,0-.49-1.54,4.54,4.54,0,0,1,1.89,2.5.21.21,0,0,0,.41-.06,7,7,0,0,0-.28-1.83c.59.44,1.24.8,1.68,1.07,1.8,1.13,4.42,2.39,4.72,4.7,0,.29.47.31.47,0a22.86,22.86,0,0,0-.61-5.6l.36.2c1.34.76,3,1.27,4.14,2.36a.23.23,0,0,0,.37-.21,11.85,11.85,0,0,0-1.26-2.89c3.74,1.75,7.9,2.57,11.59,4.46.16.08.41-.06.33-.25a16.71,16.71,0,0,0-3.14-5.37c1.35.45,2.9.49,4.15,1.19.2.12.44-.17.25-.32-.59-.47-1.15-1-1.73-1.56a8.05,8.05,0,0,1,2.87,1.28c.19.15.46-.09.28-.27-.68-.68-1.35-1.42-2.06-2.09,3.23,1.21,7.23,1.17,9.34,4.12a.22.22,0,0,0,.38-.22,10.32,10.32,0,0,0-.76-1.46,8.61,8.61,0,0,1,2.24,1,.21.21,0,0,0,.35-.2,5.08,5.08,0,0,0-.43-1.05,20.44,20.44,0,0,0,2.8,1,21.66,21.66,0,0,1,5.79,3.07c.2.13.37-.12.29-.29a16.94,16.94,0,0,0-3.18-5.44,9.8,9.8,0,0,0-2.32-1.67c1.31.18,2.84.44,3.56,1.33.14.18.41,0,.31-.23a8.15,8.15,0,0,0-2.47-2.52c2.3.56,4.79,1,6.34,2.86a.2.2,0,0,0,.35-.15,7.33,7.33,0,0,0-1.62-3.87,27.79,27.79,0,0,0,3.65.76Z" transform="translate(511.15 -359.99)"/><g class="cls-12"><path class="cls-13" d="M-499.36,492.27s5.17-4.49,13.3-14.8,37.32-34.92,65.9-38.58c0,0,33.26-5.65,23.9,5.65C-404,453.88-506.26,505.08-499.36,492.27Z" transform="translate(511.15 -359.99)"/></g><path class="cls-14" d="M-358.15,502.52c-.49-1.2-1.53-.5-2.1.18a8.32,8.32,0,0,0-1.45,3.86c-.21,1.2-.4,3,.25,4v0a.62.62,0,0,0,.79.46C-358.37,510.77-357.15,504.94-358.15,502.52Z" transform="translate(511.15 -359.99)"/><path class="cls-14" d="M-354.58,498.56a.77.77,0,0,0-.64.6c-.08.26-.05.68.22.68a.77.77,0,0,0,.64-.6C-354.28,499-354.31,498.56-354.58,498.56Z" transform="translate(511.15 -359.99)"/><path class="cls-14" d="M-352.37,509.8c-.16-1-1-.24-1.19.31a5.76,5.76,0,0,0-.18,1.14,4,4,0,0,1-.2.76h0a.72.72,0,0,0,0,.64c.17.23.43.08.6-.05a2.45,2.45,0,0,0,.7-1.23A4.21,4.21,0,0,0-352.37,509.8Z" transform="translate(511.15 -359.99)"/><path class="cls-14" d="M-334.46,501.26c-.55-2-2.11-.89-2.72.45a18.77,18.77,0,0,0-1.28,5l-.05.27c-.22,1.16-.7,3.66.19,4.55,1.35,1.33,2.66-1.68,3-3,.29-1.08.35-2.22.58-3.32A9.29,9.29,0,0,0-334.46,501.26Z" transform="translate(511.15 -359.99)"/><g class="cls-15"><path class="cls-16" d="M-327.68,495.28l-.07-.13a.38.38,0,0,0-.12-.12h0c.07,0,0,0,0,0a.26.26,0,0,0-.15,0c-.26,0-.51.29-.65.55a1.7,1.7,0,0,0-.16.48c-.08.43.18.73.48.65a1.2,1.2,0,0,0,.73-1.14s0-.05,0-.08Z" transform="translate(511.15 -359.99)"/><path class="cls-16" d="M-327.75,495.15l.06.12Z" transform="translate(511.15 -359.99)"/><path class="cls-16" d="M-327.66,495.52v0C-327.67,495.7-327.67,495.69-327.66,495.52Z" transform="translate(511.15 -359.99)"/><path class="cls-16" d="M-327.75,495.15Z" transform="translate(511.15 -359.99)"/></g><path class="cls-14" d="M-320.77,502.5l0,0s0,0,0,0v0c-.19-.4-.58,0-.69.3l0,.06,0,0a1.35,1.35,0,0,0-.16.47c0,.37.13.65.43.58a1.06,1.06,0,0,0,.64-1A.56.56,0,0,0-320.77,502.5Z" transform="translate(511.15 -359.99)"/><path class="cls-14" d="M-318,490.28h0l0-.23c-.06-.53-.59-.08-.63.27l0,.26a1.33,1.33,0,0,1,0,.26v.06a.93.93,0,0,0-.06.44.36.36,0,0,0,.17.35c.25.12.55-.12.68-.41,0-.06.07-.15.08-.2a1.65,1.65,0,0,0,0-.2c0-.2,0-.22,0-.07A.46.46,0,0,0-318,490.28Z" transform="translate(511.15 -359.99)"/><path class="cls-14" d="M-379.19,504.2a.74.74,0,0,0-1.12.09,5.48,5.48,0,0,0-1.29,3.57,7.34,7.34,0,0,0,.09,1.75,5.17,5.17,0,0,0,.33,1.74.82.82,0,0,0,1.43.37,4.14,4.14,0,0,0,1-2.31C-378.43,507.92-378.19,505.3-379.19,504.2Z" transform="translate(511.15 -359.99)"/><path class="cls-14" d="M-371.82,497.17a1,1,0,0,0-.44.85v.16a.31.31,0,0,0,.5.3,1,1,0,0,0,.44-.85v-.16A.31.31,0,0,0-371.82,497.17Z" transform="translate(511.15 -359.99)"/><path class="cls-14" d="M-393.88,507.82a.66.66,0,0,0-1-.35,2.42,2.42,0,0,0-.34.26l-.15.1a1.46,1.46,0,0,0-.41.61,2.15,2.15,0,0,0-.3,1.54c0,.27,0,.53-.05.75-.06.9-.19,2.51.38,3.17,1,1.18,2.07-1.16,2.21-2.28A9.19,9.19,0,0,0-393.88,507.82Z" transform="translate(511.15 -359.99)"/><path class="cls-14" d="M-406.65,512.35a.85.85,0,0,0,0-.46.27.27,0,0,0-.23-.21h0c0-.14-.07-.27-.18-.28s-.32.13-.4.3a2.5,2.5,0,0,0-.21,1.08.38.38,0,0,0,.16.32c.16.09.32,0,.45-.12a1.09,1.09,0,0,0,.2-.22,1.18,1.18,0,0,0,.17-.34s.12-.4,0-.09Z" transform="translate(511.15 -359.99)"/><path class="cls-14" d="M-402.78,508.9c-.15-.2-.37-.07-.52,0l-.08.06c-.22.16-.47.73-.25,1a.31.31,0,0,0,.43,0,1.07,1.07,0,0,0,.41-.55l0-.09A.62.62,0,0,0-402.78,508.9Z" transform="translate(511.15 -359.99)"/><path class="cls-14" d="M-430.62,509.89c-.28-.45-.82,0-1,.28a4.86,4.86,0,0,0-.79,3.43c0,1.31.25,2.64.72,3s1-.3,1.28-.74a4.16,4.16,0,0,0,.45-1.88A8,8,0,0,0-430.62,509.89Z" transform="translate(511.15 -359.99)"/><path class="cls-14" d="M-427.28,513.15c-.42,0-.91,1.15-.37,1.15S-426.74,513.15-427.28,513.15Z" transform="translate(511.15 -359.99)"/><path class="cls-14" d="M-415.74,510.61c-.06-1.1-.43-3.14-1.57-2.84s-1.48,1.69-1.58,3A5.79,5.79,0,0,0-419,512a10.51,10.51,0,0,0,.51,3.57c.53,1.34,1.79.33,2.22-.63A9.79,9.79,0,0,0-415.74,510.61Z" transform="translate(511.15 -359.99)"/><path class="cls-14" d="M-453.92,512c-.24-.57-.75-.26-1,.08a3.64,3.64,0,0,0-.44,3.1,4.64,4.64,0,0,0,.27,1.35.36.36,0,0,0,.58.19C-453.33,515.9-453.32,513.46-453.92,512Z" transform="translate(511.15 -359.99)"/><path class="cls-14" d="M-452.17,516.05a.39.39,0,0,0-.12,0h-.12l-.12.05a1.14,1.14,0,0,0-.48.77.52.52,0,0,0,.17.53.44.44,0,0,0,.5-.13,1.17,1.17,0,0,0,.35-.67C-452,516.4-452,516.1-452.17,516.05Z" transform="translate(511.15 -359.99)"/><path class="cls-14" d="M-440.88,510.32c-.64-1-1.77-.27-2.23.65a7.11,7.11,0,0,0-.55,3.42,6.55,6.55,0,0,0,.44,2.67c.22.52.54.68.88.63a1.27,1.27,0,0,0,1-.61,3.15,3.15,0,0,0,.6-1.27,9,9,0,0,0,.32-2.23A6.45,6.45,0,0,0-440.88,510.32Z" transform="translate(511.15 -359.99)"/><path class="cls-14" d="M-464.8,513.5a1.1,1.1,0,0,0-.67.77,1.25,1.25,0,0,0-.1.38.72.72,0,0,0,.09.5.33.33,0,0,0,.37.12,1,1,0,0,0,.62-.66v0a1.4,1.4,0,0,0,.15-.47C-464.28,513.71-464.49,513.42-464.8,513.5Z" transform="translate(511.15 -359.99)"/><path class="cls-14" d="M-478.88,512.79c-.11-1-.37-3.3-1.36-3.45-1.32-.2-1.74,1.93-1.6,3.28-.14,1.2.2,3,1.14,3.4.62.28,1.22-.4,1.53-1.06A3.85,3.85,0,0,0-478.88,512.79Z" transform="translate(511.15 -359.99)"/><path class="cls-14" d="M-477.66,514.57c0-.25-.1-.41-.37-.3l-.05,0a.56.56,0,0,0-.45.36.87.87,0,0,0-.11.61c0,.31.18.54.45.38a.82.82,0,0,0,.4-.44l0-.06A1.19,1.19,0,0,0-477.66,514.57Z" transform="translate(511.15 -359.99)"/><path class="cls-14" d="M-469.5,514.62c-.39,0-.86,1.08-.35,1.08S-469,514.62-469.5,514.62Z" transform="translate(511.15 -359.99)"/><path class="cls-14" d="M-501.55,506c-.24-.61-.81-.11-1,.27-.36.64-.72,3,0,3.42a1.32,1.32,0,0,0,.57.74c.27.15.6-.21.7-.54A6.34,6.34,0,0,0-501.55,506Z" transform="translate(511.15 -359.99)"/><path class="cls-14" d="M-499.29,510.7c-.42,0-.93,1.17-.38,1.17S-498.75,510.7-499.29,510.7Z" transform="translate(511.15 -359.99)"/><path class="cls-14" d="M-490.07,507.44c-.4-.69-1.14.36-1.32.79a3.5,3.5,0,0,0-.25,1.13,6.49,6.49,0,0,0,.83,4.61.4.4,0,0,0,.56.06C-488.63,512.88-489.12,509.08-490.07,507.44Z" transform="translate(511.15 -359.99)"/><ellipse class="cls-17" cx="105.83" cy="108.85" rx="68.11" ry="8.76"/><path class="cls-18" d="M-442.62,468.83h-8.84a16.94,16.94,0,0,1-10.37-3.44c-1.84-1.42-3.15-3-2.08-4.36,2.49-3.08,7-.52,7-.52s-2-9.06,1.7-9.28,6.84,6,6.84,6,2.07-6.25,5.73-4.75S-442.62,468.83-442.62,468.83Z" transform="translate(511.15 -359.99)"/><path class="cls-18" d="M-365.52,468.83h8.84a16.94,16.94,0,0,0,10.37-3.44c1.84-1.42,3.15-3,2.08-4.36-2.49-3.08-7-.52-7-.52s2-9.06-1.7-9.28-6.84,6-6.84,6-2.07-6.25-5.73-4.75S-365.52,468.83-365.52,468.83Z" transform="translate(511.15 -359.99)"/><polygon class="cls-19" points="113.22 0.3 148.06 52.74 173.95 52.74 138.91 0 113.22 0.3"/><polygon class="cls-20" points="161.38 52.74 150.27 108.85 58.9 108.85 47.78 52.74 78.7 6.2 130.46 6.2 130.64 6.46 161.38 52.74"/><polygon class="cls-21" points="161.38 52.74 150.27 108.85 111.01 108.85 99.89 52.74 130.64 6.46 161.38 52.74"/><g class="cls-22"><path class="cls-23" d="M-349.89,411.78l-4.83,4.83-5.83-5.84,5.83-5.83,2.35,2.35-6.1-9.18-2.08-2.09.41-.41-1.23-1.86-.74.74-5.83-5.84,1.9-1.91-1.23-1.85-2.22,2.22-6.39-6.39,3.51-3.51-1.23-1.85-3.82,3.81-5.84-5.83,5-5-1.23-1.86-5.31,5.31-5.55-5.54H-394l-5.54,5.54-5.55-5.54h-3.66l-5.55,5.54-5.54-5.54h-3.66L-429,371.8l-4.92-4.92-1.23,1.86,4.61,4.62-5.83,5.83-3.43-3.43-1.23,1.85,3.12,3.13-4.58,4.58-2.2-2.2L-446,385l1.89,1.89-5.83,5.83-.71-.71-1.23,1.86.4.4-2,2-6.11,9.19,2.25-2.25,5.83,5.84-5.83,5.83-5.11-5.11-1,1.49.15.76,4.4,4.41-2.94,2.94.51,2.58,4-4,5.83,5.84-5.83,5.83-3.07-3.06.76,3.85.76.76-.51.51.51,2.58,1.55-1.55,5.83,5.84-5.44,5.46,1,4.79,4.49,4.5-3,3,.51,2.56,4-4,6.39,6.39-5.84,5.84-3.7-3.7.77,3.85,1.1,1.1h3.66l.94-.94,4.61-4.6,4.62,4.6.94.94h3.64l.94-.94,4.61-4.6,4.62,4.6.94.94H-418l.94-.94,4.6-4.6,4.61,4.6.94.94h3.66l.94-.94,4.6-4.6,4.61,4.6.94.94h3.66l.94-.94,4.61-4.6,4.6,4.6.94.94h3.66l.94-.94,4.61-4.6,4.6,4.6h2.73l.06-.32,0,0-5.83-5.84,4.58-4.58,2.78,2.78.51-2.57-1.74-1.75,2.61-2.61.76-3.84-4.91,4.91-5.83-5.83,5.83-5.83,5.22,5.21.51-2.57-4.18-4.19,5.83-5.83.28.28.9-4.55-1.18,1.18-5.83-5.84,5.83-5.83,2.72,2.71.51-2.58-1.69-1.69,2.51-2.51Zm-6.36-8.39-5.84,5.84-5.83-5.84,5.83-5.83Zm-33.8,7.37,5.83-5.83,5.84,5.83-5.84,5.84Zm4.3,7.37-5.84,5.84-5.83-5.84,5.83-5.83Zm-5.84-8.91-6.39-6.39,5.84-5.84,6.39,6.39Zm-1.53,1.53-5.84,5.84-6.39-6.39,5.84-5.84Zm-7.38,7.37-4.59,4.6-6.39-6.39,4.6-4.6Zm-6.38-9.46-5.84-5.83,5.84-5.84,5.83,5.84Zm-1.55,1.54-4.58,4.58-5.84-5.83,4.59-4.6Zm-6.13,6.13-5.83,5.83-5.84-5.83,5.84-5.84Zm-5.83-8.92-5.84-5.83,4.59-4.59,5.83,5.84Zm-1.54,1.55-5.83,5.83-5.84-5.83,5.84-5.84Zm-7.38,7.37-5.83,5.83-5.84-5.83,5.84-5.84Zm0,14.75-5.83,5.83-5.84-5.83,5.84-5.84Zm-4.29-7.37,5.84-5.84,5.83,5.84-5.83,5.83Zm13.22,1.53,6.39,6.39-5.84,5.84-6.39-6.39Zm1.53-1.53,5.84-5.84,6.39,6.39-5.84,5.84Zm13.76,2.09,5.84,5.83-5.84,5.84-5.83-5.84Zm1.55-1.54,4.58-4.58,5.84,5.83-4.6,4.6Zm12,2.79,5.84,5.83-4.59,4.59-5.83-5.84Zm1.54-1.55,5.83-5.83,5.84,5.83-5.84,5.84Zm7.37-7.37,5.83-5.83,5.84,5.83-5.84,5.84Zm0-14.75,5.83-5.83,5.84,5.83-5.84,5.84Zm-1.54-1.53-6.39-6.39,5.84-5.84,6.39,6.39Zm-7.92-7.93L-398,388.1l5.84-5.84,5.83,5.84Zm-1.55,1.54-5.83,5.83-5.84-5.83,5.84-5.84Zm-13.2-1.54-5.84-5.83,5.84-5.84,5.83,5.84Zm-1.55,1.54-5.83,5.83-5.83-5.83,5.83-5.84Zm-13.21-1.54-5.83-5.83,5.83-5.84,5.83,5.84Zm-1.54,1.54-4.58,4.58-5.84-5.83,4.59-4.59Zm-6.13,6.13-5.83,5.83L-441,401.6l5.84-5.83Zm-7.37,7.38-5.83,5.83-5.84-5.83,5.84-5.84Zm0,14.75-5.83,5.83-5.84-5.83,5.84-5.84Zm0,14.75-5.83,5.84-5.84-5.84,5.84-5.84Zm1.55,1.53,6.39,6.39-5.84,5.84-6.39-6.39Zm1.53-1.53,5.84-5.84,6.39,6.39-5.84,5.84Zm13.76,2.09,5.84,5.83-5.84,5.84-5.83-5.84Zm1.55-1.54,5.83-5.83,5.84,5.83-5.84,5.84Zm13.2,1.54,5.84,5.83-5.84,5.84-5.83-5.84Zm1.55-1.54,5.83-5.83,5.84,5.83-5.84,5.84Zm13.21,1.54,5.83,5.83-5.83,5.84-5.83-5.84Zm1.54-1.54,4.58-4.58,5.84,5.83-4.59,4.59Zm12,2.79,5.84,5.83-4.59,4.59-5.83-5.84Zm-5.83-8.92,5.83-5.83,5.84,5.83-5.84,5.83Zm7.37-7.38,5.83-5.83,5.84,5.83-5.84,5.84Zm0-14.75,5.83-5.83,5.84,5.83-5.84,5.84ZM-363.62,396l-5.84,5.84L-375.3,396l5.83-5.83Zm-7.37-7.37-5.84,5.84-6.39-6.39,5.84-5.84Zm-7.93-7.92-5.83,5.83-5.84-5.83,5.84-5.84Zm-13.2-13.22,5.83,5.84-5.83,5.83-5.84-5.83Zm-1.55,13.22-5.83,5.83-5.84-5.83,5.84-5.84Zm-13.2-13.22,5.83,5.84-5.83,5.83-5.84-5.83Zm-1.55,13.22-5.83,5.83-5.83-5.83,5.83-5.84Zm-13.21-13.22,5.83,5.84-5.83,5.83-5.83-5.83Zm-7.37,7.37,5.83,5.84-5.83,5.83-5.83-5.83Zm-7.37,7.37,5.83,5.84-4.58,4.58-5.84-5.83Zm-6.13,6.13,5.83,5.83-5.83,5.83-5.84-5.83Zm-13.22,13.21,5.84-5.83,5.83,5.83-5.83,5.83Zm0,14.76,5.84-5.84,5.83,5.84-5.83,5.83Zm0,14.75,5.84-5.84,5.83,5.84-5.83,5.83Zm0,14.75,5.84-5.84,5.83,5.84-5.83,5.84Zm7.37,7.37,5.84-5.84,6.39,6.39-5.84,5.84ZM-434.6,467l-5.83-5.84,5.83-5.83,5.84,5.83Zm1.54-13.22,5.83-5.83,5.84,5.83-5.84,5.84ZM-419.85,467l-5.83-5.84,5.83-5.83,5.84,5.83Zm1.55-13.22,5.83-5.83,5.84,5.83-5.84,5.84ZM-405.1,467l-5.83-5.84,5.83-5.83,5.84,5.83Zm1.55-13.22,5.83-5.83,5.84,5.83-5.84,5.84ZM-390.34,467l-5.83-5.84,5.83-5.83,5.83,5.83Zm1.54-13.22L-383,448l5.83,5.83-5.83,5.84ZM-375.59,467l-5.83-5.84,5.83-5.83,5.83,5.83Zm12-12-4.59,4.59-5.83-5.84,4.58-4.58Zm-5.84-8.92-5.83-5.83,5.83-5.83,5.84,5.83Zm13.22-13.21-5.84,5.83-5.83-5.83,5.83-5.83Zm-5.84-8.92-5.83-5.84,5.83-5.83,5.84,5.83Z" transform="translate(511.15 -359.99)"/></g><polygon class="cls-24" points="138.97 0.3 104.14 52.74 36.38 52.74 71.41 0 138.97 0.3"/><path class="cls-19" d="M-463.37,402.4s-.33,4.46,6,5,11.12-5,11.12-5,1.34,4.61,11.12,5a15.49,15.49,0,0,0,14-7.43s-5.91,5.17-13.23,5.17c-9.31,0-10.8-7.76-10.8-7.76s-5.8,7.66-12.22,7.66C-463.52,405.09-463.37,402.4-463.37,402.4Z" transform="translate(511.15 -359.99)"/><polygon class="cls-19" points="36.38 52.74 36.38 56.28 104.58 56.28 138.97 5.09 169.86 52.74 161.38 52.74 160.71 56.28 173.95 56.28 173.95 52.74 138.97 0.3 104.14 52.74 36.38 52.74"/><polygon class="cls-25" points="101.04 92.52 63.77 92.52 59.31 71.5 96.59 71.5 101.04 92.52"/><polygon class="cls-26" points="78.7 81.03 63.6 81.03 61.96 73.27 77.06 73.27 78.7 81.03"/><polygon class="cls-26" points="96.34 81.03 81.24 81.03 79.6 73.27 94.7 73.27 96.34 81.03"/><polygon class="cls-26" points="80.76 90.76 65.66 90.76 64.02 83 79.12 83 80.76 90.76"/><polygon class="cls-26" points="98.4 90.76 83.3 90.76 81.66 83 96.76 83 98.4 90.76"/><circle class="cls-25" cx="130.64" cy="42.41" r="11.2"/><path class="cls-26" d="M-381.56,401.34h-7.83a8.94,8.94,0,0,1,7.83-7.83Z" transform="translate(511.15 -359.99)"/><path class="cls-26" d="M-389.4,403.45h7.84v7.83A8.94,8.94,0,0,1-389.4,403.45Z" transform="translate(511.15 -359.99)"/><path class="cls-26" d="M-371.63,403.45a8.94,8.94,0,0,1-7.84,7.83v-7.83Z" transform="translate(511.15 -359.99)"/><path class="cls-26" d="M-371.63,401.34h-7.84v-7.83A9,9,0,0,1-371.63,401.34Z" transform="translate(511.15 -359.99)"/><path class="cls-27" d="M-380.51,434.93h0a8.85,8.85,0,0,1,8.84,9.28l-1.2,24.62h-15.29l-1.2-24.62A8.85,8.85,0,0,1-380.51,434.93Z" transform="translate(511.15 -359.99)"/><rect class="cls-28" x="69.47" y="14.53" width="14.65" height="20.32"/><polygon class="cls-27" points="92.48 14.53 84.12 14.53 84.12 34.85 92.48 23.04 92.48 14.53"/><polygon class="cls-19" points="94.1 10.04 94.1 15.22 82.84 15.22 74.55 15.21 67.84 15.21 67.84 10.03 72.41 10.03 79.1 10.04 94.1 10.04"/><circle class="cls-29" cx="135.96" cy="92.89" r="1.83"/><circle class="cls-25" cx="112.76" cy="58.08" r="3.02"/><circle class="cls-30" cx="148.51" cy="58.08" r="3.02"/><circle class="cls-25" cx="137.66" cy="65.36" r="3.02"/><circle class="cls-30" cx="123.61" cy="65.36" r="3.02"/></g></g></svg>