<svg xmlns="http://www.w3.org/2000/svg" viewBox="0 0 181.5 231.12"><defs><style>.cls-1{isolation:isolate;}.cls-2{fill:#cbeaf1;}.cls-3{fill:#9cd9dd;}.cls-4{fill:#b58a72;}.cls-5{fill:#582412;}.cls-6{fill:#ebd8ca;}.cls-7{fill:#e6c8b4;}.cls-8{fill:#37170f;}.cls-9{fill:#87461e;}.cls-10{fill:#965123;}.cls-11{fill:#a71e22;}.cls-12,.cls-17{opacity:0.2;}.cls-13{fill:#fff;}.cls-14{fill:#f79421;}.cls-15{fill:#e2c8b7;}.cls-16{fill:#dbbaa5;}.cls-17,.cls-18{mix-blend-mode:multiply;}.cls-18,.cls-19{fill:none;stroke-miterlimit:10;}.cls-18{stroke:#771213;stroke-width:1.1px;opacity:0.3;}.cls-19{stroke:#f79421;stroke-width:0.52px;}.cls-20{fill:#010101;}.cls-21{fill:#eaceba;}.cls-22{opacity:0.3;}</style></defs><title>cloud</title><g class="cls-1"><g id="Layer_1" data-name="Layer 1"><path class="cls-2" d="M-368.48,329.16a7.29,7.29,0,0,0-4.49-1.74c-25.39-.75-50.33,4.31-75.61,5.52-19.14.92-38.28-1.38-57.32-3.54-8.79-1-17.7-2-26.46-.69-3.39.49-7.48,2.14-7.65,5.57-.19,3.66,4.27,5.66,7.93,5.84-2,2.42-1.68,6.23.15,8.81s4.81,4.1,7.82,5.05a30.48,30.48,0,0,0,21.22-1.14c-5.57,7.7-5,18.92.43,26.72s15,11.86,24.44,12.61a30.7,30.7,0,0,0,21.18-6.59c5.88-4.75,9.68-12.19,9.36-19.74-.7,2,1.69,4,3.81,3.79s3.8-1.87,5.21-3.47c-3,3.7,8.92,12.2,11.53,13.28,14.28,5.93,34.17-1.12,39.09-16.65a32.28,32.28,0,0,0-1-21.16,10.22,10.22,0,0,0,6.12.07,4.87,4.87,0,0,0,3.35-4.71c2.68,1.91,6,3.37,9.21,2.53C-364.32,338-365,332.13-368.48,329.16Z" transform="translate(543.5 -163.38)"/><path class="cls-3" d="M-532.08,340.11c-2,2.42-1.68,6.23.15,8.81s4.81,4.1,7.82,5.05a30.48,30.48,0,0,0,21.22-1.14c-5.57,7.7-5,18.92.43,26.72a28.59,28.59,0,0,0,11.58,9.52,17.92,17.92,0,0,1-5.14-5.41c-2.52-4.21-2.81-9.23-1.76-13.94,2.07-9.27,12.37-19,22.09-14,1.62-6.77,6.41-12.42,13.58-13.5,7-1.05,13.52,2.43,17.86,7.71,2.37-7.33,12.7-4.54,16.35,1a20,20,0,0,1,9.51-8.65,26.81,26.81,0,0,1,23.88,1.4,17.25,17.25,0,0,1,7.3,8.17,14.16,14.16,0,0,1,.69,2.24,34.06,34.06,0,0,0-2.3-12.45,10.22,10.22,0,0,0,6.12.07,4.87,4.87,0,0,0,3.35-4.71c2.68,1.91,6,3.37,9.21,2.53,5.81-1.52,5.18-7.38,1.65-10.35a7.29,7.29,0,0,0-4.49-1.74c-25.39-.75-50.33,4.31-75.61,5.52-19.14.92-38.28-1.38-57.32-3.54-8.79-1-17.7-2-26.46-.69-3.39.49-7.48,2.14-7.65,5.57C-540.2,337.92-535.73,339.93-532.08,340.11Z" transform="translate(543.5 -163.38)"/><rect class="cls-4" x="48.07" y="84.58" width="76.53" height="53.06"/><rect class="cls-5" x="41.76" y="77.3" width="6.19" height="7.06"/><rect class="cls-5" x="49.3" y="77.3" width="6.19" height="7.06"/><rect class="cls-5" x="56.84" y="77.3" width="6.19" height="7.06"/><rect class="cls-5" x="64.39" y="77.3" width="6.19" height="7.06"/><rect class="cls-5" x="71.93" y="77.3" width="6.19" height="7.06"/><rect class="cls-5" x="79.47" y="77.3" width="6.19" height="7.06"/><rect class="cls-5" x="87.01" y="77.3" width="6.19" height="7.06"/><rect class="cls-5" x="94.56" y="77.3" width="6.19" height="7.06"/><rect class="cls-5" x="102.1" y="77.3" width="6.19" height="7.06"/><rect class="cls-5" x="109.64" y="77.3" width="6.19" height="7.06"/><rect class="cls-5" x="117.18" y="77.3" width="6.19" height="7.06"/><rect class="cls-5" x="124.73" y="77.3" width="6.19" height="7.06"/><rect class="cls-5" x="41.76" y="80.83" width="89.15" height="5.51"/><rect class="cls-5" x="45.97" y="85.89" width="4.21" height="7.05"/><rect class="cls-5" x="52.34" y="85.89" width="4.21" height="7.05"/><rect class="cls-5" x="58.72" y="85.89" width="4.21" height="7.05"/><rect class="cls-5" x="65.1" y="85.89" width="4.21" height="7.05"/><rect class="cls-5" x="71.48" y="85.89" width="4.21" height="7.05"/><rect class="cls-5" x="77.85" y="85.89" width="4.21" height="7.05"/><rect class="cls-5" x="84.23" y="85.89" width="4.21" height="7.05"/><rect class="cls-5" x="90.61" y="85.89" width="4.21" height="7.05"/><rect class="cls-5" x="96.99" y="85.89" width="4.21" height="7.05"/><rect class="cls-5" x="103.37" y="85.89" width="4.21" height="7.05"/><rect class="cls-5" x="109.74" y="85.89" width="4.21" height="7.05"/><rect class="cls-5" x="116.12" y="85.89" width="4.21" height="7.05"/><rect class="cls-5" x="122.5" y="85.89" width="4.21" height="7.05"/><rect class="cls-6" x="75.45" y="54.95" width="22.67" height="99.75"/><rect class="cls-7" x="94.64" y="54.95" width="3.48" height="99.75"/><rect class="cls-8" x="80.3" y="66.8" width="11.04" height="17.58"/><path class="cls-8" d="M-451.52,232.71c0,4.48-2.63,8.15-5.84,8.15s-5.84-3.67-5.84-8.15,2.63-8.15,5.84-8.15S-451.52,228.23-451.52,232.71Z" transform="translate(543.5 -163.38)"/><rect class="cls-5" x="81.59" y="68.08" width="10.4" height="16.29"/><path class="cls-5" d="M-451.52,234c0,4.48-2.34,8.15-5.2,8.15s-5.2-3.67-5.2-8.15,2.34-8.15,5.2-8.15S-451.52,229.51-451.52,234Z" transform="translate(543.5 -163.38)"/><rect class="cls-9" x="72.42" y="90.06" width="28.72" height="8.31"/><rect class="cls-10" x="72.42" y="90.06" width="28.72" height="2.51"/><path class="cls-11" d="M-473.2,218.33s16.49-29.28,16.49-37.43c0,8,16.49,37.43,16.49,37.43Z" transform="translate(543.5 -163.38)"/><g class="cls-12"><path class="cls-13" d="M-454.21,189.93c-1.51-3.81-2.51-7.07-2.51-9,0,3.69-3.37,11.69-7.07,19.36-4.48,9.29-9.42,18.08-9.42,18.08h1.07c9.41-4.79,16.19-14.1,20.43-22.55C-452.62,193.77-453.48,191.78-454.21,189.93Z" transform="translate(543.5 -163.38)"/></g><circle class="cls-14" cx="86.88" cy="19.1" r="2.07"/><path class="cls-14" d="M-456.22,182.76c0,1-.2,1.79-.44,1.79s-.44-.8-.44-1.79V167.1c0-1,.2-1.79.44-1.79s.44.8.44,1.79Z" transform="translate(543.5 -163.38)"/><path class="cls-11" d="M-447.25,170.8a25,25,0,0,1-9.62,0v-4.37s5.52,1.31,9.62,0l-3.28,2.19A8,8,0,0,0-447.25,170.8Z" transform="translate(543.5 -163.38)"/><circle class="cls-14" cx="86.9" cy="1.93" r="0.93"/><rect class="cls-15" x="82.88" y="107.54" width="9.67" height="6.55"/><rect class="cls-15" x="78.04" y="142.36" width="9.67" height="6.55"/><rect class="cls-15" x="75.79" y="119.08" width="12.25" height="6.55"/><rect class="cls-6" x="50.73" y="75.71" width="17.06" height="75.08"/><rect class="cls-7" x="65.17" y="75.71" width="2.62" height="75.08"/><rect class="cls-8" x="54.38" y="88.07" width="8.31" height="13.23"/><path class="cls-8" d="M-480.32,253.35c0,3.37-2,6.13-4.4,6.13s-4.4-2.76-4.4-6.13,2-6.13,4.4-6.13S-480.32,250-480.32,253.35Z" transform="translate(543.5 -163.38)"/><rect class="cls-5" x="55.35" y="89.04" width="7.82" height="12.26"/><path class="cls-5" d="M-480.32,254.33c0,3.37-1.76,6.13-3.91,6.13s-3.91-2.76-3.91-6.13,1.76-6.13,3.91-6.13S-480.32,251-480.32,254.33Z" transform="translate(543.5 -163.38)"/><path class="cls-11" d="M-496.65,239.09s12.41-22,12.41-28.18c0,6,12.41,28.18,12.41,28.18Z" transform="translate(543.5 -163.38)"/><g class="cls-12"><path class="cls-13" d="M-482.35,217.71a22.45,22.45,0,0,1-1.89-6.8c0,2.77-2.54,8.8-5.32,14.57-3.37,7-7.09,13.6-7.09,13.6h.8c7.09-3.6,12.19-10.61,15.38-17C-481.16,220.6-481.8,219.11-482.35,217.71Z" transform="translate(543.5 -163.38)"/></g><circle class="cls-14" cx="59.34" cy="48.73" r="1.55"/><path class="cls-14" d="M-483.86,212.32c0,.74-.15,1.35-.33,1.35s-.33-.61-.33-1.35V200.53c0-.74.15-1.35.33-1.35s.33.61.33,1.35Z" transform="translate(543.5 -163.38)"/><path class="cls-11" d="M-477.12,203.31a18.83,18.83,0,0,1-7.24,0V200s4.16,1,7.24,0l-2.47,1.64A6,6,0,0,0-477.12,203.31Z" transform="translate(543.5 -163.38)"/><circle class="cls-14" cx="59.35" cy="35.8" r="0.7"/><rect class="cls-15" x="50.88" y="115.29" width="7.28" height="4.93"/><rect class="cls-15" x="57.78" y="142.72" width="7.28" height="4.93"/><rect class="cls-15" x="53.44" y="104.4" width="9.36" height="4.93"/><rect class="cls-6" x="105.07" y="75.71" width="17.06" height="75.08"/><rect class="cls-7" x="119.51" y="75.71" width="2.62" height="75.08"/><rect class="cls-8" x="108.72" y="88.07" width="8.31" height="13.23"/><path class="cls-8" d="M-426,253.35c0,3.37-2,6.13-4.4,6.13s-4.4-2.76-4.4-6.13,2-6.13,4.4-6.13S-426,250-426,253.35Z" transform="translate(543.5 -163.38)"/><rect class="cls-5" x="109.69" y="89.04" width="7.82" height="12.26"/><path class="cls-5" d="M-426,254.33c0,3.37-1.76,6.13-3.91,6.13s-3.91-2.76-3.91-6.13,1.76-6.13,3.91-6.13S-426,251-426,254.33Z" transform="translate(543.5 -163.38)"/><path class="cls-11" d="M-442.31,239.09s12.41-22,12.41-28.18c0,6,12.41,28.18,12.41,28.18Z" transform="translate(543.5 -163.38)"/><g class="cls-12"><path class="cls-13" d="M-428,217.71a22.44,22.44,0,0,1-1.89-6.8c0,2.77-2.54,8.8-5.32,14.57-3.37,7-7.09,13.6-7.09,13.6h.8c7.09-3.6,12.19-10.61,15.38-17C-426.82,220.6-427.46,219.11-428,217.71Z" transform="translate(543.5 -163.38)"/></g><circle class="cls-14" cx="113.67" cy="48.73" r="1.56"/><path class="cls-14" d="M-429.52,212.32c0,.74-.15,1.35-.33,1.35s-.33-.61-.33-1.35V200.53c0-.74.15-1.35.33-1.35s.33.61.33,1.35Z" transform="translate(543.5 -163.38)"/><path class="cls-11" d="M-422.78,203.31a18.83,18.83,0,0,1-7.24,0V200s4.16,1,7.24,0l-2.47,1.64A6,6,0,0,0-422.78,203.31Z" transform="translate(543.5 -163.38)"/><circle class="cls-14" cx="113.69" cy="35.8" r="0.7"/><rect class="cls-15" x="105.22" y="115.29" width="7.28" height="4.93"/><rect class="cls-15" x="112.12" y="142.72" width="7.28" height="4.93"/><rect class="cls-15" x="107.78" y="104.4" width="9.36" height="4.93"/><rect class="cls-16" x="42.4" y="131.41" width="88.51" height="42.22"/><rect class="cls-4" x="42.4" y="133.74" width="89.6" height="1.54"/><rect class="cls-16" x="42.4" y="127.04" width="6.36" height="6.16"/><rect class="cls-16" x="54.13" y="127.04" width="6.36" height="6.16"/><rect class="cls-16" x="65.87" y="127.04" width="6.36" height="6.16"/><rect class="cls-16" x="77.61" y="127.04" width="6.36" height="6.16"/><rect class="cls-16" x="89.34" y="127.04" width="6.36" height="6.16"/><rect class="cls-16" x="101.08" y="127.04" width="6.36" height="6.16"/><rect class="cls-16" x="112.82" y="127.04" width="6.36" height="6.16"/><rect class="cls-16" x="124.55" y="127.04" width="6.36" height="6.16"/><g class="cls-17"><path class="cls-16" d="M-477.63,290.42v4.37H-483v-4.37h-6.36v4.37h-5.37v-4.37h-6.36V337h1.46c4.18-16.74,18.28-36.5,26.92-46.59Z" transform="translate(543.5 -163.38)"/></g><rect class="cls-8" x="75.02" y="148.05" width="19.54" height="25.62"/><path class="cls-8" d="M-447.41,314.41c0,7.15-4.74,13-10.53,13s-10.53-5.85-10.53-13,4.74-13,10.53-13S-447.41,307.25-447.41,314.41Z" transform="translate(543.5 -163.38)"/><rect class="cls-11" x="76.54" y="149.57" width="19.54" height="24.1"/><path class="cls-11" d="M-447.41,315.93c0,7.15-4.4,13-9.77,13s-9.77-5.85-9.77-13,4.4-13,9.77-13S-447.41,308.78-447.41,315.93Z" transform="translate(543.5 -163.38)"/><rect class="cls-6" x="110.35" y="137.41" width="9.15" height="3.87"/><rect class="cls-7" x="56.43" y="137.71" width="9.15" height="3.87"/><rect class="cls-7" x="100.38" y="150.58" width="9.15" height="3.87"/><rect class="cls-6" x="65.72" y="144.12" width="9.15" height="3.87"/><rect class="cls-6" x="48.76" y="154.86" width="9.15" height="3.87"/><rect class="cls-6" x="112.85" y="156.79" width="9.15" height="3.87"/><rect class="cls-6" x="129.12" y="114.62" width="13.41" height="59.01"/><rect class="cls-7" x="140.48" y="114.62" width="2.06" height="59.01"/><rect class="cls-8" x="131.99" y="124.33" width="6.53" height="10.4"/><path class="cls-8" d="M-404.59,289.21c0,2.65-1.56,4.82-3.46,4.82s-3.46-2.17-3.46-4.82,1.56-4.82,3.46-4.82S-404.59,286.56-404.59,289.21Z" transform="translate(543.5 -163.38)"/><rect class="cls-5" x="132.76" y="125.09" width="6.15" height="9.64"/><path class="cls-5" d="M-404.59,290c0,2.65-1.38,4.82-3.07,4.82s-3.07-2.17-3.07-4.82,1.38-4.82,3.07-4.82S-404.59,287.32-404.59,290Z" transform="translate(543.5 -163.38)"/><rect class="cls-9" x="127.34" y="137.64" width="16.99" height="4.92"/><rect class="cls-10" x="127.34" y="137.64" width="16.99" height="1.49"/><path class="cls-11" d="M-417.42,278s9.75-17.32,9.75-22.14c0,4.71,9.75,22.14,9.75,22.14Z" transform="translate(543.5 -163.38)"/><g class="cls-12"><path class="cls-13" d="M-406.19,261.2a17.65,17.65,0,0,1-1.48-5.34c0,2.18-2,6.92-4.18,11.45-2.65,5.49-5.57,10.69-5.57,10.69h.63c5.57-2.83,9.58-8.34,12.09-13.34C-405.25,263.47-405.75,262.29-406.19,261.2Z" transform="translate(543.5 -163.38)"/></g><circle class="cls-14" cx="135.89" cy="93.41" r="1.22"/><path class="cls-14" d="M-407.37,257c0,.58-.12,1.06-.26,1.06s-.26-.48-.26-1.06v-9.27c0-.58.12-1.06.26-1.06s.26.48.26,1.06Z" transform="translate(543.5 -163.38)"/><path class="cls-11" d="M-402.07,249.88a14.81,14.81,0,0,1-5.69,0v-2.59a12.67,12.67,0,0,0,5.69,0l-1.94,1.29A4.74,4.74,0,0,0-402.07,249.88Z" transform="translate(543.5 -163.38)"/><circle class="cls-14" cx="135.9" cy="83.25" r="0.55"/><rect class="cls-15" x="129.57" y="146.06" width="5.72" height="3.87"/><rect class="cls-15" x="134.67" y="167.28" width="5.72" height="3.87"/><rect class="cls-15" x="130.09" y="156.79" width="9.15" height="3.87"/><rect class="cls-7" x="123.56" y="167.28" width="5.56" height="3.87"/><rect class="cls-7" x="67.63" y="165.34" width="7.27" height="3.87"/><line class="cls-18" x1="86.34" y1="139.22" x2="86.31" y2="173.63"/><g class="cls-12"><path class="cls-13" d="M-458,303a10.1,10.1,0,0,0-9,10h0v12.9C-465.49,314.06-462.12,306.85-458,303Z" transform="translate(543.5 -163.38)"/></g><rect class="cls-6" x="30.77" y="114.62" width="13.41" height="59.01"/><rect class="cls-7" x="42.12" y="114.62" width="2.06" height="59.01"/><rect class="cls-8" x="33.64" y="124.33" width="6.53" height="10.4"/><path class="cls-8" d="M-502.95,289.21c0,2.65-1.56,4.82-3.46,4.82s-3.46-2.17-3.46-4.82,1.56-4.82,3.46-4.82S-502.95,286.56-502.95,289.21Z" transform="translate(543.5 -163.38)"/><rect class="cls-5" x="34.41" y="125.09" width="6.15" height="9.64"/><path class="cls-5" d="M-502.95,290c0,2.65-1.38,4.82-3.07,4.82s-3.07-2.17-3.07-4.82,1.38-4.82,3.07-4.82S-502.95,287.32-502.95,290Z" transform="translate(543.5 -163.38)"/><rect class="cls-9" x="28.99" y="137.64" width="16.99" height="4.92"/><rect class="cls-10" x="28.99" y="137.64" width="16.99" height="1.49"/><path class="cls-11" d="M-515.77,278s9.75-17.32,9.75-22.14c0,4.71,9.75,22.14,9.75,22.14Z" transform="translate(543.5 -163.38)"/><g class="cls-12"><path class="cls-13" d="M-504.54,261.2a17.64,17.64,0,0,1-1.48-5.34c0,2.18-2,6.92-4.18,11.45-2.65,5.49-5.57,10.69-5.57,10.69h.63c5.57-2.83,9.58-8.34,12.09-13.34C-503.6,263.47-504.1,262.29-504.54,261.2Z" transform="translate(543.5 -163.38)"/></g><circle class="cls-14" cx="37.54" cy="93.41" r="1.22"/><path class="cls-14" d="M-505.73,257c0,.58-.12,1.06-.26,1.06s-.26-.48-.26-1.06v-9.27c0-.58.12-1.06.26-1.06s.26.48.26,1.06Z" transform="translate(543.5 -163.38)"/><path class="cls-11" d="M-500.42,249.88a14.81,14.81,0,0,1-5.69,0v-2.59a12.67,12.67,0,0,0,5.69,0l-1.94,1.29A4.74,4.74,0,0,0-500.42,249.88Z" transform="translate(543.5 -163.38)"/><circle class="cls-14" cx="37.55" cy="83.25" r="0.55"/><rect class="cls-15" x="35.17" y="145.73" width="5.72" height="3.87"/><rect class="cls-15" x="32.31" y="166.33" width="5.72" height="3.87"/><rect class="cls-15" x="30.97" y="152.55" width="7.24" height="3.87"/><circle class="cls-19" cx="89.32" cy="157.78" r="1.4"/><circle class="cls-19" cx="83.15" cy="157.78" r="1.4"/><ellipse class="cls-8" cx="83.15" cy="156.64" rx="1.02" ry="0.81"/><ellipse class="cls-8" cx="89.32" cy="156.64" rx="1.02" ry="0.81"/><g class="cls-17"><path class="cls-20" d="M-484.53,387.65c-34.61-12.43,2.74-46.85,16.06-53.56h21.88c-13.32,6.71-23.27,30.76-13.54,50h0a7.94,7.94,0,0,1-3.18,2,51.5,51.5,0,0,1-11,2.27,32.54,32.54,0,0,1-10.2-.68Z" transform="translate(543.5 -163.38)"/></g><path class="cls-21" d="M-484.53,391.65c-34.61-12.43,2.74-46.85,16.06-53.56h21.88c-13.32,6.71-23.27,30.76-13.54,50h0a7.94,7.94,0,0,1-3.18,2,51.5,51.5,0,0,1-11,2.27,32.54,32.54,0,0,1-10.2-.68Z" transform="translate(543.5 -163.38)"/><rect class="cls-4" x="28.61" y="172.63" width="115.41" height="2.07"/><rect class="cls-22" width="181.5" height="231.12"/></g></g></svg>