<svg xmlns="http://www.w3.org/2000/svg" xmlns:xlink="http://www.w3.org/1999/xlink" viewBox="0 0 393.13 338.69"><defs><style>.cls-1{isolation:isolate;}.cls-2{fill:url(#linear-gradient);}.cls-3{opacity:0.83;fill:url(#radial-gradient);}.cls-4{fill:url(#linear-gradient-2);}.cls-5{fill:url(#linear-gradient-3);}.cls-6{opacity:0.71;fill:url(#linear-gradient-4);}.cls-11,.cls-18,.cls-21,.cls-24,.cls-6{mix-blend-mode:multiply;}.cls-7{fill:url(#linear-gradient-5);}.cls-8{fill:url(#linear-gradient-6);}.cls-9{fill:url(#linear-gradient-7);}.cls-10{fill:url(#linear-gradient-8);}.cls-11{opacity:0.49;fill:url(#linear-gradient-9);}.cls-12{fill:url(#linear-gradient-10);}.cls-13{fill:url(#linear-gradient-11);}.cls-14{fill:url(#linear-gradient-12);}.cls-15{fill:url(#linear-gradient-13);}.cls-16{fill:url(#linear-gradient-14);}.cls-17{fill:url(#linear-gradient-15);}.cls-18{fill:#ff7043;opacity:0.28;}.cls-19{fill:url(#radial-gradient-2);}.cls-20{fill:url(#radial-gradient-3);}.cls-21,.cls-24{opacity:0.51;}.cls-21{fill:url(#linear-gradient-16);}.cls-22{fill:#6a3600;}.cls-23{fill:url(#radial-gradient-4);}.cls-24{fill:url(#linear-gradient-17);}.cls-25{fill:#a15b2d;}.cls-26{opacity:0.3;}</style><linearGradient id="linear-gradient" x1="198.65" y1="17.56" x2="198.65" y2="325.32" gradientUnits="userSpaceOnUse"><stop offset="0" stop-color="#b2ebf2"/><stop offset="1" stop-color="#ffe082"/></linearGradient><radialGradient id="radial-gradient" cx="64.65" cy="-6.16" r="377.31" gradientUnits="userSpaceOnUse"><stop offset="0.24" stop-color="#4dd0e1" stop-opacity="0"/><stop offset="0.29" stop-color="#52d1de" stop-opacity="0.03"/><stop offset="0.37" stop-color="#60d2d6" stop-opacity="0.11"/><stop offset="0.47" stop-color="#77d5c9" stop-opacity="0.24"/><stop offset="0.58" stop-color="#97d9b6" stop-opacity="0.42"/><stop offset="0.7" stop-color="#c0de9e" stop-opacity="0.66"/><stop offset="0.83" stop-color="#f2e482" stop-opacity="0.94"/><stop offset="0.85" stop-color="#fce57c"/></radialGradient><linearGradient id="linear-gradient-2" x1="94.38" y1="266.16" x2="94.38" y2="199.34" gradientUnits="userSpaceOnUse"><stop offset="0" stop-color="#f89640"/><stop offset="0.34" stop-color="#faa855"/><stop offset="0.71" stop-color="#fbb665"/><stop offset="1" stop-color="#fcbb6b"/></linearGradient><linearGradient id="linear-gradient-3" x1="64.79" y1="266.16" x2="64.79" y2="199.34" gradientUnits="userSpaceOnUse"><stop offset="0" stop-color="#bd6a2d"/><stop offset="0.3" stop-color="#c27b39"/><stop offset="0.7" stop-color="#c68b44"/><stop offset="1" stop-color="#c89148"/></linearGradient><linearGradient id="linear-gradient-4" x1="105.72" y1="245.56" x2="110.54" y2="248.72" gradientUnits="userSpaceOnUse"><stop offset="0.13" stop-color="#fff" stop-opacity="0"/><stop offset="0.28" stop-color="#e0d2c6" stop-opacity="0.22"/><stop offset="0.61" stop-color="#a67f5b" stop-opacity="0.64"/><stop offset="0.86" stop-color="#824b19" stop-opacity="0.9"/><stop offset="1" stop-color="#753800"/></linearGradient><linearGradient id="linear-gradient-5" x1="196.57" y1="264.44" x2="196.57" y2="118.56" xlink:href="#linear-gradient-2"/><linearGradient id="linear-gradient-6" x1="147.35" y1="264.44" x2="147.35" y2="118.56" xlink:href="#linear-gradient-3"/><linearGradient id="linear-gradient-7" x1="-1021.21" y1="336.7" x2="-1041.16" y2="368.76" gradientUnits="userSpaceOnUse"><stop offset="0" stop-color="#fbcc83"/><stop offset="0.51" stop-color="#fcc277"/><stop offset="1" stop-color="#fcbd71"/></linearGradient><linearGradient id="linear-gradient-8" x1="-1020.1" y1="335.04" x2="-1018.25" y2="370.45" gradientUnits="userSpaceOnUse"><stop offset="0" stop-color="#fff2a5"/><stop offset="0.49" stop-color="#ffe7a2"/><stop offset="1" stop-color="#ffe1a1"/></linearGradient><linearGradient id="linear-gradient-9" x1="230.72" y1="233.61" x2="235.93" y2="237.99" xlink:href="#linear-gradient-4"/><linearGradient id="linear-gradient-10" x1="287.01" y1="265.77" x2="287.01" y2="180.98" xlink:href="#linear-gradient-2"/><linearGradient id="linear-gradient-11" x1="249.47" y1="265.77" x2="249.47" y2="180.98" xlink:href="#linear-gradient-3"/><linearGradient id="linear-gradient-12" x1="-932.97" y1="398.92" x2="-952.11" y2="422.79" xlink:href="#linear-gradient-7"/><linearGradient id="linear-gradient-13" x1="-937.97" y1="397.84" x2="-932.05" y2="421.51" xlink:href="#linear-gradient-8"/><linearGradient id="linear-gradient-14" x1="-1126.24" y1="416.24" x2="-1138.42" y2="433.98" xlink:href="#linear-gradient-7"/><linearGradient id="linear-gradient-15" x1="-1129.91" y1="416.18" x2="-1125.21" y2="432.64" xlink:href="#linear-gradient-8"/><radialGradient id="radial-gradient-2" cx="-1185.06" cy="469.38" r="26.17" gradientTransform="translate(476.71 1419.36) rotate(81.5) scale(1 3.2)" gradientUnits="userSpaceOnUse"><stop offset="0" stop-color="#f6cd5f"/><stop offset="0.86" stop-color="#ab6c41"/></radialGradient><radialGradient id="radial-gradient-3" cx="-929.07" cy="439.79" r="116.38" gradientTransform="matrix(-0.23, 0.97, -3.11, -0.74, 225.06, 1670.58)" gradientUnits="userSpaceOnUse"><stop offset="0" stop-color="#f6cd5f"/><stop offset="0.84" stop-color="#ab6c41"/></radialGradient><linearGradient id="linear-gradient-16" x1="-969.92" y1="484.05" x2="-969.92" y2="473.65" gradientUnits="userSpaceOnUse"><stop offset="0" stop-color="#fff" stop-opacity="0"/><stop offset="0.8" stop-color="#401100"/></linearGradient><radialGradient id="radial-gradient-4" cx="-1078.61" cy="442.16" r="100.43" gradientTransform="translate(6.58 1734.76) rotate(100.26) scale(1 2.94)" gradientUnits="userSpaceOnUse"><stop offset="0.49" stop-color="#dac27d"/><stop offset="0.59" stop-color="#dabc73"/><stop offset="0.74" stop-color="#d9ae5e"/></radialGradient><linearGradient id="linear-gradient-17" x1="2137.99" y1="505.47" x2="2137.99" y2="470.32" gradientTransform="matrix(-1, 0, 0, 1, 1010.44, 0)" xlink:href="#linear-gradient-16"/></defs><title>desert</title><g class="cls-1"><g id="OBJECTS"><circle class="cls-2" cx="198.65" cy="170.16" r="159.01"/><circle class="cls-3" cx="198.65" cy="170.16" r="159.01"/><polygon class="cls-4" points="94.38 197.13 35.21 267.61 153.55 267.61 94.38 197.13"/><polygon class="cls-5" points="35.21 267.61 94.38 197.13 56.02 267.61 35.21 267.61"/><polygon class="cls-6" points="122.1 230.14 119.13 226.61 91.65 264.08 102.58 260.65 122.1 230.14"/><polygon class="cls-7" points="196.56 113.73 98.13 267.61 295 267.61 196.56 113.73"/><polygon class="cls-8" points="98.13 267.61 196.56 113.73 151.36 267.61 98.13 267.61"/><path class="cls-9" d="M-1046.87,368.38h0s1.14,1.09,3.92-.85.42,2.29,2.5,2.46,3.32-2.27,5.89-2.28l10.09-34.34Z" transform="translate(1221.05 -219.64)"/><path class="cls-10" d="M-1024.48,373.52c8-2.46,7.73-10.74,12.58-7.75a16.76,16.76,0,0,0,9.71,2.46l-22.29-34.85-10.09,34.34h0C-1032,367.71-1032.49,376-1024.48,373.52Z" transform="translate(1221.05 -219.64)"/><polygon class="cls-11" points="259.07 211.45 254.96 205.02 207.46 263.02 223.04 254.38 259.07 211.45"/><polygon class="cls-12" points="287.01 178.18 211.93 267.61 362.09 267.61 287.01 178.18"/><polygon class="cls-13" points="211.93 267.61 287.01 178.18 233.17 267.61 211.93 267.61"/><path class="cls-14" d="M-954.28,421.93s1.72,1,2.9,0,1.41.08,2.82,0h0L-934,397.82Z" transform="translate(1221.05 -219.64)"/><path class="cls-15" d="M-919.12,421.56c1.21-.81,2.24-1.56,3.13-2.25l-18-21.49-14.51,24.11c1.42-.08,5.07-3.63,12.17-2.54S-925.73,426-919.12,421.56Z" transform="translate(1221.05 -219.64)"/><path class="cls-16" d="M-1141.29,434.18a2.42,2.42,0,0,0,2.52-.47c1-1.07-.06,2.2,1.46,2.6l10.64-19.54Z" transform="translate(1221.05 -219.64)"/><path class="cls-17" d="M-1137.3,436.31c1.53.4,6.23-.14,11.25-3.56,4.85-3.31,6.62,5.2,14.64,2.19l-15.26-18.17-10.64,19.54Z" transform="translate(1221.05 -219.64)"/><rect class="cls-18" x="89.11" y="236.18" width="5.09" height="1.2"/><rect class="cls-18" x="91.65" y="238.19" width="5.09" height="1.2"/><rect class="cls-18" x="91.65" y="234.34" width="5.09" height="1.2"/><rect class="cls-18" x="-998.62" y="402.83" width="7.12" height="1.67" transform="translate(-769.08 587.7) rotate(180)"/><rect class="cls-18" x="-1002.19" y="405.65" width="7.12" height="1.67" transform="translate(-776.2 593.33) rotate(180)"/><rect class="cls-18" x="-948.1" y="449.16" width="5.95" height="1.4" transform="translate(-669.21 680.08) rotate(180)"/><rect class="cls-18" x="-926.6" y="441.75" width="5.95" height="1.4" transform="translate(-626.21 665.26) rotate(180)"/><rect class="cls-18" x="-930.26" y="439.26" width="5.95" height="1.4" transform="translate(-633.53 660.27) rotate(180)"/><rect class="cls-18" x="-930.26" y="444.42" width="5.95" height="1.4" transform="translate(-633.53 670.6) rotate(180)"/><rect class="cls-18" x="-951.08" y="451.51" width="5.95" height="1.4" transform="translate(-675.16 684.78) rotate(180)"/><rect class="cls-18" x="-1150.97" y="468.66" width="5.09" height="1.2" transform="translate(-1075.79 718.87) rotate(180)"/><rect class="cls-18" x="-1148.42" y="470.74" width="5.09" height="1.2" transform="translate(-1070.7 723.04) rotate(180)"/><rect class="cls-18" x="-1144.12" y="465.82" width="5.09" height="1.2" transform="translate(-1062.1 713.19) rotate(180)"/><rect class="cls-18" x="-1009.97" y="441.7" width="7.12" height="1.67" transform="translate(-791.76 665.43) rotate(180)"/><rect class="cls-18" x="-1013.59" y="445.32" width="7.12" height="1.67" transform="translate(-799.01 672.68) rotate(180)"/><rect class="cls-18" x="-1017.22" y="448.95" width="7.12" height="1.67" transform="translate(-806.26 679.93) rotate(180)"/><rect class="cls-18" x="-1039.62" y="415.6" width="7.12" height="1.67" transform="translate(-851.07 613.24) rotate(180)"/><rect class="cls-18" x="-1034.6" y="418.42" width="7.12" height="1.67" transform="translate(-841.03 618.87) rotate(180)"/><rect class="cls-18" x="186.5" y="193.15" width="7.12" height="1.67"/><rect class="cls-18" x="302.22" y="205.9" width="5.95" height="1.4"/><rect class="cls-18" x="305.2" y="208.25" width="5.95" height="1.4"/><path class="cls-19" d="M-1158.82,478.12h0c-15.73-1.35-29.16-3.06-38.94-4.49a4.84,4.84,0,0,0-3.8,8.5h0q5.68,4.75,11.54,9.15C-1189.6,491-1178,483.92-1158.82,478.12Z" transform="translate(1221.05 -219.64)"/><path class="cls-20" d="M-845.17,481.47c-99.23-13.5-150.47-7.94-213.89-3.2A179.09,179.09,0,0,1-1031,489.7c37.51,19,84.93,29.66,126.53,35.58a285.86,285.86,0,0,0,61.31-36.22h0A4.26,4.26,0,0,0-845.17,481.47Z" transform="translate(1221.05 -219.64)"/><path class="cls-21" d="M-974.58,480.89s-2.27-1.46,1.73-1.07c0,0,.24-.22.17-.37s-.44-.19-.33-.23-1.67-.5-2.52-.66-1.69-.56-1.58-.71-.68-.7-1-.81-.51-.22-.57-.34-1.16-.44-1.23-.56,1,0,1,0a4.23,4.23,0,0,1,1,.33c.2.16-.25.09,0,.25s.34.06.44.31a3.82,3.82,0,0,0,1.58,1c.63.22,2.32.65,2.38.65s-1.61-1-1.68-1.16a5.76,5.76,0,0,0-1.66-1,2.83,2.83,0,0,1-.84-.34c-.07-.06-1.12-.17-1.23-.26s1-.19,1.42-.07.23.13.47.28.41,0,.6.19,1.81,1.08,2.2,1.27a2.67,2.67,0,0,1,.83.47,5.18,5.18,0,0,0,1.88,1c.62.1.49,0,.86.12a47,47,0,0,1,4.89.44s.34,0-.35-.32-.86-.45-1.26-.68a14.7,14.7,0,0,0-2.37-1c-.52-.12-1.88-.86-3-1.1a5.25,5.25,0,0,1-1.4-.37c-.17-.1-.48,0-1.08-.21s1.09-.06,1.09-.06,0,0,.54.17a3.91,3.91,0,0,1,1,.33c.79.33,3.69,1.14,4.07,1.2a7.1,7.1,0,0,1,1.26.56l1.8.73a.14.14,0,0,1,.13-.22c.23,0-.41-.44-.4-.73s-2.12-1.55-2.86-1.76a13,13,0,0,1-1.43-.35,2.45,2.45,0,0,1,1.42,0c.41.17.38.19.62.3a4,4,0,0,1,1,.53,24.83,24.83,0,0,0,3,1.48c.48.17-.58.23.48.8a17.93,17.93,0,0,0,2.61,1.39c1.13.43,1.22,1.27.75,1.3s-1.6.15-1.17.48-.73.37-1.34.27-1.79-.43-2.16-.42a18.18,18.18,0,0,1-3.35-.44,19.6,19.6,0,0,0-4-.81c-.77.08.61,1,.61,1a4.75,4.75,0,0,0,1.07.47,2.79,2.79,0,0,0-.52-.06c-.09,0-.47,0-.38.05a.85.85,0,0,0,.24,0,1.63,1.63,0,0,1-.69,0,6.65,6.65,0,0,1-.85-.12,17,17,0,0,1-1.81-.16c-.48-.16-.54,0-1-.2s-.64-.31-.3-.31,1.14,0,1.22-.19A.4.4,0,0,0-974.58,480.89Z" transform="translate(1221.05 -219.64)"/><path class="cls-22" d="M-985.19,465.53s.77,3.38,4,2.48a5.19,5.19,0,0,1,.93.85c.23.34,0,.44.14.53a6,6,0,0,1-1.14,1.53,1.14,1.14,0,0,0-.1,1.64,3,3,0,0,1,.69,1.89.81.81,0,0,0,.15.79c.19.27-.24,1-.06,1.29s1,0,1,0,.48-.39.35-.76-.44-.21-.53-.58.21-.15-.21-.73a3.73,3.73,0,0,1-.56-2.38,5.81,5.81,0,0,1,1-1.51s.55,2.4.74,2.69a4.44,4.44,0,0,1,.39,2.27c-.19.44-.19.64-.13.79s-.77.39-.69.6,1.39.44,1.56.16,0-.31-.13-.66.34-.08.2-.45a19.18,19.18,0,0,1-.45-2.95,1.8,1.8,0,0,0-.16-1.1c-.26-.63-.6-2.06-.19-2.3s.39-.11.6-.29,2.66-.11,4-1c0,0,.31,0,.32.74a9.38,9.38,0,0,0,.16,1.58,4.44,4.44,0,0,1-.35,2.24c-.27.27-.08,2-.69,2.56s-.66.63-.63.85-.47,0-.64.48,1.21.13,1.21.13.1.11.18-.4c0,0,.16,0,.27-.76a8,8,0,0,1,1.56-2.79c.26-.14,0-.66.1-1.29s.27-1.69.27-1.69.32.47.6.52.5,1,1.13,1.69,1.13,3.61.82,4.09-.82.61-.69.82,1.35.39,1.4,0a4.86,4.86,0,0,0,0-.69,2.34,2.34,0,0,0-.13-1.24,11.71,11.71,0,0,1-.1-3.43c.11-.4-1.06-.53-1.21-1.87a10.6,10.6,0,0,1-.29-3.22c.23-1-1.43-2.95-2-3s-1.9-.34-2.18-1.11-1.51-.87-1.9-.63-.89,1-1.27,1a3.9,3.9,0,0,0-2.42,1c-.69.76-1.32,2.06-2.26,1.89s-1.43-2.27-1.43-2.27-.15-.93.09-1.09c0,0-.26.19-.4.14s-.49,0-.49-.12.15-.11.14-.11-.43-.15-.6.1c0,0-.47.12-.58.29s-1.34,0-1.49.36-.56,0-.53.47,0,.73.34.71a2.19,2.19,0,0,1,1.61.44A3.74,3.74,0,0,1-985.19,465.53Z" transform="translate(1221.05 -219.64)"/><path class="cls-23" d="M-904.43,525.29A285.63,285.63,0,0,1-1018,548.8a285.4,285.4,0,0,1-172-57.52c.32-.2,11.94-7.34,31.21-13.16a169.46,169.46,0,0,1,99.76.15A179.08,179.08,0,0,1-1031,489.7C-993.47,508.74-946,519.36-904.43,525.29Z" transform="translate(1221.05 -219.64)"/><path class="cls-24" d="M-1140.07,490.43s11.7-2,17.84-1.27a22.46,22.46,0,0,1,3.51-.18s5.11-3.17,6.66-4,3.42-1.64,4-2,5.8-2.83,6-3.15,1.73-.47,1.87-.74.15-.58,1.25-.77,3.5-.42,3.63,0c0,0,.23.28-1.32.49a8,8,0,0,0-2.24.37,10.13,10.13,0,0,1,1.69.05c.56.11,1.63,0,1.23.19a5.86,5.86,0,0,1-1.9.46,5.11,5.11,0,0,0-2.22.28c-1,.42-5.77,2.58-6,2.81a4.49,4.49,0,0,1-1.74,1.48c-1.14.53-5.27,4.26-6.42,4.92,0,0,2,.63,1.51,1.06,0,0,9.22-.37,9.24,1.46s-2.12,2.85-2.12,2.85a8.06,8.06,0,0,0,2.68-.79s.56.14-.07.4l.79-.11a5.78,5.78,0,0,1-1.86.77c-1.34.37-.47.44-1.91.91s-1.93,1-.46.67c0,0-.6.39.1.44a11.55,11.55,0,0,1,2.8.65c.33.21,2.11-.23,2.67-.09s.56.11-.41.33.45,0-.33.33a17.48,17.48,0,0,1-2.38.63,9.39,9.39,0,0,1-2.44.58c-.94,0-3.28,0-3.81-.05a21.87,21.87,0,0,0-2.55.17,30.38,30.38,0,0,1-3.28.19,7.92,7.92,0,0,1-1.8.33c-.52,0,.69-.39.59-.55s1.09-.75.77-.83.37-.33.32-.65.71-1.26,1.39-1.57c0,0-.65.62.2.33s4-2.62,0-2.62-13.65,3.15-19.33,3.48a64,64,0,0,0-13.21,2.22c-3.94,1-6.67.73-8,.2s-.58-2.9-2.63-3a1.84,1.84,0,0,1-1.4-3.06,26,26,0,0,1,4.22-2.23,11.08,11.08,0,0,1,2.51-1.32c1.14-.35,2.16-.91,1.69-1.18s5.37-2.2,5.37-2.2-3,1.32-2.45,1.25,3.83-1.79,4.67-1.9c0,0-1.86.81-1.33.79a13.25,13.25,0,0,0,2.44-.91,22.28,22.28,0,0,1-2.66,1.23c-1.65.65.09.19-.74.67a57.77,57.77,0,0,0,6.1-2.6,15.37,15.37,0,0,1,4.59-2.41c1.78-.4,11.67-3.76,12.53-4.1a11.06,11.06,0,0,1,2.58-.86,4.58,4.58,0,0,1,1.66-.42c1-.09,2.45-.18,3.13-.23s1.82-.09.85.32-2.58.33-4,.72a62.18,62.18,0,0,0-10.23,3.27s6.59-2.22,7.57-2.39.6-.4,2-.47,1.53.07,2.37,0,1.79,0,.4.32-1.89.11-3.91.58a94,94,0,0,0-11.44,3.87c-2,1-4.56,2.18-6.11,3.08a7.24,7.24,0,0,1-1.74,1.85C-1140.06,489.25-1137.81,489.27-1140.07,490.43Z" transform="translate(1221.05 -219.64)"/><path class="cls-25" d="M-1113.34,453s7.43,4.74,15.19,2.94c0,0,2.33.77,3.14.41,0,0-1.51,7.35-1.8,9.39s0,3.8-.16,4.57-.12,6.57-.61,7.31.73,1.1.33,1.71-1.06,1.35-.37,1.8,2.61,1,3.63,0c0,0,.82-.65-.29-1.14s-1.47-.33-1.47-.86a5.07,5.07,0,0,0,1.8-.12c.78-.24,1.63,0,1.63-.45a1.09,1.09,0,0,0-.94-1.06s-1.47.33-1.63-.65a35.57,35.57,0,0,1-.12-6.53c.24-.53,1.39-2.2,1.35-3.43s3.63-9.88,3.88-11.43c0,0,3.31-1.47,3.72-2.45,0,0,8.45.86,12.29-3.39s3.84-6.61,3.84-6.61,1.43.61,1,1.84c0,0,.86-.33.78-.94l.57.24a2.19,2.19,0,0,0-.24-1.8c-.57-.86.45-1,0-2.12s.16-2.33.94-1.55a1.36,1.36,0,0,1,1-1,18.26,18.26,0,0,0,4.16-1.51c.78-.49,1.63.53,2.49.2s.78-.24.29-.78.49,0,.37-.78-.81-1.18-1.06-1.47-.29-1.35-1.22-1.35a22.22,22.22,0,0,0-3.92.12c-.73.22-1.08-.29-2.2-.39s-.73-.49-2.88-.45c0,0-.51-.86-1.12-.76s-.12.9-.55,1.27-.47,1.74-1,1.92-.33.78-1,1.51a8.76,8.76,0,0,0-1.9,3.65s.63-1.43.88-.76-1.49,6.08-5.49,6.08-7.06-7.31-12-8.08-6.7-2.86-8.57-5.14-5.14-1.69-7.59-.46-6.65,6.74-8.82,6.87-7.31,5.63-7.8,7.1a14.58,14.58,0,0,0-.45,5.19s-.65,2.25-.24,3.06a2.15,2.15,0,0,1-.78,2.74c-1,.61.78,5.1.78,5.1s-.24-3.06.16-2.9.08,4.16.69,4.41c0,0-.16-1.88.33-1.84s.53,2.12.53,2.12a9.52,9.52,0,0,0-.08-2.86c-.29-1.51.49-.45.65-1.55,0,0,1.06,4,.65,6s-1.39,4.65-.45,5.59,3.8,8.74,4,9.51.16,1.88.78,2a.93.93,0,0,0,.78,1c.86.2,2.08.41,2.65.53s1.63.2,1.51-.73-1.88-.78-2.53-1.67-2.41-2-3.39-7.59c0,0,2,5.14,2.57,5.55s-.24.94,1,1.1,1.67-.16,2.37,0,1.71.08,1.06-.73-1.67-.24-2.69-1.35-3.47-6.61-3.35-9,0-5.06.33-7.14c0,0,2-3.27,2.12-4.29S-1113.51,455.68-1113.34,453Z" transform="translate(1221.05 -219.64)"/><rect class="cls-26" width="393.13" height="338.69"/></g></g></svg>