<svg xmlns="http://www.w3.org/2000/svg" xmlns:xlink="http://www.w3.org/1999/xlink" viewBox="0 0 542 458"><defs><style>.cls-1{isolation:isolate;}.cls-101,.cls-102,.cls-103,.cls-104,.cls-11,.cls-110,.cls-111,.cls-112,.cls-113,.cls-12,.cls-13,.cls-14,.cls-2,.cls-20,.cls-21,.cls-22,.cls-23,.cls-29,.cls-3,.cls-30,.cls-31,.cls-32,.cls-38,.cls-39,.cls-4,.cls-40,.cls-41,.cls-47,.cls-48,.cls-49,.cls-5,.cls-50,.cls-56,.cls-57,.cls-58,.cls-59,.cls-65,.cls-66,.cls-67,.cls-68,.cls-74,.cls-75,.cls-76,.cls-77,.cls-83,.cls-84,.cls-85,.cls-86,.cls-92,.cls-93,.cls-94,.cls-95{mix-blend-mode:multiply;}.cls-2{fill:url(#radial-gradient);}.cls-3{fill:url(#radial-gradient-2);}.cls-103,.cls-112,.cls-13,.cls-22,.cls-31,.cls-4,.cls-40,.cls-49,.cls-58,.cls-67,.cls-76,.cls-85,.cls-94{opacity:0.3;}.cls-4{fill:url(#radial-gradient-3);}.cls-104,.cls-113,.cls-14,.cls-23,.cls-32,.cls-41,.cls-5,.cls-50,.cls-59,.cls-68,.cls-77,.cls-86,.cls-95{opacity:0.8;}.cls-5{fill:url(#radial-gradient-4);}.cls-10,.cls-100,.cls-105,.cls-106,.cls-107,.cls-108,.cls-109,.cls-114,.cls-115,.cls-116,.cls-117,.cls-118,.cls-15,.cls-16,.cls-17,.cls-18,.cls-19,.cls-24,.cls-25,.cls-26,.cls-27,.cls-28,.cls-33,.cls-34,.cls-35,.cls-36,.cls-37,.cls-42,.cls-43,.cls-44,.cls-45,.cls-46,.cls-51,.cls-52,.cls-53,.cls-54,.cls-55,.cls-6,.cls-60,.cls-61,.cls-62,.cls-63,.cls-64,.cls-69,.cls-7,.cls-70,.cls-71,.cls-72,.cls-73,.cls-78,.cls-79,.cls-8,.cls-80,.cls-81,.cls-82,.cls-87,.cls-88,.cls-89,.cls-9,.cls-90,.cls-91,.cls-96,.cls-97,.cls-98,.cls-99{opacity:0.7;mix-blend-mode:screen;}.cls-6{fill:url(#linear-gradient);}.cls-7{fill:url(#linear-gradient-2);}.cls-8{fill:url(#linear-gradient-3);}.cls-9{fill:url(#linear-gradient-4);}.cls-10{fill:url(#linear-gradient-5);}.cls-11{fill:url(#radial-gradient-5);}.cls-12{fill:url(#radial-gradient-6);}.cls-13{fill:url(#radial-gradient-7);}.cls-14{fill:url(#radial-gradient-8);}.cls-15{fill:url(#linear-gradient-6);}.cls-16{fill:url(#linear-gradient-7);}.cls-17{fill:url(#linear-gradient-8);}.cls-18{fill:url(#linear-gradient-9);}.cls-19{fill:url(#linear-gradient-10);}.cls-20{fill:url(#radial-gradient-9);}.cls-21{fill:url(#radial-gradient-10);}.cls-22{fill:url(#radial-gradient-11);}.cls-23{fill:url(#radial-gradient-12);}.cls-24{fill:url(#linear-gradient-11);}.cls-25{fill:url(#linear-gradient-12);}.cls-26{fill:url(#linear-gradient-13);}.cls-27{fill:url(#linear-gradient-14);}.cls-28{fill:url(#linear-gradient-15);}.cls-29{fill:url(#radial-gradient-13);}.cls-30{fill:url(#radial-gradient-14);}.cls-31{fill:url(#radial-gradient-15);}.cls-32{fill:url(#radial-gradient-16);}.cls-33{fill:url(#linear-gradient-16);}.cls-34{fill:url(#linear-gradient-17);}.cls-35{fill:url(#linear-gradient-18);}.cls-36{fill:url(#linear-gradient-19);}.cls-37{fill:url(#linear-gradient-20);}.cls-38{fill:url(#radial-gradient-17);}.cls-39{fill:url(#radial-gradient-18);}.cls-40{fill:url(#radial-gradient-19);}.cls-41{fill:url(#radial-gradient-20);}.cls-42{fill:url(#linear-gradient-21);}.cls-43{fill:url(#linear-gradient-22);}.cls-44{fill:url(#linear-gradient-23);}.cls-45{fill:url(#linear-gradient-24);}.cls-46{fill:url(#linear-gradient-25);}.cls-47{fill:url(#radial-gradient-21);}.cls-48{fill:url(#radial-gradient-22);}.cls-49{fill:url(#radial-gradient-23);}.cls-50{fill:url(#radial-gradient-24);}.cls-51{fill:url(#linear-gradient-26);}.cls-52{fill:url(#linear-gradient-27);}.cls-53{fill:url(#linear-gradient-28);}.cls-54{fill:url(#linear-gradient-29);}.cls-55{fill:url(#linear-gradient-30);}.cls-56{fill:url(#radial-gradient-25);}.cls-57{fill:url(#radial-gradient-26);}.cls-58{fill:url(#radial-gradient-27);}.cls-59{fill:url(#radial-gradient-28);}.cls-60{fill:url(#linear-gradient-31);}.cls-61{fill:url(#linear-gradient-32);}.cls-62{fill:url(#linear-gradient-33);}.cls-63{fill:url(#linear-gradient-34);}.cls-64{fill:url(#linear-gradient-35);}.cls-65{fill:url(#radial-gradient-29);}.cls-66{fill:url(#radial-gradient-30);}.cls-67{fill:url(#radial-gradient-31);}.cls-68{fill:url(#radial-gradient-32);}.cls-69{fill:url(#linear-gradient-36);}.cls-70{fill:url(#linear-gradient-37);}.cls-71{fill:url(#linear-gradient-38);}.cls-72{fill:url(#linear-gradient-39);}.cls-73{fill:url(#linear-gradient-40);}.cls-74{fill:url(#radial-gradient-33);}.cls-75{fill:url(#radial-gradient-34);}.cls-76{fill:url(#radial-gradient-35);}.cls-77{fill:url(#radial-gradient-36);}.cls-78{fill:url(#linear-gradient-41);}.cls-79{fill:url(#linear-gradient-42);}.cls-80{fill:url(#linear-gradient-43);}.cls-81{fill:url(#linear-gradient-44);}.cls-82{fill:url(#linear-gradient-45);}.cls-83{fill:url(#radial-gradient-37);}.cls-84{fill:url(#radial-gradient-38);}.cls-85{fill:url(#radial-gradient-39);}.cls-86{fill:url(#radial-gradient-40);}.cls-87{fill:url(#linear-gradient-46);}.cls-88{fill:url(#linear-gradient-47);}.cls-89{fill:url(#linear-gradient-48);}.cls-90{fill:url(#linear-gradient-49);}.cls-91{fill:url(#linear-gradient-50);}.cls-92{fill:url(#radial-gradient-41);}.cls-93{fill:url(#radial-gradient-42);}.cls-94{fill:url(#radial-gradient-43);}.cls-95{fill:url(#radial-gradient-44);}.cls-96{fill:url(#linear-gradient-51);}.cls-97{fill:url(#linear-gradient-52);}.cls-98{fill:url(#linear-gradient-53);}.cls-99{fill:url(#linear-gradient-54);}.cls-100{fill:url(#linear-gradient-55);}.cls-101{fill:url(#radial-gradient-45);}.cls-102{fill:url(#radial-gradient-46);}.cls-103{fill:url(#radial-gradient-47);}.cls-104{fill:url(#radial-gradient-48);}.cls-105{fill:url(#linear-gradient-56);}.cls-106{fill:url(#linear-gradient-57);}.cls-107{fill:url(#linear-gradient-58);}.cls-108{fill:url(#linear-gradient-59);}.cls-109{fill:url(#linear-gradient-60);}.cls-110{fill:url(#radial-gradient-49);}.cls-111{fill:url(#radial-gradient-50);}.cls-112{fill:url(#radial-gradient-51);}.cls-113{fill:url(#radial-gradient-52);}.cls-114{fill:url(#linear-gradient-61);}.cls-115{fill:url(#linear-gradient-62);}.cls-116{fill:url(#linear-gradient-63);}.cls-117{fill:url(#linear-gradient-64);}.cls-118{fill:url(#linear-gradient-65);}</style><radialGradient id="radial-gradient" cx="796.67" cy="-29.64" r="310.22" gradientTransform="matrix(-0.51, 0.77, -0.91, -0.43, 609.02, -123.28)" gradientUnits="userSpaceOnUse"><stop offset="0.56" stop-color="#fff"/><stop offset="0.64" stop-color="#fefbfd"/><stop offset="0.71" stop-color="#fbf0f6"/><stop offset="0.78" stop-color="#f7ddeb"/><stop offset="0.8" stop-color="#f5d6e7"/><stop offset="0.83" stop-color="#efcce2"/><stop offset="0.88" stop-color="#e0b2d4"/><stop offset="0.94" stop-color="#c888bc"/><stop offset="1" stop-color="#ab56a1"/></radialGradient><radialGradient id="radial-gradient-2" cx="-557.92" cy="-85.14" r="310.22" gradientTransform="matrix(0.51, -0.77, 0.91, 0.43, 725.84, -36.32)" gradientUnits="userSpaceOnUse"><stop offset="0.56" stop-color="#fff"/><stop offset="0.6" stop-color="#fbfeff"/><stop offset="0.64" stop-color="#f0fafd"/><stop offset="0.68" stop-color="#ddf4fb"/><stop offset="0.72" stop-color="#c3ebf7"/><stop offset="0.76" stop-color="#a1dff3"/><stop offset="0.8" stop-color="#78d1ed"/><stop offset="0.8" stop-color="#74d0ed"/><stop offset="0.83" stop-color="#6ec6e6"/><stop offset="0.87" stop-color="#5cacd3"/><stop offset="0.93" stop-color="#4082b3"/><stop offset="1" stop-color="#1a4989"/></radialGradient><radialGradient id="radial-gradient-3" cx="-557.92" cy="-85.14" r="310.22" gradientTransform="matrix(0.51, -0.77, 0.91, 0.43, 725.84, -36.32)" gradientUnits="userSpaceOnUse"><stop offset="0.23" stop-color="#fff"/><stop offset="0.32" stop-color="#f0fafd"/><stop offset="0.49" stop-color="#c9edf8"/><stop offset="0.72" stop-color="#8bd8f0"/><stop offset="0.8" stop-color="#74d0ed"/></radialGradient><radialGradient id="radial-gradient-4" cx="-382.57" cy="569.88" r="177.09" gradientTransform="translate(697 -73) scale(1.05 0.88)" gradientUnits="userSpaceOnUse"><stop offset="0.82" stop-color="#fff"/><stop offset="0.85" stop-color="#fcfeff"/><stop offset="0.88" stop-color="#f1fafd"/><stop offset="0.9" stop-color="#e0f4fb"/><stop offset="0.92" stop-color="#c8ebf9"/><stop offset="0.94" stop-color="#a8e0f5"/><stop offset="0.96" stop-color="#82d3f0"/><stop offset="0.98" stop-color="#54c2eb"/><stop offset="1" stop-color="#20b0e5"/><stop offset="1" stop-color="#17ade4"/></radialGradient><linearGradient id="linear-gradient" x1="438.24" y1="596.2" x2="196.94" y2="309.34" gradientUnits="userSpaceOnUse"><stop offset="0" stop-color="#fff"/><stop offset="0.31" stop-color="#979797"/><stop offset="0.57" stop-color="#464646"/><stop offset="0.75" stop-color="#141414"/><stop offset="0.84" stop-color="#010101"/></linearGradient><linearGradient id="linear-gradient-2" x1="160.38" y1="572.4" x2="309.32" y2="413.89" xlink:href="#linear-gradient"/><linearGradient id="linear-gradient-3" x1="384.83" y1="147.45" x2="302.94" y2="254.93" xlink:href="#linear-gradient"/><linearGradient id="linear-gradient-4" x1="355.84" y1="127.19" x2="328.54" y2="163.02" xlink:href="#linear-gradient"/><linearGradient id="linear-gradient-5" x1="341.83" y1="120.2" x2="333.15" y2="131.59" xlink:href="#linear-gradient"/><radialGradient id="radial-gradient-5" cx="929.7" cy="40.25" r="202.25" xlink:href="#radial-gradient"/><radialGradient id="radial-gradient-6" cx="-762.92" cy="-165.74" r="202.25" xlink:href="#radial-gradient-2"/><radialGradient id="radial-gradient-7" cx="-762.92" cy="-165.74" r="202.25" xlink:href="#radial-gradient-3"/><radialGradient id="radial-gradient-8" cx="-530.66" cy="680.77" r="115.46" xlink:href="#radial-gradient-4"/><linearGradient id="linear-gradient-6" x1="233.65" y1="635.31" x2="76.34" y2="448.29" xlink:href="#linear-gradient"/><linearGradient id="linear-gradient-7" x1="52.5" y1="619.79" x2="149.6" y2="516.45" xlink:href="#linear-gradient"/><linearGradient id="linear-gradient-8" x1="188.98" y1="275.6" x2="135.59" y2="345.67" xlink:href="#linear-gradient"/><linearGradient id="linear-gradient-9" x1="170.08" y1="262.39" x2="152.28" y2="285.75" xlink:href="#linear-gradient"/><linearGradient id="linear-gradient-10" x1="160.94" y1="257.83" x2="155.28" y2="265.26" xlink:href="#linear-gradient"/><radialGradient id="radial-gradient-9" cx="771.04" cy="-266.04" r="145.21" xlink:href="#radial-gradient"/><radialGradient id="radial-gradient-10" cx="-642.28" cy="134.88" r="145.21" xlink:href="#radial-gradient-2"/><radialGradient id="radial-gradient-11" cx="-642.28" cy="134.88" r="145.21" xlink:href="#radial-gradient-3"/><radialGradient id="radial-gradient-12" cx="-197.63" cy="706.77" r="82.89" xlink:href="#radial-gradient-4"/><linearGradient id="linear-gradient-11" x1="556.39" y1="627.32" x2="443.44" y2="493.04" xlink:href="#linear-gradient"/><linearGradient id="linear-gradient-12" x1="426.33" y1="616.17" x2="496.05" y2="541.97" xlink:href="#linear-gradient"/><linearGradient id="linear-gradient-13" x1="516.33" y1="314.65" x2="478" y2="364.96" xlink:href="#linear-gradient"/><linearGradient id="linear-gradient-14" x1="502.76" y1="305.16" x2="489.99" y2="321.94" xlink:href="#linear-gradient"/><linearGradient id="linear-gradient-15" x1="496.2" y1="301.89" x2="492.14" y2="307.23" xlink:href="#linear-gradient"/><radialGradient id="radial-gradient-13" cx="599.43" cy="-188.79" r="108.54" xlink:href="#radial-gradient"/><radialGradient id="radial-gradient-14" cx="-495.11" cy="53.99" r="108.54" xlink:href="#radial-gradient-2"/><radialGradient id="radial-gradient-15" cx="-495.11" cy="53.99" r="108.54" xlink:href="#radial-gradient-3"/><radialGradient id="radial-gradient-16" cx="-188.96" cy="529.06" r="61.96" xlink:href="#radial-gradient-4"/><linearGradient id="linear-gradient-16" x1="548.68" y1="451.19" x2="464.25" y2="350.82" xlink:href="#linear-gradient"/><linearGradient id="linear-gradient-17" x1="451.46" y1="442.86" x2="503.57" y2="387.4" xlink:href="#linear-gradient"/><linearGradient id="linear-gradient-18" x1="511.58" y1="168.76" x2="482.93" y2="206.37" xlink:href="#linear-gradient"/><linearGradient id="linear-gradient-19" x1="501.44" y1="161.67" x2="491.89" y2="174.21" xlink:href="#linear-gradient"/><linearGradient id="linear-gradient-20" x1="496.54" y1="159.22" x2="493.5" y2="163.21" xlink:href="#linear-gradient"/><radialGradient id="radial-gradient-17" cx="677.15" cy="-46.13" r="108.54" xlink:href="#radial-gradient"/><radialGradient id="radial-gradient-18" cx="-572.83" cy="-88.67" r="108.55" xlink:href="#radial-gradient-2"/><radialGradient id="radial-gradient-19" cx="-572.83" cy="-88.67" r="108.55" xlink:href="#radial-gradient-3"/><radialGradient id="radial-gradient-20" cx="-351.41" cy="527.37" r="61.96" xlink:href="#radial-gradient-4"/><linearGradient id="linear-gradient-21" x1="378.51" y1="449.71" x2="294.08" y2="349.34" xlink:href="#linear-gradient"/><linearGradient id="linear-gradient-22" x1="281.29" y1="441.38" x2="333.4" y2="385.92" xlink:href="#linear-gradient"/><linearGradient id="linear-gradient-23" x1="341.41" y1="167.28" x2="312.76" y2="204.89" xlink:href="#linear-gradient"/><linearGradient id="linear-gradient-24" x1="331.27" y1="160.19" x2="321.72" y2="172.73" xlink:href="#linear-gradient"/><linearGradient id="linear-gradient-25" x1="326.37" y1="157.74" x2="323.33" y2="161.73" xlink:href="#linear-gradient"/><radialGradient id="radial-gradient-21" cx="429.88" cy="-49.94" r="50.26" xlink:href="#radial-gradient"/><radialGradient id="radial-gradient-22" cx="-364.42" cy="-90.64" r="50.26" xlink:href="#radial-gradient-2"/><radialGradient id="radial-gradient-23" cx="-364.42" cy="-90.64" r="50.26" xlink:href="#radial-gradient-3"/><radialGradient id="radial-gradient-24" cx="-239.53" cy="328.89" r="28.69" xlink:href="#radial-gradient-4"/><linearGradient id="linear-gradient-26" x1="469.01" y1="243.62" x2="429.92" y2="197.14" xlink:href="#linear-gradient"/><linearGradient id="linear-gradient-27" x1="423.99" y1="239.76" x2="448.12" y2="214.08" xlink:href="#linear-gradient"/><linearGradient id="linear-gradient-28" x1="436.63" y1="9.26" x2="423.36" y2="26.67" xlink:href="#linear-gradient"/><linearGradient id="linear-gradient-29" x1="431.93" y1="5.97" x2="427.51" y2="11.78" xlink:href="#linear-gradient"/><linearGradient id="linear-gradient-30" x1="429.66" y1="4.84" x2="428.26" y2="6.68" xlink:href="#linear-gradient"/><radialGradient id="radial-gradient-25" cx="902.27" cy="37" r="50.26" xlink:href="#radial-gradient"/><radialGradient id="radial-gradient-26" cx="-836.8" cy="-177.59" r="50.26" xlink:href="#radial-gradient-2"/><radialGradient id="radial-gradient-27" cx="-836.8" cy="-177.59" r="50.26" xlink:href="#radial-gradient-3"/><radialGradient id="radial-gradient-28" cx="-545.73" cy="698.95" r="28.69" xlink:href="#radial-gradient-4"/><linearGradient id="linear-gradient-31" x1="148.25" y1="569.06" x2="109.15" y2="522.59" xlink:href="#linear-gradient"/><linearGradient id="linear-gradient-32" x1="103.23" y1="565.21" x2="127.36" y2="539.53" xlink:href="#linear-gradient"/><linearGradient id="linear-gradient-33" x1="115.87" y1="334.7" x2="102.6" y2="352.12" xlink:href="#linear-gradient"/><linearGradient id="linear-gradient-34" x1="111.17" y1="331.42" x2="106.75" y2="337.22" xlink:href="#linear-gradient"/><linearGradient id="linear-gradient-35" x1="108.9" y1="330.29" x2="107.49" y2="332.13" xlink:href="#linear-gradient"/><radialGradient id="radial-gradient-29" cx="922.69" cy="-124.99" r="50.26" xlink:href="#radial-gradient"/><radialGradient id="radial-gradient-30" cx="-857.22" cy="-15.6" r="50.26" xlink:href="#radial-gradient-2"/><radialGradient id="radial-gradient-31" cx="-857.22" cy="-15.6" r="50.26" xlink:href="#radial-gradient-3"/><radialGradient id="radial-gradient-32" cx="-414.25" cy="795.75" r="28.69" xlink:href="#radial-gradient-4"/><linearGradient id="linear-gradient-36" x1="285.98" y1="654.19" x2="246.88" y2="607.72" xlink:href="#linear-gradient"/><linearGradient id="linear-gradient-37" x1="240.96" y1="650.34" x2="265.09" y2="624.66" xlink:href="#linear-gradient"/><linearGradient id="linear-gradient-38" x1="253.6" y1="419.83" x2="240.33" y2="437.25" xlink:href="#linear-gradient"/><linearGradient id="linear-gradient-39" x1="248.9" y1="416.55" x2="244.48" y2="422.35" xlink:href="#linear-gradient"/><linearGradient id="linear-gradient-40" x1="246.63" y1="415.42" x2="245.22" y2="417.26" xlink:href="#linear-gradient"/><radialGradient id="radial-gradient-33" cx="573.49" cy="159.64" r="50.26" xlink:href="#radial-gradient"/><radialGradient id="radial-gradient-34" cx="-508.02" cy="-300.23" r="50.26" xlink:href="#radial-gradient-2"/><radialGradient id="radial-gradient-35" cx="-508.02" cy="-300.23" r="50.26" xlink:href="#radial-gradient-3"/><radialGradient id="radial-gradient-36" cx="-492.53" cy="352.1" r="28.69" xlink:href="#radial-gradient-4"/><linearGradient id="linear-gradient-41" x1="203.98" y1="264.03" x2="164.89" y2="217.55" xlink:href="#linear-gradient"/><linearGradient id="linear-gradient-42" x1="158.96" y1="260.17" x2="183.09" y2="234.49" xlink:href="#linear-gradient"/><linearGradient id="linear-gradient-43" x1="171.6" y1="29.66" x2="158.33" y2="47.08" xlink:href="#linear-gradient"/><linearGradient id="linear-gradient-44" x1="166.9" y1="26.38" x2="162.48" y2="32.19" xlink:href="#linear-gradient"/><linearGradient id="linear-gradient-45" x1="164.63" y1="25.25" x2="163.23" y2="27.1" xlink:href="#linear-gradient"/><radialGradient id="radial-gradient-37" cx="726.24" cy="170.54" r="26.58" xlink:href="#radial-gradient"/><radialGradient id="radial-gradient-38" cx="-676.55" cy="-313.48" r="26.58" xlink:href="#radial-gradient-2"/><radialGradient id="radial-gradient-39" cx="-676.55" cy="-313.48" r="26.58" xlink:href="#radial-gradient-3"/><radialGradient id="radial-gradient-40" cx="-581.38" cy="486.47" r="15.17" xlink:href="#radial-gradient-4"/><linearGradient id="linear-gradient-46" x1="100.05" y1="369.38" x2="79.38" y2="344.81" xlink:href="#linear-gradient"/><linearGradient id="linear-gradient-47" x1="76.24" y1="367.34" x2="89" y2="353.76" xlink:href="#linear-gradient"/><linearGradient id="linear-gradient-48" x1="69.59" y1="154.55" x2="62.57" y2="163.76" xlink:href="#linear-gradient"/><linearGradient id="linear-gradient-49" x1="67.1" y1="152.82" x2="64.76" y2="155.88" xlink:href="#linear-gradient"/><linearGradient id="linear-gradient-50" x1="65.9" y1="152.22" x2="65.16" y2="153.19" xlink:href="#linear-gradient"/><radialGradient id="radial-gradient-41" cx="825.38" cy="125.65" r="26.58" xlink:href="#radial-gradient"/><radialGradient id="radial-gradient-42" cx="-775.7" cy="-268.58" r="26.58" xlink:href="#radial-gradient-2"/><radialGradient id="radial-gradient-43" cx="-775.7" cy="-268.58" r="26.58" xlink:href="#radial-gradient-3"/><radialGradient id="radial-gradient-44" cx="-590.52" cy="594.92" r="15.17" xlink:href="#radial-gradient-4"/><linearGradient id="linear-gradient-51" x1="90.48" y1="464.76" x2="69.81" y2="440.19" xlink:href="#linear-gradient"/><linearGradient id="linear-gradient-52" x1="66.67" y1="462.72" x2="79.43" y2="449.14" xlink:href="#linear-gradient"/><linearGradient id="linear-gradient-53" x1="60.01" y1="249.93" x2="53" y2="259.13" xlink:href="#linear-gradient"/><linearGradient id="linear-gradient-54" x1="57.53" y1="248.19" x2="55.19" y2="251.26" xlink:href="#linear-gradient"/><linearGradient id="linear-gradient-55" x1="56.33" y1="247.59" x2="55.59" y2="248.57" xlink:href="#linear-gradient"/><radialGradient id="radial-gradient-45" cx="539.54" cy="34.01" r="26.58" xlink:href="#radial-gradient"/><radialGradient id="radial-gradient-46" cx="-489.86" cy="-176.95" r="26.58" xlink:href="#radial-gradient-2"/><radialGradient id="radial-gradient-47" cx="-489.86" cy="-176.95" r="26.58" xlink:href="#radial-gradient-3"/><radialGradient id="radial-gradient-48" cx="-371.16" cy="390.03" r="15.17" xlink:href="#radial-gradient-4"/><linearGradient id="linear-gradient-56" x1="320.27" y1="284.57" x2="299.6" y2="259.99" xlink:href="#linear-gradient"/><linearGradient id="linear-gradient-57" x1="296.46" y1="282.53" x2="309.22" y2="268.95" xlink:href="#linear-gradient"/><linearGradient id="linear-gradient-58" x1="289.81" y1="69.74" x2="282.79" y2="78.94" xlink:href="#linear-gradient"/><linearGradient id="linear-gradient-59" x1="287.32" y1="68" x2="284.98" y2="71.07" xlink:href="#linear-gradient"/><linearGradient id="linear-gradient-60" x1="286.12" y1="67.4" x2="285.37" y2="68.38" xlink:href="#linear-gradient"/><radialGradient id="radial-gradient-49" cx="674.58" cy="-196.11" r="26.58" xlink:href="#radial-gradient"/><radialGradient id="radial-gradient-50" cx="-624.89" cy="53.17" r="26.58" xlink:href="#radial-gradient-2"/><radialGradient id="radial-gradient-51" cx="-624.89" cy="53.17" r="26.58" xlink:href="#radial-gradient-3"/><radialGradient id="radial-gradient-52" cx="-236.07" cy="620.11" r="15.17" xlink:href="#radial-gradient-4"/><linearGradient id="linear-gradient-61" x1="461.78" y1="486.92" x2="441.11" y2="462.34" xlink:href="#linear-gradient"/><linearGradient id="linear-gradient-62" x1="437.98" y1="484.88" x2="450.74" y2="471.3" xlink:href="#linear-gradient"/><linearGradient id="linear-gradient-63" x1="431.32" y1="272.08" x2="424.3" y2="281.29" xlink:href="#linear-gradient"/><linearGradient id="linear-gradient-64" x1="428.84" y1="270.35" x2="426.5" y2="273.42" xlink:href="#linear-gradient"/><linearGradient id="linear-gradient-65" x1="427.63" y1="269.75" x2="426.89" y2="270.72" xlink:href="#linear-gradient"/></defs><title>bubble</title><g class="cls-1"><g id="Layer_1" data-name="Layer 1"><path class="cls-2" d="M212,555c-83-39-113-127-67-197s152-95,235-56,113,127,67,197S295,594,212,555Z" transform="translate(-28 -193)"/><path class="cls-3" d="M380,302c83,39,113,127,67,197s-152,95-235,56S99,428,145,358,297,263,380,302Z" transform="translate(-28 -193)"/><path class="cls-4" d="M380,302c83,39,113,127,67,197s-152,95-235,56S99,428,145,358,297,263,380,302Z" transform="translate(-28 -193)"/><path class="cls-5" d="M380,302c83,39,113,127,67,197s-152,95-235,56S99,428,145,358,297,263,380,302Z" transform="translate(-28 -193)"/><path class="cls-6" d="M380,302c-83-39-189-14-235,56-27,41-28,87-8,127a174,174,0,0,0,38,24c83,39,189,14,235-56,27-41,28-87,8-127A173,173,0,0,0,380,302Z" transform="translate(-28 -193)"/><path class="cls-7" d="M242,527c-79-37-107-120-63-187a139,139,0,0,1,14-18,146,146,0,0,0-42,41c-44,66-16,150,63,187s159,17,208-35C372,548,301,555,242,527Z" transform="translate(-28 -193)"/><ellipse class="cls-8" cx="373" cy="163" rx="25" ry="21"/><ellipse class="cls-9" cx="352" cy="132" rx="8" ry="7"/><ellipse class="cls-10" cx="341" cy="122" rx="3" ry="2"/><path class="cls-11" d="M86,608c-54-25-74-83-43-129s99-62,153-36,74,83,43,129S140,634,86,608Z" transform="translate(-28 -193)"/><path class="cls-12" d="M196,443c54,25,74,83,43,129s-99,62-153,36S12,525,43,480,142,418,196,443Z" transform="translate(-28 -193)"/><path class="cls-13" d="M196,443c54,25,74,83,43,129s-99,62-153,36S12,525,43,480,142,418,196,443Z" transform="translate(-28 -193)"/><path class="cls-14" d="M196,443c54,25,74,83,43,129s-99,62-153,36S12,525,43,480,142,418,196,443Z" transform="translate(-28 -193)"/><path class="cls-15" d="M196,443c-54-25-123-9-153,36-18,26-18,57-5,83a113,113,0,0,0,24,16c54,25,123,9,153-36,18-26,18-57,5-83A113,113,0,0,0,196,443Z" transform="translate(-28 -193)"/><path class="cls-16" d="M106,590c-51-24-70-79-41-122l9-12a95,95,0,0,0-27,27c-29,43-10,98,41,122s104,11,135-23C191,604,144,608,106,590Z" transform="translate(-28 -193)"/><ellipse class="cls-17" cx="181" cy="286" rx="16" ry="14"/><ellipse class="cls-18" cx="168" cy="266" rx="5" ry="5"/><ellipse class="cls-19" cx="160" cy="259" rx="2" ry="1"/><path class="cls-20" d="M450,608c-39-18-53-60-31-92s71-44,110-26,53,60,31,92S489,626,450,608Z" transform="translate(-28 -193)"/><path class="cls-21" d="M529,489c39,18,53,60,31,92s-71,44-110,26-53-60-31-92S490,471,529,489Z" transform="translate(-28 -193)"/><path class="cls-22" d="M529,489c39,18,53,60,31,92s-71,44-110,26-53-60-31-92S490,471,529,489Z" transform="translate(-28 -193)"/><path class="cls-23" d="M529,489c39,18,53,60,31,92s-71,44-110,26-53-60-31-92S490,471,529,489Z" transform="translate(-28 -193)"/><path class="cls-24" d="M529,489c-39-18-88-7-110,26-13,19-13,41-4,59a81,81,0,0,0,18,11c39,18,88,7,110-26,13-19,13-41,4-59A81,81,0,0,0,529,489Z" transform="translate(-28 -193)"/><path class="cls-25" d="M464,595c-37-17-50-56-29-87l7-8a69,69,0,0,0-19,19c-21,31-7,70,29,87s74,8,97-16C525,605,492,608,464,595Z" transform="translate(-28 -193)"/><ellipse class="cls-26" cx="511" cy="322" rx="12" ry="10"/><ellipse class="cls-27" cx="501" cy="308" rx="4" ry="3"/><ellipse class="cls-28" cx="496" cy="303" rx="1" ry="1"/><path class="cls-29" d="M469,437c-29-14-40-45-23-69s53-33,82-20,40,45,23,69S499,450,469,437Z" transform="translate(-28 -193)"/><path class="cls-30" d="M528,348c29,14,40,45,23,69s-53,33-82,20-40-45-23-69S499,334,528,348Z" transform="translate(-28 -193)"/><path class="cls-31" d="M528,348c29,14,40,45,23,69s-53,33-82,20-40-45-23-69S499,334,528,348Z" transform="translate(-28 -193)"/><path class="cls-32" d="M528,348c29,14,40,45,23,69s-53,33-82,20-40-45-23-69S499,334,528,348Z" transform="translate(-28 -193)"/><path class="cls-33" d="M528,348c-29-14-66-5-82,20a44,44,0,0,0-3,44l13,8c29,14,66,5,82-20a44,44,0,0,0,3-44Z" transform="translate(-28 -193)"/><path class="cls-34" d="M480,427c-28-13-37-42-22-65l5-6a51,51,0,0,0-15,14c-15,23-6,52,22,65s56,6,73-12C526,434,501,437,480,427Z" transform="translate(-28 -193)"/><ellipse class="cls-35" cx="507" cy="174" rx="9" ry="7"/><ellipse class="cls-36" cx="500" cy="163" rx="3" ry="2"/><ellipse class="cls-37" cx="496" cy="160" rx="1" ry="1"/><path class="cls-38" d="M299,435c-29-14-40-45-23-69s53-33,82-20,40,45,23,69S328,449,299,435Z" transform="translate(-28 -193)"/><path class="cls-39" d="M358,347c29,14,40,45,23,69s-53,33-82,20-40-45-23-69S329,333,358,347Z" transform="translate(-28 -193)"/><path class="cls-40" d="M358,347c29,14,40,45,23,69s-53,33-82,20-40-45-23-69S329,333,358,347Z" transform="translate(-28 -193)"/><path class="cls-41" d="M358,347c29,14,40,45,23,69s-53,33-82,20-40-45-23-69S329,333,358,347Z" transform="translate(-28 -193)"/><path class="cls-42" d="M358,347c-29-14-66-5-82,20a44,44,0,0,0-3,44l13,8c29,14,66,5,82-20a44,44,0,0,0,3-44Z" transform="translate(-28 -193)"/><path class="cls-43" d="M310,425c-28-13-37-42-22-65l5-6a51,51,0,0,0-15,14c-15,23-6,52,22,65s56,6,73-12C355,433,331,435,310,425Z" transform="translate(-28 -193)"/><ellipse class="cls-44" cx="337" cy="173" rx="9" ry="7"/><ellipse class="cls-45" cx="330" cy="162" rx="3" ry="2"/><ellipse class="cls-46" cx="326" cy="158" rx="1" ry="1"/><path class="cls-47" d="M432,237c-14-6-18-21-11-32s25-15,38-9,18,21,11,32S446,243,432,237Z" transform="translate(-28 -193)"/><path class="cls-48" d="M460,196c14,6,18,21,11,32s-25,15-38,9-18-21-11-32S446,190,460,196Z" transform="translate(-28 -193)"/><path class="cls-49" d="M460,196c14,6,18,21,11,32s-25,15-38,9-18-21-11-32S446,190,460,196Z" transform="translate(-28 -193)"/><path class="cls-50" d="M460,196c14,6,18,21,11,32s-25,15-38,9-18-21-11-32S446,190,460,196Z" transform="translate(-28 -193)"/><path class="cls-51" d="M460,196c-14-6-31-2-38,9a20,20,0,0,0-1,21l6,4c14,6,31,2,38-9a20,20,0,0,0,1-21Z" transform="translate(-28 -193)"/><path class="cls-52" d="M437,232c-13-6-17-20-10-30l2-3-7,7c-7,11-3,24,10,30s26,3,34-6A31,31,0,0,1,437,232Z" transform="translate(-28 -193)"/><ellipse class="cls-53" cx="435" cy="12" rx="4" ry="3"/><ellipse class="cls-54" cx="431" cy="7" rx="1" ry="1"/><ellipse class="cls-55" cx="429" cy="5"/><path class="cls-56" d="M112,562c-14-6-18-21-11-32s25-15,38-9,18,21,11,32S125,569,112,562Z" transform="translate(-28 -193)"/><path class="cls-57" d="M139,521c14,6,18,21,11,32s-25,15-38,9-18-21-11-32S125,515,139,521Z" transform="translate(-28 -193)"/><path class="cls-58" d="M139,521c14,6,18,21,11,32s-25,15-38,9-18-21-11-32S125,515,139,521Z" transform="translate(-28 -193)"/><path class="cls-59" d="M139,521c14,6,18,21,11,32s-25,15-38,9-18-21-11-32S125,515,139,521Z" transform="translate(-28 -193)"/><path class="cls-60" d="M139,521c-14-6-31-2-38,9a20,20,0,0,0-1,21l6,4c14,6,31,2,38-9a20,20,0,0,0,1-21Z" transform="translate(-28 -193)"/><path class="cls-61" d="M116,558c-13-6-17-20-10-30l2-3-7,7c-7,11-3,24,10,30s26,3,34-6A31,31,0,0,1,116,558Z" transform="translate(-28 -193)"/><ellipse class="cls-62" cx="114" cy="337" rx="4" ry="3"/><ellipse class="cls-63" cx="111" cy="332" rx="1" ry="1"/><ellipse class="cls-64" cx="109" cy="331"/><path class="cls-65" d="M249,648c-14-6-18-21-11-32s25-15,38-9,18,21,11,32S263,654,249,648Z" transform="translate(-28 -193)"/><path class="cls-66" d="M277,606c14,6,18,21,11,32s-25,15-38,9-18-21-11-32S263,600,277,606Z" transform="translate(-28 -193)"/><path class="cls-67" d="M277,606c14,6,18,21,11,32s-25,15-38,9-18-21-11-32S263,600,277,606Z" transform="translate(-28 -193)"/><path class="cls-68" d="M277,606c14,6,18,21,11,32s-25,15-38,9-18-21-11-32S263,600,277,606Z" transform="translate(-28 -193)"/><path class="cls-69" d="M277,606c-13-6-31-2-38,9a20,20,0,0,0-1,21l6,4c14,6,31,2,38-9a20,20,0,0,0,1-21Z" transform="translate(-28 -193)"/><path class="cls-70" d="M254,643c-13-6-17-20-10-30l2-3-7,7c-7,11-3,24,10,30s26,3,34-6A31,31,0,0,1,254,643Z" transform="translate(-28 -193)"/><ellipse class="cls-71" cx="252" cy="422" rx="4" ry="3"/><ellipse class="cls-72" cx="248" cy="417" rx="1" ry="1"/><ellipse class="cls-73" cx="246" cy="416"/><path class="cls-74" d="M167,257c-14-6-18-21-11-32s25-15,38-9,18,21,11,32S181,264,167,257Z" transform="translate(-28 -193)"/><path class="cls-75" d="M195,216c14,6,18,21,11,32s-25,15-38,9-18-21-11-32S181,210,195,216Z" transform="translate(-28 -193)"/><path class="cls-76" d="M195,216c14,6,18,21,11,32s-25,15-38,9-18-21-11-32S181,210,195,216Z" transform="translate(-28 -193)"/><path class="cls-77" d="M195,216c14,6,18,21,11,32s-25,15-38,9-18-21-11-32S181,210,195,216Z" transform="translate(-28 -193)"/><path class="cls-78" d="M195,216c-13-6-31-2-38,9a20,20,0,0,0-1,21l6,4c13,6,31,2,38-9a20,20,0,0,0,1-21Z" transform="translate(-28 -193)"/><path class="cls-79" d="M172,253c-13-6-17-20-10-30l2-3-7,7c-7,11-3,24,10,30s26,3,34-6A31,31,0,0,1,172,253Z" transform="translate(-28 -193)"/><ellipse class="cls-80" cx="170" cy="32" rx="4" ry="3"/><ellipse class="cls-81" cx="166" cy="27" rx="1" ry="1"/><ellipse class="cls-82" cx="164" cy="26"/><path class="cls-83" d="M81,366c-7-3-10-11-6-17s13-8,20-5,10,11,6,17S88,369,81,366Z" transform="translate(-28 -193)"/><path class="cls-84" d="M95,344c7,3,10,11,6,17s-13,8-20,5-10-11-6-17S88,341,95,344Z" transform="translate(-28 -193)"/><path class="cls-85" d="M95,344c7,3,10,11,6,17s-13,8-20,5-10-11-6-17S88,341,95,344Z" transform="translate(-28 -193)"/><path class="cls-86" d="M95,344c7,3,10,11,6,17s-13,8-20,5-10-11-6-17S88,341,95,344Z" transform="translate(-28 -193)"/><path class="cls-87" d="M95,344c-7-3-16-1-20,5a11,11,0,0,0-1,11l3,2c7,3,16,1,20-5a11,11,0,0,0,1-11Z" transform="translate(-28 -193)"/><path class="cls-88" d="M83,363c-7-3-9-10-5-16v-2l-4,4c-4,6-1,13,5,16s14,1,18-3A16,16,0,0,1,83,363Z" transform="translate(-28 -193)"/><ellipse class="cls-89" cx="69" cy="156" rx="2" ry="2"/><ellipse class="cls-90" cx="67" cy="153" rx="1" ry="1"/><ellipse class="cls-91" cx="66" cy="152"/><path class="cls-92" d="M71,461c-7-3-10-11-6-17s13-8,20-5,10,11,6,17S78,465,71,461Z" transform="translate(-28 -193)"/><path class="cls-93" d="M86,440c7,3,10,11,6,17s-13,8-20,5-10-11-6-17S78,436,86,440Z" transform="translate(-28 -193)"/><path class="cls-94" d="M86,440c7,3,10,11,6,17s-13,8-20,5-10-11-6-17S78,436,86,440Z" transform="translate(-28 -193)"/><path class="cls-95" d="M86,440c7,3,10,11,6,17s-13,8-20,5-10-11-6-17S78,436,86,440Z" transform="translate(-28 -193)"/><path class="cls-96" d="M86,440c-7-3-16-1-20,5a11,11,0,0,0-1,11l3,2c7,3,16,1,20-5a11,11,0,0,0,1-11Z" transform="translate(-28 -193)"/><path class="cls-97" d="M74,459c-7-3-9-10-5-16v-2l-4,4c-4,6-1,13,5,16s14,1,18-3A16,16,0,0,1,74,459Z" transform="translate(-28 -193)"/><ellipse class="cls-98" cx="59" cy="251" rx="2" ry="2"/><ellipse class="cls-99" cx="57" cy="249" rx="1" ry="1"/><ellipse class="cls-100" cx="56" cy="248"/><path class="cls-101" d="M301,281c-7-3-10-11-6-17s13-8,20-5,10,11,6,17S308,284,301,281Z" transform="translate(-28 -193)"/><path class="cls-102" d="M315,259c7,3,10,11,6,17s-13,8-20,5-10-11-6-17S308,256,315,259Z" transform="translate(-28 -193)"/><path class="cls-103" d="M315,259c7,3,10,11,6,17s-13,8-20,5-10-11-6-17S308,256,315,259Z" transform="translate(-28 -193)"/><path class="cls-104" d="M315,259c7,3,10,11,6,17s-13,8-20,5-10-11-6-17S308,256,315,259Z" transform="translate(-28 -193)"/><path class="cls-105" d="M315,259c-7-3-16-1-20,5a11,11,0,0,0-1,11l3,2c7,3,16,1,20-5a11,11,0,0,0,1-11Z" transform="translate(-28 -193)"/><path class="cls-106" d="M303,279c-7-3-9-10-5-16v-2l-4,4c-4,6-1,13,5,16s14,1,18-3A16,16,0,0,1,303,279Z" transform="translate(-28 -193)"/><ellipse class="cls-107" cx="289" cy="71" rx="2" ry="2"/><ellipse class="cls-108" cx="287" cy="68" rx="1" ry="1"/><ellipse class="cls-109" cx="286" cy="68"/><path class="cls-110" d="M442,483c-7-3-10-11-6-17s13-8,20-5,10,11,6,17S450,487,442,483Z" transform="translate(-28 -193)"/><path class="cls-111" d="M457,462c7,3,10,11,6,17s-13,8-20,5-10-11-6-17S450,458,457,462Z" transform="translate(-28 -193)"/><path class="cls-112" d="M457,462c7,3,10,11,6,17s-13,8-20,5-10-11-6-17S450,458,457,462Z" transform="translate(-28 -193)"/><path class="cls-113" d="M457,462c7,3,10,11,6,17s-13,8-20,5-10-11-6-17S450,458,457,462Z" transform="translate(-28 -193)"/><path class="cls-114" d="M457,462c-7-3-16-1-20,5a11,11,0,0,0-1,11l3,2c7,3,16,1,20-5a11,11,0,0,0,1-11Z" transform="translate(-28 -193)"/><path class="cls-115" d="M445,481c-7-3-9-10-5-16v-2l-4,4c-4,6-1,13,5,16s14,1,18-3A16,16,0,0,1,445,481Z" transform="translate(-28 -193)"/><ellipse class="cls-116" cx="430" cy="273" rx="2" ry="2"/><ellipse class="cls-117" cx="429" cy="271" rx="1" ry="1"/><ellipse class="cls-118" cx="428" cy="270"/><image width="225" height="225" transform="translate(137 108) scale(1.12)" xlink:href="../../../../Desktop/26804049_1518458761600202_535148516_n.png"/></g></g></svg>