<svg xmlns="http://www.w3.org/2000/svg" xmlns:xlink="http://www.w3.org/1999/xlink" viewBox="0 0 427 353"><defs><style>.cls-1{isolation:isolate;}.cls-101,.cls-102,.cls-103,.cls-104,.cls-11,.cls-12,.cls-13,.cls-14,.cls-2,.cls-20,.cls-21,.cls-22,.cls-23,.cls-29,.cls-3,.cls-30,.cls-31,.cls-32,.cls-38,.cls-39,.cls-4,.cls-40,.cls-41,.cls-47,.cls-48,.cls-49,.cls-5,.cls-50,.cls-56,.cls-57,.cls-58,.cls-59,.cls-65,.cls-66,.cls-67,.cls-68,.cls-74,.cls-75,.cls-76,.cls-77,.cls-83,.cls-84,.cls-85,.cls-86,.cls-92,.cls-93,.cls-94,.cls-95{mix-blend-mode:multiply;}.cls-2{fill:url(#radial-gradient);}.cls-3{fill:url(#radial-gradient-2);}.cls-103,.cls-13,.cls-22,.cls-31,.cls-4,.cls-40,.cls-49,.cls-58,.cls-67,.cls-76,.cls-85,.cls-94{opacity:0.3;}.cls-4{fill:url(#radial-gradient-3);}.cls-104,.cls-14,.cls-23,.cls-32,.cls-41,.cls-5,.cls-50,.cls-59,.cls-68,.cls-77,.cls-86,.cls-95{opacity:0.8;}.cls-5{fill:url(#radial-gradient-4);}.cls-10,.cls-100,.cls-105,.cls-106,.cls-107,.cls-108,.cls-109,.cls-15,.cls-16,.cls-17,.cls-18,.cls-19,.cls-24,.cls-25,.cls-26,.cls-27,.cls-28,.cls-33,.cls-34,.cls-35,.cls-36,.cls-37,.cls-42,.cls-43,.cls-44,.cls-45,.cls-46,.cls-51,.cls-52,.cls-53,.cls-54,.cls-55,.cls-6,.cls-60,.cls-61,.cls-62,.cls-63,.cls-64,.cls-69,.cls-7,.cls-70,.cls-71,.cls-72,.cls-73,.cls-78,.cls-79,.cls-8,.cls-80,.cls-81,.cls-82,.cls-87,.cls-88,.cls-89,.cls-9,.cls-90,.cls-91,.cls-96,.cls-97,.cls-98,.cls-99{opacity:0.7;mix-blend-mode:screen;}.cls-6{fill:url(#linear-gradient);}.cls-7{fill:url(#linear-gradient-2);}.cls-8{fill:url(#linear-gradient-3);}.cls-9{fill:url(#linear-gradient-4);}.cls-10{fill:url(#linear-gradient-5);}.cls-11{fill:url(#radial-gradient-5);}.cls-12{fill:url(#radial-gradient-6);}.cls-13{fill:url(#radial-gradient-7);}.cls-14{fill:url(#radial-gradient-8);}.cls-15{fill:url(#linear-gradient-6);}.cls-16{fill:url(#linear-gradient-7);}.cls-17{fill:url(#linear-gradient-8);}.cls-18{fill:url(#linear-gradient-9);}.cls-19{fill:url(#linear-gradient-10);}.cls-20{fill:url(#radial-gradient-9);}.cls-21{fill:url(#radial-gradient-10);}.cls-22{fill:url(#radial-gradient-11);}.cls-23{fill:url(#radial-gradient-12);}.cls-24{fill:url(#linear-gradient-11);}.cls-25{fill:url(#linear-gradient-12);}.cls-26{fill:url(#linear-gradient-13);}.cls-27{fill:url(#linear-gradient-14);}.cls-28{fill:url(#linear-gradient-15);}.cls-29{fill:url(#radial-gradient-13);}.cls-30{fill:url(#radial-gradient-14);}.cls-31{fill:url(#radial-gradient-15);}.cls-32{fill:url(#radial-gradient-16);}.cls-33{fill:url(#linear-gradient-16);}.cls-34{fill:url(#linear-gradient-17);}.cls-35{fill:url(#linear-gradient-18);}.cls-36{fill:url(#linear-gradient-19);}.cls-37{fill:url(#linear-gradient-20);}.cls-38{fill:url(#radial-gradient-17);}.cls-39{fill:url(#radial-gradient-18);}.cls-40{fill:url(#radial-gradient-19);}.cls-41{fill:url(#radial-gradient-20);}.cls-42{fill:url(#linear-gradient-21);}.cls-43{fill:url(#linear-gradient-22);}.cls-44{fill:url(#linear-gradient-23);}.cls-45{fill:url(#linear-gradient-24);}.cls-46{fill:url(#linear-gradient-25);}.cls-47{fill:url(#radial-gradient-21);}.cls-48{fill:url(#radial-gradient-22);}.cls-49{fill:url(#radial-gradient-23);}.cls-50{fill:url(#radial-gradient-24);}.cls-51{fill:url(#linear-gradient-26);}.cls-52{fill:url(#linear-gradient-27);}.cls-53{fill:url(#linear-gradient-28);}.cls-54{fill:url(#linear-gradient-29);}.cls-55{fill:url(#linear-gradient-30);}.cls-56{fill:url(#radial-gradient-25);}.cls-57{fill:url(#radial-gradient-26);}.cls-58{fill:url(#radial-gradient-27);}.cls-59{fill:url(#radial-gradient-28);}.cls-60{fill:url(#linear-gradient-31);}.cls-61{fill:url(#linear-gradient-32);}.cls-62{fill:url(#linear-gradient-33);}.cls-63{fill:url(#linear-gradient-34);}.cls-64{fill:url(#linear-gradient-35);}.cls-65{fill:url(#radial-gradient-29);}.cls-66{fill:url(#radial-gradient-30);}.cls-67{fill:url(#radial-gradient-31);}.cls-68{fill:url(#radial-gradient-32);}.cls-69{fill:url(#linear-gradient-36);}.cls-70{fill:url(#linear-gradient-37);}.cls-71{fill:url(#linear-gradient-38);}.cls-72{fill:url(#linear-gradient-39);}.cls-73{fill:url(#linear-gradient-40);}.cls-74{fill:url(#radial-gradient-33);}.cls-75{fill:url(#radial-gradient-34);}.cls-76{fill:url(#radial-gradient-35);}.cls-77{fill:url(#radial-gradient-36);}.cls-78{fill:url(#linear-gradient-41);}.cls-79{fill:url(#linear-gradient-42);}.cls-80{fill:url(#linear-gradient-43);}.cls-81{fill:url(#linear-gradient-44);}.cls-82{fill:url(#linear-gradient-45);}.cls-83{fill:url(#radial-gradient-37);}.cls-84{fill:url(#radial-gradient-38);}.cls-85{fill:url(#radial-gradient-39);}.cls-86{fill:url(#radial-gradient-40);}.cls-87{fill:url(#linear-gradient-46);}.cls-88{fill:url(#linear-gradient-47);}.cls-89{fill:url(#linear-gradient-48);}.cls-90{fill:url(#linear-gradient-49);}.cls-91{fill:url(#linear-gradient-50);}.cls-92{fill:url(#radial-gradient-41);}.cls-93{fill:url(#radial-gradient-42);}.cls-94{fill:url(#radial-gradient-43);}.cls-95{fill:url(#radial-gradient-44);}.cls-96{fill:url(#linear-gradient-51);}.cls-97{fill:url(#linear-gradient-52);}.cls-98{fill:url(#linear-gradient-53);}.cls-99{fill:url(#linear-gradient-54);}.cls-100{fill:url(#linear-gradient-55);}.cls-101{fill:url(#radial-gradient-45);}.cls-102{fill:url(#radial-gradient-46);}.cls-103{fill:url(#radial-gradient-47);}.cls-104{fill:url(#radial-gradient-48);}.cls-105{fill:url(#linear-gradient-56);}.cls-106{fill:url(#linear-gradient-57);}.cls-107{fill:url(#linear-gradient-58);}.cls-108{fill:url(#linear-gradient-59);}.cls-109{fill:url(#linear-gradient-60);}</style><radialGradient id="radial-gradient" cx="859.16" cy="124.5" r="310.22" gradientTransform="matrix(-0.56, 0.85, -0.99, -0.48, 827.09, -206.79)" gradientUnits="userSpaceOnUse"><stop offset="0.56" stop-color="#fff"/><stop offset="0.64" stop-color="#fefbfd"/><stop offset="0.71" stop-color="#fbf0f6"/><stop offset="0.78" stop-color="#f7ddeb"/><stop offset="0.8" stop-color="#f5d6e7"/><stop offset="0.83" stop-color="#efcce2"/><stop offset="0.88" stop-color="#e0b2d4"/><stop offset="0.94" stop-color="#c888bc"/><stop offset="1" stop-color="#ab56a1"/></radialGradient><radialGradient id="radial-gradient-2" cx="-620.41" cy="-239.28" r="310.22" gradientTransform="matrix(0.56, -0.85, 0.99, 0.48, 954.1, -110.42)" gradientUnits="userSpaceOnUse"><stop offset="0.56" stop-color="#fff"/><stop offset="0.6" stop-color="#fbfeff"/><stop offset="0.64" stop-color="#f0fafd"/><stop offset="0.68" stop-color="#ddf4fb"/><stop offset="0.72" stop-color="#c3ebf7"/><stop offset="0.76" stop-color="#a1dff3"/><stop offset="0.8" stop-color="#78d1ed"/><stop offset="0.8" stop-color="#74d0ed"/><stop offset="0.83" stop-color="#6ec6e6"/><stop offset="0.87" stop-color="#5cacd3"/><stop offset="0.93" stop-color="#4082b3"/><stop offset="1" stop-color="#1a4989"/></radialGradient><radialGradient id="radial-gradient-3" cx="-620.41" cy="-239.28" r="310.22" gradientTransform="matrix(0.56, -0.85, 0.99, 0.48, 954.1, -110.42)" gradientUnits="userSpaceOnUse"><stop offset="0.23" stop-color="#fff"/><stop offset="0.32" stop-color="#f0fafd"/><stop offset="0.49" stop-color="#c9edf8"/><stop offset="0.72" stop-color="#8bd8f0"/><stop offset="0.8" stop-color="#74d0ed"/></radialGradient><radialGradient id="radial-gradient-4" cx="-547.61" cy="549.3" r="177.09" gradientTransform="translate(923 -151) scale(1.14 0.97)" gradientUnits="userSpaceOnUse"><stop offset="0.82" stop-color="#fff"/><stop offset="0.85" stop-color="#fcfeff"/><stop offset="0.88" stop-color="#f1fafd"/><stop offset="0.9" stop-color="#e0f4fb"/><stop offset="0.92" stop-color="#c8ebf9"/><stop offset="0.94" stop-color="#a8e0f5"/><stop offset="0.96" stop-color="#82d3f0"/><stop offset="0.98" stop-color="#54c2eb"/><stop offset="1" stop-color="#20b0e5"/><stop offset="1" stop-color="#17ade4"/></radialGradient><linearGradient id="linear-gradient" x1="455.05" y1="568.39" x2="190.28" y2="253.63" gradientUnits="userSpaceOnUse"><stop offset="0" stop-color="#fff"/><stop offset="0.31" stop-color="#979797"/><stop offset="0.57" stop-color="#464646"/><stop offset="0.75" stop-color="#141414"/><stop offset="0.84" stop-color="#010101"/></linearGradient><linearGradient id="linear-gradient-2" x1="150.36" y1="542.16" x2="312.38" y2="369.72" xlink:href="#linear-gradient"/><linearGradient id="linear-gradient-3" x1="338.35" y1="91.69" x2="248.37" y2="209.79" xlink:href="#linear-gradient"/><linearGradient id="linear-gradient-4" x1="306.74" y1="69.14" x2="276.75" y2="108.52" xlink:href="#linear-gradient"/><linearGradient id="linear-gradient-5" x1="291.48" y1="61.36" x2="281.94" y2="73.88" xlink:href="#linear-gradient"/><radialGradient id="radial-gradient-5" cx="858.9" cy="-3.82" r="87.53" xlink:href="#radial-gradient"/><radialGradient id="radial-gradient-6" cx="-768.59" cy="-133.07" r="87.53" xlink:href="#radial-gradient-2"/><radialGradient id="radial-gradient-7" cx="-768.59" cy="-133.07" r="87.53" xlink:href="#radial-gradient-3"/><radialGradient id="radial-gradient-8" cx="-481.28" cy="671.04" r="49.97" xlink:href="#radial-gradient-4"/><linearGradient id="linear-gradient-6" x1="418.54" y1="555.02" x2="343.83" y2="466.2" xlink:href="#linear-gradient"/><linearGradient id="linear-gradient-7" x1="332.57" y1="547.62" x2="378.29" y2="498.96" xlink:href="#linear-gradient"/><linearGradient id="linear-gradient-8" x1="322.49" y1="280.23" x2="297.1" y2="313.56" xlink:href="#linear-gradient"/><linearGradient id="linear-gradient-9" x1="313.57" y1="273.87" x2="305.11" y2="284.98" xlink:href="#linear-gradient"/><linearGradient id="linear-gradient-10" x1="309.27" y1="271.68" x2="306.57" y2="275.21" xlink:href="#linear-gradient"/><radialGradient id="radial-gradient-9" cx="665.93" cy="-13.13" r="108.54" gradientTransform="matrix(-0.36, 0.58, -0.64, -0.32, 686.44, -13.31)" xlink:href="#radial-gradient"/><radialGradient id="radial-gradient-10" cx="-561.61" cy="-121.66" r="108.54" gradientTransform="matrix(0.36, -0.58, 0.64, 0.32, 768.46, 52.03)" xlink:href="#radial-gradient-2"/><radialGradient id="radial-gradient-11" cx="-561.61" cy="-121.66" r="108.54" gradientTransform="matrix(0.36, -0.58, 0.64, 0.32, 768.46, 52.03)" xlink:href="#radial-gradient-3"/><radialGradient id="radial-gradient-12" cx="-374.75" cy="501.49" r="61.96" gradientTransform="translate(748 25) scale(0.74 0.66)" xlink:href="#radial-gradient-4"/><linearGradient id="linear-gradient-11" x1="508.79" y1="398.43" x2="447.49" y2="325.56" xlink:href="#linear-gradient"/><linearGradient id="linear-gradient-12" x1="438.37" y1="392.28" x2="475.04" y2="353.25" xlink:href="#linear-gradient"/><linearGradient id="linear-gradient-13" x1="413.46" y1="137.57" x2="392.55" y2="165" xlink:href="#linear-gradient"/><linearGradient id="linear-gradient-14" x1="406.26" y1="132.16" x2="399.29" y2="141.31" xlink:href="#linear-gradient"/><linearGradient id="linear-gradient-15" x1="402.79" y1="130.3" x2="400.58" y2="133.2" xlink:href="#linear-gradient"/><radialGradient id="radial-gradient-13" cx="739.65" cy="108" r="108.54" xlink:href="#radial-gradient"/><radialGradient id="radial-gradient-14" cx="-635.33" cy="-242.8" r="108.55" xlink:href="#radial-gradient-2"/><radialGradient id="radial-gradient-15" cx="-635.33" cy="-242.8" r="108.55" xlink:href="#radial-gradient-3"/><radialGradient id="radial-gradient-16" cx="-516.45" cy="506.8" r="61.96" xlink:href="#radial-gradient-4"/><linearGradient id="linear-gradient-16" x1="389.06" y1="407.41" x2="296.42" y2="297.27" xlink:href="#linear-gradient"/><linearGradient id="linear-gradient-17" x1="282.45" y1="398.22" x2="339.14" y2="337.89" xlink:href="#linear-gradient"/><linearGradient id="linear-gradient-18" x1="291.06" y1="113.57" x2="259.58" y2="154.89" xlink:href="#linear-gradient"/><linearGradient id="linear-gradient-19" x1="280" y1="105.68" x2="269.5" y2="119.45" xlink:href="#linear-gradient"/><linearGradient id="linear-gradient-20" x1="274.66" y1="102.96" x2="271.33" y2="107.34" xlink:href="#linear-gradient"/><radialGradient id="radial-gradient-17" cx="593.03" cy="93.38" r="50.26" xlink:href="#radial-gradient"/><radialGradient id="radial-gradient-18" cx="-527.57" cy="-233.96" r="50.26" xlink:href="#radial-gradient-2"/><radialGradient id="radial-gradient-19" cx="-527.57" cy="-233.96" r="50.26" xlink:href="#radial-gradient-3"/><radialGradient id="radial-gradient-20" cx="-444.2" cy="401.47" r="28.69" xlink:href="#radial-gradient-4"/><linearGradient id="linear-gradient-21" x1="442.02" y1="270.2" x2="399.12" y2="219.21" xlink:href="#linear-gradient"/><linearGradient id="linear-gradient-22" x1="392.66" y1="265.95" x2="418.91" y2="238.01" xlink:href="#linear-gradient"/><linearGradient id="linear-gradient-23" x1="349.42" y1="29.21" x2="334.85" y2="48.34" xlink:href="#linear-gradient"/><linearGradient id="linear-gradient-24" x1="344.3" y1="25.56" x2="339.44" y2="31.94" xlink:href="#linear-gradient"/><linearGradient id="linear-gradient-25" x1="341.83" y1="24.3" x2="340.29" y2="26.33" xlink:href="#linear-gradient"/><radialGradient id="radial-gradient-21" cx="929.72" cy="179.3" r="50.26" xlink:href="#radial-gradient"/><radialGradient id="radial-gradient-22" cx="-864.25" cy="-319.88" r="50.26" xlink:href="#radial-gradient-2"/><radialGradient id="radial-gradient-23" cx="-864.25" cy="-319.88" r="50.26" xlink:href="#radial-gradient-3"/><radialGradient id="radial-gradient-24" cx="-683.36" cy="653.54" r="28.69" xlink:href="#radial-gradient-4"/><linearGradient id="linear-gradient-26" x1="169.63" y1="515.87" x2="126.74" y2="464.87" xlink:href="#linear-gradient"/><linearGradient id="linear-gradient-27" x1="120.27" y1="511.62" x2="146.52" y2="483.68" xlink:href="#linear-gradient"/><linearGradient id="linear-gradient-28" x1="77.04" y1="274.88" x2="62.46" y2="294.02" xlink:href="#linear-gradient"/><linearGradient id="linear-gradient-29" x1="71.92" y1="271.23" x2="67.06" y2="277.61" xlink:href="#linear-gradient"/><linearGradient id="linear-gradient-30" x1="69.44" y1="269.97" x2="67.9" y2="271.99" xlink:href="#linear-gradient"/><radialGradient id="radial-gradient-25" cx="916.43" cy="110.79" r="50.26" xlink:href="#radial-gradient"/><radialGradient id="radial-gradient-26" cx="-850.97" cy="-251.37" r="50.26" xlink:href="#radial-gradient-2"/><radialGradient id="radial-gradient-27" cx="-850.97" cy="-251.37" r="50.26" xlink:href="#radial-gradient-3"/><radialGradient id="radial-gradient-28" cx="-617.06" cy="675.34" r="28.69" xlink:href="#radial-gradient-4"/><linearGradient id="linear-gradient-31" x1="245.14" y1="537.11" x2="202.24" y2="486.12" xlink:href="#linear-gradient"/><linearGradient id="linear-gradient-32" x1="195.78" y1="532.86" x2="222.02" y2="504.93" xlink:href="#linear-gradient"/><linearGradient id="linear-gradient-33" x1="152.54" y1="296.12" x2="137.96" y2="315.26" xlink:href="#linear-gradient"/><linearGradient id="linear-gradient-34" x1="147.42" y1="292.47" x2="142.56" y2="298.85" xlink:href="#linear-gradient"/><linearGradient id="linear-gradient-35" x1="144.95" y1="291.21" x2="143.4" y2="293.24" xlink:href="#linear-gradient"/><radialGradient id="radial-gradient-29" cx="700.81" cy="277.58" r="50.26" xlink:href="#radial-gradient"/><radialGradient id="radial-gradient-30" cx="-635.35" cy="-418.16" r="50.26" xlink:href="#radial-gradient-2"/><radialGradient id="radial-gradient-31" cx="-635.35" cy="-418.16" r="50.26" xlink:href="#radial-gradient-3"/><radialGradient id="radial-gradient-32" cx="-657.57" cy="405.77" r="28.69" xlink:href="#radial-gradient-4"/><linearGradient id="linear-gradient-36" x1="199" y1="274.39" x2="156.11" y2="223.4" xlink:href="#linear-gradient"/><linearGradient id="linear-gradient-37" x1="149.64" y1="270.14" x2="175.88" y2="242.21" xlink:href="#linear-gradient"/><linearGradient id="linear-gradient-38" x1="106.41" y1="33.4" x2="91.83" y2="52.54" xlink:href="#linear-gradient"/><linearGradient id="linear-gradient-39" x1="101.29" y1="29.75" x2="96.42" y2="36.13" xlink:href="#linear-gradient"/><linearGradient id="linear-gradient-40" x1="98.81" y1="28.49" x2="97.27" y2="30.52" xlink:href="#linear-gradient"/><radialGradient id="radial-gradient-33" cx="802.8" cy="283.4" r="26.58" xlink:href="#radial-gradient"/><radialGradient id="radial-gradient-34" cx="-753.12" cy="-426.33" r="26.58" xlink:href="#radial-gradient-2"/><radialGradient id="radial-gradient-35" cx="-753.12" cy="-426.33" r="26.58" xlink:href="#radial-gradient-3"/><radialGradient id="radial-gradient-36" cx="-717.24" cy="498.3" r="15.17" xlink:href="#radial-gradient-4"/><linearGradient id="linear-gradient-41" x1="119.12" y1="350.53" x2="96.44" y2="323.56" xlink:href="#linear-gradient"/><linearGradient id="linear-gradient-42" x1="93.02" y1="348.28" x2="106.9" y2="333.51" xlink:href="#linear-gradient"/><linearGradient id="linear-gradient-43" x1="28.72" y1="131.01" x2="21.01" y2="141.13" xlink:href="#linear-gradient"/><linearGradient id="linear-gradient-44" x1="26.02" y1="129.08" x2="23.45" y2="132.45" xlink:href="#linear-gradient"/><linearGradient id="linear-gradient-45" x1="24.71" y1="128.41" x2="23.89" y2="129.49" xlink:href="#linear-gradient"/><radialGradient id="radial-gradient-37" cx="867.05" cy="249.24" r="26.58" xlink:href="#radial-gradient"/><radialGradient id="radial-gradient-38" cx="-817.37" cy="-392.18" r="26.58" xlink:href="#radial-gradient-2"/><radialGradient id="radial-gradient-39" cx="-817.37" cy="-392.18" r="26.58" xlink:href="#radial-gradient-3"/><radialGradient id="radial-gradient-40" cx="-718.75" cy="571.05" r="15.17" xlink:href="#radial-gradient-4"/><linearGradient id="linear-gradient-46" x1="117.41" y1="421.43" x2="94.73" y2="394.46" xlink:href="#linear-gradient"/><linearGradient id="linear-gradient-47" x1="91.31" y1="419.18" x2="105.19" y2="404.41" xlink:href="#linear-gradient"/><linearGradient id="linear-gradient-48" x1="27.01" y1="201.91" x2="19.31" y2="212.03" xlink:href="#linear-gradient"/><linearGradient id="linear-gradient-49" x1="24.3" y1="199.98" x2="21.74" y2="203.35" xlink:href="#linear-gradient"/><linearGradient id="linear-gradient-50" x1="23" y1="199.31" x2="22.18" y2="200.39" xlink:href="#linear-gradient"/><radialGradient id="radial-gradient-41" cx="602.04" cy="188.15" r="26.58" xlink:href="#radial-gradient"/><radialGradient id="radial-gradient-42" cx="-552.36" cy="-331.08" r="26.58" xlink:href="#radial-gradient-2"/><radialGradient id="radial-gradient-43" cx="-552.36" cy="-331.08" r="26.58" xlink:href="#radial-gradient-3"/><radialGradient id="radial-gradient-44" cx="-536.21" cy="369.45" r="15.17" xlink:href="#radial-gradient-4"/><linearGradient id="linear-gradient-51" x1="325.31" y1="224.95" x2="302.63" y2="197.99" xlink:href="#linear-gradient"/><linearGradient id="linear-gradient-52" x1="299.21" y1="222.71" x2="313.09" y2="207.93" xlink:href="#linear-gradient"/><linearGradient id="linear-gradient-53" x1="234.92" y1="5.44" x2="227.21" y2="15.56" xlink:href="#linear-gradient"/><linearGradient id="linear-gradient-54" x1="232.21" y1="3.51" x2="229.64" y2="6.88" xlink:href="#linear-gradient"/><linearGradient id="linear-gradient-55" x1="230.9" y1="2.84" x2="230.08" y2="3.92" xlink:href="#linear-gradient"/><radialGradient id="radial-gradient-45" cx="737.07" cy="-41.97" r="26.58" xlink:href="#radial-gradient"/><radialGradient id="radial-gradient-46" cx="-687.39" cy="-100.96" r="26.58" xlink:href="#radial-gradient-2"/><radialGradient id="radial-gradient-47" cx="-687.39" cy="-100.96" r="26.58" xlink:href="#radial-gradient-3"/><radialGradient id="radial-gradient-48" cx="-401.12" cy="599.53" r="15.17" xlink:href="#radial-gradient-4"/><linearGradient id="linear-gradient-56" x1="479.17" y1="449.19" x2="456.49" y2="422.23" xlink:href="#linear-gradient"/><linearGradient id="linear-gradient-57" x1="453.07" y1="446.95" x2="466.95" y2="432.17" xlink:href="#linear-gradient"/><linearGradient id="linear-gradient-58" x1="388.78" y1="229.67" x2="381.07" y2="239.79" xlink:href="#linear-gradient"/><linearGradient id="linear-gradient-59" x1="386.07" y1="227.74" x2="383.49" y2="231.12" xlink:href="#linear-gradient"/><linearGradient id="linear-gradient-60" x1="384.76" y1="227.08" x2="383.94" y2="228.15" xlink:href="#linear-gradient"/></defs><title>bubble2</title><g class="cls-1"><g id="Layer_1" data-name="Layer 1"><image width="225" height="225" transform="translate(89 72) scale(1.08)" xlink:href="../../../../Desktop/26804049_1518458761600202_535148516_n.png"/><path class="cls-2" d="M207,525c-91-43-123-141-72-219s165-105,256-62,123,141,72,219S298,568,207,525Z" transform="translate(-88 -195)"/><path class="cls-3" d="M391,244c91,43,123,141,72,219S298,568,207,525,84,384,135,306,300,201,391,244Z" transform="translate(-88 -195)"/><path class="cls-4" d="M391,244c91,43,123,141,72,219S298,568,207,525,84,384,135,306,300,201,391,244Z" transform="translate(-88 -195)"/><path class="cls-5" d="M391,244c91,43,123,141,72,219S298,568,207,525,84,384,135,306,300,201,391,244Z" transform="translate(-88 -195)"/><path class="cls-6" d="M391,244c-91-43-205-16-256,62-29,45-31,97-9,141a188,188,0,0,0,41,26c91,43,205,16,256-62,29-45,31-97,9-141A188,188,0,0,0,391,244Z" transform="translate(-88 -195)"/><path class="cls-7" d="M240,494c-86-41-116-133-68-207a154,154,0,0,1,16-20,161,161,0,0,0-45,45c-48,73-17,166,68,207s173,19,226-39C382,517,304,524,240,494Z" transform="translate(-88 -195)"/><ellipse class="cls-8" cx="325" cy="109" rx="27" ry="23"/><ellipse class="cls-9" cx="302" cy="75" rx="9" ry="8"/><ellipse class="cls-10" cx="290" cy="63" rx="3" ry="2"/><path class="cls-11" d="M349,543c-26-12-35-40-20-62s47-30,72-17,35,40,20,62S374,555,349,543Z" transform="translate(-88 -195)"/><path class="cls-12" d="M400,464c26,12,35,40,20,62s-47,30-72,17-35-40-20-62S375,451,400,464Z" transform="translate(-88 -195)"/><path class="cls-13" d="M400,464c26,12,35,40,20,62s-47,30-72,17-35-40-20-62S375,451,400,464Z" transform="translate(-88 -195)"/><path class="cls-14" d="M400,464c26,12,35,40,20,62s-47,30-72,17-35-40-20-62S375,451,400,464Z" transform="translate(-88 -195)"/><path class="cls-15" d="M400,464c-26-12-58-4-72,17a40,40,0,0,0-3,40l12,7c26,12,58,4,72-17a40,40,0,0,0,3-40Z" transform="translate(-88 -195)"/><path class="cls-16" d="M358,534c-24-12-33-38-19-58l4-6a45,45,0,0,0-13,13c-13,21-5,47,19,58s49,5,64-11C398,541,376,543,358,534Z" transform="translate(-88 -195)"/><ellipse class="cls-17" cx="319" cy="285" rx="8" ry="7"/><ellipse class="cls-18" cx="312" cy="275" rx="3" ry="2"/><ellipse class="cls-19" cx="309" cy="272" rx="1" ry="1"/><path class="cls-20" d="M452,389c-20-10-28-34-16-52s37-25,58-15,28,34,16,52S472,400,452,389Z" transform="translate(-88 -195)"/><path class="cls-21" d="M493,323c20,10,28,34,16,52s-37,25-58,15-28-34-16-52S473,312,493,323Z" transform="translate(-88 -195)"/><path class="cls-22" d="M493,323c20,10,28,34,16,52s-37,25-58,15-28-34-16-52S473,312,493,323Z" transform="translate(-88 -195)"/><path class="cls-23" d="M493,323c20,10,28,34,16,52s-37,25-58,15-28-34-16-52S473,312,493,323Z" transform="translate(-88 -195)"/><path class="cls-24" d="M493,323c-20-10-46-4-58,15a35,35,0,0,0-2,33l9,6c20,10,46,4,58-15a35,35,0,0,0,2-33Z" transform="translate(-88 -195)"/><path class="cls-25" d="M459,382c-19-10-26-32-15-49l4-5a37,37,0,0,0-10,11c-11,17-4,39,15,49s39,5,51-9A44,44,0,0,1,459,382Z" transform="translate(-88 -195)"/><ellipse class="cls-26" cx="410" cy="141" rx="6" ry="6"/><ellipse class="cls-27" cx="405" cy="133" rx="2" ry="2"/><ellipse class="cls-28" cx="402" cy="131" rx="1" ry="1"/><path class="cls-29" d="M302,392c-32-15-43-49-25-77s58-37,89-22,43,49,25,77S334,407,302,392Z" transform="translate(-88 -195)"/><path class="cls-30" d="M366,294c32,15,43,49,25,77s-58,37-89,22-43-49-25-77S335,279,366,294Z" transform="translate(-88 -195)"/><path class="cls-31" d="M366,294c32,15,43,49,25,77s-58,37-89,22-43-49-25-77S335,279,366,294Z" transform="translate(-88 -195)"/><path class="cls-32" d="M366,294c32,15,43,49,25,77s-58,37-89,22-43-49-25-77S335,279,366,294Z" transform="translate(-88 -195)"/><path class="cls-33" d="M366,294c-32-15-72-5-89,22a49,49,0,0,0-3,49l14,9c32,15,72,5,89-22a49,49,0,0,0,3-49Z" transform="translate(-88 -195)"/><path class="cls-34" d="M314,381c-30-14-41-47-24-72l5-7a56,56,0,0,0-16,16c-17,26-6,58,24,72s60,7,79-13C363,389,336,392,314,381Z" transform="translate(-88 -195)"/><ellipse class="cls-35" cx="287" cy="119" rx="9" ry="8"/><ellipse class="cls-36" cx="279" cy="108" rx="3" ry="3"/><ellipse class="cls-37" cx="274" cy="104" rx="1" ry="1"/><path class="cls-38" d="M402,263c-15-7-20-23-12-35s27-17,41-10,20,23,12,35S417,270,402,263Z" transform="translate(-88 -195)"/><path class="cls-39" d="M432,218c15,7,20,23,12,35s-27,17-41,10-20-23-12-35S417,211,432,218Z" transform="translate(-88 -195)"/><path class="cls-40" d="M432,218c15,7,20,23,12,35s-27,17-41,10-20-23-12-35S417,211,432,218Z" transform="translate(-88 -195)"/><path class="cls-41" d="M432,218c15,7,20,23,12,35s-27,17-41,10-20-23-12-35S417,211,432,218Z" transform="translate(-88 -195)"/><path class="cls-42" d="M432,218c-15-7-33-3-41,10a23,23,0,0,0-1,23l7,4c15,7,33,3,41-10a23,23,0,0,0,1-23Z" transform="translate(-88 -195)"/><path class="cls-43" d="M407,258c-14-7-19-22-11-33l3-3a26,26,0,0,0-7,7c-8,12-3,27,11,33s28,3,37-6A33,33,0,0,1,407,258Z" transform="translate(-88 -195)"/><ellipse class="cls-44" cx="347" cy="32" rx="4" ry="4"/><ellipse class="cls-45" cx="344" cy="26" rx="1" ry="1"/><ellipse class="cls-46" cx="342" cy="25"/><path class="cls-47" d="M130,509c-15-7-20-23-12-35s27-17,41-10,20,23,12,35S144,516,130,509Z" transform="translate(-88 -195)"/><path class="cls-48" d="M159,463c15,7,20,23,12,35s-27,17-41,10-20-23-12-35S145,456,159,463Z" transform="translate(-88 -195)"/><path class="cls-49" d="M159,463c15,7,20,23,12,35s-27,17-41,10-20-23-12-35S145,456,159,463Z" transform="translate(-88 -195)"/><path class="cls-50" d="M159,463c15,7,20,23,12,35s-27,17-41,10-20-23-12-35S145,456,159,463Z" transform="translate(-88 -195)"/><path class="cls-51" d="M159,463c-15-7-33-3-41,10a23,23,0,0,0-1,23l7,4c15,7,33,3,41-10a23,23,0,0,0,1-23Z" transform="translate(-88 -195)"/><path class="cls-52" d="M135,504c-14-7-19-22-11-33l3-3a26,26,0,0,0-7,7c-8,12-3,27,11,33s28,3,37-6A33,33,0,0,1,135,504Z" transform="translate(-88 -195)"/><ellipse class="cls-53" cx="75" cy="278" rx="4" ry="4"/><ellipse class="cls-54" cx="71" cy="272" rx="1" ry="1"/><ellipse class="cls-55" cx="69" cy="270"/><path class="cls-56" d="M205,530c-15-7-20-23-12-35s27-17,41-10,20,23,12,35S220,537,205,530Z" transform="translate(-88 -195)"/><path class="cls-57" d="M235,485c15,7,20,23,12,35s-27,17-41,10-20-23-12-35S220,478,235,485Z" transform="translate(-88 -195)"/><path class="cls-58" d="M235,485c15,7,20,23,12,35s-27,17-41,10-20-23-12-35S220,478,235,485Z" transform="translate(-88 -195)"/><path class="cls-59" d="M235,485c15,7,20,23,12,35s-27,17-41,10-20-23-12-35S220,478,235,485Z" transform="translate(-88 -195)"/><path class="cls-60" d="M235,485c-15-7-33-3-41,10a23,23,0,0,0-1,23l7,4c15,7,33,3,41-10a23,23,0,0,0,1-23Z" transform="translate(-88 -195)"/><path class="cls-61" d="M210,525c-14-7-19-22-11-33l3-3a26,26,0,0,0-7,7c-8,12-3,27,11,33s28,3,37-6A33,33,0,0,1,210,525Z" transform="translate(-88 -195)"/><ellipse class="cls-62" cx="150" cy="299" rx="4" ry="4"/><ellipse class="cls-63" cx="147" cy="293" rx="1" ry="1"/><ellipse class="cls-64" cx="145" cy="292"/><path class="cls-65" d="M159,267c-15-7-20-23-12-35s27-17,41-10,20,23,12,35S174,274,159,267Z" transform="translate(-88 -195)"/><path class="cls-66" d="M189,222c15,7,20,23,12,35s-27,17-41,10-20-23-12-35S174,215,189,222Z" transform="translate(-88 -195)"/><path class="cls-67" d="M189,222c15,7,20,23,12,35s-27,17-41,10-20-23-12-35S174,215,189,222Z" transform="translate(-88 -195)"/><path class="cls-68" d="M189,222c15,7,20,23,12,35s-27,17-41,10-20-23-12-35S174,215,189,222Z" transform="translate(-88 -195)"/><path class="cls-69" d="M189,222c-15-7-33-3-41,10a23,23,0,0,0-1,23l7,4c15,7,33,3,41-10a23,23,0,0,0,1-23Z" transform="translate(-88 -195)"/><path class="cls-70" d="M164,262c-14-7-19-22-11-33l3-3a26,26,0,0,0-7,7c-8,12-3,27,11,33s28,3,37-6A33,33,0,0,1,164,262Z" transform="translate(-88 -195)"/><ellipse class="cls-71" cx="104" cy="36" rx="4" ry="4"/><ellipse class="cls-72" cx="101" cy="31" rx="1" ry="1"/><ellipse class="cls-73" cx="99" cy="29"/><path class="cls-74" d="M98,347c-8-4-11-12-6-19s14-9,22-5,11,12,6,19S106,351,98,347Z" transform="translate(-88 -195)"/><path class="cls-75" d="M114,323c8,4,11,12,6,19s-14,9-22,5-11-12-6-19S106,319,114,323Z" transform="translate(-88 -195)"/><path class="cls-76" d="M114,323c8,4,11,12,6,19s-14,9-22,5-11-12-6-19S106,319,114,323Z" transform="translate(-88 -195)"/><path class="cls-77" d="M114,323c8,4,11,12,6,19s-14,9-22,5-11-12-6-19S106,319,114,323Z" transform="translate(-88 -195)"/><path class="cls-78" d="M114,323c-8-4-18-1-22,5a12,12,0,0,0-1,12l4,2c8,4,18,1,22-5a12,12,0,0,0,1-12Z" transform="translate(-88 -195)"/><path class="cls-79" d="M101,344c-7-4-10-11-6-18v-2l-4,4c-4,6-1,14,6,18s15,2,19-3A17,17,0,0,1,101,344Z" transform="translate(-88 -195)"/><ellipse class="cls-80" cx="28" cy="132" rx="2" ry="2"/><ellipse class="cls-81" cx="26" cy="130" rx="1" ry="1"/><ellipse class="cls-82" cx="25" cy="129"/><path class="cls-83" d="M96,418c-8-4-11-12-6-19s14-9,22-5,11,12,6,19S104,421,96,418Z" transform="translate(-88 -195)"/><path class="cls-84" d="M112,394c8,4,11,12,6,19s-14,9-22,5-11-12-6-19S104,390,112,394Z" transform="translate(-88 -195)"/><path class="cls-85" d="M112,394c8,4,11,12,6,19s-14,9-22,5-11-12-6-19S104,390,112,394Z" transform="translate(-88 -195)"/><path class="cls-86" d="M112,394c8,4,11,12,6,19s-14,9-22,5-11-12-6-19S104,390,112,394Z" transform="translate(-88 -195)"/><path class="cls-87" d="M112,394c-8-4-18-1-22,5a12,12,0,0,0-1,12l3,2c8,4,18,1,22-5a12,12,0,0,0,1-12Z" transform="translate(-88 -195)"/><path class="cls-88" d="M99,415c-7-4-10-11-6-18v-2l-4,4c-4,6-1,14,6,18s15,2,19-3A17,17,0,0,1,99,415Z" transform="translate(-88 -195)"/><ellipse class="cls-89" cx="26" cy="203" rx="2" ry="2"/><ellipse class="cls-90" cx="24" cy="200" rx="1" ry="1"/><ellipse class="cls-91" cx="23" cy="199"/><path class="cls-92" d="M304,221c-8-4-11-12-6-19s14-9,22-5,11,12,6,19S312,225,304,221Z" transform="translate(-88 -195)"/><path class="cls-93" d="M320,197c8,4,11,12,6,19s-14,9-22,5-11-12-6-19S312,193,320,197Z" transform="translate(-88 -195)"/><path class="cls-94" d="M320,197c8,4,11,12,6,19s-14,9-22,5-11-12-6-19S312,193,320,197Z" transform="translate(-88 -195)"/><path class="cls-95" d="M320,197c8,4,11,12,6,19s-14,9-22,5-11-12-6-19S312,193,320,197Z" transform="translate(-88 -195)"/><path class="cls-96" d="M320,197c-8-4-18-1-22,5a12,12,0,0,0-1,12l3,2c8,4,18,1,22-5a12,12,0,0,0,1-12Z" transform="translate(-88 -195)"/><path class="cls-97" d="M307,219c-7-4-10-11-6-18v-2l-4,4c-4,6-1,14,6,18s15,2,19-3A17,17,0,0,1,307,219Z" transform="translate(-88 -195)"/><ellipse class="cls-98" cx="234" cy="7" rx="2" ry="2"/><ellipse class="cls-99" cx="232" cy="4" rx="1" ry="1"/><ellipse class="cls-100" cx="231" cy="3"/><path class="cls-101" d="M458,445c-8-4-11-12-6-19s14-9,22-5,11,12,6,19S466,449,458,445Z" transform="translate(-88 -195)"/><path class="cls-102" d="M474,421c8,4,11,12,6,19s-14,9-22,5-11-12-6-19S466,418,474,421Z" transform="translate(-88 -195)"/><path class="cls-103" d="M474,421c8,4,11,12,6,19s-14,9-22,5-11-12-6-19S466,418,474,421Z" transform="translate(-88 -195)"/><path class="cls-104" d="M474,421c8,4,11,12,6,19s-14,9-22,5-11-12-6-19S466,418,474,421Z" transform="translate(-88 -195)"/><path class="cls-105" d="M474,421c-8-4-18-1-22,5a12,12,0,0,0-1,12l4,2c8,4,18,1,22-5a12,12,0,0,0,1-12Z" transform="translate(-88 -195)"/><path class="cls-106" d="M461,443c-7-4-10-11-6-18v-2l-4,4c-4,6-1,14,6,18s15,2,19-3A17,17,0,0,1,461,443Z" transform="translate(-88 -195)"/><ellipse class="cls-107" cx="388" cy="231" rx="2" ry="2"/><ellipse class="cls-108" cx="386" cy="228" rx="1" ry="1"/><ellipse class="cls-109" cx="385" cy="227"/></g></g></svg>