<svg id="Layer_1" data-name="Layer 1" xmlns="http://www.w3.org/2000/svg" viewBox="0 0 175.2 199.98"><defs><style>.cls-1{fill:#639f42;}.cls-2{fill:#9ac33c;}.cls-3{fill:#3c4040;}.cls-4{fill:#222d2f;}.cls-5{fill:#494c4c;}.cls-6{fill:#2d3a3e;}.cls-7{fill:#afcd37;}.cls-8{fill:#82ac40;}.cls-9{fill:#88b940;}.cls-10{fill:#795527;}.cls-11{fill:#845f39;}.cls-12{fill:#725021;}.cls-13{fill:#5a391d;}.cls-14{fill:#67451e;}.cls-15{fill:#442515;}.cls-16{fill:#56371d;}.cls-17{fill:#49301c;}.cls-18{fill:#86471f;}.cls-19{fill:#683b1d;}.cls-20{fill:#422515;}.cls-21{fill:#32342a;}.cls-22{fill:#3c474a;}.cls-23{fill:#555a5a;}.cls-24{fill:#da5427;}.cls-25{fill:#d55127;}.cls-26{fill:#de5a26;}.cls-27{fill:#e75f24;}.cls-28{fill:#ce5228;}.cls-29{fill:#bf4327;}.cls-30{fill:#cb4a27;}.cls-31{fill:#d04e27;}.cls-32{fill:#646767;}.cls-33{fill:#111d21;}.cls-34{fill:#484a4a;}.cls-35{fill:#555757;}.cls-36{fill:#47241d;}.cls-37{fill:#9ab43b;}.cls-38{fill:#5a7a37;}.cls-39{fill:#658f3d;}.cls-40{fill:#88ab3e;}.cls-41{fill:#829e3c;}.cls-42{fill:#2d130e;}.cls-43{fill:#809b3c;}.cls-44{fill:#41612d;}.cls-45{fill:#343c19;}.cls-46{fill:#6f913c;}.cls-47{fill:#678439;}.cls-48{fill:#4d7637;}.cls-49{fill:#492e19;}.cls-50{fill:#603e23;}.cls-51{fill:#23201f;}.cls-52{fill:#2f1a12;}.cls-53{fill:#382415;}</style></defs><title>fire</title><polygon class="cls-1" points="85.24 44.02 84.42 44.1 59.1 57.26 54.63 66.35 140.01 67.53 127.59 41.36 85.24 44.02"/><polygon class="cls-2" points="127.59 41.36 138.43 65.56 160.15 57.32 127.59 41.36"/><polygon class="cls-3" points="60.77 0 59.51 51.82 80.04 52.36 60.77 0"/><polygon class="cls-4" points="41.17 50.11 59.51 51.82 60.77 0 41.17 50.11"/><polygon class="cls-3" points="132.41 7.63 131.15 59.45 151.69 60 132.41 7.63"/><polygon class="cls-4" points="112.83 57.74 131.15 59.45 132.41 7.63 112.83 57.74"/><polygon class="cls-1" points="41.27 40.13 11.93 58.52 58.67 63.32 58.44 54.96 41.27 40.13"/><polygon class="cls-5" points="151.69 22.22 150.69 63.39 165.5 62.82 151.69 22.22"/><polygon class="cls-6" points="139.73 61.26 150.69 63.39 151.69 22.22 139.73 61.26"/><polygon class="cls-5" points="38.87 8.64 37.68 58.11 57.28 58.62 38.87 8.64"/><polygon class="cls-6" points="20.18 56.48 37.68 58.11 38.87 8.64 20.18 56.48"/><polygon class="cls-7" points="93.81 65.51 97.69 84.83 132.1 86.13 112.88 64.78 93.81 65.51"/><polygon class="cls-2" points="139.91 63.74 112.88 64.78 132.1 86.13 132.12 86.13 139.91 63.74"/><polygon class="cls-8" points="63.71 64.26 71.67 85.91 74.57 86.42 97.69 84.83 94.03 65.99 63.71 64.26"/><polygon class="cls-9" points="17.59 58.2 0 71.34 17.52 79.04 65.74 64.07 17.59 58.2"/><polygon class="cls-2" points="72.33 86.13 65.74 64.07 7.84 77.41 5.23 77.71 72.33 86.13"/><polygon class="cls-7" points="160.54 57.41 160.15 57.32 139.91 63.78 133.61 81.8 147.81 79.67 175.2 69.29 160.54 57.41"/><polygon class="cls-10" points="0 71.34 3.58 93.29 24.66 111.95 20.26 99.92 0 71.34"/><polygon class="cls-11" points="0 71.34 19.67 101.34 29.91 77.05 0 71.34"/><polygon class="cls-12" points="51.67 80.96 29.91 77.05 19.67 101.34 19.76 101.51 51.67 80.96"/><polygon class="cls-11" points="51.67 80.96 84.59 83.36 61.26 124.65 51.67 80.96"/><polygon class="cls-13" points="34.53 89.47 61.26 124.65 51.67 80.96 34.53 89.47"/><polygon class="cls-14" points="27.69 122.92 34.53 89.47 19.76 101.51 27.69 122.92"/><polygon class="cls-15" points="27.69 122.92 34.53 152.47 59.08 160.64 27.69 122.92"/><polygon class="cls-16" points="34.53 89.47 47.9 126.83 27.69 122.92 34.53 89.47"/><polygon class="cls-15" points="47.9 126.83 61.26 124.65 34.53 89.47 47.9 126.83"/><polygon class="cls-17" points="47.9 126.83 59.08 160.64 27.69 122.92 47.9 126.83"/><polygon class="cls-16" points="59.08 160.64 73.47 181.59 85.24 151.61 59.08 160.64"/><polygon class="cls-12" points="85.24 151.61 47.9 126.83 59.08 160.64 85.24 151.61"/><polygon class="cls-18" points="61.26 124.65 70.43 141.78 47.9 126.83 61.26 124.65"/><polygon class="cls-10" points="80.14 90.29 61.72 123.8 96.58 123.8 80.14 90.29"/><polygon class="cls-16" points="61.72 123.8 61.26 124.65 70.43 141.78 97.01 124.65 96.58 123.8 61.72 123.8"/><polygon class="cls-11" points="84.59 83.36 118.82 84.01 87.6 106.19 79.5 90.29 84.59 83.36"/><polygon class="cls-14" points="118.82 84.01 147.81 79.67 148.9 109.65 118.82 84.01"/><polygon class="cls-17" points="147.81 79.67 175.2 69.29 171.27 86.42 147.81 79.67"/><polygon class="cls-13" points="171.27 86.42 148.9 109.65 147.81 79.67 171.27 86.42"/><polygon class="cls-17" points="148.53 110.41 122.39 121.54 133.86 139 148.53 110.41"/><polygon class="cls-14" points="148.9 109.65 112.28 106.19 122.39 121.54 148.53 110.41 148.9 109.65"/><polygon class="cls-12" points="118.82 84.01 112.28 106.19 148.9 109.65 118.82 84.01"/><polygon class="cls-14" points="112.28 106.19 87.6 106.19 118.82 84.01 112.28 106.19"/><polygon class="cls-11" points="97.01 124.65 117.54 114.2 112.28 106.19 87.6 106.19 97.01 124.65"/><polygon class="cls-19" points="70.43 141.78 112.28 139 117.54 114.2 96.13 122.92 70.43 141.78"/><polygon class="cls-18" points="73.47 181.59 76.15 182.68 97.01 191.16 110.1 174.21 91.78 177.25 73.47 181.59"/><polygon class="cls-11" points="91.78 177.25 85.24 151.61 73.47 181.59 91.78 177.25"/><polygon class="cls-14" points="110.1 174.21 112.28 139 85.24 151.61 110.1 174.21"/><polygon class="cls-10" points="91.78 177.25 110.1 174.21 85.24 151.61 91.78 177.25"/><polygon class="cls-13" points="70.43 141.78 112.28 139 85.24 151.61 70.43 141.78"/><polygon class="cls-18" points="133.86 139 117.54 114.2 112.3 138.86 133.35 139.55 133.86 139"/><polygon class="cls-20" points="110.75 163.78 133.35 139.55 112.3 138.86 112.28 139 110.75 163.78"/><polygon class="cls-19" points="121.94 169.17 137.02 170.51 132.59 178.53 121.94 169.17"/><polygon class="cls-18" points="117.54 166.6 118.82 177.25 130.59 174.21 117.54 166.6"/><polygon class="cls-11" points="118.82 177.25 108.03 187.11 124.06 185.29 118.82 177.25"/><polygon class="cls-10" points="130.59 174.21 133.86 181.27 124.06 185.29 118.82 177.25 130.59 174.21"/><polygon class="cls-20" points="133.86 181.27 123.51 191.55 124.06 185.29 133.86 181.27"/><polygon class="cls-19" points="108.03 187.11 123.51 191.55 124.06 185.08 108.03 187.11"/><polygon class="cls-15" points="73.47 181.59 83.28 199.98 91.78 189.04 73.47 181.59"/><polygon class="cls-21" points="72.03 18.45 75.85 28.5 97.14 33.67 106.16 25.27 90.16 7.07 72.03 18.45"/><polygon class="cls-21" points="89.16 5.92 90.16 7.07 96.9 2.83 89.26 1.76 77.13 4.14 69.06 11.01 72.03 18.45 90.16 7.07 89.16 5.92"/><polygon class="cls-21" points="116.43 10.93 106.53 4.17 96.9 2.83 90.16 7.07 95.36 12.97 113.05 16.43 116.43 10.93"/><polygon class="cls-21" points="95.36 12.97 106.16 25.27 109.53 22.13 113.05 16.43 95.36 12.97"/><polygon class="cls-22" points="42.45 61.56 60.42 42.58 69.06 11.01 79.6 14.84 81.99 23.49 88.22 18.59 97 30.33 96.57 65.32 68.63 64.1 49.23 62.25 42.45 61.56"/><polygon class="cls-23" points="97 30.33 101.47 21.19 109.13 21.19 116.43 10.93 124.79 44.72 138.63 61.8 131.24 64.27 95.66 65.39 97 30.33"/><polygon class="cls-2" points="84 61.46 97.21 65.96 98.65 65.91 123.08 58.59 84 61.46"/><polygon class="cls-7" points="138.19 62.29 124.37 58.72 123.08 58.59 98.65 65.91 137.66 64.56 138.19 62.29"/><polygon class="cls-24" points="86.97 29.53 83.24 58.49 82.28 41.82 86.97 29.53"/><polygon class="cls-25" points="86.97 52.48 104.53 64.36 83.24 58.49 86.97 52.48"/><polygon class="cls-26" points="89.01 14.84 100.2 18.24 100.2 28.66 89.01 14.84"/><polygon class="cls-27" points="89.81 4.28 92.31 2.19 104.16 3.84 105.25 6.61 89.81 4.28"/><polygon class="cls-26" points="74.32 9.91 79.97 5.6 89.81 4.28 105.25 6.61 112.88 11.23 107.7 18.39 100.2 18.24 96.52 24.61 89.01 14.84 83.96 18.6 81.94 12.35 74.32 9.91"/><polygon class="cls-27" points="90.61 8.52 81.94 12.35 74.32 9.91 79.97 5.6 90.61 8.52"/><polygon class="cls-26" points="112.88 11.23 107.7 18.39 100.2 18.24 112.88 11.23"/><polygon class="cls-28" points="105.25 6.61 100.2 18.24 112.88 11.23 105.25 6.61"/><polygon class="cls-28" points="105.25 6.61 90.61 8.52 89.81 4.28 105.25 6.61"/><polygon class="cls-27" points="90.61 8.52 89.01 14.84 100.22 18.25 90.61 8.52"/><polygon class="cls-27" points="89.01 14.84 83.96 18.6 81.94 12.35 89.01 14.84"/><polygon class="cls-26" points="79.97 5.6 89.81 4.28 90.61 8.52 79.97 5.6"/><polygon class="cls-27" points="85.8 17.24 86.97 29.53 93 20.01 89.01 14.84 85.8 17.24"/><polygon class="cls-28" points="89.01 14.84 83.96 18.6 82.28 41.82 86.97 29.53 89.01 14.84"/><polygon class="cls-27" points="100.2 28.66 86.97 29.53 93.05 19.84 100.2 28.66"/><polygon class="cls-28" points="100.2 28.66 96.16 43.53 86.97 29.53 100.2 28.66"/><polygon class="cls-28" points="100.2 28.66 106.16 45.27 107.7 18.39 100.2 18.24 100.2 28.66"/><polygon class="cls-27" points="96.16 43.53 108.78 58.49 106.16 45.27 100.2 28.66 96.16 43.53"/><polygon class="cls-29" points="82.28 41.82 78.15 59.03 83.24 58.49 82.28 41.82"/><polygon class="cls-27" points="86.97 29.53 87.31 30.06 96.16 43.53 83.24 58.49 86.97 29.53"/><polygon class="cls-29" points="78.15 59.03 63.42 78.19 77.07 79.18 78.15 59.03"/><polygon class="cls-26" points="83.24 58.49 73.43 72.48 78.15 59.03 83.24 58.49"/><polygon class="cls-24" points="86.97 52.48 108.78 58.49 96.16 43.53 86.97 52.48"/><polygon class="cls-24" points="111.53 64.36 104.5 64.36 108.78 58.49 111.53 64.36"/><polygon class="cls-30" points="117.42 79.85 104.5 64.36 111.53 64.36 117.42 79.85"/><polygon class="cls-27" points="86.97 52.48 104.5 64.36 108.78 58.49 86.97 52.48"/><polygon class="cls-31" points="104.53 64.36 85.69 79.82 103.41 80.3 117.42 79.85 104.53 64.36"/><polygon class="cls-25" points="83.24 58.49 85.69 79.82 77.07 79.18 73.43 72.48 83.24 58.49"/><polygon class="cls-24" points="83.24 58.49 85.69 79.82 91.77 74.82 91.65 60.77 83.24 58.49"/><polygon class="cls-27" points="91.65 60.77 91.77 74.82 104.53 64.36 91.65 60.77"/><polygon class="cls-27" points="114.75 104.9 103.95 112.89 102.47 106.32 111.76 100.77 114.75 104.9"/><polygon class="cls-28" points="92 117.18 103.95 112.89 103.01 106.32 95.59 110.28 92 117.18"/><polygon class="cls-27" points="85.48 109.55 92 117.18 95.66 110.62 94.6 106.18 85.48 109.55"/><polygon class="cls-26" points="63.42 78.19 63.42 84.85 73.09 101.44 80.67 79.43 63.42 78.19"/><polygon class="cls-27" points="117.42 79.85 117.47 91.14 112.03 101.44 103.41 80.15 117.42 79.85"/><polygon class="cls-28" points="73.09 101.44 92 94.6 80.67 79.43 73.09 101.44"/><polygon class="cls-27" points="92 94.6 103.41 80.15 85.69 79.82 80.67 79.43 92 94.6"/><polygon class="cls-26" points="112.03 101.44 95.66 110.62 103.41 80.15 112.03 101.44"/><polygon class="cls-28" points="92 94.6 95.66 110.62 103.41 80.15 92 94.6"/><polygon class="cls-26" points="81.61 98.36 85.48 109.55 94.86 107.08 92 94.6 81.61 98.36"/><polygon class="cls-28" points="63.42 84.85 64.33 117.33 73.09 101.44 63.42 84.85"/><polygon class="cls-28" points="117.47 91.14 117.45 91.78 117.42 109.05 112.03 101.44 117.47 91.14"/><polygon class="cls-26" points="64.33 117.04 74.95 107.82 74.95 100.77 72.93 101.18 64.33 117.04"/><polygon class="cls-28" points="116.92 113.27 114 107.82 114.9 119.72 116.92 113.27"/><polygon class="cls-28" points="95.69 117.53 91.7 118.83 91.7 131.74 95.69 117.53"/><polygon class="cls-28" points="92.44 136.95 92.21 145 95.31 134.91 92.44 136.95"/><polygon class="cls-27" points="94.54 126.47 96.76 131.74 92.41 135.44 94.54 126.47"/><polygon class="cls-27" points="74.95 107.82 85.48 109.55 82.09 98.19 74.95 100.77 74.95 107.82"/><polygon class="cls-7" points="139.91 63.74 159.96 75.09 175.2 69.29 139.91 63.74"/><polygon class="cls-8" points="134.9 69.29 118.41 84.16 147.81 79.67 154.72 76.83 145.43 72.56 134.9 69.29"/><polygon class="cls-4" points="132.27 67.94 129.18 67.91 128.88 65.01 130.98 62.63 133.15 60.18 135.1 62.34 132.27 67.94"/><path class="cls-23" d="M236.35,148.42a12.37,12.37,0,0,1-1.07-1.38c0-.14,3.79-4.75,3.79-4.75l6.47,2v4.14Z" transform="translate(-103.81 -80.16)"/><polygon class="cls-32" points="141.37 66.51 142.92 66.02 141.51 61.87 136.81 58.2 133.15 60.18 134.97 62.5 141.37 66.51"/><polygon class="cls-32" points="139.01 65.8 141.19 64.82 143.57 65.2 144.01 68.05 142.62 68.26 139.01 65.8"/><polygon class="cls-4" points="139.73 68.26 139.01 65.8 141.85 66.3 142.62 68.26 139.73 68.26"/><polygon class="cls-33" points="53.83 65.66 51.78 65.64 51.59 63.72 52.97 62.15 54.41 60.53 55.71 61.96 53.83 65.66"/><path class="cls-34" d="M157.81,146a8.3,8.3,0,0,1-.7-.92c0-.09,2.51-3.15,2.51-3.15l4.28,1.32V146Z" transform="translate(-103.81 -80.16)"/><polygon class="cls-35" points="59.87 64.72 60.89 64.4 59.96 61.65 56.83 59.21 54.41 60.53 55.62 62.06 59.87 64.72"/><polygon class="cls-35" points="58.3 64.24 59.75 63.6 61.33 63.86 61.62 65.74 60.69 65.89 58.3 64.24"/><polygon class="cls-33" points="58.78 65.89 58.3 64.24 60.18 64.58 60.69 65.89 58.78 65.89"/><polygon class="cls-36" points="63.73 58.75 61.67 63.47 61.67 71.12 58.58 71.14 59.1 68.56 59.1 63.65 58.68 59.87 60.36 58.75 61.2 60.94 62.33 58.56 63.73 58.75"/><polygon class="cls-37" points="66.41 42.58 53.25 46.6 67.19 52.37 66.41 42.58"/><polygon class="cls-38" points="66.41 42.58 73.31 52.95 67.19 52.37 66.41 42.58"/><polygon class="cls-39" points="73.31 52.95 68.49 62.1 67.19 52.37 73.31 52.95"/><polygon class="cls-40" points="68.49 62.1 58.69 58.48 59.76 49.3 67.19 52.37 68.49 62.1"/><polygon class="cls-41" points="49.13 54.4 53.25 46.6 58.69 58.48 49.13 54.4"/><polygon class="cls-38" points="58.81 58.52 49.13 54.4 55.72 62.75 58.92 58.55 58.81 58.52"/><polygon class="cls-39" points="68.49 62.1 58.69 58.48 55.72 62.75 55.75 62.79 68.49 62.1"/><polygon class="cls-40" points="59.76 49.3 58.69 58.48 53.25 46.6 59.76 49.3"/><polygon class="cls-38" points="7.41 69.66 5.9 68.5 7.19 68.11 6.98 66.62 8.85 68.5 10.38 66.87 11.05 68.5 12.29 66.37 12.29 68.5 13.43 67.84 12.83 69.63 7.41 69.66"/><polygon class="cls-38" points="125.88 67.66 124.69 66.75 125.7 66.44 125.53 65.27 127.01 66.75 128.24 65.47 128.76 66.75 129.73 65.08 129.73 66.75 130.64 66.23 130.18 67.64 125.88 67.66"/><polygon class="cls-2" points="139.98 56.15 166.11 56.77 175.14 69.41 144.92 72.91 139.98 56.15"/><polygon class="cls-1" points="134.84 69.41 139.97 56.13 145.41 72.61 134.84 69.41"/><polygon class="cls-38" points="141.8 73.83 140.29 72.68 141.58 72.28 141.37 70.79 143.24 72.68 144.78 71.05 145.44 72.68 146.67 70.55 146.67 72.68 147.82 72.01 147.22 73.8 141.8 73.83"/><polygon class="cls-4" points="37.22 68.49 33.02 68.44 32.6 64.5 35.45 61.25 38.41 57.92 41.08 60.86 37.22 68.49"/><path class="cls-23" d="M141.4,149.09a16.39,16.39,0,0,1-1.45-1.89c0-.19,5.16-6.47,5.16-6.47l8.82,2.71v5.65Z" transform="translate(-103.81 -80.16)"/><polygon class="cls-32" points="49.63 66.55 51.73 65.89 49.81 60.23 43.4 55.21 38.41 57.92 40.9 61.08 49.63 66.55"/><polygon class="cls-32" points="46.41 65.56 49.38 64.26 52.62 64.77 53.21 68.65 51.32 68.94 46.41 65.56"/><polygon class="cls-4" points="47.39 68.94 46.41 65.56 50.28 66.26 51.32 68.94 47.39 68.94"/><polygon class="cls-42" points="21.19 51.38 19.24 55.84 19.24 63.07 16.31 63.09 16.8 60.65 16.8 56 16.4 52.43 18 51.38 18.8 53.45 19.86 51.2 21.19 51.38"/><polygon class="cls-43" points="23.73 36.09 11.27 39.89 24.45 45.35 23.73 36.09"/><polygon class="cls-44" points="23.73 36.09 30.25 45.9 24.45 45.35 23.73 36.09"/><polygon class="cls-45" points="30.25 45.9 25.68 54.55 24.45 45.35 30.25 45.9"/><polygon class="cls-46" points="25.68 54.55 16.43 51.11 17.43 42.45 24.45 45.35 25.68 54.55"/><polygon class="cls-47" points="7.38 47.27 11.27 39.89 16.43 51.11 7.38 47.27"/><polygon class="cls-44" points="16.54 51.15 7.38 47.27 13.62 55.16 16.64 51.2 16.54 51.15"/><polygon class="cls-48" points="25.68 54.55 16.43 51.11 13.62 55.16 13.64 55.19 25.68 54.55"/><polygon class="cls-46" points="17.43 42.45 16.43 51.11 11.27 39.89 17.43 42.45"/><polygon class="cls-36" points="34.16 58.94 31.57 64.89 31.57 74.54 27.66 74.57 28.32 71.31 28.32 65.12 27.8 60.36 29.92 58.94 30.98 61.72 32.39 58.71 34.16 58.94"/><polygon class="cls-37" points="37.55 38.56 20.94 43.64 38.52 50.91 37.55 38.56"/><polygon class="cls-38" points="37.55 38.56 46.25 51.64 38.52 50.91 37.55 38.56"/><polygon class="cls-39" points="46.25 51.64 40.16 63.17 38.52 50.91 46.25 51.64"/><polygon class="cls-40" points="40.16 63.17 27.81 58.6 29.16 47.04 38.52 50.91 40.16 63.17"/><polygon class="cls-41" points="15.76 53.47 20.94 43.64 27.81 58.6 15.76 53.47"/><polygon class="cls-38" points="27.96 58.65 15.76 53.47 24.07 63.99 28.1 58.71 27.96 58.65"/><polygon class="cls-39" points="40.16 63.17 27.81 58.6 24.07 63.99 24.11 64.03 40.16 63.17"/><polygon class="cls-40" points="29.16 47.04 27.81 58.6 20.94 43.64 29.16 47.04"/><polygon class="cls-38" points="31.16 75.14 29.64 73.98 30.94 73.58 30.72 72.1 32.6 73.98 34.14 72.35 34.8 73.98 36.03 71.86 36.03 73.98 37.18 73.32 36.59 75.11 31.16 75.14"/><polygon class="cls-16" points="42.62 72 40.98 71.27 40.28 69.46 43.72 70.02 43.69 70.52 42.62 72"/><polygon class="cls-49" points="45.56 70.33 43.66 70.02 43.67 70.45 44.32 71.11 45.56 70.33"/><polygon class="cls-16" points="47.86 65.59 47.8 66.83 45.56 70.33 48.81 69.68 48.64 66.98 47.86 65.59"/><polygon class="cls-14" points="49.92 65.99 49.84 69.22 49.26 67.11 49.92 65.99"/><polygon class="cls-50" points="49.85 69.23 48.6 70.93 48.56 66.85 49.33 67.08 49.85 69.23"/><polygon class="cls-11" points="47.88 65.68 48.31 65.97 48.53 66.54 48.62 65.9 48.4 65.23 47.88 65.68"/><polygon class="cls-16" points="48.37 65.29 47.88 65.68 47.96 64.93 48.37 65.29"/><polygon class="cls-12" points="47.88 65.68 48.21 66.51 48.54 67.27 48.53 66.54 48.31 65.97 47.88 65.68"/><polygon class="cls-51" points="48.13 65.48 48.46 65.62 48.37 65.29 48.13 65.48"/><polygon class="cls-12" points="47.93 65.39 47.39 64.73 47.96 64.93 47.93 65.39"/><polygon class="cls-14" points="47.88 65.68 47.93 65.39 47.39 64.73 46.53 64.56 47.12 65.47 47.88 65.68"/><polygon class="cls-11" points="50.05 65.68 49.63 65.96 49.41 66.54 49.32 65.9 49.54 65.23 50.05 65.68"/><polygon class="cls-12" points="49.36 66.04 49.56 65.29 48.97 65.25 48.97 65.25 48.37 65.29 48.57 66.04 48.53 66.54 48.97 66.52 48.97 66.52 49.41 66.54 49.36 66.04"/><polygon class="cls-14" points="49.98 64.93 49.49 64.41 48.97 64.42 48.97 64.42 48.45 64.42 47.96 64.93 48.4 65.32 48.97 65.29 48.97 65.29 49.54 65.31 49.98 64.93"/><polygon class="cls-16" points="49.56 65.29 50.05 65.68 49.98 64.93 49.56 65.29"/><polygon class="cls-12" points="50.05 65.68 49.73 66.51 49.4 67.27 49.41 66.54 49.63 65.96 50.05 65.68"/><polygon class="cls-11" points="49.41 66.54 48.97 66.51 48.97 66.51 48.53 66.54 48.54 67.27 48.97 67.27 48.97 67.27 49.4 67.27 49.41 66.54"/><polygon class="cls-51" points="49.38 66.84 49.19 66.65 48.97 66.65 48.97 66.65 48.75 66.65 48.56 66.85 48.74 67.1 48.97 67.1 48.97 67.1 49.2 67.08 49.38 66.84"/><polygon class="cls-51" points="49.81 65.48 49.48 65.62 49.56 65.29 49.81 65.48"/><polygon class="cls-12" points="50.02 65.39 50.55 64.73 49.98 64.93 50.02 65.39"/><polygon class="cls-14" points="50.05 65.68 50.02 65.39 50.55 64.73 51.42 64.56 50.82 65.47 50.05 65.68"/><polygon class="cls-49" points="48.61 70.92 47.84 71.68 46.29 71.66 45.56 70.33 48.6 69.68 48.61 70.92"/><polygon class="cls-50" points="47.52 67.27 43.95 67.71 46.45 68.95 47.52 67.27"/><polygon class="cls-16" points="43.95 67.71 41.53 67.47 40.32 69.47 43.95 67.71"/><polygon class="cls-14" points="40.32 69.47 45.56 70.33 46.45 68.95 43.95 67.71 40.32 69.47"/><polygon class="cls-50" points="45.57 70.33 42.62 72 46.18 71.89 46.36 71.62 45.57 70.33"/><polygon class="cls-49" points="42.62 72 43.67 70.02 44.53 70.92 42.62 72"/><polygon class="cls-49" points="40.98 71.27 41.26 71.97 40.26 73.19 41.21 73.53 42.62 72 40.98 71.27"/><polygon class="cls-16" points="40.26 73.19 41.07 76.89 41.6 76.83 41.21 73.53 40.26 73.19"/><polygon class="cls-49" points="41.53 67.47 39.44 68.79 39.43 70.96 41.53 67.47"/><polygon class="cls-14" points="39.43 70.96 40.98 71.27 40.33 69.46 39.43 70.96"/><polygon class="cls-49" points="41.09 71.71 39.66 73.49 38.6 72.99 39.45 72.02 39.43 70.96 40.97 71.21 41.09 71.71"/><polygon class="cls-16" points="38.6 72.99 38.19 76.51 38.85 76.51 38.93 74.31 39.66 73.49 38.6 72.99"/><polygon class="cls-14" points="46.18 71.89 46.79 72.45 47.16 74.99 47.56 74.89 47.59 72.39 47.84 71.68 46.35 71.58 46.18 71.89"/><polygon class="cls-49" points="44.49 71.91 45.51 72.29 46.38 72.06 46.17 71.84 44.49 71.91"/><polygon class="cls-16" points="46.38 72.06 46.27 74.12 45.66 74.94 45.47 72.3 46.38 72.06"/><polygon class="cls-50" points="46.27 74.12 46 76.55 45.5 76.55 45.66 74.88 46.27 74.12"/><polygon class="cls-50" points="47.16 74.99 47.27 76.45 47.34 76.84 47.82 76.85 47.56 74.85 47.16 74.99"/><polygon class="cls-16" points="54.06 71.38 52.87 70.84 52.36 69.54 54.85 69.95 54.83 70.3 54.06 71.38"/><polygon class="cls-49" points="56.2 70.17 54.8 69.95 54.82 70.25 55.3 70.73 56.2 70.17"/><polygon class="cls-16" points="57.87 66.72 57.81 67.62 56.2 70.17 58.55 69.69 58.43 67.74 57.87 66.72"/><polygon class="cls-14" points="59.36 67.01 59.3 69.35 58.88 67.83 59.36 67.01"/><polygon class="cls-50" points="59.31 69.36 58.4 70.6 58.38 67.63 58.92 67.81 59.31 69.36"/><polygon class="cls-11" points="57.88 66.78 58.19 67 58.35 67.42 58.41 66.94 58.24 66.46 57.88 66.78"/><polygon class="cls-16" points="58.23 66.5 57.88 66.78 57.94 66.24 58.23 66.5"/><polygon class="cls-12" points="57.88 66.78 58.12 67.38 58.35 67.95 58.35 67.42 58.19 67 57.88 66.78"/><polygon class="cls-51" points="58.05 66.64 58.3 66.74 58.23 66.5 58.05 66.64"/><polygon class="cls-12" points="57.91 66.57 57.52 66.1 57.94 66.24 57.91 66.57"/><polygon class="cls-14" points="57.88 66.78 57.91 66.57 57.52 66.1 56.89 65.96 57.32 66.63 57.88 66.78"/><polygon class="cls-11" points="59.46 66.77 59.16 67 58.99 67.41 58.92 66.94 59.09 66.46 59.46 66.77"/><polygon class="cls-12" points="58.96 67.05 59.1 66.5 58.67 66.47 58.67 66.47 58.23 66.5 58.38 67.05 58.35 67.42 58.67 67.39 58.67 67.39 58.99 67.41 58.96 67.05"/><polygon class="cls-14" points="59.4 66.24 59.05 65.86 58.67 65.86 58.67 65.88 58.29 65.86 57.94 66.24 58.24 66.52 58.67 66.5 58.67 66.5 59.09 66.52 59.4 66.24"/><polygon class="cls-16" points="59.1 66.5 59.46 66.78 59.4 66.24 59.1 66.5"/><polygon class="cls-12" points="59.46 66.77 59.22 67.38 58.98 67.95 58.99 67.41 59.16 67 59.46 66.77"/><polygon class="cls-11" points="58.99 67.42 58.67 67.38 58.67 67.38 58.35 67.42 58.35 67.95 58.67 67.95 58.67 67.95 58.98 67.95 58.99 67.42"/><polygon class="cls-51" points="58.97 67.63 58.82 67.5 58.67 67.5 58.67 67.5 58.51 67.5 58.38 67.63 58.5 67.81 58.67 67.82 58.67 67.82 58.83 67.81 58.97 67.63"/><polygon class="cls-51" points="59.28 66.64 59.03 66.74 59.1 66.5 59.28 66.64"/><polygon class="cls-12" points="59.42 66.57 59.81 66.1 59.4 66.24 59.42 66.57"/><polygon class="cls-14" points="59.46 66.77 59.42 66.57 59.81 66.1 60.45 65.96 60.01 66.63 59.46 66.77"/><polygon class="cls-49" points="58.41 70.6 57.85 71.14 56.73 71.13 56.2 70.17 58.4 69.69 58.41 70.6"/><polygon class="cls-50" points="57.61 67.94 55.03 68.26 56.84 69.16 57.61 67.94"/><polygon class="cls-16" points="55.03 68.26 53.26 68.08 52.38 69.54 55.03 68.26"/><polygon class="cls-14" points="52.38 69.54 56.2 70.17 56.84 69.16 55.03 68.26 52.38 69.54"/><polygon class="cls-50" points="56.2 70.17 54.06 71.38 56.64 71.29 56.77 71.11 56.2 70.17"/><polygon class="cls-49" points="54.06 71.38 54.82 69.95 55.44 70.59 54.06 71.38"/><polygon class="cls-49" points="52.87 70.84 53.07 71.36 52.35 72.24 53.02 72.49 54.06 71.38 52.87 70.84"/><polygon class="cls-16" points="52.35 72.24 52.94 74.93 53.3 74.88 53.02 72.49 52.35 72.24"/><polygon class="cls-49" points="53.26 68.08 51.74 69.05 51.73 70.62 53.26 68.08"/><polygon class="cls-14" points="51.73 70.62 52.87 70.84 52.39 69.54 51.73 70.62"/><polygon class="cls-49" points="52.95 71.17 51.9 72.45 51.13 72.1 51.76 71.39 51.73 70.62 52.86 70.8 52.95 71.17"/><polygon class="cls-16" points="51.13 72.09 50.83 74.66 51.31 74.66 51.37 73.05 51.9 72.45 51.13 72.09"/><polygon class="cls-14" points="56.64 71.29 57.09 71.71 57.35 73.55 57.64 73.47 57.66 71.66 57.85 71.14 56.76 71.07 56.64 71.29"/><polygon class="cls-49" points="55.42 71.31 56.15 71.59 56.79 71.42 56.63 71.27 55.42 71.31"/><polygon class="cls-16" points="56.79 71.42 56.71 72.92 56.26 73.52 56.12 71.6 56.79 71.42"/><polygon class="cls-50" points="56.71 72.92 56.51 74.68 56.15 74.68 56.26 73.47 56.71 72.92"/><polygon class="cls-50" points="57.35 73.55 57.43 74.61 57.49 74.89 57.83 74.89 57.64 73.44 57.35 73.55"/><path class="cls-52" d="M214.15,142.81v-.34a0,0,0,0,1,0,0l.31.18Z" transform="translate(-103.81 -80.16)"/><path class="cls-14" d="M215.46,140.92l.12-.54.33.06-.47.51v0Z" transform="translate(-103.81 -80.16)"/><path class="cls-12" d="M215.92,140.43h0l.21-.09a.79.79,0,0,1,.28.21l-.5-.12Z" transform="translate(-103.81 -80.16)"/><polygon class="cls-16" points="111.65 60.78 112.11 60.27 112.6 60.4 111.64 60.79 111.65 60.78 111.65 60.78"/><path class="cls-50" d="M217.31,140.74a14.39,14.39,0,0,0,1.56-.4l-1.35,3.59-.21-3.2Z" transform="translate(-103.81 -80.16)"/><path class="cls-49" d="M225.28,147.17c-.11.13-.67.79-.88.83l-.87-.65Z" transform="translate(-103.81 -80.16)"/><path class="cls-53" d="M223.46,146.51v0l1.81.68h0l-1.75.18h0Z" transform="translate(-103.81 -80.16)"/><path class="cls-14" d="M223.56,145.69l1.74.69v.78h0l-1.81-.68Z" transform="translate(-103.81 -80.16)"/><polygon class="cls-50" points="115.99 66.3 117.33 66.97 117.33 66.98 116.82 67.71 116.11 67.68 115.82 67.67 115.76 67.75 115.99 66.3"/><polygon class="cls-14" points="115.99 66.29 117.71 65.18 117.71 65.84 117.43 66.28 117.33 66.97 115.99 66.3 115.99 66.29"/><polygon class="cls-15" points="115.99 66.29 115.99 66.3 115.99 66.3 115.99 66.29"/><polygon class="cls-15" points="115.99 66.3 115.99 66.3 115.99 66.31 115.96 66.31 115.99 66.3"/><path class="cls-49" d="M219.71,144.18l.21,1.4-.13.87h0l-1.6,0c0-.34-.07-.65-.07-.65v0Z" transform="translate(-103.81 -80.16)"/><polygon class="cls-50" points="122 67.18 121.97 67.15 123.11 68.16 121.66 68.17 121.44 67.64 122 67.18"/><polygon class="cls-16" points="121.63 60.4 123.24 62.23 123.54 64.67 121.57 60.4 121.63 60.4"/><polygon class="cls-12" points="118.27 60.2 121.57 60.4 122.62 62.68 118.27 60.2 118.27 60.2"/><polygon class="cls-49" points="123.54 64.69 123.54 64.72 123.9 66.52 121.98 67.15 123.54 64.69"/><polygon class="cls-16" points="122.61 62.67 122.62 62.68 123.54 64.67 123.54 64.69 122.79 65.9 121.34 64.73 121.3 64.7 122.61 62.67"/><polygon class="cls-14" points="118.26 60.2 118.27 60.2 122.58 62.66 118.01 62.65 118.26 60.2"/><polygon class="cls-15" points="121.3 64.7 121.34 64.73 121.34 64.74 121.3 64.71 121.3 64.7"/><polygon class="cls-50" points="122.58 62.66 122.61 62.67 121.3 64.7 121.3 64.71 118.06 62.65 122.58 62.66"/><polygon class="cls-50" points="121.3 64.71 121.34 64.74 121.51 66.22 121.5 66.19 121.5 66.22 119.76 65.53 119.76 65.51 121.26 64.69 121.3 64.71"/><polygon class="cls-49" points="117.76 65.12 118.01 62.65 118.06 62.65 121.26 64.69 119.76 65.51 119.76 65.5 117.76 65.12"/><path class="cls-16" d="M218.87,140.34h3.19l-4,2.2h0Z" transform="translate(-103.81 -80.16)"/><polygon class="cls-15" points="115.92 64.01 115.92 64.02 115.91 64.01 115.91 64.01 115.92 64.01"/><polygon class="cls-53" points="115.91 64.02 115.92 64.02 115.92 64.01 117.71 65.14 117.71 65.18 115.99 66.29 116.12 65.42 115.91 64.02"/><polygon class="cls-12" points="118.26 60.2 118.26 60.2 118.01 62.59 114.26 62.38 118.26 60.2"/><polygon class="cls-16" points="114.26 62.38 118.01 62.59 117.76 65.12 117.71 65.11 117.71 65.14 115.92 64.01 115.91 64.01 115.89 64 114.24 62.39 114.26 62.38"/><polygon class="cls-15" points="115.91 64.01 115.89 64 115.91 64.01 115.91 64.01"/><polygon class="cls-53" points="122.79 65.9 121.98 67.15 121.98 67.15 121.97 67.15 121.51 66.22 121.34 64.73 122.79 65.9"/><polygon class="cls-14" points="123.9 66.52 123.9 66.54 123.98 68.15 123.11 68.16 121.98 67.15 123.9 66.52"/><polygon class="cls-16" points="114.24 62.39 115.91 64.01 115.91 64.02 114.28 65.65 114.11 64.56 113.72 63.8 113.72 63.78 114.24 62.39"/><polygon class="cls-15" points="115.92 64.02 115.91 64.02 115.91 64.01 115.92 64.02"/><path class="cls-14" d="M218.17,146.49l1.6,0h0l-.22,1.44-.28.43h0l-1.15-.89c.11-.1.1-.57.07-1Z" transform="translate(-103.81 -80.16)"/><path class="cls-50" d="M222.8,147.53l.72-.19.88.67h0l-1.6,0Z" transform="translate(-103.81 -80.16)"/><path class="cls-50" d="M218.09,147.46s0,0,0,0l1.15.89-2.11-.11-.19-.35a3.22,3.22,0,0,0,1.15-.41Z" transform="translate(-103.81 -80.16)"/><path class="cls-12" d="M214.92,142s0,0,0,0a10.49,10.49,0,0,1,.5-1l1-.4h0a1.49,1.49,0,0,0,.89.19h0l-2.44,2.67h0Z" transform="translate(-103.81 -80.16)"/><polygon class="cls-14" points="113.5 60.59 113.57 61.72 113.57 61.73 112.59 61.59 113.5 60.59"/><polygon class="cls-16" points="112.59 61.59 113.57 61.73 112.72 63.47 111.07 63.27 111.07 63.27 112.59 61.59"/><path class="cls-14" d="M214.47,142.64l-.31-.18a3.89,3.89,0,0,0,.76-.45l0,1.42-.61-.23-.11-.37h0Z" transform="translate(-103.81 -80.16)"/><polygon class="cls-49" points="113.57 61.72 113.72 63.8 113.7 63.79 112.74 63.47 112.72 63.47 113.57 61.72"/><polygon class="cls-52" points="111.61 61.68 111.95 61.7 111.71 61.45 111.61 61.68"/><polygon class="cls-36" points="130.8 58.94 128.74 63.66 128.74 71.31 125.63 71.34 126.16 68.76 126.16 63.84 125.73 60.06 127.43 58.94 128.27 61.14 129.4 58.75 130.8 58.94"/><polygon class="cls-37" points="133.48 42.77 120.3 46.79 134.25 52.56 133.48 42.77"/><polygon class="cls-38" points="133.48 42.77 140.38 53.15 134.25 52.56 133.48 42.77"/><polygon class="cls-39" points="140.38 53.15 135.55 62.29 134.25 52.56 140.38 53.15"/><polygon class="cls-40" points="135.55 62.29 125.76 58.66 126.83 49.49 134.25 52.56 135.55 62.29"/><polygon class="cls-41" points="116.19 54.6 120.3 46.79 125.76 58.66 116.19 54.6"/><polygon class="cls-38" points="125.88 58.71 116.19 54.6 122.79 62.95 125.98 58.75 125.88 58.71"/><polygon class="cls-39" points="135.55 62.29 125.76 58.66 122.79 62.95 122.82 62.98 135.55 62.29"/><polygon class="cls-40" points="126.83 49.49 125.76 58.66 120.3 46.79 126.83 49.49"/><polygon class="cls-52" points="140.79 70.17 140.79 69.65 140.79 69.65 140.32 69.89 140.79 70.17"/><path class="cls-14" d="M242.66,147.51l-.18-.79-.49.08.69.75,0,0Z" transform="translate(-103.81 -80.16)"/><path class="cls-12" d="M242,146.8h0l-.31-.14a1.34,1.34,0,0,0-.4.32l.75-.18Z" transform="translate(-103.81 -80.16)"/><path class="cls-16" d="M242.68,147.55l-.68-.75-.73.18,1.42.59a0,0,0,0,0,0,0Z" transform="translate(-103.81 -80.16)"/><path class="cls-50" d="M239.93,147.26a21,21,0,0,1-2.3-.6l2,5.31.31-4.71Z" transform="translate(-103.81 -80.16)"/><path class="cls-49" d="M228.17,156.76c.17.2,1,1.16,1.29,1.23l1.28-1Z" transform="translate(-103.81 -80.16)"/><path class="cls-53" d="M230.84,155.78v0l-2.68,1a0,0,0,0,1,0,0l2.57.27,0,0h0Z" transform="translate(-103.81 -80.16)"/><polygon class="cls-50" points="132.46 75.54 130.46 76.54 130.47 76.56 131.24 77.62 132.29 77.58 132.71 77.57 132.79 77.69 132.46 75.54"/><polygon class="cls-14" points="132.46 75.53 129.92 73.89 129.92 74.86 130.33 75.52 130.46 76.54 132.46 75.54 132.46 75.53"/><polygon class="cls-15" points="132.46 75.53 132.46 75.54 132.47 75.53 132.46 75.53"/><polygon class="cls-15" points="132.47 75.53 132.46 75.54 132.47 75.56 132.5 75.56 132.47 75.53"/><path class="cls-50" d="M236.38,152.34l-.31,2.06.19,1.28h0l0,0,2.36,0c0-.51.11-1,.11-1v0Z" transform="translate(-103.81 -80.16)"/><polygon class="cls-50" points="123.6 76.85 123.62 76.8 121.95 78.29 124.09 78.31 124.41 77.52 123.6 76.85"/><polygon class="cls-16" points="124.13 66.83 121.75 69.53 121.31 73.13 124.21 66.82 124.13 66.83"/><polygon class="cls-50" points="129.08 66.53 124.21 66.82 122.66 70.19 129.09 66.53 129.08 66.53"/><polygon class="cls-49" points="121.31 73.15 121.3 73.21 120.78 75.87 123.6 76.8 121.31 73.15"/><polygon class="cls-16" points="122.69 70.18 122.66 70.19 121.31 73.13 121.31 73.15 122.43 74.94 124.56 73.23 124.62 73.19 122.69 70.18"/><polygon class="cls-14" points="129.11 66.53 129.09 66.53 125.53 68.55 127.3 70.15 129.49 70.14 129.11 66.53"/><polygon class="cls-12" points="122.72 70.16 127.3 70.15 125.53 68.55 122.72 70.16"/><polygon class="cls-15" points="124.62 73.19 124.56 73.23 124.56 73.24 124.63 73.2 124.62 73.19"/><polygon class="cls-50" points="122.72 70.16 122.69 70.18 124.62 73.19 124.63 73.2 129.41 70.14 122.72 70.16"/><polygon class="cls-50" points="124.31 75.42 124.33 75.37 124.37 76.6 127.03 75.58 126.89 74.37 124.68 73.16 124.31 75.42"/><polygon class="cls-49" points="129.49 70.14 129.41 70.14 124.68 73.16 126.83 74.34 129.75 72.83 129.49 70.14"/><polygon class="cls-53" points="129.75 72.83 126.83 74.34 126.89 74.37 126.89 74.36 129.85 73.8 129.75 72.83"/><path class="cls-16" d="M237.63,146.66h0l-4.68,0,5.93,3.24h0Z" transform="translate(-103.81 -80.16)"/><ellipse class="cls-15" cx="132.57" cy="72.17" rx="0.01" ry="0.01"/><polygon class="cls-53" points="132.58 72.19 132.57 72.18 132.57 72.17 129.92 73.83 129.92 73.89 132.46 75.53 132.27 74.25 132.58 72.19"/><polygon class="cls-12" points="129.12 66.53 129.11 66.53 129.45 70.07 131.57 67.86 129.12 66.53"/><polygon class="cls-14" points="135.03 69.76 131.57 67.86 129.43 69.97 129.47 70.07 135.03 69.76"/><polygon class="cls-16" points="135.03 69.76 129.47 70.07 129.85 73.8 129.92 73.78 129.92 73.83 132.57 72.17 132.58 72.15 132.61 72.14 135.05 69.77 135.03 69.76"/><polygon class="cls-15" points="132.58 72.17 132.61 72.14 132.58 72.15 132.58 72.17"/><polygon class="cls-53" points="122.43 74.94 123.6 76.8 123.61 76.8 123.62 76.8 124.31 75.42 124.7 73.16 124.56 73.23 122.43 74.94"/><polygon class="cls-14" points="120.78 75.87 120.77 75.9 120.66 78.28 121.95 78.29 123.61 76.8 120.78 75.87"/><polygon class="cls-49" points="135.05 69.77 132.58 72.17 132.58 72.19 134.97 74.59 135.24 72.97 135.83 71.84 135.83 71.82 135.05 69.77"/><polygon class="cls-15" points="132.57 72.18 132.58 72.19 132.58 72.17 132.57 72.18"/><path class="cls-14" d="M238.66,155.74l-2.36,0h0l.32,2.13.41.63h.07l1.69-1.3c-.17-.17-.14-.84-.1-1.44Z" transform="translate(-103.81 -80.16)"/><path class="cls-50" d="M231.82,157.29l-1.06-.29-1.3,1h0c.17,0,2.37,0,2.37,0Z" transform="translate(-103.81 -80.16)"/><path class="cls-50" d="M238.78,157.19s0,0,0,0l-1.69,1.3,3.13-.17.28-.52a5,5,0,0,1-1.7-.6Z" transform="translate(-103.81 -80.16)"/><path class="cls-12" d="M243.47,149.13s0,0,0-.06a13.28,13.28,0,0,0-.75-1.51l-1.42-.59h0a2.39,2.39,0,0,1-1.31.28h0l3.59,3.95h0Z" transform="translate(-103.81 -80.16)"/><polygon class="cls-14" points="136.14 67.11 136.03 68.77 136.04 68.79 137.49 68.58 136.14 67.11"/><polygon class="cls-16" points="137.49 68.58 136.04 68.79 137.3 71.36 139.72 71.07 139.73 71.06 137.49 68.58"/><path class="cls-14" d="M244.13,150l.47-.24a6.85,6.85,0,0,1-1.12-.68l.07,2.09.9-.33.16-.55h0Z" transform="translate(-103.81 -80.16)"/><polygon class="cls-49" points="136.03 68.77 135.83 71.84 135.83 71.84 137.26 71.37 137.3 71.36 136.03 68.77"/><polygon class="cls-52" points="138.92 68.72 138.43 68.75 138.79 68.37 138.92 68.72"/><polygon class="cls-27" points="159.04 64.13 157.58 63.86 156.14 63.95 155.37 64.72 156.04 65.66 159.27 64.32 159.04 64.13"/><polygon class="cls-31" points="159.27 64.32 158.63 65.48 157.45 66.28 156.04 65.66 159.27 64.32"/><polygon class="cls-26" points="159.54 64.56 160.06 66.1 159.22 66.82 157.98 66.83 159.45 64.49 159.54 64.56"/><polygon class="cls-27" points="159.25 64.31 158.52 65.39 157.65 66.03 157.98 66.83 159.46 64.51 159.25 64.31"/><polygon class="cls-27" points="159.19 64 158.81 62.56 158.81 61.12 159.53 60.31 160.52 60.91 159.37 64.21 159.19 64"/><polygon class="cls-31" points="159.37 64.21 160.5 63.49 161.22 62.27 160.52 60.91 159.37 64.21"/><polygon class="cls-26" points="159.62 64.47 161.2 64.88 161.87 64 161.8 62.77 159.55 64.38 159.62 64.47"/><polygon class="cls-27" points="159.36 64.19 160.39 63.39 160.99 62.49 161.8 62.77 159.57 64.39 159.36 64.19"/><polygon class="cls-11" points="159.27 64.08 158.99 63.86 158.94 63.9 158.94 63.9 158.9 63.96 159.13 64.23 160.11 65.11 160.22 65.11 160.22 65.12 160.22 65.11 160.23 65.11 160.22 65.11 160.21 65 159.27 64.08"/><polygon class="cls-16" points="159.01 63.76 158.91 63.73 158.82 63.79 158.82 63.79 158.82 63.79 158.81 63.79 158.82 63.79 158.77 63.88 158.81 63.98 158.92 63.98 159.01 63.88 159.01 63.76"/><polygon class="cls-27" points="142.34 44.12 142.56 43.28 142.57 42.43 142.16 41.95 141.57 42.3 142.22 44.24 142.34 44.12"/><polygon class="cls-31" points="142.22 44.24 141.57 43.82 141.15 43.09 141.57 42.3 142.22 44.24"/><polygon class="cls-26" points="142.07 44.39 141.14 44.63 140.76 44.1 140.8 43.38 142.12 44.34 142.07 44.39"/><polygon class="cls-27" points="142.23 44.23 141.63 43.75 141.28 43.22 140.8 43.38 142.1 44.35 142.23 44.23"/><polygon class="cls-27" points="142.41 44.21 143.27 44.05 144.12 44.12 144.56 44.58 144.17 45.12 142.28 44.31 142.41 44.21"/><polygon class="cls-31" points="142.28 44.31 142.65 45 143.34 45.47 144.17 45.12 142.28 44.31"/><polygon class="cls-26" points="142.12 44.44 141.8 45.35 142.29 45.77 143.02 45.8 142.17 44.41 142.12 44.44"/><polygon class="cls-27" points="142.29 44.3 142.72 44.94 143.22 45.33 143.02 45.8 142.16 44.42 142.29 44.3"/><polygon class="cls-11" points="142.36 44.25 142.5 44.1 142.48 44.06 142.47 44.06 142.45 44.04 142.28 44.16 141.71 44.7 141.71 44.76 141.7 44.76 141.71 44.76 141.71 44.76 141.71 44.76 141.78 44.76 142.36 44.25"/><polygon class="cls-16" points="142.56 44.11 142.58 44.06 142.55 44 142.55 44 142.55 44 142.55 44 142.55 44 142.5 43.98 142.44 43.99 142.44 44.05 142.49 44.11 142.56 44.11"/><polygon class="cls-27" points="51.08 43.91 51.32 43.08 51.34 42.23 50.94 41.75 50.35 42.08 50.95 44.03 51.08 43.91"/><polygon class="cls-31" points="50.95 44.03 50.31 43.6 49.91 42.86 50.35 42.08 50.95 44.03"/><polygon class="cls-26" points="50.8 44.18 49.86 44.4 49.5 43.87 49.56 43.14 50.84 44.13 50.8 44.18"/><polygon class="cls-27" points="50.97 44.03 50.38 43.53 50.04 43 49.56 43.14 50.83 44.14 50.97 44.03"/><polygon class="cls-27" points="51.14 44 52.01 43.87 52.86 43.95 53.29 44.41 52.88 44.95 51.01 44.1 51.14 44"/><polygon class="cls-31" points="51.01 44.1 51.37 44.8 52.05 45.28 52.88 44.95 51.01 44.1"/><polygon class="cls-26" points="50.85 44.23 50.51 45.13 50.99 45.56 51.72 45.6 50.9 44.2 50.85 44.23"/><polygon class="cls-27" points="51.02 44.1 51.43 44.74 51.93 45.14 51.72 45.6 50.9 44.21 51.02 44.1"/><polygon class="cls-11" points="51.1 44.05 51.24 43.9 51.22 43.87 51.21 43.87 51.19 43.83 51.01 43.95 50.44 44.48 50.43 44.54 50.43 44.54 50.43 44.54 50.43 44.54 50.43 44.54 50.5 44.54 51.1 44.05"/><polygon class="cls-16" points="51.3 43.91 51.32 43.85 51.29 43.8 51.29 43.8 51.29 43.8 51.29 43.8 51.29 43.8 51.24 43.77 51.18 43.79 51.18 43.84 51.23 43.91 51.3 43.91"/><polygon class="cls-27" points="21.11 66.31 20.31 65.95 19.47 65.81 18.93 66.14 19.18 66.77 21.21 66.44 21.11 66.31"/><polygon class="cls-31" points="21.21 66.44 20.69 67.02 19.9 67.31 19.18 66.77 21.21 66.44"/><polygon class="cls-26" points="21.33 66.61 21.42 67.56 20.84 67.86 20.13 67.69 21.29 66.56 21.33 66.61"/><polygon class="cls-27" points="21.2 66.43 20.63 66.95 20.05 67.19 20.13 67.69 21.3 66.57 21.2 66.43"/><polygon class="cls-27" points="21.2 66.24 21.19 65.38 21.39 64.54 21.9 64.18 22.39 64.66 21.29 66.4 21.2 66.24"/><polygon class="cls-31" points="21.29 66.4 22.02 66.13 22.6 65.53 22.39 64.66 21.29 66.4"/><polygon class="cls-26" points="21.39 66.57 22.23 67.03 22.73 66.61 22.87 65.9 21.37 66.52 21.39 66.57"/><polygon class="cls-27" points="21.28 66.39 21.98 66.06 22.45 65.63 22.87 65.9 21.38 66.52 21.28 66.39"/><polygon class="cls-11" points="21.24 66.31 21.11 66.14 21.08 66.16 21.08 66.16 21.04 66.19 21.14 66.37 21.58 67.01 21.64 67.03 21.64 67.03 21.64 67.03 21.64 67.03 21.64 67.03 21.66 66.96 21.24 66.31"/><polygon class="cls-16" points="21.13 66.09 21.09 66.05 21.02 66.08 21.02 66.08 21.02 66.08 21.02 66.08 21.02 66.08 20.99 66.12 20.99 66.19 21.05 66.2 21.12 66.15 21.13 66.09"/><polygon class="cls-27" points="19.7 69.68 19.47 69.19 19.14 68.78 18.75 68.73 18.62 69.11 19.68 69.78 19.7 69.68"/><polygon class="cls-31" points="19.68 69.78 19.21 69.84 18.73 69.66 18.62 69.11 19.68 69.78"/><polygon class="cls-26" points="19.67 69.91 19.33 70.38 18.94 70.29 18.68 69.92 19.67 69.87 19.67 69.91"/><polygon class="cls-27" points="19.68 69.77 19.22 69.78 18.84 69.67 18.68 69.92 19.67 69.88 19.68 69.77"/><polygon class="cls-27" points="19.76 69.69 20.11 69.28 20.53 68.97 20.92 69.02 20.95 69.44 19.74 69.79 19.76 69.69"/><polygon class="cls-31" points="19.74 69.79 20.19 69.97 20.7 69.92 20.95 69.44 19.74 69.79"/><polygon class="cls-26" points="19.72 69.91 19.93 70.47 20.32 70.48 20.68 70.2 19.73 69.88 19.72 69.91"/><polygon class="cls-27" points="19.74 69.78 20.2 69.91 20.59 69.9 20.68 70.2 19.73 69.89 19.74 69.78"/><polygon class="cls-11" points="19.76 69.74 19.76 69.6 19.74 69.6 19.74 69.6 19.72 69.59 19.68 69.72 19.63 70.19 19.65 70.22 19.65 70.22 19.65 70.22 19.65 70.22 19.65 70.22 19.68 70.2 19.76 69.74"/><polygon class="cls-16" points="19.8 69.59 19.79 69.56 19.75 69.54 19.75 69.54 19.75 69.54 19.75 69.54 19.72 69.55 19.68 69.57 19.72 69.6 19.76 69.61 19.8 69.59"/><polygon class="cls-27" points="47.42 46.31 47.24 45.93 46.98 45.62 46.68 45.57 46.58 45.87 47.41 46.38 47.42 46.31"/><polygon class="cls-31" points="47.41 46.38 47.04 46.43 46.67 46.3 46.58 45.87 47.41 46.38"/><polygon class="cls-26" points="47.41 46.48 47.13 46.85 46.83 46.78 46.63 46.51 47.41 46.46 47.41 46.48"/><polygon class="cls-27" points="47.41 46.38 47.05 46.38 46.76 46.3 46.63 46.51 47.39 46.46 47.41 46.38"/><polygon class="cls-27" points="47.47 46.32 47.74 45.99 48.06 45.76 48.36 45.8 48.38 46.12 47.45 46.39 47.47 46.32"/><polygon class="cls-31" points="47.45 46.39 47.8 46.53 48.2 46.49 48.38 46.12 47.45 46.39"/><polygon class="cls-26" points="47.44 46.49 47.59 46.92 47.91 46.93 48.17 46.7 47.44 46.46 47.44 46.49"/><polygon class="cls-27" points="47.45 46.38 47.81 46.49 48.11 46.48 48.17 46.7 47.44 46.47 47.45 46.38"/><polygon class="cls-11" points="47.46 46.35 47.47 46.25 47.45 46.25 47.45 46.25 47.43 46.24 47.41 46.34 47.36 46.7 47.38 46.73 47.38 46.73 47.38 46.73 47.38 46.73 47.38 46.73 47.41 46.7 47.46 46.35"/><polygon class="cls-16" points="47.49 46.24 47.48 46.21 47.46 46.2 47.46 46.2 47.46 46.2 47.46 46.2 47.43 46.21 47.41 46.23 47.43 46.25 47.47 46.26 47.49 46.24"/><polygon class="cls-27" points="47.66 49.74 47.55 49.5 47.38 49.3 47.19 49.27 47.13 49.47 47.66 49.8 47.66 49.74"/><polygon class="cls-31" points="47.66 49.8 47.43 49.82 47.18 49.73 47.13 49.47 47.66 49.8"/><polygon class="cls-26" points="47.65 49.87 47.48 50.1 47.28 50.05 47.16 49.87 47.65 49.84 47.65 49.87"/><polygon class="cls-27" points="47.66 49.79 47.43 49.8 47.24 49.74 47.16 49.87 47.65 49.84 47.66 49.79"/><polygon class="cls-27" points="47.69 49.76 47.87 49.55 48.08 49.39 48.27 49.41 48.3 49.62 47.68 49.8 47.69 49.76"/><polygon class="cls-31" points="47.68 49.8 47.91 49.89 48.16 49.87 48.3 49.62 47.68 49.8"/><polygon class="cls-26" points="47.67 49.87 47.78 50.14 47.98 50.14 48.15 50.01 47.68 49.84 47.67 49.87"/><polygon class="cls-27" points="47.68 49.8 47.92 49.87 48.11 49.86 48.15 50.01 47.68 49.86 47.68 49.8"/><polygon class="cls-11" points="47.69 49.78 47.69 49.71 47.68 49.71 47.68 49.71 47.67 49.7 47.66 49.77 47.63 50 47.64 50.02 47.64 50.02 47.64 50.02 47.64 50.02 47.64 50.02 47.66 50.01 47.69 49.78"/><polygon class="cls-16" points="47.72 49.7 47.7 49.69 47.69 49.68 47.69 49.68 47.69 49.68 47.69 49.68 47.67 49.68 47.66 49.69 47.67 49.71 47.69 49.71 47.72 49.7"/></svg>