<svg xmlns="http://www.w3.org/2000/svg" xmlns:xlink="http://www.w3.org/1999/xlink" viewBox="0 0 525.77 414.79"><defs><style>.cls-1{mask:url(#mask);}.cls-11,.cls-14,.cls-15,.cls-17,.cls-2,.cls-23,.cls-6,.cls-7,.cls-8,.cls-9{mix-blend-mode:multiply;}.cls-2{fill:url(#linear-gradient);}.cls-3{fill:none;}.cls-4{isolation:isolate;}.cls-5{fill:url(#linear-gradient-2);}.cls-6,.cls-9{opacity:0.3;}.cls-6{fill:url(#linear-gradient-3);}.cls-8{fill:#582f19;}.cls-14,.cls-15,.cls-23,.cls-8{opacity:0.2;}.cls-9{fill:#c9663b;}.cls-10{fill:url(#linear-gradient-4);}.cls-11{fill:#64a343;opacity:0.4;}.cls-12{mask:url(#mask-2);}.cls-13{mix-blend-mode:screen;fill:url(#linear-gradient-5);}.cls-14,.cls-16{fill:#713a1f;}.cls-17{fill:#989898;opacity:0.26;}.cls-18{fill:#09ab54;}.cls-19{fill:#4080a8;}.cls-20{fill:#d5a93b;}.cls-21,.cls-23{fill:#ac7a2b;}.cls-22{clip-path:url(#clip-path);}.cls-24{fill:#edcabd;}.cls-25{fill:#c757a1;}.cls-26{fill:#242a5f;}.cls-27{fill:#603116;}.cls-28{fill:#c9723d;}.cls-29{fill:#b28c33;}.cls-30{fill:#d779b0;}.cls-31{filter:url(#luminosity-noclip);}</style><filter id="luminosity-noclip" x="64.08" y="-8613" width="273" height="32766" filterUnits="userSpaceOnUse" color-interpolation-filters="sRGB"><feFlood flood-color="#fff" result="bg"/><feBlend in="SourceGraphic" in2="bg"/></filter><mask id="mask" x="64.08" y="-8613" width="273" height="32766" maskUnits="userSpaceOnUse"><g class="cls-31"/></mask><linearGradient id="linear-gradient" x1="158.34" y1="387.92" x2="211.89" y2="520.41" gradientUnits="userSpaceOnUse"><stop offset="0.07" stop-color="#fff"/><stop offset="0.18" stop-color="#fbfbfb"/><stop offset="0.3" stop-color="#eee"/><stop offset="0.41" stop-color="#d8d8d8"/><stop offset="0.54" stop-color="#bababa"/><stop offset="0.66" stop-color="#939393"/><stop offset="0.79" stop-color="#646464"/><stop offset="0.91" stop-color="#2d2d2d"/><stop offset="1"/></linearGradient><linearGradient id="linear-gradient-2" x1="303.9" y1="709.31" x2="293.71" y2="482.62" gradientUnits="userSpaceOnUse"><stop offset="0.01" stop-color="#cf792b"/><stop offset="0.54" stop-color="#925b2f"/><stop offset="0.94" stop-color="#624332"/></linearGradient><linearGradient id="linear-gradient-3" x1="296.51" y1="646.12" x2="296.51" y2="580.4" xlink:href="#linear-gradient-2"/><linearGradient id="linear-gradient-4" x1="282.86" y1="597.31" x2="362.98" y2="316.31" gradientUnits="userSpaceOnUse"><stop offset="0.07" stop-color="#aec937"/><stop offset="0.2" stop-color="#aac637"/><stop offset="0.33" stop-color="#9dbc39"/><stop offset="0.47" stop-color="#87ab3b"/><stop offset="0.62" stop-color="#6a943d"/><stop offset="0.65" stop-color="#628e3e"/></linearGradient><mask id="mask-2" x="29.76" y="201.31" width="273" height="147.63" maskUnits="userSpaceOnUse"><g transform="translate(-34.32 -214.24)"><g class="cls-1"><path class="cls-2" d="M64.94,557.87s13.44-11.66,34.56-38.44,96.95-90.71,171.18-100.21c0,0,86.39-14.68,62.07,14.68C312.69,458.14,47,591.13,64.94,557.87Z"/></g></g></mask><linearGradient id="linear-gradient-5" x1="158.34" y1="387.92" x2="211.89" y2="520.41" gradientUnits="userSpaceOnUse"><stop offset="0.07" stop-color="#c4d12e"/><stop offset="0.25" stop-color="#c0ce2f"/><stop offset="0.44" stop-color="#b3c531"/><stop offset="0.64" stop-color="#9db734"/><stop offset="0.84" stop-color="#80a239"/><stop offset="1" stop-color="#628e3e"/></linearGradient><clipPath id="clip-path" transform="translate(-34.32 -214.24)"><polygon class="cls-3" points="453.53 351.25 424.66 496.99 187.32 496.99 158.45 351.25 238.76 230.33 373.21 230.33 373.67 231.02 453.53 351.25"/></clipPath></defs><title>ground</title><g class="cls-4"><g id="Layer_1" data-name="Layer 1"><path class="cls-5" d="M535,508.52c-4.35-1.17-7.43,4-11.7,2.41-8.11-3.08-15.78-7.8-23.88-10.8-15.89-5.88-33.15-5.59-49.5-6.18-18.22-.67-36.45-.72-54.68-.72-8.21,0-16.41.08-24.61.58-4.5.27-9,.68-13.5,1.15-4.3.45-8.87.95-13.14,0-.85-.18-1.94,1.39-.68,1.67.58.13,1.15.23,1.73.32-11.27,1.08-22.49,3.76-33.57,6.67-20.2,5.3-40.44,10.26-60.55,16.17-20.56,6-41,12.56-61.59,18.56s-41,10.59-61.51,16.22q-20.72,5.7-41.3,12.28c-6.84,2.18-13.69,4.35-20.58,6.28a79.14,79.14,0,0,1-19.59,2.5c.92,10,1.73,20.37,2.46,30.86,1.93,2,4.68,3,6.77,3.94a104.9,104.9,0,0,0,14.63,5.08c5.1,1.4,10.21,2.92,15.35,4a39.44,39.44,0,0,0,8.37,1,65.33,65.33,0,0,1,7.94.12.4.4,0,0,1,.32.43c0,.27,0,.53,0,.8l.14.14a10.47,10.47,0,0,0,2.67,2.35l.18.1a88.26,88.26,0,0,0,16.33,2.79c8.55.49,17.1.77,25.64,1l2.44.07c2.21,0,4.41-.05,6.62-.15,1.1,0,2.2-.12,3.3-.19,2.25-.63,4.49-1.34,6.75-2a27.18,27.18,0,0,0,8-3.35c.22-.15.46,0,.48.37.07,1.34.18,2.67.28,4a22.73,22.73,0,0,0,7.49,1.9q5.36,0,10.72.05c2.76-.11,5.52-.25,8.28-.32,5-.14,10.06-.27,15.07-.75.36-.1.72-.19,1.08-.27,1.72-.4,3.43-.84,5.14-1.29a36.75,36.75,0,0,0,9.9-4.55c.22-.13.47,0,.48.38,0,.83,0,1.64.06,2.46a.42.42,0,0,1,.26.42c0,.52,0,1,0,1.55a19.71,19.71,0,0,0,3.4.75,37.54,37.54,0,0,0,5.84.54c1.85.05,3.71.15,5.56.27,1.93-.12,3.86-.27,5.79-.45,5.76-.53,11.53-.48,17.3-.79,3.69-.2,7.38-.53,11.06-1,3.35-.44,6.78-1.07,9.83-3.09a.23.23,0,0,1,.26,0,.19.19,0,0,1,.19,0c4.85,2.35,10.37,1.73,15.44,2s10.43.61,15.65.82a147.34,147.34,0,0,0,16,0c2.55-.18,5.06-.56,7.59-1,1.92-.3,3.85-.37,4.3-3.41a.42.42,0,0,1,.11-.22c0-.23.17-.44.39-.37a57.11,57.11,0,0,0,14.65,1.88c4.88.15,9.75.46,14.63.61a135.08,135.08,0,0,0,15-.23c3.66-.3,8.28,0,11.27-3.34a6.28,6.28,0,0,0,.55-1.77c0-.29.29-.38.46-.26,1.24.78,2.57.82,3.87,1.25,1.12.37,2.23.79,3.35,1.2a56.13,56.13,0,0,0,7.41,2.06,89.35,89.35,0,0,0,16.37,2.47,140.38,140.38,0,0,0,15.87-.58,82.66,82.66,0,0,0,8.44-1c1.53-.29,3.22-1.3,4.78-1.26a.36.36,0,0,1,.13-.1c.11-.46.22-.91.33-1.37.05-.24.29-.43.47-.26,3.25,3,7.76,2.15,11.49,2.62a70.51,70.51,0,0,0,15.92,0c3.83-.4,7.69-.76,11.51-1.29l1.36-.36c2-.58,4.39-1,6.26-2.21.32-.21.65-.48,1-.74a18.53,18.53,0,0,0,1.11-1.58,17.78,17.78,0,0,0,.16-2.56c0-.55.63-.55.64,0s6-1.18,6.73-1.44c1.8-.64,3.63-1.2,5.42-1.88,2.89-1.11,5.8-2.65,7.76-5.62q.78-10.61,1.59-21.21c1.78-23.13,4.34-46.14,5.91-69.29C544.75,513.62,537.88,509.31,535,508.52Z" transform="translate(-34.32 -214.24)"/><path class="cls-6" d="M535,508.52c-4.35-1.17-7.43,4-11.7,2.41-8.11-3.08-15.78-7.8-23.88-10.8-15.89-5.88-33.15-5.59-49.5-6.18-18.22-.67-36.45-.72-54.68-.72-8.21,0-16.41.08-24.61.58-4.5.27-9,.68-13.5,1.15-4.3.45-8.87.95-13.14,0-.85-.18-1.94,1.39-.68,1.67.58.13,1.15.23,1.73.32-11.27,1.08-22.49,3.76-33.57,6.67-20.2,5.3-40.44,10.26-60.55,16.17-20.56,6-41,12.56-61.59,18.56s-41,10.59-61.51,16.22q-20.72,5.7-41.3,12.28c-6.84,2.18-13.69,4.35-20.58,6.28a79.14,79.14,0,0,1-19.59,2.5c.73,8,1.39,16.2,2,24.51a43.82,43.82,0,0,1,7.4-9.68c.27-.26.58.24.44.59a47.44,47.44,0,0,0-3,8.59c3.54-3.26,7.3-6.51,11.57-7.5.36-.08.54.51.24.79-3,2.87-5.16,7.17-7,11.45a77.13,77.13,0,0,0,27.39-10.48c.33-.21.62.3.39.68-1.86,3-3.7,6-5.47,9.12,4.16-2.28,7.77-6.13,12.2-7.53.33-.11.51.4.31.72-3.42,5.52-5.94,11.91-9,17.8,3.77-1.94,7.49-4.1,11.44-5.28.28-.08.49.3.36.64-.44,1.17-.86,2.35-1.24,3.56a30.69,30.69,0,0,1,4.86-5c.19-.14.4,0,.47.26a78.73,78.73,0,0,1,2,11.76h.12a.4.4,0,0,1,.32.43c0,.27,0,.53,0,.8l.14.14.07.08c0-.53,0-1.06,0-1.6.08-3.51.21-7.78,1.86-10.7,3.46-6.15,9.76-8.38,14.8-11.27.34-.19.61.29.38.68-2.58,4.54-5.23,9-7.82,13.54,8.65-1.5,17.87-3.2,25.35-9.61.31-.27.63.34.38.68-2.52,3.39-5.11,6.69-7.56,10.17a42.2,42.2,0,0,0,17.78-10.78c.28-.29.65.06.5.52-.83,2.54-2.23,4.6-3.28,7,3-1.08,5.11-5.94,7.25-8.64a.3.3,0,0,1,.54.19c.66,6.91.3,13.79.45,20.73,0,1.78.12,3.56.21,5.34,1,0,2,0,2.93-.09s2.2-.12,3.3-.19c2.25-.63,4.49-1.34,6.75-2a27.18,27.18,0,0,0,8-3.35c.22-.15.46,0,.48.37.07,1.33.18,2.66.28,4,.49.22,1,.44,1.47.62-.42-6-.67-12.09-1.26-18.1,0-.38.3-.77.54-.41,1.73,2.58,3.21,5.41,4.77,8.17a62.5,62.5,0,0,0-1.15-9.48c0-.28.15-.65.39-.53,2.71,1.4,4.88,4,7.22,6.23-.24-2.72-1.16-5.17-1.53-7.86,0-.33.15-.59.39-.53,6.83,1.73,12.36,6.87,17.25,13.29a49.63,49.63,0,0,1,2-9.31c.1-.39.54-.45.62,0a59,59,0,0,1,.41,6c2.07-2.43,3.74-5.41,5.94-7.66.23-.24.63,0,.54.41-.71,3.37-2.3,6.16-3.38,9.31,2.1.55,4.43-1.09,6.22-2.35s3.73-2.89,5.64-4.21c.22-.16.58.11.47.49a30.15,30.15,0,0,1-2.9,6.28,9.51,9.51,0,0,1,2.83-2.28c.25-.1.43.23.39.53a83.82,83.82,0,0,0-.43,11.09l1.31-.34a36.75,36.75,0,0,0,9.9-4.55c.22-.13.47,0,.48.38,0,.83,0,1.64.06,2.46a.42.42,0,0,1,.26.42c0,.52,0,1,0,1.55l.35.12c-.08-1.9-.17-3.81-.15-5.7.05-5.09.33-10.18.18-15.27,0-.41.34-.52.55-.3,2.29,2.43,3.84,5.76,5.3,9.12a53.69,53.69,0,0,0-1.19-5.89c-.07-.3.16-.62.39-.53,3.18,1.28,5.66,4.53,8,7.56-.27-3-1.81-5.16-3.38-7.27-.2-.27-.05-.73.23-.74,10.4-.32,20.37,5.22,29.06,12.56-.48-4.18-3.5-6.67-5.61-9.45-.16-.22-.1-.66.15-.72,2.18-.53,4.64,1.25,6.26,3.36-.09-1.34-.23-2.67-.27-4,0-.33.27-.53.48-.37,1.48,1.11,1.86,3.4,2.53,5.35a27,27,0,0,1,6.35-5c.25-.12.52.34.36.63-1.44,2.7-3.39,5-4.46,8a43,43,0,0,1,4.1-2.19c.23-.1.46.23.39.53a83.75,83.75,0,0,1-3,9.73l2.32-.28c3.35-.44,6.78-1.07,9.83-3.09a.23.23,0,0,1,.26,0,.19.19,0,0,1,.19,0,17.53,17.53,0,0,0,5,1.49c-.26-7.88-.2-15.79,0-23.67,0-.41.33-.54.55-.31,3.79,4.11,6,9.83,8.67,15.12.25-4.82-1.61-9.15-1.86-13.94,0-.28.21-.5.4-.42,3.77,1.47,5.23,6.5,6.85,10.85l.09-.19c-.43-4.22-.48-9-2.78-12.09-.24-.33,0-.79.31-.72a8.82,8.82,0,0,1,4.7,3c.59-1.89,1.18-3.76,1.63-5.72.05-.24.29-.44.47-.27,3,3.08,3,8.24,2.34,13l.62-.71c1.64-3.95,2.81-8.32,2.17-12.84,0-.27.09-.54.31-.54,4.06-.09,7.33,2.26,10,6.22a25.47,25.47,0,0,0-1.91-9.47c-.12-.32.08-.74.36-.63a17.39,17.39,0,0,1,11,14,100.79,100.79,0,0,1,.57,20.52c1.78-.2,3.54-.47,5.32-.75s3.85-.37,4.3-3.41a.42.42,0,0,1,.11-.22c0-.23.17-.44.39-.37a39.46,39.46,0,0,0,4.25,1c.8-11.29,1-22.68,1.54-34,0-.36.34-.58.55-.3,2.93,3.91,3.4,9.84,3.63,15.26a53.22,53.22,0,0,0,1.16-15c0-.39.36-.54.55-.3,2.86,3.71,4.35,8.56,5.25,13.67,3.58-6.88,7.26-14.23,13.13-17.78.31-.18.56.19.44.59-1.65,5.42-4,10.43-5.28,16.07,6.72-5.84,11-15.62,17.14-22.35.26-.28.73.09.5.52a65.21,65.21,0,0,0-5.93,16.68,68.61,68.61,0,0,0,8.2-9.14c.26-.32.7.09.51.52-1.63,3.55-1.65,7.81-1.85,11.84-.22,4.36-.48,8.72-.67,13.09-.17,4-.36,8-.59,11.93.6,0,1.2-.06,1.8-.11,3.66-.3,8.28,0,11.27-3.34a6.28,6.28,0,0,0,.55-1.77c0-.29.29-.38.46-.26,1.24.78,2.57.82,3.87,1.25.92.3,1.84.64,2.75,1,.27-3.44.5-6.89.88-10.3,1.3-11.72,5.76-22.5,6.1-34.47,0-.48.54-.6.63-.11a125.57,125.57,0,0,1,1.44,16.43c1.17-3.94,1.44-8.23,2-12.4a.3.3,0,0,1,.59-.1c2,4.2,1.92,9.21,3,13.8,5.79-8.3,12.24-15.78,20.27-19.76.26-.13.5.33.36.63-1.59,3.41-3.47,6.57-4.84,10.15,4.28-3.59,7.64-8.76,11.16-13.55.19-.25.57-.08.55.31-.32,5.83-1.2,11.56-2,17.29s-1.43,11.75-2.18,17.61c-.8,6.35-1.71,12.67-2.64,19q2.46-.16,4.91-.35a82.66,82.66,0,0,0,8.44-1c1.53-.29,3.22-1.3,4.78-1.26a.36.36,0,0,1,.13-.1c.11-.46.22-.91.33-1.37.05-.24.29-.43.47-.26a7.47,7.47,0,0,0,1.13.87c.62-21.33,3.67-42.43,6.3-63.45.06-.46.53-.38.62,0,1,4.09,1.39,8.35,2.11,12.53.9-3.35.94-7,1.32-10.51a.31.31,0,0,1,.47-.27c4.36,2.78,7.35,7.44,9.17,13.42,1,3.3,1.77,6.71,2.62,10.09.09-2.15.25-4.3.36-6.45a125.63,125.63,0,0,0-.67-18.59c0-.4.29-.76.54-.42,3.61,5.07,4.89,12.22,5.78,19,.67-5.61-.13-11.34-.35-17,0-.46.43-.56.6-.21,2,4.22,2.49,9.59,4.78,13.54,2.62-6.74,4.74-15.2,10.35-18.31.28-.16.59.18.44.59-3.5,9.18-6.77,18.65-8.08,28.88a19.45,19.45,0,0,1,3.59-5.28c.23-.21.55.14.47.49-3.36,13.84-3.87,28.35-5,42.72l2.38-.32c.46-.12.92-.23,1.38-.37,2-.58,4.39-1,6.26-2.21.32-.21.65-.48,1-.74a18.53,18.53,0,0,0,1.11-1.58,17.78,17.78,0,0,0,.16-2.56c0-.55.63-.55.64,0s6-1.18,6.73-1.44c1.8-.64,3.63-1.2,5.42-1.88,2.89-1.11,5.8-2.65,7.76-5.62q.78-10.61,1.59-21.21c1.78-23.13,4.34-46.14,5.91-69.29C544.75,513.62,537.88,509.31,535,508.52Z" transform="translate(-34.32 -214.24)"/><g class="cls-7"><path class="cls-8" d="M101.85,620.64a.4.4,0,0,1,.32.43c0,.27,0,.53,0,.8l.13.13q.13-4.49.49-8.95c.61-7.49,1.32-14.94,1.78-22.45.62-10.08,1.65-20.11,2.62-30.14q-6.89,2.05-13.77,4.19c1.94,14.72,4.09,29.39,6.2,44.06a.64.64,0,0,1,.06.14,78.73,78.73,0,0,1,2,11.76Z" transform="translate(-34.32 -214.24)"/><path class="cls-8" d="M163.14,627q1.55-.47,3.1-.91a27.18,27.18,0,0,0,8-3.35c.22-.15.46,0,.48.37.07,1.34.18,2.67.28,4l.11,0c-.69-7.9-1.13-15.84-1.6-23.78-.6-10-1.5-20-2.23-30-.7-9.62-1.69-19.32-2-29,0-.17,0-.34,0-.51q-6.92,1.8-13.85,3.55c1.78,16.61,3.75,33.2,5.16,49.87C161.41,607.16,162.21,617.08,163.14,627Z" transform="translate(-34.32 -214.24)"/><path class="cls-8" d="M232,622.26l.68-.41a.33.33,0,0,1,.15,0c-.27-15.57-.37-31.14-.43-46.72-.06-16.62-.56-33.4.71-50l-9.86,3c1.12,19.58,2.84,39.15,4.87,58.58C229.36,598.54,230.87,610.38,232,622.26Z" transform="translate(-34.32 -214.24)"/><path class="cls-8" d="M292.55,622.83a.19.19,0,0,1,.19,0l.08,0c.2-5.4.42-10.8.64-16.19.49-12.14.67-24.24.57-36.39-.16-20.63-.77-41.25-1-61.88q-7.13,1.84-14.26,3.71c3.16,37.57,5.75,75.24,9.17,112.76a16.4,16.4,0,0,0,4.32-2A.23.23,0,0,1,292.55,622.83Z" transform="translate(-34.32 -214.24)"/><path class="cls-8" d="M382.28,524.11c.68-10.26,1.53-20.53,2.23-30.8q-3.23.05-6.46.16c-.25,14.27-.6,28.53-.6,42.81,0,10.84,0,21.69-.16,32.53-.09,6.43-.44,13-.46,19.44.3-.38.62-.74.93-1.1.14-2.09.28-4.19.48-6.28.61-6.33,1-12.71,1.46-19.07C380.64,549.24,381.45,536.68,382.28,524.11Z" transform="translate(-34.32 -214.24)"/><path class="cls-8" d="M361.48,557.22A149.44,149.44,0,0,0,363,580.13c.9-9.13.9-18.36.9-27.56,0-9.91.31-19.77.78-29.65.46-9.59,1-19.17,1.34-28.76q-3,.24-6,.53c.37,12.14.63,24.28,1.05,36.41C361.32,539.81,361.41,548.5,361.48,557.22Z" transform="translate(-34.32 -214.24)"/><path class="cls-8" d="M467.63,494.58c.18,21.07.08,42.15.06,63.22,0,12.67-.28,25.31-.5,38-.11,6.18-.06,12.36-.22,18.54-.06,2.58-.14,5.16-.15,7.75a6.88,6.88,0,0,1,1.84-.42c1.4-8.35,2.1-16.94,3.33-25.33.89-6.05,1.8-12.09,2.67-18.15.86-7,1.77-13.89,2.64-20.82a.43.43,0,0,1,.06-.17c1.39-12.41,2.89-24.79,4.15-37.22.63-6.16,1.13-12.35,2-18.47.24-1.74.48-3.48.68-5.24A149.59,149.59,0,0,0,467.63,494.58Z" transform="translate(-34.32 -214.24)"/><path class="cls-8" d="M441.45,529.91c-.28,8-.65,16-1,24a177.79,177.79,0,0,0-.06,20.77c2.82-17.78,6.17-35.47,10.12-52.86,2.08-9.18,4.25-18.35,6.17-27.59l-6.79-.22-6.8-.22C442.65,505.8,441.88,517.84,441.45,529.91Z" transform="translate(-34.32 -214.24)"/><path class="cls-8" d="M423.58,572c.42-2.83.67-5.7,1-8.58.51-4.76,1.18-9.48,1.79-14.21q1.85-14.4,3.7-28.81c1.15-9,2.39-17.9,3.53-26.87l-7-.11C426.21,519.64,425.05,545.84,423.58,572Z" transform="translate(-34.32 -214.24)"/><path class="cls-8" d="M519.2,555.88c-.09,11.62-.19,23.22-.13,34.84,0,8.39-.44,16.8-.52,25.19a18.2,18.2,0,0,0,.1-2.12c0-.55.63-.55.64,0,0,0,0,0,0,0,2.64-21.15,6-42.14,8.56-63.29,1.57-12.72,2.77-25.49,3.76-38.33q.14-1.82.34-3.62c-2.95.86-5.51,3.55-8.75,2.33-1.39-.53-2.76-1.11-4.12-1.71C518.72,524.75,519.33,540.35,519.2,555.88Z" transform="translate(-34.32 -214.24)"/><path class="cls-8" d="M539.21,604.86q.78-10.61,1.59-21.21c1.78-23.13,4.34-46.14,5.91-69.29-1.12-.42-3.82-2-6.48-3.42-3.5,33-5.54,66.25-8.34,99.37A14.91,14.91,0,0,0,539.21,604.86Z" transform="translate(-34.32 -214.24)"/><path class="cls-8" d="M508.49,504.12c-2.9-1.4-5.83-2.75-8.81-3.87-.85,17.16-1,34.37-1.06,51.56C501.4,535.75,505.57,520.12,508.49,504.12Z" transform="translate(-34.32 -214.24)"/><path class="cls-8" d="M469.87,619.91a7.5,7.5,0,0,0,1.12.86c.24-8,.81-16,1.58-24-1.11,7.66-1.8,15.47-3,23.12A.22.22,0,0,1,469.87,619.91Z" transform="translate(-34.32 -214.24)"/><path class="cls-8" d="M405.85,621.18a8,8,0,0,0,2-1.6,6.3,6.3,0,0,0,.55-1.78.31.31,0,0,1,.44-.27c.5-5.28.82-10.6,1.23-15.89.35-4.61,1-9.17,1.53-13.74.84-7,1.56-14,2.26-21,2.44-24.49,4.49-49,6.83-73.55q-7.68-.08-15.36-.1c.61,23.15.09,46.32-.11,69.47-.12,14.11.3,28.22.39,42.34C405.62,610.43,405.73,615.8,405.85,621.18Z" transform="translate(-34.32 -214.24)"/><path class="cls-8" d="M351.89,620.93c3.24-41.65.48-83.78,1.65-125.62a32.09,32.09,0,0,1-9.59-.35c-.85-.18-1.94,1.39-.68,1.67.58.13,1.15.23,1.73.32-1.39.13-2.78.29-4.17.47.85,9.35,1.32,18.76,2.2,28.11,1.28,13.75,2.1,27.59,3,41.41,1.18,19.11,2.47,38.25,3.25,57.41,1.21-.33,2.21-1,2.52-3.09a.42.42,0,0,1,.11-.21A.83.83,0,0,1,351.89,620.93Z" transform="translate(-34.32 -214.24)"/></g><path class="cls-9" d="M102.17,621.07c0,.27,0,.53,0,.8l.09.1c-.32-13.22-1.57-26.46-2.78-39.56q-2-21.6-4.72-43c-.07-.56-.68,0-.64.37,1.38,13.89,2.8,27.78,4,41.69,1.16,13,1.87,26.12,3,39.15.23,0,.46,0,.69.05A.4.4,0,0,1,102.17,621.07Z" transform="translate(-34.32 -214.24)"/><path class="cls-9" d="M166.05,518.63c-.09-.6-.75,0-.69.4,4.37,34.37,6,69.08,9,103.65.18,0,.35.14.36.41.07,1.34.18,2.67.28,4l.84.37s0-.05,0-.07C174,591,171.17,554.41,166.05,518.63Z" transform="translate(-34.32 -214.24)"/><path class="cls-9" d="M233.31,624.75a.46.46,0,0,1,.15.36c0,.52,0,1,0,1.55a8.77,8.77,0,0,0,1,.3c-.13-13.48-1-26.93-1.59-40.39-.55-13.07-.67-26.17-1.18-39.24,0-.89-1-.07-1,.6.41,13.15.44,26.3.85,39.44C231.92,599.84,232.66,612.29,233.31,624.75Z" transform="translate(-34.32 -214.24)"/><path class="cls-9" d="M292.74,622.82c.25.12.5.23.76.34.45-25.85-1.09-51.67.22-77.53,0-.71-.87-.15-.9.39-1.39,25.47-1,51.28-.27,76.81A.2.2,0,0,1,292.74,622.82Z" transform="translate(-34.32 -214.24)"/><path class="cls-9" d="M352.17,620.66c1.11-16,1.56-32.15,2.13-48.22.62-17.94.69-36.14,2.27-54,.06-.71-.67-.31-.72.19-1.64,16.9-1.82,34.09-2.6,51.08-.82,17.9-1.41,35.81-2.38,53.7a4,4,0,0,0,.9-2.17.42.42,0,0,1,.11-.22C351.89,620.84,352,620.66,352.17,620.66Z" transform="translate(-34.32 -214.24)"/><path class="cls-9" d="M408.39,617.8c0-.29.29-.38.46-.26l.16.09c1.65-15.86,2.69-31.84,4.3-47.71,1.78-17.52,3.79-35,5.07-52.61,0-.65-.61-.28-.65.17-1.44,17.65-3.66,35.16-5.53,52.73-1.75,16.42-3.18,32.93-4.42,49.43l.06-.06A6.28,6.28,0,0,0,408.39,617.8Z" transform="translate(-34.32 -214.24)"/><path class="cls-9" d="M469.07,621.55c.09-.37.18-.74.27-1.12,1.41-14.73,2.93-29.43,4.34-44.16,1.45-15.13,4.29-29.92,5.31-45.15,0-.69-.66-.3-.7.18-2.52,30.19-9.21,59.89-10,90.38a3.81,3.81,0,0,1,.71,0A.38.38,0,0,1,469.07,621.55Z" transform="translate(-34.32 -214.24)"/><path class="cls-9" d="M523.11,517c-.22,8.57-1.37,17.17-1.94,25.7-.6,9-1.37,17.94-1.91,26.93-.95,16-1.89,32.13-1.78,48.21.27-.35.62-.84.9-1.27.65-17.1,1.26-34.18,2.28-51.25.5-8.29,1.12-16.55,1.62-24.84.46-7.91,1.35-15.93,1.4-23.88C523.68,516,523.12,516.55,523.11,517Z" transform="translate(-34.32 -214.24)"/><path class="cls-10" d="M560.09,514.32c-79.58-32-146-94.69-235.18-100.52-44.4-2.91-88.94,6.74-128.61,26.46-28.72,14.29-55.05,33.24-78.57,54.85C91.84,518.91,72.23,549,45.07,571.33,41.58,574.21,38,577,34.32,579.7a74.06,74.06,0,0,1,7.51-2.92c1.28-.44,2.55-.86,3.85-1.27-.48.62-.93,1.24-1.35,1.83a29.37,29.37,0,0,0-5.19,11.78.47.47,0,0,0,.06.34l-.11.14a.57.57,0,0,0,.89.68,37.65,37.65,0,0,1,13-8.66,14.27,14.27,0,0,0-2.6,5.54,7.83,7.83,0,0,0-.4,2.07c0,.52.71.56.87.12,1.35-3.79,4.44-6.39,7.9-8.4-.77,1.31-1.51,2.66-2.32,4a.41.41,0,0,0,.05.54,7.73,7.73,0,0,0-.53.93.47.47,0,0,0,.74.57,29.81,29.81,0,0,1,10.14-6.27c-.18.3-.38.6-.56.88a30.71,30.71,0,0,1-8,8.74.4.4,0,0,0-.19.37,3.38,3.38,0,0,0-.43.33c-.47.37.12,1,.6.78,3.09-1.53,6.26-2.52,9.23-4.17A19.69,19.69,0,0,1,65.23,591a.51.51,0,0,0,.46.86.4.4,0,0,0,.51,0c3.16-2.4,6.46-4.54,9.84-6.63l.63-.39-.26.52c-1.48,3.13-3.21,6.77-3.07,10.31a7.42,7.42,0,0,0-.28,1.28c-.05.44.58.52.8.2a23,23,0,0,1,5.68-6.57,41.21,41.21,0,0,1,7.87-4.28c1.6-.7,3.33-1.33,5.06-2-1.77,1.64-3.35,3.5-5,5.26-.37.39.12,1.11.6.77,2-1.45,4.53-2,6.8-3a33.42,33.42,0,0,1-9.31,6.84c-.54.26-.15,1.17.42,1,5-1.8,10.16-3.72,14.71-6.52-3.75,6-3.46,15-2.6,21.47a.59.59,0,0,0,1.16.15c4-9.8,13.7-14.85,22.83-19.34-1.47,1.86-3.31,3.44-4.79,5.32a0,0,0,0,1,0,0l-.1.12c-.46.59.46,1.12,1,.73,2-1.55,4-3.06,5.83-4.79a19.13,19.13,0,0,1-.9,4.95.58.58,0,0,0,1,.56c3.84-3.87,8.81-6.24,12.26-10.4-1.42,7-6,12.55-12,16.59-.41.28-.32,1.12.29,1.05,6.52-.82,12.47-3.95,17.64-7.86a43.55,43.55,0,0,0,7.61-7.26,18,18,0,0,0,1.27,8.19c.17.39.76.24.85-.11a14.7,14.7,0,0,1,2.72-5.09,14.42,14.42,0,0,0,2.89,5.81.52.52,0,0,0,.86-.22,18.38,18.38,0,0,1,1.62-5.09c2.55,6.93,9.77,8.76,15.4,13,.33.27.78-.1.79-.45.18-3.84,2.62-7.33,2.94-11.09a24.21,24.21,0,0,0,1.78,3.28.51.51,0,0,0,.94-.25,25.83,25.83,0,0,0-.28-3,10.34,10.34,0,0,0,4.33,2.72.5.5,0,0,0,.57-.73,6.64,6.64,0,0,1-.73-2.85,25.13,25.13,0,0,0,4,3.29.52.52,0,0,0,.76-.57,4.52,4.52,0,0,1-.18-2.59c3.22,2.66,7.27,5.06,9.12,8.84.21.42.81.26.94-.12,1.38-3.91,4.5-7.1,4.52-11.15,2.05,2.25,5.35,3.64,7.08,6.17.28.42,1.15.32,1.08-.29-.22-1.82-.5-3.63-.66-5.44,2.87,2.89,6.74,4.56,10.54,6a.57.57,0,0,0,.71-.7c-.42-1.36-.72-2.76-1-4.14a15,15,0,0,0,4.87,4c.39.18,1-.12.83-.63-.47-1.17-1-2.35-1.39-3.53,8.24,6.53,20.37.34,29.7,4.68.49.23,1.19-.29.82-.81a29.45,29.45,0,0,0-3.88-4.65,39.13,39.13,0,0,1,6.78,3.23c.51.33,1-.29.77-.76a20.17,20.17,0,0,0-1.48-2.53c2.95.63,6.15,1.09,8.63,2.79.46.32,1-.3.77-.75a33.57,33.57,0,0,0-2-2.83,30.78,30.78,0,0,0,8.67.11c8-.65,15.82-.48,23.37,2.59.61.25.88-.58.57-1a34.73,34.73,0,0,0-5.85-6c7.51.78,16.27.4,21.58,5.81.49.51,1.2-.13.92-.71-1.69-3.54-3.63-7.39-6.72-9.89,4.63.4,9.25.76,12.71,4.26a.6.6,0,0,0,.94-.72c-1.13-2.31-2.94-5.45-5.34-7.15,6.81.51,13.51,3.82,19.6,6.49.42.17,1.06-.13.87-.66a19.28,19.28,0,0,0-12.39-12,30.42,30.42,0,0,1,14,2.69c.49.23,1.16-.27.81-.8a18.23,18.23,0,0,0-5.22-5.12A26.81,26.81,0,0,0,349,566.83a.54.54,0,0,0-.28-1c-5.87.66-10-2.64-13.17-6.9a53.35,53.35,0,0,1,8.22,4c.55.34,1-.48.49-.84-2-1.43-2.64-4.15-2.67-6.79a20.59,20.59,0,0,0,8.78,4.65c4.17,1.2,9.94.69,13,4.19.49.57,1.3-.25.82-.82-3.12-3.75-6.47-8-10.81-10.13a37.91,37.91,0,0,0,7.62-.91c4.53-1,8.56-3.14,12.75.13.57.45,1.38-.28.82-.82s-1.35-1.25-2.11-1.85l1.21,0a17.51,17.51,0,0,1,10.09,3.49c.44.32,1.08-.3.76-.74a20.09,20.09,0,0,0-3.39-3.62c4.09.68,8.26-.06,12.4-.69,3-.45,8-1.68,11.08-.13.49.42,1,.82,1.5,1.21l.12.1c.57.42,1.09-.45.71-.92a5.1,5.1,0,0,0-1.76-1.4c-2.85-2.43-5.59-5.26-9.11-6.58a30.59,30.59,0,0,0-7.2-1.68c3.62-.81,7.21-1.91,10.84-.85.51.15,1-.6.56-1a27.07,27.07,0,0,0-7.06-4c3-.09,5.94-.44,8.9-.69,8.47-.68,15.8,2.49,22.89,6.84a.61.61,0,0,0,.74-.95,64.09,64.09,0,0,0-6.3-6,21.7,21.7,0,0,1,9.19,5.79.55.55,0,0,0,.87-.66c-2.09-3.59-3.9-7.76-6.55-11,4.07,1.43,8.62,2.62,10,7.05A.56.56,0,0,0,434,533a35.47,35.47,0,0,0-1.28-4,11.79,11.79,0,0,1,4.92,6.49.54.54,0,0,0,1.06-.15,18.07,18.07,0,0,0-.73-4.75c1.53,1.13,3.21,2.08,4.36,2.79,4.69,2.93,11.47,6.2,12.27,12.22.09.75,1.23.8,1.23,0a59.38,59.38,0,0,0-1.6-14.56l.93.52c3.49,2,7.88,3.29,10.75,6.14a.58.58,0,0,0,1-.55,30.79,30.79,0,0,0-3.28-7.52c9.72,4.55,20.53,6.66,30.1,11.59.41.2,1.06-.15.86-.66-2-5-4.48-10.1-8.17-14,3.5,1.18,7.54,1.27,10.79,3.1.52.3,1.14-.44.66-.84-1.52-1.23-3-2.68-4.5-4.05,2.63.79,5.24,1.54,7.46,3.32.49.4,1.18-.24.72-.71-1.77-1.78-3.51-3.7-5.35-5.42,8.38,3.14,18.78,3,24.27,10.7a.57.57,0,0,0,1-.58,26.8,26.8,0,0,0-2-3.78,22.38,22.38,0,0,1,5.81,2.73.54.54,0,0,0,.9-.52,13.19,13.19,0,0,0-1.12-2.74,53.11,53.11,0,0,0,7.27,2.48c5.48,1.71,10.34,4.73,15,8,.51.34,1-.31.76-.75-2.2-5-4.31-10.16-8.25-14.12a25.46,25.46,0,0,0-6-4.35c3.41.47,7.37,1.14,9.25,3.45.37.47,1.07-.12.79-.59a21.17,21.17,0,0,0-6.41-6.56c6,1.45,12.44,2.56,16.47,7.42a.53.53,0,0,0,.9-.38,19,19,0,0,0-4.21-10.05,72.18,72.18,0,0,0,9.47,2Z" transform="translate(-34.32 -214.24)"/><path class="cls-11" d="M560.09,514.32c-7-2.8-13.84-5.85-20.64-9.07,0,.18-.15.35-.31.36a87.29,87.29,0,0,1-19.18-1,77.68,77.68,0,0,0,10,2.74c.39.08.25.81-.08.85-5.71.75-11.44,1.59-17.17,2.05,6.16,3.14,12.19,6.76,18.53,9.2.35.13.29.85-.08.85-6.55,0-13.22-1.28-19.71-2.51-3.43-.65-6.75-2-10.15-2.78a66.38,66.38,0,0,0-7.28-1.23c-3.92-.5-7.87-.9-11.78-1.68a24.07,24.07,0,0,1,4.08,5.39c.2.37-.18.76-.44.59-3.87-2.67-8.24-2.55-12.45-3.16l-4.19-.61a37.75,37.75,0,0,1,5.76,4.32.5.5,0,0,1-.08.79c-.41.18-.83.36-1.25.5-7.73,2.69-16.16,1.74-24,.65-1.68-.23-3.37-.5-5.06-.77a19.06,19.06,0,0,1,4,5.9c.11.3-.09.78-.36.64a36.71,36.71,0,0,0-10.08-3.51c-3.66-.79-7.3-1.74-10.94-2.66q-10.74-2.73-21.44-5.71-5-1.41-10.06-2.89a135.8,135.8,0,0,1,18.59,15.78.47.47,0,0,1-.23.74c-5.08.3-10.1-.77-15.09-1.93a111.71,111.71,0,0,0-12.29-1.75c-1.31-.16-2.64-.33-4-.51a20.74,20.74,0,0,1,2.21,3.55.45.45,0,0,1-.28.64c-7.27.31-14.43,2.47-21.68,3.21-1.55.16-3.14.27-4.74.3A12.39,12.39,0,0,1,364,536.4c.13.24.12.65-.14.72-6.92,1.83-13.87-.79-20.83-.31-4.89.34-9.76,1-14.63,1.67,6.34,2.75,12.64,5.67,18.82,9,.32.17.31.83-.08.85-10.13.3-20.61.41-30.68-2a36.7,36.7,0,0,1,3.39,3.87.5.5,0,0,1-.14.73c-4.7,1.57-10.26.06-14.83-1.6-1.13-.41-2.35-.87-3.58-1.42,4.31,5.32,9.24,9.86,11.89,17.07.12.34-.08.71-.36.63-6.53-1.81-13.1-3.7-19.39-6.74-5.71-2.76-11.51-6.38-15.72-12.43,0,3.38.06,6.75.32,10.12,0,.3-.29.56-.48.37a26,26,0,0,1-5.81-9.84c-1.3,1-2.61,2-3.91,2.92-4.72,3.47-9.41,7.07-14.2,10.36s-9.94,6.6-13.78,12c-.2.27-.56.07-.55-.3a22.82,22.82,0,0,1,3-11.62,63.21,63.21,0,0,0-14,14.52c-.23.32-.6,0-.54-.42A49.8,49.8,0,0,1,232,561.86c-1.79,1.56-3.58,3.11-5.38,4.63-4.42,3.72-9.4,7.67-14.77,7.8-.2,0-.37-.28-.31-.54,1.58-7,4.32-14.43,8.27-19.82a84.37,84.37,0,0,0-14.45,15c-.22.29-.64,0-.54-.41a66.41,66.41,0,0,1,2.83-8.67,95.5,95.5,0,0,0-16.37,20.32c-.21.35-.61,0-.54-.42a107.1,107.1,0,0,1,4.9-19.22C187.87,567,179.78,572.72,172,579c-.26.21-.61-.23-.43-.59a59.16,59.16,0,0,1,6.3-10.82c-5.49,4.2-10.44,9.44-15.39,14.79-.2.22-.56.11-.55-.3a50,50,0,0,1,3.69-16.49,160.84,160.84,0,0,1-23.38,19c-.27.18-.6-.2-.44-.59,2.32-5.32,4.57-10.69,6.84-16q-6.77,3.39-13.45,7.13c-9.07,5.12-17.47,11.76-26.24,17.71-.3.21-.55-.21-.44-.59a50.15,50.15,0,0,1,10.2-18.09c-4.81,2.63-9.86,5-15,5.35-.24,0-.4-.37-.28-.64a59.07,59.07,0,0,1,6.47-11.23c-3,1.36-6,2.76-9,4.23-6.28,3.06-12.07,7.73-18.51,10.22-.32.13-.51-.42-.31-.72a49.55,49.55,0,0,1,6.46-7.65,36.73,36.73,0,0,1-13.59,1c-.33,0-.42-.54-.16-.81,3.21-3.2,6.47-6.32,9.72-9.44-2.64,1.52-5.26,3.1-7.89,4.67-3.93,2.35-8.16,4.58-12.54,3.86a.47.47,0,0,1-.23-.74c.76-1,1.53-2,2.31-3a75,75,0,0,1-14.24,3.28c-.24,0-.41-.39-.28-.65,2.07-4.18,4.26-8.26,6.48-12.3-4.16,4.07-8.45,8-13,11.72C41.58,574.21,38,577,34.32,579.7a74.06,74.06,0,0,1,7.51-2.92c1.28-.44,2.55-.86,3.85-1.27-.48.62-.93,1.24-1.35,1.83a29.37,29.37,0,0,0-5.19,11.78.47.47,0,0,0,.06.34l-.11.14a.57.57,0,0,0,.89.68,37.65,37.65,0,0,1,13-8.66,14.27,14.27,0,0,0-2.6,5.54,7.83,7.83,0,0,0-.4,2.07c0,.52.71.56.87.12,1.35-3.79,4.44-6.39,7.9-8.4-.77,1.31-1.51,2.66-2.32,4a.41.41,0,0,0,.05.54,7.73,7.73,0,0,0-.53.93.47.47,0,0,0,.74.57,29.81,29.81,0,0,1,10.14-6.27c-.18.3-.38.6-.56.88a30.71,30.71,0,0,1-8,8.74.4.4,0,0,0-.19.37,3.38,3.38,0,0,0-.43.33c-.47.37.12,1,.6.78,3.09-1.53,6.26-2.52,9.23-4.17A19.69,19.69,0,0,1,65.23,591a.51.51,0,0,0,.46.86.4.4,0,0,0,.51,0c3.16-2.4,6.46-4.54,9.84-6.63l.63-.39-.26.52c-1.48,3.13-3.21,6.77-3.07,10.31a7.42,7.42,0,0,0-.28,1.28c-.05.44.58.52.8.2a23,23,0,0,1,5.68-6.57,41.21,41.21,0,0,1,7.87-4.28c1.6-.7,3.33-1.33,5.06-2-1.77,1.64-3.35,3.5-5,5.26-.37.39.12,1.11.6.77,2-1.45,4.53-2,6.8-3a33.42,33.42,0,0,1-9.31,6.84c-.54.26-.15,1.17.42,1,5-1.8,10.16-3.72,14.71-6.52-3.75,6-3.46,15-2.6,21.47a.59.59,0,0,0,1.16.15c4-9.8,13.7-14.85,22.83-19.34-1.47,1.86-3.31,3.44-4.79,5.32a0,0,0,0,1,0,0l-.1.12c-.46.59.46,1.12,1,.73,2-1.55,4-3.06,5.83-4.79a19.13,19.13,0,0,1-.9,4.95.58.58,0,0,0,1,.56c3.84-3.87,8.81-6.24,12.26-10.4-1.42,7-6,12.55-12,16.59-.41.28-.32,1.12.29,1.05,6.52-.82,12.47-3.95,17.64-7.86a43.55,43.55,0,0,0,7.61-7.26,18,18,0,0,0,1.27,8.19c.17.39.76.24.85-.11a14.7,14.7,0,0,1,2.72-5.09,14.42,14.42,0,0,0,2.89,5.81.52.52,0,0,0,.86-.22,18.38,18.38,0,0,1,1.62-5.09c2.55,6.93,9.77,8.76,15.4,13,.33.27.78-.1.79-.45.18-3.84,2.62-7.33,2.94-11.09a24.21,24.21,0,0,0,1.78,3.28.51.51,0,0,0,.94-.25,25.83,25.83,0,0,0-.28-3,10.34,10.34,0,0,0,4.33,2.72.5.5,0,0,0,.57-.73,6.64,6.64,0,0,1-.73-2.85,25.13,25.13,0,0,0,4,3.29.52.52,0,0,0,.76-.57,4.52,4.52,0,0,1-.18-2.59c3.22,2.66,7.27,5.06,9.12,8.84.21.42.81.26.94-.12,1.38-3.91,4.5-7.1,4.52-11.15,2.05,2.25,5.35,3.64,7.08,6.17.28.42,1.15.32,1.08-.29-.22-1.82-.5-3.63-.66-5.44,2.87,2.89,6.74,4.56,10.54,6a.57.57,0,0,0,.71-.7c-.42-1.36-.72-2.76-1-4.14a15,15,0,0,0,4.87,4c.39.18,1-.12.83-.63-.47-1.17-1-2.35-1.39-3.53,8.24,6.53,20.37.34,29.7,4.68.49.23,1.19-.29.82-.81a29.45,29.45,0,0,0-3.88-4.65,39.13,39.13,0,0,1,6.78,3.23c.51.33,1-.29.77-.76a20.17,20.17,0,0,0-1.48-2.53c2.95.63,6.15,1.09,8.63,2.79.46.32,1-.3.77-.75a33.57,33.57,0,0,0-2-2.83,30.78,30.78,0,0,0,8.67.11c8-.65,15.82-.48,23.37,2.59.61.25.88-.58.57-1a34.73,34.73,0,0,0-5.85-6c7.51.78,16.27.4,21.58,5.81.49.51,1.2-.13.92-.71-1.69-3.54-3.63-7.39-6.72-9.89,4.63.4,9.25.76,12.71,4.26a.6.6,0,0,0,.94-.72c-1.13-2.31-2.94-5.45-5.34-7.15,6.81.51,13.51,3.82,19.6,6.49.42.17,1.06-.13.87-.66a19.28,19.28,0,0,0-12.39-12,30.42,30.42,0,0,1,14,2.69c.49.23,1.16-.27.81-.8a18.23,18.23,0,0,0-5.22-5.12A26.81,26.81,0,0,0,349,566.83a.54.54,0,0,0-.28-1c-5.87.66-10-2.64-13.17-6.9a53.35,53.35,0,0,1,8.22,4c.55.34,1-.48.49-.84-2-1.43-2.64-4.15-2.67-6.79a20.59,20.59,0,0,0,8.78,4.65c4.17,1.2,9.94.69,13,4.19.49.57,1.3-.25.82-.82-3.12-3.75-6.47-8-10.81-10.13a37.91,37.91,0,0,0,7.62-.91c4.53-1,8.56-3.14,12.75.13.57.45,1.38-.28.82-.82s-1.35-1.25-2.11-1.85l1.21,0a17.51,17.51,0,0,1,10.09,3.49c.44.32,1.08-.3.76-.74a20.09,20.09,0,0,0-3.39-3.62c4.09.68,8.26-.06,12.4-.69,3-.45,8-1.68,11.08-.13.49.42,1,.82,1.5,1.21l.12.1c.57.42,1.09-.45.71-.92a5.1,5.1,0,0,0-1.76-1.4c-2.85-2.43-5.59-5.26-9.11-6.58a30.59,30.59,0,0,0-7.2-1.68c3.62-.81,7.21-1.91,10.84-.85.51.15,1-.6.56-1a27.07,27.07,0,0,0-7.06-4c3-.09,5.94-.44,8.9-.69,8.47-.68,15.8,2.49,22.89,6.84a.61.61,0,0,0,.74-.95,64.09,64.09,0,0,0-6.3-6,21.7,21.7,0,0,1,9.19,5.79.55.55,0,0,0,.87-.66c-2.09-3.59-3.9-7.76-6.55-11,4.07,1.43,8.62,2.62,10,7.05A.56.56,0,0,0,434,533a35.47,35.47,0,0,0-1.28-4,11.79,11.79,0,0,1,4.92,6.49.54.54,0,0,0,1.06-.15,18.07,18.07,0,0,0-.73-4.75c1.53,1.13,3.21,2.08,4.36,2.79,4.69,2.93,11.47,6.2,12.27,12.22.09.75,1.23.8,1.23,0a59.38,59.38,0,0,0-1.6-14.56l.93.52c3.49,2,7.88,3.29,10.75,6.14a.58.58,0,0,0,1-.55,30.79,30.79,0,0,0-3.28-7.52c9.72,4.55,20.53,6.66,30.1,11.59.41.2,1.06-.15.86-.66-2-5-4.48-10.1-8.17-14,3.5,1.18,7.54,1.27,10.79,3.1.52.3,1.14-.44.66-.84-1.52-1.23-3-2.68-4.5-4.05,2.63.79,5.24,1.54,7.46,3.32.49.4,1.18-.24.72-.71-1.77-1.78-3.51-3.7-5.35-5.42,8.38,3.14,18.78,3,24.27,10.7a.57.57,0,0,0,1-.58,26.8,26.8,0,0,0-2-3.78,22.38,22.38,0,0,1,5.81,2.73.54.54,0,0,0,.9-.52,13.19,13.19,0,0,0-1.12-2.74,53.11,53.11,0,0,0,7.27,2.48c5.48,1.71,10.34,4.73,15,8,.51.34,1-.31.76-.75-2.2-5-4.31-10.16-8.25-14.12a25.46,25.46,0,0,0-6-4.35c3.41.47,7.37,1.14,9.25,3.45.37.47,1.07-.12.79-.59a21.17,21.17,0,0,0-6.41-6.56c6,1.45,12.44,2.56,16.47,7.42a.53.53,0,0,0,.9-.38,19,19,0,0,0-4.21-10.05,72.18,72.18,0,0,0,9.47,2Z" transform="translate(-34.32 -214.24)"/><g class="cls-12"><path class="cls-13" d="M64.94,557.87s13.44-11.66,34.56-38.44,96.95-90.71,171.18-100.21c0,0,86.39-14.68,62.07,14.68C312.69,458.14,47,591.13,64.94,557.87Z" transform="translate(-34.32 -214.24)"/></g><path class="cls-14" d="M431.76,584.48c-1.28-3.11-4-1.29-5.46.46-2.15,2.51-3.13,6.41-3.77,10-.55,3.13-1,7.85.64,10.52l0,.12a1.61,1.61,0,0,0,2,1.2C431.18,605.92,434.35,590.76,431.76,584.48Z" transform="translate(-34.32 -214.24)"/><path class="cls-14" d="M441,574.19a2,2,0,0,0-1.65,1.56c-.22.67-.14,1.78.57,1.78A2,2,0,0,0,441.6,576C441.82,575.3,441.74,574.19,441,574.19Z" transform="translate(-34.32 -214.24)"/><path class="cls-14" d="M446.77,603.41c-.4-2.55-2.59-.62-3.1.81a15,15,0,0,0-.48,2.95,10.26,10.26,0,0,1-.53,2h0a1.87,1.87,0,0,0,.09,1.65c.45.61,1.11.21,1.57-.13a6.37,6.37,0,0,0,1.81-3.19A10.94,10.94,0,0,0,446.77,603.41Z" transform="translate(-34.32 -214.24)"/><path class="cls-14" d="M493.3,581.21c-1.44-5.32-5.47-2.31-7.06,1.16a48.76,48.76,0,0,0-3.31,12.94c0,.24-.09.48-.14.71-.57,3-1.82,9.51.5,11.81,3.5,3.44,6.92-4.35,7.82-7.77.75-2.82.9-5.78,1.51-8.62S494.13,584.27,493.3,581.21Z" transform="translate(-34.32 -214.24)"/><g class="cls-15"><path class="cls-16" d="M510.9,565.69l-.17-.35a1,1,0,0,0-.31-.31l-.07,0c.17,0,.1,0,0,0a.66.66,0,0,0-.4,0c-.67,0-1.33.75-1.69,1.43a4.41,4.41,0,0,0-.41,1.25c-.22,1.11.47,1.89,1.25,1.69a3.13,3.13,0,0,0,1.89-3c0-.06,0-.13,0-.22Z" transform="translate(-34.32 -214.24)"/><path class="cls-16" d="M510.73,565.34l.15.31A2.44,2.44,0,0,0,510.73,565.34Z" transform="translate(-34.32 -214.24)"/><path class="cls-16" d="M511,566.3v.05C510.94,566.78,510.94,566.76,511,566.3Z" transform="translate(-34.32 -214.24)"/><path class="cls-16" d="M510.73,565.34Z" transform="translate(-34.32 -214.24)"/></g><path class="cls-14" d="M528.85,584.42l-.1-.11c-.07-.08-.07,0-.06,0l0-.07c-.5-1-1.52-.08-1.79.77a1,1,0,0,0-.05.15l-.05.12a3.51,3.51,0,0,0-.4,1.22c-.09,1,.34,1.7,1.11,1.5a2.76,2.76,0,0,0,1.67-2.69A1.45,1.45,0,0,0,528.85,584.42Z" transform="translate(-34.32 -214.24)"/><path class="cls-14" d="M536,552.7l-.12,0c0-.2,0-.4-.07-.61-.15-1.38-1.54-.2-1.63.69,0,.22,0,.45-.07.67a3.46,3.46,0,0,1-.08.67,1.43,1.43,0,0,0,0,.14,2.42,2.42,0,0,0-.16,1.14.93.93,0,0,0,.44.9c.64.31,1.44-.32,1.77-1.06.07-.17.17-.38.22-.53a4.29,4.29,0,0,0,.12-.53c0-.51,0-.57,0-.19A1.21,1.21,0,0,0,536,552.7Z" transform="translate(-34.32 -214.24)"/><path class="cls-14" d="M377.1,588.86c-.87-1-2.06-.6-2.91.24-2.19,2.16-3.15,5.73-3.35,9.28a19.07,19.07,0,0,0,.23,4.55,13.44,13.44,0,0,0,.84,4.51c.8,1.94,2.38,2.15,3.71,1,1.56-1.4,2.2-3.67,2.68-6C379.08,598.52,379.7,591.71,377.1,588.86Z" transform="translate(-34.32 -214.24)"/><path class="cls-14" d="M396.25,570.58a2.6,2.6,0,0,0-1.15,2.2v.41a.82.82,0,0,0,1.29.77,2.59,2.59,0,0,0,1.15-2.2v-.4A.82.82,0,0,0,396.25,570.58Z" transform="translate(-34.32 -214.24)"/><path class="cls-14" d="M338.94,598.26a1.71,1.71,0,0,0-2.72-.91,6.28,6.28,0,0,0-.88.66,2.14,2.14,0,0,0-.4.25,3.81,3.81,0,0,0-1.07,1.58,5.6,5.6,0,0,0-.79,4c-.06.7-.1,1.37-.14,1.94-.15,2.34-.5,6.52,1,8.25,2.67,3.06,5.37-3,5.73-5.93A23.86,23.86,0,0,0,338.94,598.26Z" transform="translate(-34.32 -214.24)"/><path class="cls-14" d="M305.77,610a2.22,2.22,0,0,0,.1-1.2.71.71,0,0,0-.6-.55h0c0-.38-.18-.71-.48-.73s-.82.35-1,.78a6.5,6.5,0,0,0-.56,2.81,1,1,0,0,0,.42.84c.41.24.82,0,1.17-.31a2.82,2.82,0,0,0,.52-.56,3.07,3.07,0,0,0,.45-.87c0,.06.31-1,0-.23Z" transform="translate(-34.32 -214.24)"/><path class="cls-14" d="M315.81,601.05c-.39-.52-.95-.19-1.34.11l-.21.15c-.57.43-1.23,1.9-.64,2.69a.81.81,0,0,0,1.12.12,2.79,2.79,0,0,0,1.05-1.42l.1-.25A1.6,1.6,0,0,0,315.81,601.05Z" transform="translate(-34.32 -214.24)"/><path class="cls-14" d="M243.51,603.63c-.72-1.16-2.12,0-2.71.72-1.77,2.18-2.37,5.64-2.06,8.9,0,3.39.64,6.86,1.87,7.67s2.64-.77,3.31-1.93a10.79,10.79,0,0,0,1.16-4.88C245.25,610.89,245.12,606.25,243.51,603.63Z" transform="translate(-34.32 -214.24)"/><path class="cls-14" d="M252.18,612.09c-1.08,0-2.37,3-1,3C252.3,615.09,253.59,612.09,252.18,612.09Z" transform="translate(-34.32 -214.24)"/><path class="cls-14" d="M282.17,605.51c-.16-2.87-1.13-8.16-4.08-7.38-2.78.74-3.84,4.39-4.1,7.78a15,15,0,0,0-.41,3.28,27.29,27.29,0,0,0,1.33,9.27c1.37,3.48,4.66.87,5.76-1.63C282.14,613.5,282.39,609.31,282.17,605.51Z" transform="translate(-34.32 -214.24)"/><path class="cls-14" d="M183,609.16c-.62-1.48-1.94-.67-2.65.22a9.45,9.45,0,0,0-1.13,8.06,12,12,0,0,0,.71,3.5,1,1,0,0,0,1.5.5C184.51,619.25,184.55,612.9,183,609.16Z" transform="translate(-34.32 -214.24)"/><path class="cls-14" d="M187.52,619.64a1,1,0,0,0-.31-.1,1.14,1.14,0,0,0-.32,0,1.1,1.1,0,0,0-.32.14,3,3,0,0,0-1.26,2,1.35,1.35,0,0,0,.44,1.37,1.15,1.15,0,0,0,1.31-.34A3,3,0,0,0,188,621C188,620.55,187.95,619.78,187.52,619.64Z" transform="translate(-34.32 -214.24)"/><path class="cls-14" d="M216.85,604.75c-1.66-2.68-4.59-.7-5.78,1.7a18.47,18.47,0,0,0-1.43,8.87,17,17,0,0,0,1.14,6.93c.57,1.34,1.4,1.76,2.27,1.64a3.29,3.29,0,0,0,2.66-1.58,8.17,8.17,0,0,0,1.55-3.29,23.35,23.35,0,0,0,.84-5.79C218.21,610.59,218.18,606.89,216.85,604.75Z" transform="translate(-34.32 -214.24)"/><path class="cls-14" d="M154.72,613a2.86,2.86,0,0,0-1.73,2,3.26,3.26,0,0,0-.26,1,1.86,1.86,0,0,0,.23,1.3.85.85,0,0,0,1,.31,2.7,2.7,0,0,0,1.61-1.71l0,0a3.63,3.63,0,0,0,.38-1.22C156.06,613.57,155.54,612.79,154.72,613Z" transform="translate(-34.32 -214.24)"/><path class="cls-14" d="M118.15,611.15c-.29-2.64-1-8.56-3.52-9-3.42-.52-4.51,5-4.15,8.52-.38,3.11.53,7.74,3,8.83,1.62.72,3.18-1,4-2.75A10,10,0,0,0,118.15,611.15Z" transform="translate(-34.32 -214.24)"/><path class="cls-14" d="M121.31,615.8c0-.64-.25-1.08-1-.78l-.14.05A1.46,1.46,0,0,0,119,616a2.26,2.26,0,0,0-.29,1.59c.06.81.46,1.39,1.17,1a2.12,2.12,0,0,0,1-1.13l.08-.15A3.09,3.09,0,0,0,121.31,615.8Z" transform="translate(-34.32 -214.24)"/><path class="cls-14" d="M142.51,615.93c-1,0-2.22,2.81-.91,2.81C142.62,618.73,143.82,615.93,142.51,615.93Z" transform="translate(-34.32 -214.24)"/><path class="cls-14" d="M59.27,593.51c-.63-1.58-2.1-.29-2.65.7-.93,1.67-1.87,7.8,0,8.88A3.44,3.44,0,0,0,58.1,605c.71.39,1.56-.55,1.81-1.39A16.47,16.47,0,0,0,59.27,593.51Z" transform="translate(-34.32 -214.24)"/><path class="cls-14" d="M65.12,605.73c-1.1,0-2.42,3.05-1,3.05C65.23,608.78,66.54,605.73,65.12,605.73Z" transform="translate(-34.32 -214.24)"/><path class="cls-14" d="M89.09,597.26c-1-1.79-3,.94-3.42,2a9.08,9.08,0,0,0-.64,2.94c-.75,4.14.14,9.58,2.15,12a1,1,0,0,0,1.44.16C92.83,611.39,91.54,601.54,89.09,597.26Z" transform="translate(-34.32 -214.24)"/><ellipse class="cls-17" cx="274.91" cy="282.75" rx="176.93" ry="22.75"/><path class="cls-18" d="M212.35,497h-23A44,44,0,0,1,162.45,488c-4.79-3.7-8.19-7.91-5.41-11.34,6.47-8,18.23-1.36,18.23-1.36s-5.25-23.54,4.43-24.11,17.76,15.68,17.76,15.68,5.38-16.24,14.89-12.33S212.35,497,212.35,497Z" transform="translate(-34.32 -214.24)"/><path class="cls-18" d="M412.61,497h23A44,44,0,0,0,462.51,488c4.79-3.7,8.19-7.91,5.41-11.34-6.47-8-18.23-1.36-18.23-1.36s5.25-23.54-4.43-24.11-17.76,15.68-17.76,15.68-5.38-16.24-14.89-12.33S412.61,497,412.61,497Z" transform="translate(-34.32 -214.24)"/><polygon class="cls-19" points="294.1 0.78 384.59 137.01 451.84 137.01 360.84 0 294.1 0.78"/><polygon class="cls-20" points="419.21 137.01 390.34 282.75 153 282.75 124.13 137.01 204.44 16.09 338.89 16.09 339.35 16.78 419.21 137.01"/><polygon class="cls-21" points="419.21 137.01 390.34 282.75 288.36 282.75 259.49 137.01 339.35 16.78 419.21 137.01"/><g class="cls-22"><path class="cls-23" d="M453.23,348.79l-12.55,12.55-15.13-15.17L440.68,331l6.11,6.09-15.85-23.86-5.4-5.42,1.08-1.08L423.43,302l-1.91,1.91-15.13-15.17,4.94-5-3.19-4.8-5.78,5.78-16.59-16.59L394.9,259l-3.19-4.8-9.92,9.9L366.62,249l13-13-3.19-4.82-13.78,13.78-14.42-14.4h-9.5l-14.4,14.4-14.42-14.4h-9.5L286,244.94l-14.4-14.4h-9.5l-14.42,14.4-12.78-12.78L231.7,237l12,12-15.15,15.13-8.92-8.9-3.19,4.8,8.11,8.12L212.6,280l-5.72-5.72-3.21,4.82,4.9,4.9-15.13,15.15-1.85-1.85-3.21,4.82,1,1-5.12,5.14L168.43,332.2l5.85-5.85,15.13,15.17-15.13,15.13L161,343.39l-2.57,3.86.4,2,11.43,11.45-7.65,7.65,1.31,6.69,10.36-10.36,15.13,15.17L174.29,395l-8-7.95,2,10,2,2L169,400.31l1.31,6.69,4-4,15.13,15.17-14.14,14.18,2.47,12.45,11.67,11.69-7.81,7.83,1.33,6.65,10.49-10.49L210,477l-15.17,15.17-9.62-9.62,2,10,2.87,2.87h9.5L202,493l12-11.95L226,493l2.45,2.45h9.46l2.45-2.45,12-11.95,12,11.95,2.45,2.45h9.48L278.7,493l11.95-11.95,12,11.95,2.45,2.45h9.5L317,493,329,481.06l12,11.95,2.45,2.45h9.5l2.45-2.45,12-11.95L379.24,493l2.45,2.45h9.5l2.45-2.45,12-11.95L417.56,493h7.09l.16-.84,0,0L409.61,477l11.91-11.91,7.23,7.21,1.31-6.67-4.52-4.54,6.77-6.77,2-10-12.77,12.75L406.39,442l15.13-15.15,13.56,13.54,1.31-6.67-10.85-10.87,15.13-15.15.74.74,2.33-11.81-3.07,3.07-15.13-15.17,15.13-15.13,7.07,7,1.33-6.69-4.38-4.38,6.53-6.53ZM436.7,327l-15.17,15.17L406.39,327l15.13-15.13Zm-87.8,19.16L364.05,331l15.17,15.13-15.17,15.17Zm11.17,19.16-15.17,15.17-15.15-15.17,15.15-15.13Zm-15.17-23.14L328.3,325.59l15.17-15.17L360.07,327Zm-4,4-15.17,15.17-16.59-16.59,15.17-15.17Zm-19.18,19.16L309.8,377.27l-16.59-16.59,11.95-11.95Zm-16.57-24.57L290,325.59l15.17-15.17,15.13,15.17Zm-4,4-11.91,11.91-15.17-15.13L286,329.57Zm-15.91,15.93-15.15,15.13L254.9,360.68l15.17-15.17ZM270.08,337.5,254.9,322.34l11.93-11.93L282,325.59Zm-4,4-15.15,15.13-15.17-15.13,15.17-15.17ZM246.9,360.68l-15.13,15.13-15.17-15.13,15.17-15.17Zm0,38.31-15.13,15.13L216.59,399l15.17-15.17Zm-11.15-19.16,15.17-15.17,15.15,15.17L250.92,395Zm34.33,4,16.59,16.59-15.17,15.17L254.9,399Zm4-4,15.17-15.17,16.59,16.59-15.17,15.17Zm35.75,5.42L325,400.41,309.8,415.58l-15.13-15.17Zm4-4,11.91-11.91,15.17,15.13L329,396.42Zm31.07,7.25,15.17,15.15-11.93,11.93L333,400.41Zm4-4,15.15-15.13,15.17,15.13-15.17,15.17Zm19.16-19.16,15.15-15.13,15.17,15.13-15.17,15.17Zm0-38.31,15.15-15.13L398.38,327l-15.17,15.17Zm-4-4-16.59-16.59,15.17-15.17,16.59,16.59Zm-20.57-20.59L328.3,287.27l15.17-15.17,15.13,15.17Zm-4,4-15.13,15.15-15.17-15.15,15.17-15.17Zm-34.29-4L290,287.27l15.17-15.17,15.13,15.17Zm-4,4L286,321.59l-15.15-15.15L286,291.26Zm-34.31-4-15.15-15.15,15.15-15.17L282,287.27Zm-4,4-11.91,11.91-15.17-15.15,11.93-11.93ZM246.9,322.34,231.76,337.5l-15.17-15.15,15.17-15.15Zm-19.16,19.18L212.6,356.65l-15.17-15.13,15.17-15.17Zm0,38.31L212.6,395l-15.17-15.13,15.17-15.17Zm0,38.31L212.6,433.32l-15.17-15.17L212.6,403Zm4,4,16.59,16.59L233.17,453.9l-16.59-16.59Zm4-4L250.92,403l16.59,16.59-15.17,15.17Zm35.75,5.42,15.17,15.15L271.49,453.9l-15.15-15.17Zm4-4,15.13-15.15,15.17,15.15-15.17,15.17Zm34.29,4L325,438.72,309.8,453.9l-15.13-15.17Zm4-4L329,404.41l15.17,15.15L329,434.74Zm34.31,4,15.15,15.15L348.14,453.9,333,438.72Zm4-4,11.91-11.91,15.17,15.15L367.3,434.74Zm31.07,7.25L398.38,442,386.45,453.9,371.3,438.72Zm-15.15-23.16,15.15-15.15,15.17,15.15-15.17,15.15Zm19.16-19.18,15.15-15.13,15.17,15.13-15.17,15.17Zm0-38.31L402.36,331l15.17,15.13-15.17,15.17Zm30.33-38.31L402.36,323l-15.15-15.17,15.15-15.15Zm-19.16-19.16-15.17,15.17-16.59-16.59,15.17-15.17Zm-20.61-20.57-15.13,15.13-15.17-15.13,15.17-15.17Zm-34.29-34.33L358.61,249l-15.13,15.13L328.3,249Zm-4,34.33-15.13,15.13-15.17-15.13,15.17-15.17Zm-34.29-34.33L320.3,249l-15.13,15.13L290,249Zm-4,34.33L286,283.25l-15.15-15.13L286,252.94Zm-34.31-34.33L282,249l-15.15,15.13L251.67,249Zm-19.16,19.16,15.15,15.17-15.15,15.13-15.15-15.13ZM228.51,272.1l15.15,15.17-11.91,11.91L216.59,284ZM212.6,288l15.13,15.15L212.6,318.34l-15.17-15.15Zm-34.33,34.31,15.17-15.15,15.13,15.15L193.45,337.5Zm0,38.33,15.17-15.17,15.13,15.17-15.13,15.13Zm0,38.31,15.17-15.17L208.58,399l-15.13,15.13Zm0,38.31,15.17-15.17,15.13,15.17-15.13,15.17Zm19.16,19.16,15.17-15.17,16.59,16.59L214,473.05Zm35.75,35.75L218,477l15.15-15.13L248.35,477Zm4-34.33,15.15-15.13,15.17,15.13-15.17,15.17Zm34.31,34.33L256.33,477l15.15-15.13L286.66,477Zm4-34.33,15.13-15.13,15.17,15.13-15.17,15.17Zm34.29,34.33L294.67,477,309.8,461.9,325,477Zm4-34.33L329,442.74l15.17,15.13L329,473.05Zm34.31,34.33L333,477l15.15-15.13L363.29,477Zm4-34.33,15.15-15.13,15.15,15.13L367.3,473.05Zm34.31,34.33L371.3,477l15.15-15.13L401.61,477Zm31.09-31.09-11.93,11.93-15.15-15.17L402.36,446ZM402.36,438l-15.15-15.15,15.15-15.15,15.17,15.15Zm34.33-34.31-15.17,15.15-15.13-15.15,15.13-15.15Zm-15.17-23.16-15.13-15.17,15.13-15.13,15.17,15.13Z" transform="translate(-34.32 -214.24)"/></g><polygon class="cls-24" points="361 0.78 270.51 137.01 94.49 137.01 185.49 0 361 0.78"/><path class="cls-19" d="M158.45,324.4s-.87,11.6,15.56,12.9,28.88-12.9,28.88-12.9,3.48,12,28.88,13.09,36.42-19.29,36.42-19.29-15.35,13.44-34.38,13.44c-24.2,0-28-20.15-28-20.15S190.69,331.4,174,331.4C158,331.4,158.45,324.4,158.45,324.4Z" transform="translate(-34.32 -214.24)"/><polygon class="cls-19" points="94.49 137.01 94.49 146.19 271.67 146.19 361 13.23 441.23 137.01 419.21 137.01 417.47 146.19 451.84 146.19 451.84 137.01 361 0.78 270.51 137.01 94.49 137.01"/><polygon class="cls-25" points="262.47 240.34 165.64 240.34 154.08 185.74 250.91 185.74 262.47 240.34"/><polygon class="cls-26" points="204.44 210.49 165.21 210.49 160.94 190.33 200.17 190.33 204.44 210.49"/><polygon class="cls-26" points="250.26 210.49 211.03 210.49 206.76 190.33 245.99 190.33 250.26 210.49"/><polygon class="cls-26" points="209.79 235.75 170.56 235.75 166.29 215.59 205.52 215.59 209.79 235.75"/><polygon class="cls-26" points="255.61 235.75 216.38 235.75 212.11 215.59 251.34 215.59 255.61 235.75"/><circle class="cls-25" cx="339.35" cy="110.17" r="29.1"/><path class="cls-26" d="M370.94,321.67H350.6a23.22,23.22,0,0,1,20.34-20.34Z" transform="translate(-34.32 -214.24)"/><path class="cls-26" d="M350.58,327.14h20.36v20.34A23.23,23.23,0,0,1,350.58,327.14Z" transform="translate(-34.32 -214.24)"/><path class="cls-26" d="M396.75,327.14a23.23,23.23,0,0,1-20.36,20.34V327.14Z" transform="translate(-34.32 -214.24)"/><path class="cls-26" d="M396.75,321.67H376.39V301.33A23.25,23.25,0,0,1,396.75,321.67Z" transform="translate(-34.32 -214.24)"/><path class="cls-27" d="M373.67,408.93h0a23,23,0,0,1,23,24.11l-3.11,64h-39.7l-3.11-64A23,23,0,0,1,373.67,408.93Z" transform="translate(-34.32 -214.24)"/><rect class="cls-28" x="180.45" y="37.75" width="38.06" height="52.79"/><polygon class="cls-27" points="240.22 37.75 218.51 37.75 218.51 90.54 240.22 59.86 240.22 37.75"/><polygon class="cls-19" points="244.43 26.07 244.43 39.54 215.19 39.54 193.64 39.51 176.23 39.51 176.23 26.04 188.1 26.04 205.48 26.07 244.43 26.07"/><circle class="cls-29" cx="353.16" cy="241.3" r="4.74"/><circle class="cls-25" cx="292.91" cy="150.87" r="7.86"/><circle class="cls-30" cx="385.78" cy="150.87" r="7.86"/><circle class="cls-25" cx="357.59" cy="169.79" r="7.86"/><circle class="cls-30" cx="321.1" cy="169.79" r="7.86"/></g></g></svg>