<svg id="Layer_1" data-name="Layer 1" xmlns="http://www.w3.org/2000/svg" viewBox="0 0 179.16 35.65"><defs><style>.cls-1{fill:#062c23;}</style></defs><title>test</title><path class="cls-1" d="M211.28,53.08a1.5,1.5,0,0,0-1.13-.43,1.64,1.64,0,0,0-1.24.94,4.1,4.1,0,0,0-.47,2.23c-2.56-4.86-4.11-8.52-5.22-11l-.43-1c-.39.18-1.34.58-2.84,1.19a78.57,78.57,0,0,0,6.63,10.75c-1.71-1.19-3.06-1.74-4-1.64-.59.06-.82.41-.68,1.05-1.06-1.69-1.57-2.53-2.54-4.22a.34.34,0,0,1,.34-.32,2.45,2.45,0,0,1,1.4.62,76.33,76.33,0,0,1-6.17-10.56,80,80,0,0,1-4.39-10.87,3.36,3.36,0,0,0-1-1.78s-.4-.17-1.14-.45c-.14,0-.36-.54-.63-1.46,0-.09-.06-.24-.11-.44l-.09-.36c.2.06,2.7.56,7.2,1.38a36.81,36.81,0,0,0,1.19,7.67,51.59,51.59,0,0,0,2.27,6.5,15.76,15.76,0,0,1,3.48.11c-.09-.24-.2-.53-.33-.87a84.5,84.5,0,0,0-5.36-11.56c1.6-.64,3.41-1.43,5.43-2.36a4.39,4.39,0,0,1,.2.66q.18.66.31,1.26a4,4,0,0,1,.13,1,1.79,1.79,0,0,0-.67,1.79c0-.21.15.44.67,1.94s1.1,3.27,1.8,5.31c.81,2.36,1.61,4.59,2.38,6.69s1.31,3.54,1.5,4.33c0-.63.23-1,.58-1a.86.86,0,0,1,.52.14C209.74,50.27,210.24,51.2,211.28,53.08Z" transform="translate(-187.49 -20.16)"/><path class="cls-1" d="M219,44.38c.19.59.39,1.4.62,2.4a16.6,16.6,0,0,1,.53,6.22c-.24,1.32-.81,2-1.8,2.13-1.33.13-2.93-.87-4.72-3A30,30,0,0,1,209,43.95a33.67,33.67,0,0,1-2.17-8.77,22.87,22.87,0,0,1-.07-4.93c-1.27.4-2.25,1.63-2.73,3.73q0,.23-.12,0c-.53-1.54-1.33-4-2.16-7.46a.2.2,0,0,1,.06-.17,58,58,0,0,0,12,.84c.08,0,.12.11.13.35a54.88,54.88,0,0,0,1.37,11.19,7.31,7.31,0,0,1-1.38-.56,1.44,1.44,0,0,1-.6-.92c-.06-.23-.16-.74-.28-1.53s-.22-1.38-.31-1.76a2.78,2.78,0,0,0-.46-1.16,7,7,0,0,0-2.4-2.17,35.84,35.84,0,0,0,2.39,13,37.26,37.26,0,0,0,3.05,6.54c1.12,1.84,2,2.74,2.45,2.7s.57-.52.63-1.45a4.93,4.93,0,0,0-.22-2.1c-.08-.21-.15-.31-.2-.31a5.43,5.43,0,0,1-2.23-1.59,10.54,10.54,0,0,1-2.19-3.68,2.73,2.73,0,0,1-.08-2,1.4,1.4,0,0,1,1.32-.85A3.6,3.6,0,0,1,216,41C217.43,41.39,218.41,42.52,219,44.38Z" transform="translate(-187.49 -20.16)"/><path class="cls-1" d="M229.76,43.61c.15.59.28,1.38.42,2.37a16.22,16.22,0,0,1,0,6.14c-.34,1.3-.95,2-1.91,2.08-1.3.12-2.75-.88-4.29-3a27,27,0,0,1-3.76-8,32.93,32.93,0,0,1-1.41-8.58,24.12,24.12,0,0,1,.28-4.84c-1.22.42-2.21,1.64-2.82,3.69,0,.15-.06.14-.11,0-.38-1.5-1-3.94-1.48-7.26a.21.21,0,0,1,.07-.17,51.54,51.54,0,0,0,11.16.59c.07,0,.11.11.1.34A58.11,58.11,0,0,0,226.67,38a6.32,6.32,0,0,1-1.27-.55,1.3,1.3,0,0,1-.51-.9c0-.22-.1-.73-.17-1.51s-.12-1.36-.18-1.74a2.64,2.64,0,0,0-.36-1.14c-.94-1.27-1.64-2-2.12-2.11a36.27,36.27,0,0,0,1.38,12.77,34.72,34.72,0,0,0,2.42,6.43c.93,1.82,1.66,2.71,2.14,2.67s.59-.51.72-1.42a4.85,4.85,0,0,0-.05-2.07c-.06-.2-.12-.31-.17-.3a4.71,4.71,0,0,1-2-1.57,9.54,9.54,0,0,1-1.82-3.63,2.79,2.79,0,0,1,.06-1.94,1.45,1.45,0,0,1,1.32-.84,3.23,3.23,0,0,1,1,.14C228.44,40.66,229.3,41.77,229.76,43.61Z" transform="translate(-187.49 -20.16)"/><path class="cls-1" d="M238.15,32.18c.11,1.24.14,2.56.12,4-.05,4.66-.53,7.07-2,7.17a2.47,2.47,0,0,1-1.89-1.06,16.55,16.55,0,0,1-1.48-2.12A67.34,67.34,0,0,0,237,51.2a48.82,48.82,0,0,0-3.54,3.38q-.28-.61-.53-1.33a2.45,2.45,0,0,1-.24-1c.07-.12.24-.34.39-.61A2.21,2.21,0,0,0,233,50l-.1-.32a79.19,79.19,0,0,1-3.22-12,51.39,51.39,0,0,1-.82-9.1,1.15,1.15,0,0,1-.74.43.93.93,0,0,1-.81-.47c-.08-1.67-.11-2.49-.12-4.15,1.26,1.47,2.5,2.17,3.69,2.09a8.23,8.23,0,0,0,1.8-.45,8.41,8.41,0,0,1,1.87-.45,2.6,2.6,0,0,1,2.58,1.83A14.21,14.21,0,0,1,238.15,32.18Zm-1.29.91a2.8,2.8,0,0,0-.9-1.93,2.55,2.55,0,0,0-1.93-.59,2.88,2.88,0,0,0-2.21,1.48,4,4,0,0,0-.68,2.77,2.2,2.2,0,0,0,1.11,1.53,2.61,2.61,0,0,0,3.79-.7A3.47,3.47,0,0,0,236.86,33.09Z" transform="translate(-187.49 -20.16)"/><path class="cls-1" d="M255.49,46.82c0,.68,0,1.7,0,3.07a9,9,0,0,0-1.22-.06,4.84,4.84,0,0,0-2.42.94q-.44-2.94-.88-5.79c-.33-2.09-.43-4.49-.84-4.88a21.77,21.77,0,0,0-3-.73q.06,2,.14,4c.06,1.54.1,2.85.1,3.94a5,5,0,0,0,1.72.33c.2,1.46.44,2.81.7,4a25,25,0,0,0-2.69-2A16.88,16.88,0,0,0,245,48.62c0-.41,0-.94,0-1.59s0-.75,0-1.26l.79.82c.1-2.39,0-5.84,0-10.31,0-4.69-.5-10.52.17-11.45.14-.2,1.1-.53,1.58-.87a11.48,11.48,0,0,0,1.61-1.46c.54,2.62,1.18,6.61,2.24,12,.5,2.62,1.23,6.1,2.33,10.45a2.33,2.33,0,0,0,.79,1.34C254.9,46.49,255.21,46.65,255.49,46.82ZM249.71,32c-.09-1.53-.47-2.27-1.17-2.22-.51,0-1,.48-1.32,1.31a6,6,0,0,0-.45,2.95c.12,1.45.61,2.15,1.45,2.09C249.42,36,249.87,34.63,249.71,32Z" transform="translate(-187.49 -20.16)"/><path class="cls-1" d="M263.85,48.85a.89.89,0,0,0-.83-.54c-.81,0-1.54.93-2.14,2.66-.14-2.12-.21-3.41-.27-3.89,0-.18,0-.23-.06-.15a4.7,4.7,0,0,1-1,2.15,2.28,2.28,0,0,1-1.61.87c-.75,0-1.38-.43-1.87-1.43A14.59,14.59,0,0,1,255,44.24c-.12-.93-.23-2-.31-3.3A25.1,25.1,0,0,1,255,35c.38-2,1-3.06,1.86-3.12q.67,0,1.45,1a10.58,10.58,0,0,1,1.34,2.58s0-.13,0-.26,0-.21,0-.23a49.62,49.62,0,0,0-2-11.07q1.92-1,4.22-2.42.09.81.1,1.89a5.1,5.1,0,0,1,0,1.06,2.58,2.58,0,0,0-.72,1.82c0,.07,0,.14,0,.2.26,2.86.49,5.53.64,8,.24,3.83.34,7.38.27,10.64.23-.6.49-.9.76-.92a.38.38,0,0,1,.34.15C263.45,46.12,263.58,47,263.85,48.85ZM260.31,40a1.63,1.63,0,0,0-.67-1.21,1.66,1.66,0,0,0-1.12-.36,2.39,2.39,0,0,0-1.75,1.26,3.48,3.48,0,0,0-.66,2.35,2,2,0,0,0,2.18,1.8c.55,0,1-.51,1.48-1.43A4.6,4.6,0,0,0,260.31,40Z" transform="translate(-187.49 -20.16)"/><path class="cls-1" d="M271.58,28.38q0,1.52,0,3.07-.17-.32-.91-1.46c-.5,1.29-.84,4-.92,8.23-.06,3.33,0,7.31.36,11.94l0,.6c0,.31,0,.44-.07.4a4.48,4.48,0,0,0-2.44-.66h-.29a121,121,0,0,1-3.57-14.73,1.68,1.68,0,0,1-.48.66,1.17,1.17,0,0,1-.63.38s-.08-.07-.08-.23c0-.73,0-1.8-.09-3.23,0-.14,0-.2.05-.21H263q1.2-.08,3.43-2.19c0,.35,0,.85.07,1.5a42.35,42.35,0,0,0,2.21,12.63c0-8.34.16-13.59.05-15.76a1.28,1.28,0,0,0-.25-.83,1.3,1.3,0,0,0-1-.24q0-.76.08-2.11c0-.13,0-.19.06-.19a41.35,41.35,0,0,0,3.82,2C271.53,28,271.58,28.15,271.58,28.38Z" transform="translate(-187.49 -20.16)"/><path class="cls-1" d="M278.61,38c0,.59.06,1.29.09,2.07,0,.14,0,.19,0,.16a24.48,24.48,0,0,0-3-1.63,19.71,19.71,0,0,0-1.95-.86,16.11,16.11,0,0,0,.08,3.24,25.27,25.27,0,0,0,1,6.07c.34,1,.73,1.55,1.15,1.6a.67.67,0,0,0,.63-.39.5.5,0,0,0,.1-.32.26.26,0,0,0-.07-.17,3.17,3.17,0,0,1-1.21-1.64,9.58,9.58,0,0,1-.63-3,3.61,3.61,0,0,1,.26-1.8,1.12,1.12,0,0,1,1-.72,1.84,1.84,0,0,1,1,.27q1.4.81,1.55,3.52a10.16,10.16,0,0,1,0,1.56,10.42,10.42,0,0,1-.67,3.14,2.3,2.3,0,0,1-2.13,1.42c-1.14,0-2.16-1.36-3.08-4.19a33.71,33.71,0,0,1-1.5-8.22c-.33-5.67,1-8.59,3.78-8.73q2.45-.13,3.26,3.91A35.39,35.39,0,0,1,278.61,38Zm-2.24-3.89a3,3,0,0,0-.47-1.56,1.17,1.17,0,0,0-1.05-.56,2,2,0,0,0-1.26.51,1.7,1.7,0,0,0-.56,1.43,2,2,0,0,0,2.3,2.12Q276.48,36,276.37,34.07Z" transform="translate(-187.49 -20.16)"/><path class="cls-1" d="M287.49,50.43l-.17,1.71c-1.25-.78-1.88-1.17-3.16-1.93a49.71,49.71,0,0,0,.21-8.86c0-.64,0-1-.07-1.6-.11-1.9-.31-2.84-.59-2.83-.09,0-.2.13-.33.37-.54,1-.85,3.12-.95,6.38.06,1.12.31,3.22.73,6.31-.82-1.16-1.62-1.72-2.4-1.7q-.78,0-1,.95c-.08-1.63-.12-2.45-.2-4.08a.48.48,0,0,1,.4-.26c.25,0,.52.2.81.62a59.61,59.61,0,0,1-.87-6.76q-.32-3.35-.52-5.93-.1-1.38-.6-1.62a1.55,1.55,0,0,1-.48-.22,3.84,3.84,0,0,1-.23-1.51q0-.43,0-.71a28.31,28.31,0,0,0,4.22.88,54.09,54.09,0,0,0-.18,9.33,33,33,0,0,1,1.79-10.24q.41-1,.76-1c.41,0,.78.89,1.09,2.71a49,49,0,0,1,.56,5.75q.07,1.36.08,2.71c0,3.18.06,5.62.11,7.34a15.05,15.05,0,0,0,.22,3.33A4.91,4.91,0,0,0,287.49,50.43Z" transform="translate(-187.49 -20.16)"/><path class="cls-1" d="M295.41,40.85a16.07,16.07,0,0,1-.24,2.73c-.53,3.26-1.85,5.05-3.87,5.4l-.52.08A1.88,1.88,0,0,1,289,47.69a18.38,18.38,0,0,1-.84-5.94c-.1-3,0-6.64.31-10.9a4.24,4.24,0,0,0-1.74,1s-.07-.05-.1-.22,0-.41-.07-1c-.09-1.55-.13-2.81-.1-3.78a2.72,2.72,0,0,0,1.84,1.08c-.07-.94-.2-2-.37-3.16s-.26-1.7-.26-1.74a.54.54,0,0,1,0-.18,0,0,0,0,1,0,0,8.74,8.74,0,0,0,1.61-.4,16.28,16.28,0,0,0,1.91-.68c.07,0,.11,0,.12,0s-.06.79-.2,2.21c-.17,1.66-.3,3.1-.37,4.32h.36c.9,0,1.37-.19,1.38-.44a7.05,7.05,0,0,0,0-.78,5.62,5.62,0,0,0-.57-2.12c.56-1.18.94-1.8,1.16-1.86a9.94,9.94,0,0,1,.25,1.67q0,.47.1,1.38c0,.61.06,1,.08,1.27,0,.66.18,1.65.38,3s.39,2.42.56,3.3l-.42.69q-.33.51-.51.52c-.07,0-.12-.05-.15-.14s-.17-.73-.39-1.9-.41-1.66-.59-1.7-1.34-.26-1.69,0a28.16,28.16,0,0,0-.08,3.35c0,2.29,0,4.41.06,6.36.11,4.14.38,6.2.95,6.19q.44,0,1-.81a2.58,2.58,0,0,0,.55-1.39.63.63,0,0,0-.05-.28,5.45,5.45,0,0,1-1.09-1.35,8,8,0,0,1-.8-3.74,3.72,3.72,0,0,1,.32-1.8,1.2,1.2,0,0,1,1.08-.75,2.24,2.24,0,0,1,1.21.44A4,4,0,0,1,295.41,40.85Z" transform="translate(-187.49 -20.16)"/><path class="cls-1" d="M304.49,29.08a8.61,8.61,0,0,1,0,1.81,1.63,1.63,0,0,0-.82-.3c-.3,0-.46.22-.46.65,0,1.18,0,2.93,0,5.23,0,2.55-.09,4.64-.12,6.26,0,.3,0,.45,0,.76a.86.86,0,0,1,.69-.47.8.8,0,0,1,.61.32c0,1.15,0,1.73,0,2.89h-.12c-.45,0-1.08.52-1.89,1.55a21.39,21.39,0,0,0-1.78,2.71c-.08.15-.13.22-.14.21a2.41,2.41,0,0,1,0-.61q.35-2.77.48-5.46a15.19,15.19,0,0,1-1.74,4.19c-.47.7-.92,1.05-1.32,1.05s-.89-.4-1.19-1.19a10.78,10.78,0,0,1-.48-3.72,44.15,44.15,0,0,1,.72-7.76,34.07,34.07,0,0,1,1.22-4.83l-.24,0-.24,0a8,8,0,0,0-1.95.27c0-.27.13-1.21.27-2.84a10.41,10.41,0,0,0,2.4.3c.32,0,1-.06,2-.18-.36,1.85-.66,3.93-.92,6.23a56.41,56.41,0,0,0-.43,6.07,11,11,0,0,0,.18,2.26c.11.52.26.79.44.79.33,0,.75-1.6,1.16-4.79a67.69,67.69,0,0,0,.44-11.24c0-1-.08-1.77-.12-2.26C301.49,27.2,302.6,27.91,304.49,29.08Z" transform="translate(-187.49 -20.16)"/><path class="cls-1" d="M312.73,37.52c0,.6,0,1.31-.07,2.12,0,.14,0,.19-.06.16A25.67,25.67,0,0,0,309.46,38a21.64,21.64,0,0,0-2-1,18.12,18.12,0,0,0-.15,3.31,30.92,30.92,0,0,0,.32,6.25c.22,1.05.54,1.62,1,1.69a.8.8,0,0,0,.73-.36.56.56,0,0,0,.15-.32.24.24,0,0,0-.05-.18,2.93,2.93,0,0,1-1-1.74,10,10,0,0,1-.3-3.1,3.75,3.75,0,0,1,.46-1.82,1.26,1.26,0,0,1,1.13-.69,2,2,0,0,1,1,.33c1,.6,1.39,1.82,1.27,3.68a9.43,9.43,0,0,1-.25,1.59,10.59,10.59,0,0,1-1.19,3.17A2.79,2.79,0,0,1,308,50.16c-1.21,0-2-1.51-2.59-4.44a45.73,45.73,0,0,1-.8-8.47c0-5.81,1.18-8.71,4.28-8.7,1.8,0,3,1.38,3.54,4.15A26.25,26.25,0,0,1,312.73,37.52Zm-2.22-4.08a2.85,2.85,0,0,0-.47-1.61,1.35,1.35,0,0,0-1.14-.63,2.13,2.13,0,0,0-1.37.45,1.65,1.65,0,0,0-.63,1.42,2.11,2.11,0,0,0,2.4,2.28C310.12,35.36,310.54,34.72,310.51,33.44Z" transform="translate(-187.49 -20.16)"/><path class="cls-1" d="M327.66,29.13a5.73,5.73,0,0,1-.48,2.73,1.58,1.58,0,0,1-1.51.83,2.46,2.46,0,0,1-2.05-1.29,5.17,5.17,0,0,1-.83-2.74,7.37,7.37,0,0,1,.4-2.76c.31-.87.72-1.3,1.24-1.3l.33,0,.26,0h.1a.39.39,0,0,0,.11-.35,2.21,2.21,0,0,0-.58-1.26,2,2,0,0,0-1.53-.78c-.83,0-1.44.73-1.88,2.21a27.82,27.82,0,0,0-.66,7.51c0,.92,0,1.94.06,3.05.13,5,0,8.3,0,10,0,2.07.14,3.11.58,3.12.65,0,1.17-1.07,1.46-3.27a39.36,39.36,0,0,0,.25-4.59c0-.85-.11-1.44-.31-1.6a6.27,6.27,0,0,0-.68-.37c-.09,0-.12-.41-.11-1.07,0-.51,0-1,.06-1.34a31.43,31.43,0,0,0,5,.5,74.58,74.58,0,0,0-1.82,9.06c-.1.64-.16,1.1-.19,1.38a7.21,7.21,0,0,1-1.2,1.69,11.1,11.1,0,0,1-2.95,2.39,2.6,2.6,0,0,1-1.3.4c-2.05-.07-2.14-4.27-1.69-12.57.53-12.5.86-18.62,4.34-18.61,2.88,0,4.93,2.34,5.46,7.08C327.62,27.94,327.65,28.57,327.66,29.13Z" transform="translate(-187.49 -20.16)"/><path class="cls-1" d="M335.74,49.4a.72.72,0,0,0-.75-.65,3.53,3.53,0,0,0-1.91.69,7.7,7.7,0,0,0-1.93,1.71c.67-2,1-3.38,1.19-4.06,0-.21.05-.3,0-.29a.58.58,0,0,0-.11.14,6.54,6.54,0,0,1-3,2.95,3.38,3.38,0,0,1-1.14.21c-.87,0-1.36-.64-1.52-1.82a19.82,19.82,0,0,1,.28-4.83c.16-1.13.35-2.37.56-3.72a41,41,0,0,1,1.47-6.62c.7-2.05,1.52-3.08,2.53-3.06s2.16,1.39,3,4.18a18.48,18.48,0,0,0,0-2.54,19.29,19.29,0,0,0-.37-2.84,15.72,15.72,0,0,0,4.67-2.55,16.76,16.76,0,0,1,.07,2.29,4.4,4.4,0,0,1-.13,1.16,2.59,2.59,0,0,0-1.09,1.62v0c0,.4-.06,1-.12,1.88s-.12,1.52-.17,2a44.22,44.22,0,0,1-2.06,9.63,1.44,1.44,0,0,1,1.13-.71.73.73,0,0,1,.51.22C336.43,46.39,336.22,47.39,335.74,49.4Zm-1.5-10.32a1.51,1.51,0,0,0-.37-1.28,1.88,1.88,0,0,0-1.42-.58,3.31,3.31,0,0,0-2.39,1.21,4.36,4.36,0,0,0-1.32,2.48,1.87,1.87,0,0,0,.51,1.64,2.08,2.08,0,0,0,1.46.59,3.06,3.06,0,0,0,2.21-1.39A5.39,5.39,0,0,0,334.24,39.08Z" transform="translate(-187.49 -20.16)"/><path class="cls-1" d="M355,36.7a27.7,27.7,0,0,1-5.67,10.68l1.46.91c0,.36-.13.92-.28,1.68a13.21,13.21,0,0,0-1.8-.19c-.82-.05-1.73-.08-2.7-.09a41.31,41.31,0,0,0,2.73-5.18A35.91,35.91,0,0,0,351,38.3c.3-1.27.26-1.91-.06-1.92-.54,0-1.33,1.17-2.48,3.54a69.87,69.87,0,0,0-2.92,6.53,34.21,34.21,0,0,0-1.41,4.66,2.73,2.73,0,0,0,.57.74c-.13.23-.44.84-.95,1.81-.92-1-1.4-1.52-2.4-2.53a40.45,40.45,0,0,0,3.21-8.87c.4-1.64.6-2.68.67-3.11.23-1.49.17-2.24-.13-2.25-.11,0-.28.12-.51.36-.94,1-1.86,3.34-3.09,7-.29,1.17-.64,3.39-1.36,6.68a2.57,2.57,0,0,0-2.26-2,1.8,1.8,0,0,0-1.64.92c.49-1.7.72-2.55,1.13-4.25a.76.76,0,0,1,.53-.2c.31,0,.57.23.77.64.27-2.48,1-6.78,1.28-12.82,0-.81-.14-1.36-.38-1.44s-.58-.07-.81-.14-.19-.8-.12-2.21h.14c.52,0,2.35-.2,5.63-.62-.7,2.62-1.25,5.57-1.81,8.84-.12.71-.22,1.31-.29,1.8,1.44-4.79,2.84-8.45,4.67-11,.48-.67.88-1,1.19-1,.88,0,1.24,2.56.34,7.74-.27,1.52-.59,2.89-.92,4.1.88-2,1.7-3.73,2.51-5.15,1.38-2.44,2.55-3.66,3.62-3.65.72,0,1.24.58,1.49,1.74A10,10,0,0,1,355,36.7Z" transform="translate(-187.49 -20.16)"/><path class="cls-1" d="M365.29,38.81c-.23.66-.53,1.45-.88,2.34-.06.16-.11.21-.14.17a21,21,0,0,0-3.32-2.11,20.64,20.64,0,0,0-2.27-1.14,21.33,21.33,0,0,0-1.28,3.58,38.62,38.62,0,0,0-1.83,6.79c-.13,1.15,0,1.79.53,1.9a1.33,1.33,0,0,0,1-.34.89.89,0,0,0,.31-.34.22.22,0,0,0,0-.2,2.33,2.33,0,0,1-.6-2,10.74,10.74,0,0,1,.76-3.39,5.07,5.07,0,0,1,1.21-2,2.22,2.22,0,0,1,1.65-.7,2.2,2.2,0,0,1,1.16.4c1,.69,1.07,2.07.2,4.1a12.16,12.16,0,0,1-.93,1.73,16.33,16.33,0,0,1-2.71,3.39,4.69,4.69,0,0,1-3.5,1.28c-1.43-.11-1.77-1.78-1.43-5A60.2,60.2,0,0,1,355,38.23c1.63-6.24,4-9.32,8.2-9.32,2.44,0,3.7,1.51,3.39,4.58A24.31,24.31,0,0,1,365.29,38.81Zm-1.47-4.54a2.31,2.31,0,0,0-.09-1.77,1.41,1.41,0,0,0-1.31-.7,4,4,0,0,0-2,.47,2.33,2.33,0,0,0-1.26,1.53c-.39,1.63.38,2.48,2.42,2.53C362.67,36.36,363.43,35.67,363.82,34.27Z" transform="translate(-187.49 -20.16)"/></svg>