<svg id="Layer_1" data-name="Layer 1" xmlns="http://www.w3.org/2000/svg" viewBox="0 0 158.89 32.08"><defs><style>.cls-1{fill:#f04d4f;}</style></defs><title>5</title><path class="cls-1" d="M225.79,55.48a10.09,10.09,0,0,0-3.13,0,34.94,34.94,0,0,0-5.75,1.19,30.9,30.9,0,0,0-5.51,2.09,37.27,37.27,0,0,0-.8-7.39l-.19-.63c-1.57.28-5.31,1-11.5,2.07a25.78,25.78,0,0,0,5.94,6.63,49.94,49.94,0,0,0-11.54.15,10.67,10.67,0,0,0-4.48,1.25c-.69-1.1-1-1.65-1.66-2.74a7.46,7.46,0,0,1,1.81-.42,18.8,18.8,0,0,1,4.06,0,28.87,28.87,0,0,1-6.45-6.39,30.9,30.9,0,0,1-4-6.65c-.23-.55-1-.85-2.29-.93-.07,0-1.32,0-3.85,0a1.22,1.22,0,0,1-1.15-.84,1,1,0,0,1-.06-.27,1.11,1.11,0,0,0,0-.23c.65-.12,10-.37,24.7-1.55A11.08,11.08,0,0,0,197.5,46a9.82,9.82,0,0,0,.59,4.16c5.47-.66,9.35-1.09,11.88-1.27a3,3,0,0,0-.1-.56c-.72-2.72-2.91-5-7.11-6.68,5.87-1.14,12.23-2.54,18.9-4.19,0,0,.13.13.25.41a2.67,2.67,0,0,1,.22.83.79.79,0,0,1-.21.72c-2.24.71-3.35,1.26-3.3,1.68,0-.14.19.27.63,1.22a13.64,13.64,0,0,1,1,3.47,18.45,18.45,0,0,1,.22,4.54,5.63,5.63,0,0,1-.89,3.07,9.55,9.55,0,0,1,3.35-1,8,8,0,0,1,1.53,0C225,53.58,225.24,54.21,225.79,55.48Z" transform="translate(-175.19 -33.42)"/><path class="cls-1" d="M257.79,48a3.48,3.48,0,0,1-.91,2.09c-1.92,2.49-6.66,3.85-14.34,4.58l-2,.18a19.41,19.41,0,0,1-7-.46,4.77,4.77,0,0,1-3.49-3.93c-.36-2.11.35-4.74,2.25-8-1.87.28-4.25.8-7.18,1.55a.32.32,0,0,1-.37-.11,2.44,2.44,0,0,1-.13-.64,4.71,4.71,0,0,1,.32-2.63,40,40,0,0,0,7.27-.21,6.89,6.89,0,0,0-.72-2.12c-.37-.73-.57-1.1-.57-1.12s0-.12.06-.14l.17,0c.95-.14,3.18-.56,6.59-1.19s5.93-1.1,7.64-1.44a1.72,1.72,0,0,1,.45-.05s-.48.64-1.43,1.78a25.25,25.25,0,0,0-2.51,3.43l1.4-.15c3.48-.38,5.25-.63,5.34-.82a1.21,1.21,0,0,0,.12-.59c0-.58-.57-1.06-1.6-1.43a22.44,22.44,0,0,1,4.91-1.83,1.78,1.78,0,0,1,.46,1.23q0,.36,0,1t0,1a6.22,6.22,0,0,0,.8,2.2,13.77,13.77,0,0,0,1.57,2.43l-1.67.6a8.3,8.3,0,0,1-2,.49,1.23,1.23,0,0,1-.55-.07,6.82,6.82,0,0,1-1.21-1.35,2.42,2.42,0,0,0-2-1.13,16.42,16.42,0,0,0-6.43.58c-.21.07-.52,1-.81,2.51a15.63,15.63,0,0,0-.26,4.66c.32,3,1.6,4.41,3.73,4.29a14.37,14.37,0,0,0,3.71-.8c1.37-.47,2-.84,2-1.12,0-.09-.08-.15-.22-.2a29.1,29.1,0,0,1-4.14-.79c-1.79-.47-2.84-1.4-3-2.55-.05-.53.39-1,1.32-1.42a12.63,12.63,0,0,1,4.15-.85,29.67,29.67,0,0,1,4.51.08C255.85,45.89,257.71,46.77,257.79,48Z" transform="translate(-175.19 -33.42)"/><path class="cls-1" d="M291.82,50.36a3.45,3.45,0,0,1-1.33,2c-2.53,2.26-8,2.85-16,2.48l-2-.1a18.39,18.39,0,0,1-6.87-1.45,5.11,5.11,0,0,1-2.85-4.69c-.1-2.34.81-5.15,2.75-8.48a46.2,46.2,0,0,0-6.84.8.29.29,0,0,1-.33-.16,3.39,3.39,0,0,1-.08-.74,6.61,6.61,0,0,1,.38-2.93,35.12,35.12,0,0,0,6.84.74,9.34,9.34,0,0,0-.7-2.49c-.37-.88-.57-1.34-.57-1.36s0-.13.05-.15l.16,0c.91,0,3-.15,6.46-.26s6.12-.13,8-.15a1.91,1.91,0,0,1,.49,0s-.5.6-1.5,1.68a21.33,21.33,0,0,0-2.64,3.31l1.47.08c3.68.21,5.67.3,5.77.11a1.16,1.16,0,0,0,.14-.62c0-.63-.62-1.26-1.75-1.87a20.55,20.55,0,0,1,5.51-1,2.17,2.17,0,0,1,.52,1.42,10.19,10.19,0,0,1,0,1.12q-.05.73,0,1a7.66,7.66,0,0,0,.82,2.51,18.12,18.12,0,0,0,1.61,2.89l-1.93.31a9.42,9.42,0,0,1-2.21.15,1.49,1.49,0,0,1-.6-.18,8.81,8.81,0,0,1-1.24-1.67,3.11,3.11,0,0,0-2.07-1.58,17.42,17.42,0,0,0-6.82-.51c-.23,0-.56,1-.94,2.62a21,21,0,0,0-.63,5c0,3.27,1.06,5,3.28,5.15a15.41,15.41,0,0,0,4-.27c1.51-.27,2.29-.55,2.31-.86,0-.09-.06-.18-.2-.25a31,31,0,0,1-4.27-1.51C276,49.8,275,48.63,275,47.38c0-.58.49-1,1.49-1.33a12.33,12.33,0,0,1,4.46-.21,33.38,33.38,0,0,1,4.89.89C289.88,47.73,291.93,49,291.82,50.36Z" transform="translate(-175.19 -33.42)"/><path class="cls-1" d="M333.8,54.93a9.76,9.76,0,0,1-1.64,2.58,11,11,0,0,1-6.3,3.39,23.17,23.17,0,0,1-10.5-.45,22.61,22.61,0,0,1-10.14-5c.37,2.35.53,3.8.63,4.36a50.38,50.38,0,0,0,1.53,5.74,135.17,135.17,0,0,0-16.16-1.72,3.6,3.6,0,0,1,0-1.2c.08-.4.21-.61.42-.63,2.48-.13,3.85-.5,4-1.17,0,0,0-.33.09-1.14s.2-1.79.38-3c.71-4.44,1.64-7.93,3.17-10.42a11.8,11.8,0,0,1-4,.1A6.24,6.24,0,0,1,294,46c-.15-1.44-.24-2.15-.44-3.6a23.18,23.18,0,0,0,3.52.79,49.89,49.89,0,0,0,12.19.39,8,8,0,0,0-1.36,2.58,32.06,32.06,0,0,1,10.4.09c1.9.3,3.7.65,5.38,1,4.2,1,7.26,2.18,8.88,3.49A3.35,3.35,0,0,1,333.8,54.93Zm-8.6-.27c.15-.46-.66-1.07-2.4-1.8a44.75,44.75,0,0,0-7.35-2.2,25.68,25.68,0,0,0-7.66-.54c-2.57.2-3.83.65-3.93,1.27-.05.35.48.77,1.57,1.24a33,33,0,0,0,5.62,1.62,50,50,0,0,0,9.1,1.16C323.25,55.52,325,55.3,325.2,54.66Z" transform="translate(-175.19 -33.42)"/></svg>