<svg xmlns="http://www.w3.org/2000/svg" xmlns:xlink="http://www.w3.org/1999/xlink" viewBox="0 0 542.48 457.6"><defs><style>.cls-1{isolation:isolate;}.cls-2{fill:#989898;opacity:0.26;}.cls-100,.cls-101,.cls-107,.cls-108,.cls-109,.cls-110,.cls-116,.cls-117,.cls-118,.cls-119,.cls-125,.cls-126,.cls-127,.cls-128,.cls-17,.cls-18,.cls-19,.cls-2,.cls-20,.cls-26,.cls-27,.cls-28,.cls-29,.cls-35,.cls-36,.cls-37,.cls-38,.cls-44,.cls-45,.cls-46,.cls-47,.cls-53,.cls-54,.cls-55,.cls-56,.cls-62,.cls-63,.cls-64,.cls-65,.cls-71,.cls-72,.cls-73,.cls-74,.cls-80,.cls-81,.cls-82,.cls-83,.cls-89,.cls-90,.cls-91,.cls-92,.cls-98,.cls-99{mix-blend-mode:multiply;}.cls-3{fill:#ce8cbd;}.cls-4{fill:#602f14;}.cls-5{fill:#c39f43;}.cls-6{fill:#9e752b;}.cls-7{fill:#a05529;}.cls-8{fill:#20b6ea;}.cls-9{fill:#c957a0;}.cls-10{fill:#ef4444;}.cls-11{fill:#5bbb5b;}.cls-12{fill:#25295f;}.cls-13{fill:#9f3895;}.cls-14{fill:#fff;}.cls-15{fill:#ca733e;}.cls-16{fill:#b28c35;}.cls-17{fill:url(#radial-gradient);}.cls-18{fill:url(#radial-gradient-2);}.cls-100,.cls-109,.cls-118,.cls-127,.cls-19,.cls-28,.cls-37,.cls-46,.cls-55,.cls-64,.cls-73,.cls-82,.cls-91{opacity:0.3;}.cls-19{fill:url(#radial-gradient-3);}.cls-101,.cls-110,.cls-119,.cls-128,.cls-20,.cls-29,.cls-38,.cls-47,.cls-56,.cls-65,.cls-74,.cls-83,.cls-92{opacity:0.8;}.cls-20{fill:url(#radial-gradient-4);}.cls-102,.cls-103,.cls-104,.cls-105,.cls-106,.cls-111,.cls-112,.cls-113,.cls-114,.cls-115,.cls-120,.cls-121,.cls-122,.cls-123,.cls-124,.cls-129,.cls-130,.cls-131,.cls-132,.cls-133,.cls-21,.cls-22,.cls-23,.cls-24,.cls-25,.cls-30,.cls-31,.cls-32,.cls-33,.cls-34,.cls-39,.cls-40,.cls-41,.cls-42,.cls-43,.cls-48,.cls-49,.cls-50,.cls-51,.cls-52,.cls-57,.cls-58,.cls-59,.cls-60,.cls-61,.cls-66,.cls-67,.cls-68,.cls-69,.cls-70,.cls-75,.cls-76,.cls-77,.cls-78,.cls-79,.cls-84,.cls-85,.cls-86,.cls-87,.cls-88,.cls-93,.cls-94,.cls-95,.cls-96,.cls-97{opacity:0.7;mix-blend-mode:screen;}.cls-21{fill:url(#linear-gradient);}.cls-22{fill:url(#linear-gradient-2);}.cls-23{fill:url(#linear-gradient-3);}.cls-24{fill:url(#linear-gradient-4);}.cls-25{fill:url(#linear-gradient-5);}.cls-26{fill:url(#radial-gradient-5);}.cls-27{fill:url(#radial-gradient-6);}.cls-28{fill:url(#radial-gradient-7);}.cls-29{fill:url(#radial-gradient-8);}.cls-30{fill:url(#linear-gradient-6);}.cls-31{fill:url(#linear-gradient-7);}.cls-32{fill:url(#linear-gradient-8);}.cls-33{fill:url(#linear-gradient-9);}.cls-34{fill:url(#linear-gradient-10);}.cls-35{fill:url(#radial-gradient-9);}.cls-36{fill:url(#radial-gradient-10);}.cls-37{fill:url(#radial-gradient-11);}.cls-38{fill:url(#radial-gradient-12);}.cls-39{fill:url(#linear-gradient-11);}.cls-40{fill:url(#linear-gradient-12);}.cls-41{fill:url(#linear-gradient-13);}.cls-42{fill:url(#linear-gradient-14);}.cls-43{fill:url(#linear-gradient-15);}.cls-44{fill:url(#radial-gradient-13);}.cls-45{fill:url(#radial-gradient-14);}.cls-46{fill:url(#radial-gradient-15);}.cls-47{fill:url(#radial-gradient-16);}.cls-48{fill:url(#linear-gradient-16);}.cls-49{fill:url(#linear-gradient-17);}.cls-50{fill:url(#linear-gradient-18);}.cls-51{fill:url(#linear-gradient-19);}.cls-52{fill:url(#linear-gradient-20);}.cls-53{fill:url(#radial-gradient-17);}.cls-54{fill:url(#radial-gradient-18);}.cls-55{fill:url(#radial-gradient-19);}.cls-56{fill:url(#radial-gradient-20);}.cls-57{fill:url(#linear-gradient-21);}.cls-58{fill:url(#linear-gradient-22);}.cls-59{fill:url(#linear-gradient-23);}.cls-60{fill:url(#linear-gradient-24);}.cls-61{fill:url(#linear-gradient-25);}.cls-62{fill:url(#radial-gradient-21);}.cls-63{fill:url(#radial-gradient-22);}.cls-64{fill:url(#radial-gradient-23);}.cls-65{fill:url(#radial-gradient-24);}.cls-66{fill:url(#linear-gradient-26);}.cls-67{fill:url(#linear-gradient-27);}.cls-68{fill:url(#linear-gradient-28);}.cls-69{fill:url(#linear-gradient-29);}.cls-70{fill:url(#linear-gradient-30);}.cls-71{fill:url(#radial-gradient-25);}.cls-72{fill:url(#radial-gradient-26);}.cls-73{fill:url(#radial-gradient-27);}.cls-74{fill:url(#radial-gradient-28);}.cls-75{fill:url(#linear-gradient-31);}.cls-76{fill:url(#linear-gradient-32);}.cls-77{fill:url(#linear-gradient-33);}.cls-78{fill:url(#linear-gradient-34);}.cls-79{fill:url(#linear-gradient-35);}.cls-80{fill:url(#radial-gradient-29);}.cls-81{fill:url(#radial-gradient-30);}.cls-82{fill:url(#radial-gradient-31);}.cls-83{fill:url(#radial-gradient-32);}.cls-84{fill:url(#linear-gradient-36);}.cls-85{fill:url(#linear-gradient-37);}.cls-86{fill:url(#linear-gradient-38);}.cls-87{fill:url(#linear-gradient-39);}.cls-88{fill:url(#linear-gradient-40);}.cls-89{fill:url(#radial-gradient-33);}.cls-90{fill:url(#radial-gradient-34);}.cls-91{fill:url(#radial-gradient-35);}.cls-92{fill:url(#radial-gradient-36);}.cls-93{fill:url(#linear-gradient-41);}.cls-94{fill:url(#linear-gradient-42);}.cls-95{fill:url(#linear-gradient-43);}.cls-96{fill:url(#linear-gradient-44);}.cls-97{fill:url(#linear-gradient-45);}.cls-98{fill:url(#radial-gradient-37);}.cls-99{fill:url(#radial-gradient-38);}.cls-100{fill:url(#radial-gradient-39);}.cls-101{fill:url(#radial-gradient-40);}.cls-102{fill:url(#linear-gradient-46);}.cls-103{fill:url(#linear-gradient-47);}.cls-104{fill:url(#linear-gradient-48);}.cls-105{fill:url(#linear-gradient-49);}.cls-106{fill:url(#linear-gradient-50);}.cls-107{fill:url(#radial-gradient-41);}.cls-108{fill:url(#radial-gradient-42);}.cls-109{fill:url(#radial-gradient-43);}.cls-110{fill:url(#radial-gradient-44);}.cls-111{fill:url(#linear-gradient-51);}.cls-112{fill:url(#linear-gradient-52);}.cls-113{fill:url(#linear-gradient-53);}.cls-114{fill:url(#linear-gradient-54);}.cls-115{fill:url(#linear-gradient-55);}.cls-116{fill:url(#radial-gradient-45);}.cls-117{fill:url(#radial-gradient-46);}.cls-118{fill:url(#radial-gradient-47);}.cls-119{fill:url(#radial-gradient-48);}.cls-120{fill:url(#linear-gradient-56);}.cls-121{fill:url(#linear-gradient-57);}.cls-122{fill:url(#linear-gradient-58);}.cls-123{fill:url(#linear-gradient-59);}.cls-124{fill:url(#linear-gradient-60);}.cls-125{fill:url(#radial-gradient-49);}.cls-126{fill:url(#radial-gradient-50);}.cls-127{fill:url(#radial-gradient-51);}.cls-128{fill:url(#radial-gradient-52);}.cls-129{fill:url(#linear-gradient-61);}.cls-130{fill:url(#linear-gradient-62);}.cls-131{fill:url(#linear-gradient-63);}.cls-132{fill:url(#linear-gradient-64);}.cls-133{fill:url(#linear-gradient-65);}</style><radialGradient id="radial-gradient" cx="796.67" cy="-29.64" r="310.22" gradientTransform="matrix(-0.51, 0.77, -0.91, -0.43, 609.02, -123.28)" gradientUnits="userSpaceOnUse"><stop offset="0.56" stop-color="#fff"/><stop offset="0.64" stop-color="#fefbfd"/><stop offset="0.71" stop-color="#fbf0f6"/><stop offset="0.78" stop-color="#f7ddeb"/><stop offset="0.8" stop-color="#f5d6e7"/><stop offset="0.83" stop-color="#efcce2"/><stop offset="0.88" stop-color="#e0b2d4"/><stop offset="0.94" stop-color="#c888bc"/><stop offset="1" stop-color="#ab56a1"/></radialGradient><radialGradient id="radial-gradient-2" cx="-557.92" cy="-85.14" r="310.22" gradientTransform="matrix(0.51, -0.77, 0.91, 0.43, 725.84, -36.32)" gradientUnits="userSpaceOnUse"><stop offset="0.56" stop-color="#fff"/><stop offset="0.6" stop-color="#fbfeff"/><stop offset="0.64" stop-color="#f0fafd"/><stop offset="0.68" stop-color="#ddf4fb"/><stop offset="0.72" stop-color="#c3ebf7"/><stop offset="0.76" stop-color="#a1dff3"/><stop offset="0.8" stop-color="#78d1ed"/><stop offset="0.8" stop-color="#74d0ed"/><stop offset="0.83" stop-color="#6ec6e6"/><stop offset="0.87" stop-color="#5cacd3"/><stop offset="0.93" stop-color="#4082b3"/><stop offset="1" stop-color="#1a4989"/></radialGradient><radialGradient id="radial-gradient-3" cx="-557.92" cy="-85.14" r="310.22" gradientTransform="matrix(0.51, -0.77, 0.91, 0.43, 725.84, -36.32)" gradientUnits="userSpaceOnUse"><stop offset="0.23" stop-color="#fff"/><stop offset="0.32" stop-color="#f0fafd"/><stop offset="0.49" stop-color="#c9edf8"/><stop offset="0.72" stop-color="#8bd8f0"/><stop offset="0.8" stop-color="#74d0ed"/></radialGradient><radialGradient id="radial-gradient-4" cx="-382.57" cy="569.88" r="177.09" gradientTransform="translate(696.91 -72.82) scale(1.05 0.88)" gradientUnits="userSpaceOnUse"><stop offset="0.82" stop-color="#fff"/><stop offset="0.85" stop-color="#fcfeff"/><stop offset="0.88" stop-color="#f1fafd"/><stop offset="0.9" stop-color="#e0f4fb"/><stop offset="0.92" stop-color="#c8ebf9"/><stop offset="0.94" stop-color="#a8e0f5"/><stop offset="0.96" stop-color="#82d3f0"/><stop offset="0.98" stop-color="#54c2eb"/><stop offset="1" stop-color="#20b0e5"/><stop offset="1" stop-color="#17ade4"/></radialGradient><linearGradient id="linear-gradient" x1="438.24" y1="596.2" x2="196.94" y2="309.34" gradientUnits="userSpaceOnUse"><stop offset="0" stop-color="#fff"/><stop offset="0.31" stop-color="#979797"/><stop offset="0.57" stop-color="#464646"/><stop offset="0.75" stop-color="#141414"/><stop offset="0.84" stop-color="#010101"/></linearGradient><linearGradient id="linear-gradient-2" x1="160.38" y1="572.4" x2="309.32" y2="413.89" xlink:href="#linear-gradient"/><linearGradient id="linear-gradient-3" x1="384.83" y1="147.45" x2="302.94" y2="254.93" xlink:href="#linear-gradient"/><linearGradient id="linear-gradient-4" x1="355.84" y1="127.19" x2="328.54" y2="163.02" xlink:href="#linear-gradient"/><linearGradient id="linear-gradient-5" x1="341.83" y1="120.2" x2="333.15" y2="131.59" xlink:href="#linear-gradient"/><radialGradient id="radial-gradient-5" cx="929.7" cy="40.25" r="202.25" xlink:href="#radial-gradient"/><radialGradient id="radial-gradient-6" cx="-762.92" cy="-165.74" r="202.25" xlink:href="#radial-gradient-2"/><radialGradient id="radial-gradient-7" cx="-762.92" cy="-165.74" r="202.25" xlink:href="#radial-gradient-3"/><radialGradient id="radial-gradient-8" cx="-530.66" cy="680.77" r="115.46" xlink:href="#radial-gradient-4"/><linearGradient id="linear-gradient-6" x1="233.65" y1="635.31" x2="76.34" y2="448.29" xlink:href="#linear-gradient"/><linearGradient id="linear-gradient-7" x1="52.5" y1="619.79" x2="149.6" y2="516.45" xlink:href="#linear-gradient"/><linearGradient id="linear-gradient-8" x1="188.98" y1="275.6" x2="135.59" y2="345.67" xlink:href="#linear-gradient"/><linearGradient id="linear-gradient-9" x1="170.08" y1="262.39" x2="152.28" y2="285.75" xlink:href="#linear-gradient"/><linearGradient id="linear-gradient-10" x1="160.94" y1="257.83" x2="155.28" y2="265.26" xlink:href="#linear-gradient"/><radialGradient id="radial-gradient-9" cx="771.04" cy="-266.04" r="145.21" xlink:href="#radial-gradient"/><radialGradient id="radial-gradient-10" cx="-642.28" cy="134.88" r="145.21" xlink:href="#radial-gradient-2"/><radialGradient id="radial-gradient-11" cx="-642.28" cy="134.88" r="145.21" xlink:href="#radial-gradient-3"/><radialGradient id="radial-gradient-12" cx="-197.63" cy="706.77" r="82.89" xlink:href="#radial-gradient-4"/><linearGradient id="linear-gradient-11" x1="556.39" y1="627.32" x2="443.44" y2="493.04" xlink:href="#linear-gradient"/><linearGradient id="linear-gradient-12" x1="426.33" y1="616.17" x2="496.05" y2="541.97" xlink:href="#linear-gradient"/><linearGradient id="linear-gradient-13" x1="516.33" y1="314.65" x2="478" y2="364.96" xlink:href="#linear-gradient"/><linearGradient id="linear-gradient-14" x1="502.76" y1="305.16" x2="489.99" y2="321.94" xlink:href="#linear-gradient"/><linearGradient id="linear-gradient-15" x1="496.2" y1="301.89" x2="492.14" y2="307.23" xlink:href="#linear-gradient"/><radialGradient id="radial-gradient-13" cx="599.43" cy="-188.79" r="108.54" xlink:href="#radial-gradient"/><radialGradient id="radial-gradient-14" cx="-495.11" cy="53.99" r="108.54" xlink:href="#radial-gradient-2"/><radialGradient id="radial-gradient-15" cx="-495.11" cy="53.99" r="108.54" xlink:href="#radial-gradient-3"/><radialGradient id="radial-gradient-16" cx="-188.96" cy="529.06" r="61.96" xlink:href="#radial-gradient-4"/><linearGradient id="linear-gradient-16" x1="548.68" y1="451.19" x2="464.25" y2="350.82" xlink:href="#linear-gradient"/><linearGradient id="linear-gradient-17" x1="451.46" y1="442.86" x2="503.57" y2="387.4" xlink:href="#linear-gradient"/><linearGradient id="linear-gradient-18" x1="511.58" y1="168.76" x2="482.93" y2="206.37" xlink:href="#linear-gradient"/><linearGradient id="linear-gradient-19" x1="501.44" y1="161.67" x2="491.89" y2="174.21" xlink:href="#linear-gradient"/><linearGradient id="linear-gradient-20" x1="496.54" y1="159.22" x2="493.5" y2="163.21" xlink:href="#linear-gradient"/><radialGradient id="radial-gradient-17" cx="677.15" cy="-46.13" r="108.54" xlink:href="#radial-gradient"/><radialGradient id="radial-gradient-18" cx="-572.83" cy="-88.67" r="108.55" xlink:href="#radial-gradient-2"/><radialGradient id="radial-gradient-19" cx="-572.83" cy="-88.67" r="108.55" xlink:href="#radial-gradient-3"/><radialGradient id="radial-gradient-20" cx="-351.41" cy="527.37" r="61.96" xlink:href="#radial-gradient-4"/><linearGradient id="linear-gradient-21" x1="378.51" y1="449.71" x2="294.08" y2="349.34" xlink:href="#linear-gradient"/><linearGradient id="linear-gradient-22" x1="281.29" y1="441.38" x2="333.4" y2="385.92" xlink:href="#linear-gradient"/><linearGradient id="linear-gradient-23" x1="341.41" y1="167.28" x2="312.76" y2="204.89" xlink:href="#linear-gradient"/><linearGradient id="linear-gradient-24" x1="331.27" y1="160.19" x2="321.72" y2="172.73" xlink:href="#linear-gradient"/><linearGradient id="linear-gradient-25" x1="326.37" y1="157.74" x2="323.33" y2="161.73" xlink:href="#linear-gradient"/><radialGradient id="radial-gradient-21" cx="429.88" cy="-49.94" r="50.26" xlink:href="#radial-gradient"/><radialGradient id="radial-gradient-22" cx="-364.42" cy="-90.64" r="50.26" xlink:href="#radial-gradient-2"/><radialGradient id="radial-gradient-23" cx="-364.42" cy="-90.64" r="50.26" xlink:href="#radial-gradient-3"/><radialGradient id="radial-gradient-24" cx="-239.53" cy="328.89" r="28.69" xlink:href="#radial-gradient-4"/><linearGradient id="linear-gradient-26" x1="469.01" y1="243.62" x2="429.92" y2="197.14" xlink:href="#linear-gradient"/><linearGradient id="linear-gradient-27" x1="423.99" y1="239.76" x2="448.12" y2="214.08" xlink:href="#linear-gradient"/><linearGradient id="linear-gradient-28" x1="436.63" y1="9.26" x2="423.36" y2="26.67" xlink:href="#linear-gradient"/><linearGradient id="linear-gradient-29" x1="431.93" y1="5.97" x2="427.51" y2="11.78" xlink:href="#linear-gradient"/><linearGradient id="linear-gradient-30" x1="429.66" y1="4.84" x2="428.26" y2="6.68" xlink:href="#linear-gradient"/><radialGradient id="radial-gradient-25" cx="902.27" cy="37" r="50.26" xlink:href="#radial-gradient"/><radialGradient id="radial-gradient-26" cx="-836.8" cy="-177.59" r="50.26" xlink:href="#radial-gradient-2"/><radialGradient id="radial-gradient-27" cx="-836.8" cy="-177.59" r="50.26" xlink:href="#radial-gradient-3"/><radialGradient id="radial-gradient-28" cx="-545.73" cy="698.95" r="28.69" xlink:href="#radial-gradient-4"/><linearGradient id="linear-gradient-31" x1="148.25" y1="569.06" x2="109.15" y2="522.59" xlink:href="#linear-gradient"/><linearGradient id="linear-gradient-32" x1="103.23" y1="565.21" x2="127.36" y2="539.53" xlink:href="#linear-gradient"/><linearGradient id="linear-gradient-33" x1="115.87" y1="334.7" x2="102.6" y2="352.12" xlink:href="#linear-gradient"/><linearGradient id="linear-gradient-34" x1="111.17" y1="331.42" x2="106.75" y2="337.22" xlink:href="#linear-gradient"/><linearGradient id="linear-gradient-35" x1="108.9" y1="330.29" x2="107.49" y2="332.13" xlink:href="#linear-gradient"/><radialGradient id="radial-gradient-29" cx="922.69" cy="-124.99" r="50.26" xlink:href="#radial-gradient"/><radialGradient id="radial-gradient-30" cx="-857.22" cy="-15.6" r="50.26" xlink:href="#radial-gradient-2"/><radialGradient id="radial-gradient-31" cx="-857.22" cy="-15.6" r="50.26" xlink:href="#radial-gradient-3"/><radialGradient id="radial-gradient-32" cx="-414.25" cy="795.75" r="28.69" xlink:href="#radial-gradient-4"/><linearGradient id="linear-gradient-36" x1="285.98" y1="654.19" x2="246.88" y2="607.72" xlink:href="#linear-gradient"/><linearGradient id="linear-gradient-37" x1="240.96" y1="650.34" x2="265.09" y2="624.66" xlink:href="#linear-gradient"/><linearGradient id="linear-gradient-38" x1="253.6" y1="419.83" x2="240.33" y2="437.25" xlink:href="#linear-gradient"/><linearGradient id="linear-gradient-39" x1="248.9" y1="416.55" x2="244.48" y2="422.35" xlink:href="#linear-gradient"/><linearGradient id="linear-gradient-40" x1="246.63" y1="415.42" x2="245.22" y2="417.26" xlink:href="#linear-gradient"/><radialGradient id="radial-gradient-33" cx="573.49" cy="159.64" r="50.26" xlink:href="#radial-gradient"/><radialGradient id="radial-gradient-34" cx="-508.02" cy="-300.23" r="50.26" xlink:href="#radial-gradient-2"/><radialGradient id="radial-gradient-35" cx="-508.02" cy="-300.23" r="50.26" xlink:href="#radial-gradient-3"/><radialGradient id="radial-gradient-36" cx="-492.53" cy="352.1" r="28.69" xlink:href="#radial-gradient-4"/><linearGradient id="linear-gradient-41" x1="203.98" y1="264.03" x2="164.89" y2="217.55" xlink:href="#linear-gradient"/><linearGradient id="linear-gradient-42" x1="158.96" y1="260.17" x2="183.09" y2="234.49" xlink:href="#linear-gradient"/><linearGradient id="linear-gradient-43" x1="171.6" y1="29.66" x2="158.33" y2="47.08" xlink:href="#linear-gradient"/><linearGradient id="linear-gradient-44" x1="166.9" y1="26.38" x2="162.48" y2="32.19" xlink:href="#linear-gradient"/><linearGradient id="linear-gradient-45" x1="164.63" y1="25.25" x2="163.23" y2="27.1" xlink:href="#linear-gradient"/><radialGradient id="radial-gradient-37" cx="726.24" cy="170.54" r="26.58" xlink:href="#radial-gradient"/><radialGradient id="radial-gradient-38" cx="-676.55" cy="-313.48" r="26.58" xlink:href="#radial-gradient-2"/><radialGradient id="radial-gradient-39" cx="-676.55" cy="-313.48" r="26.58" xlink:href="#radial-gradient-3"/><radialGradient id="radial-gradient-40" cx="-581.38" cy="486.47" r="15.17" xlink:href="#radial-gradient-4"/><linearGradient id="linear-gradient-46" x1="100.05" y1="369.38" x2="79.38" y2="344.81" xlink:href="#linear-gradient"/><linearGradient id="linear-gradient-47" x1="76.24" y1="367.34" x2="89" y2="353.76" xlink:href="#linear-gradient"/><linearGradient id="linear-gradient-48" x1="69.59" y1="154.55" x2="62.57" y2="163.76" xlink:href="#linear-gradient"/><linearGradient id="linear-gradient-49" x1="67.1" y1="152.82" x2="64.76" y2="155.88" xlink:href="#linear-gradient"/><linearGradient id="linear-gradient-50" x1="65.9" y1="152.22" x2="65.16" y2="153.19" xlink:href="#linear-gradient"/><radialGradient id="radial-gradient-41" cx="825.38" cy="125.65" r="26.58" xlink:href="#radial-gradient"/><radialGradient id="radial-gradient-42" cx="-775.7" cy="-268.58" r="26.58" xlink:href="#radial-gradient-2"/><radialGradient id="radial-gradient-43" cx="-775.7" cy="-268.58" r="26.58" xlink:href="#radial-gradient-3"/><radialGradient id="radial-gradient-44" cx="-590.52" cy="594.92" r="15.17" xlink:href="#radial-gradient-4"/><linearGradient id="linear-gradient-51" x1="90.48" y1="464.76" x2="69.81" y2="440.19" xlink:href="#linear-gradient"/><linearGradient id="linear-gradient-52" x1="66.67" y1="462.72" x2="79.43" y2="449.14" xlink:href="#linear-gradient"/><linearGradient id="linear-gradient-53" x1="60.01" y1="249.93" x2="53" y2="259.13" xlink:href="#linear-gradient"/><linearGradient id="linear-gradient-54" x1="57.53" y1="248.19" x2="55.19" y2="251.26" xlink:href="#linear-gradient"/><linearGradient id="linear-gradient-55" x1="56.33" y1="247.59" x2="55.59" y2="248.57" xlink:href="#linear-gradient"/><radialGradient id="radial-gradient-45" cx="539.54" cy="34.01" r="26.58" xlink:href="#radial-gradient"/><radialGradient id="radial-gradient-46" cx="-489.86" cy="-176.95" r="26.58" xlink:href="#radial-gradient-2"/><radialGradient id="radial-gradient-47" cx="-489.86" cy="-176.95" r="26.58" xlink:href="#radial-gradient-3"/><radialGradient id="radial-gradient-48" cx="-371.16" cy="390.03" r="15.17" xlink:href="#radial-gradient-4"/><linearGradient id="linear-gradient-56" x1="320.27" y1="284.57" x2="299.6" y2="259.99" xlink:href="#linear-gradient"/><linearGradient id="linear-gradient-57" x1="296.46" y1="282.53" x2="309.22" y2="268.95" xlink:href="#linear-gradient"/><linearGradient id="linear-gradient-58" x1="289.81" y1="69.74" x2="282.79" y2="78.94" xlink:href="#linear-gradient"/><linearGradient id="linear-gradient-59" x1="287.32" y1="68" x2="284.98" y2="71.07" xlink:href="#linear-gradient"/><linearGradient id="linear-gradient-60" x1="286.12" y1="67.4" x2="285.37" y2="68.38" xlink:href="#linear-gradient"/><radialGradient id="radial-gradient-49" cx="674.58" cy="-196.11" r="26.58" xlink:href="#radial-gradient"/><radialGradient id="radial-gradient-50" cx="-624.89" cy="53.17" r="26.58" xlink:href="#radial-gradient-2"/><radialGradient id="radial-gradient-51" cx="-624.89" cy="53.17" r="26.58" xlink:href="#radial-gradient-3"/><radialGradient id="radial-gradient-52" cx="-236.07" cy="620.11" r="15.17" xlink:href="#radial-gradient-4"/><linearGradient id="linear-gradient-61" x1="461.78" y1="486.92" x2="441.11" y2="462.34" xlink:href="#linear-gradient"/><linearGradient id="linear-gradient-62" x1="437.98" y1="484.88" x2="450.74" y2="471.3" xlink:href="#linear-gradient"/><linearGradient id="linear-gradient-63" x1="431.32" y1="272.08" x2="424.3" y2="281.29" xlink:href="#linear-gradient"/><linearGradient id="linear-gradient-64" x1="428.84" y1="270.35" x2="426.5" y2="273.42" xlink:href="#linear-gradient"/><linearGradient id="linear-gradient-65" x1="427.63" y1="269.75" x2="426.89" y2="270.72" xlink:href="#linear-gradient"/></defs><title>bubble</title><g class="cls-1"><g id="Layer_1" data-name="Layer 1"><ellipse class="cls-2" cx="272.51" cy="308.07" rx="128.52" ry="13.87"/><path class="cls-3" d="M213.47,501H188.29s-19.7-7.5-15-12.37,13.24-.83,13.24-.83-3.81-14.36,3.21-14.7,12.9,9.56,12.9,9.56,3.91-9.9,10.82-7.52S213.47,501,213.47,501Z" transform="translate(-28.31 -192.91)"/><path class="cls-3" d="M383.46,501h25.17s19.7-7.5,15-12.37-13.24-.83-13.24-.83,3.81-14.36-3.21-14.7-12.9,9.56-12.9,9.56-3.91-9.9-10.82-7.52S383.46,501,383.46,501Z" transform="translate(-28.31 -192.91)"/><polygon class="cls-4" points="286.45 136.13 352.18 219.2 401.03 219.2 334.93 135.65 286.45 136.13"/><polygon class="cls-5" points="377.32 219.2 356.35 308.07 183.96 308.07 162.99 219.2 221.32 145.47 318.98 145.47 319.31 145.88 377.32 219.2"/><polygon class="cls-6" points="377.32 219.2 356.35 308.07 282.27 308.07 261.3 219.2 319.31 145.88 377.32 219.2"/><polygon class="cls-7" points="335.04 136.13 269.31 219.2 141.46 219.2 207.56 135.65 335.04 136.13"/><path class="cls-8" d="M188.39,404.36c-2.25,3-6.41,5.46-9.29,5.46s-3.39-2.45-1.14-5.46,6.41-5.46,9.29-5.46S190.64,401.34,188.39,404.36Z" transform="translate(-28.31 -192.91)"/><path class="cls-9" d="M206.36,404.36c-2.25,3-6.41,5.46-9.29,5.46s-3.39-2.45-1.14-5.46,6.41-5.46,9.29-5.46S208.62,401.34,206.36,404.36Z" transform="translate(-28.31 -192.91)"/><path class="cls-10" d="M224.34,404.36c-2.25,3-6.41,5.46-9.29,5.46s-3.39-2.45-1.14-5.46,6.41-5.46,9.29-5.46S226.59,401.34,224.34,404.36Z" transform="translate(-28.31 -192.91)"/><path class="cls-11" d="M242.32,404.36c-2.25,3-6.41,5.46-9.29,5.46s-3.39-2.45-1.14-5.46,6.41-5.46,9.29-5.46S244.57,401.34,242.32,404.36Z" transform="translate(-28.31 -192.91)"/><path class="cls-12" d="M260.29,404.36c-2.25,3-6.41,5.46-9.29,5.46s-3.39-2.45-1.14-5.46,6.41-5.46,9.29-5.46S262.54,401.34,260.29,404.36Z" transform="translate(-28.31 -192.91)"/><path class="cls-13" d="M278.27,404.36c-2.25,3-6.41,5.46-9.29,5.46s-3.39-2.45-1.14-5.46,6.41-5.46,9.29-5.46S280.52,401.34,278.27,404.36Z" transform="translate(-28.31 -192.91)"/><path class="cls-14" d="M296.24,404.36c-2.25,3-6.41,5.46-9.29,5.46s-3.39-2.45-1.14-5.46,6.41-5.46,9.29-5.46S298.49,401.34,296.24,404.36Z" transform="translate(-28.31 -192.91)"/><path class="cls-9" d="M199.37,391.14c-2.25,3-6.41,5.46-9.29,5.46s-3.39-2.45-1.14-5.46,6.41-5.46,9.29-5.46S201.62,388.12,199.37,391.14Z" transform="translate(-28.31 -192.91)"/><path class="cls-10" d="M217.34,391.14c-2.25,3-6.41,5.46-9.29,5.46s-3.39-2.45-1.14-5.46,6.41-5.46,9.29-5.46S219.59,388.12,217.34,391.14Z" transform="translate(-28.31 -192.91)"/><path class="cls-11" d="M235.32,391.14c-2.25,3-6.41,5.46-9.29,5.46s-3.39-2.45-1.14-5.46,6.41-5.46,9.29-5.46S237.57,388.12,235.32,391.14Z" transform="translate(-28.31 -192.91)"/><path class="cls-12" d="M253.29,391.14c-2.25,3-6.41,5.46-9.29,5.46s-3.39-2.45-1.14-5.46,6.41-5.46,9.29-5.46S255.54,388.12,253.29,391.14Z" transform="translate(-28.31 -192.91)"/><path class="cls-13" d="M271.27,391.14c-2.25,3-6.41,5.46-9.29,5.46s-3.39-2.45-1.14-5.46,6.41-5.46,9.29-5.46S273.52,388.12,271.27,391.14Z" transform="translate(-28.31 -192.91)"/><path class="cls-14" d="M289.24,391.14c-2.25,3-6.41,5.46-9.29,5.46s-3.39-2.45-1.14-5.46,6.41-5.46,9.29-5.46S291.5,388.12,289.24,391.14Z" transform="translate(-28.31 -192.91)"/><path class="cls-8" d="M307.22,391.14c-2.25,3-6.41,5.46-9.29,5.46s-3.39-2.45-1.14-5.46,6.41-5.46,9.29-5.46S309.47,388.12,307.22,391.14Z" transform="translate(-28.31 -192.91)"/><path class="cls-10" d="M210.34,377.92c-2.25,3-6.41,5.46-9.29,5.46s-3.39-2.45-1.14-5.46,6.41-5.46,9.29-5.46S212.59,374.91,210.34,377.92Z" transform="translate(-28.31 -192.91)"/><path class="cls-11" d="M228.32,377.92c-2.25,3-6.41,5.46-9.29,5.46s-3.39-2.45-1.14-5.46,6.41-5.46,9.29-5.46S230.57,374.91,228.32,377.92Z" transform="translate(-28.31 -192.91)"/><path class="cls-10" d="M246.29,377.92c-2.25,3-6.41,5.46-9.29,5.46s-3.39-2.45-1.14-5.46,6.41-5.46,9.29-5.46S248.55,374.91,246.29,377.92Z" transform="translate(-28.31 -192.91)"/><path class="cls-11" d="M264.27,377.92c-2.25,3-6.41,5.46-9.29,5.46s-3.39-2.45-1.14-5.46,6.41-5.46,9.29-5.46S266.52,374.91,264.27,377.92Z" transform="translate(-28.31 -192.91)"/><path class="cls-14" d="M282.25,377.92c-2.25,3-6.41,5.46-9.29,5.46s-3.39-2.45-1.14-5.46,6.41-5.46,9.29-5.46S284.5,374.91,282.25,377.92Z" transform="translate(-28.31 -192.91)"/><path class="cls-8" d="M300.22,377.92c-2.25,3-6.41,5.46-9.29,5.46s-3.39-2.45-1.14-5.46,6.41-5.46,9.29-5.46S302.47,374.91,300.22,377.92Z" transform="translate(-28.31 -192.91)"/><path class="cls-9" d="M318.2,377.92c-2.25,3-6.41,5.46-9.29,5.46s-3.39-2.45-1.14-5.46,6.41-5.46,9.29-5.46S320.45,374.91,318.2,377.92Z" transform="translate(-28.31 -192.91)"/><path class="cls-11" d="M221.32,364.71c-2.25,3-6.41,5.46-9.29,5.46s-3.39-2.45-1.14-5.46,6.41-5.46,9.29-5.46S223.57,361.69,221.32,364.71Z" transform="translate(-28.31 -192.91)"/><path class="cls-12" d="M239.3,364.71c-2.25,3-6.41,5.46-9.29,5.46s-3.39-2.45-1.14-5.46,6.41-5.46,9.29-5.46S241.55,361.69,239.3,364.71Z" transform="translate(-28.31 -192.91)"/><path class="cls-10" d="M257.27,364.71c-2.25,3-6.41,5.46-9.29,5.46s-3.39-2.45-1.14-5.46,6.41-5.46,9.29-5.46S259.52,361.69,257.27,364.71Z" transform="translate(-28.31 -192.91)"/><path class="cls-14" d="M275.25,364.71c-2.25,3-6.41,5.46-9.29,5.46s-3.39-2.45-1.14-5.46,6.41-5.46,9.29-5.46S277.5,361.69,275.25,364.71Z" transform="translate(-28.31 -192.91)"/><path class="cls-8" d="M293.22,364.71c-2.25,3-6.41,5.46-9.29,5.46s-3.39-2.45-1.14-5.46,6.41-5.46,9.29-5.46S295.47,361.69,293.22,364.71Z" transform="translate(-28.31 -192.91)"/><path class="cls-9" d="M311.2,364.71c-2.25,3-6.41,5.46-9.29,5.46s-3.39-2.45-1.14-5.46,6.41-5.46,9.29-5.46S313.45,361.69,311.2,364.71Z" transform="translate(-28.31 -192.91)"/><path class="cls-10" d="M329.17,364.71c-2.25,3-6.41,5.46-9.29,5.46s-3.39-2.45-1.14-5.46,6.41-5.46,9.29-5.46S331.43,361.69,329.17,364.71Z" transform="translate(-28.31 -192.91)"/><path class="cls-12" d="M232.3,351.49c-2.25,3-6.41,5.46-9.29,5.46s-3.39-2.45-1.14-5.46,6.41-5.46,9.29-5.46S234.55,348.47,232.3,351.49Z" transform="translate(-28.31 -192.91)"/><path class="cls-9" d="M250.27,351.49c-2.25,3-6.41,5.46-9.29,5.46s-3.39-2.45-1.14-5.46,6.41-5.46,9.29-5.46S252.52,348.47,250.27,351.49Z" transform="translate(-28.31 -192.91)"/><path class="cls-10" d="M268.25,351.49c-2.25,3-6.41,5.46-9.29,5.46s-3.39-2.45-1.14-5.46,6.41-5.46,9.29-5.46S270.5,348.47,268.25,351.49Z" transform="translate(-28.31 -192.91)"/><path class="cls-8" d="M286.22,351.49c-2.25,3-6.41,5.46-9.29,5.46s-3.39-2.45-1.14-5.46,6.41-5.46,9.29-5.46S288.48,348.47,286.22,351.49Z" transform="translate(-28.31 -192.91)"/><path class="cls-9" d="M304.2,351.49c-2.25,3-6.41,5.46-9.29,5.46s-3.39-2.45-1.14-5.46,6.41-5.46,9.29-5.46S306.45,348.47,304.2,351.49Z" transform="translate(-28.31 -192.91)"/><path class="cls-10" d="M322.18,351.49c-2.25,3-6.41,5.46-9.29,5.46s-3.39-2.45-1.14-5.46S318.16,346,321,346,324.43,348.47,322.18,351.49Z" transform="translate(-28.31 -192.91)"/><path class="cls-11" d="M340.15,351.49c-2.25,3-6.41,5.46-9.29,5.46s-3.39-2.45-1.14-5.46S336.13,346,339,346,342.4,348.47,340.15,351.49Z" transform="translate(-28.31 -192.91)"/><path class="cls-13" d="M243.27,338.27c-2.25,3-6.41,5.46-9.29,5.46s-3.39-2.45-1.14-5.46,6.41-5.46,9.29-5.46S245.53,335.26,243.27,338.27Z" transform="translate(-28.31 -192.91)"/><path class="cls-14" d="M261.25,338.27c-2.25,3-6.41,5.46-9.29,5.46s-3.39-2.45-1.14-5.46,6.41-5.46,9.29-5.46S263.5,335.26,261.25,338.27Z" transform="translate(-28.31 -192.91)"/><path class="cls-8" d="M279.23,338.27c-2.25,3-6.41,5.46-9.29,5.46s-3.39-2.45-1.14-5.46,6.41-5.46,9.29-5.46S281.48,335.26,279.23,338.27Z" transform="translate(-28.31 -192.91)"/><path class="cls-9" d="M297.2,338.27c-2.25,3-6.41,5.46-9.29,5.46s-3.39-2.45-1.14-5.46,6.41-5.46,9.29-5.46S299.45,335.26,297.2,338.27Z" transform="translate(-28.31 -192.91)"/><path class="cls-10" d="M315.18,338.27c-2.25,3-6.41,5.46-9.29,5.46s-3.39-2.45-1.14-5.46,6.41-5.46,9.29-5.46S317.43,335.26,315.18,338.27Z" transform="translate(-28.31 -192.91)"/><path class="cls-11" d="M333.15,338.27c-2.25,3-6.41,5.46-9.29,5.46s-3.39-2.45-1.14-5.46,6.41-5.46,9.29-5.46S335.4,335.26,333.15,338.27Z" transform="translate(-28.31 -192.91)"/><path class="cls-12" d="M351.13,338.27c-2.25,3-6.41,5.46-9.29,5.46s-3.39-2.45-1.14-5.46,6.41-5.46,9.29-5.46S353.38,335.26,351.13,338.27Z" transform="translate(-28.31 -192.91)"/><polygon class="cls-4" points="141.46 219.2 141.46 224.8 270.15 224.8 335.04 143.72 393.32 219.2 377.32 219.2 376.06 224.8 401.03 224.8 401.03 219.2 335.04 136.13 269.31 219.2 141.46 219.2"/><polygon class="cls-9" points="263.47 282.21 193.14 282.21 184.74 248.92 255.08 248.92 263.47 282.21"/><polygon class="cls-12" points="221.32 264.01 192.82 264.01 189.72 251.72 218.22 251.72 221.32 264.01"/><polygon class="cls-12" points="254.6 264.01 226.11 264.01 223.01 251.72 251.5 251.72 254.6 264.01"/><polygon class="cls-12" points="225.21 279.41 196.71 279.41 193.61 267.12 222.1 267.12 225.21 279.41"/><polygon class="cls-12" points="258.49 279.41 229.99 279.41 226.89 267.12 255.39 267.12 258.49 279.41"/><polygon class="cls-14" points="188.41 308.07 182.73 308.07 163.24 224.8 168.92 224.8 188.41 308.07"/><polygon class="cls-10" points="170.83 232.97 166.13 237.17 164.69 231.02 169.39 226.82 170.83 232.97"/><polygon class="cls-10" points="174.06 246.75 169.36 250.94 167.92 244.8 172.62 240.6 174.06 246.75"/><polygon class="cls-10" points="177.28 260.52 172.58 264.72 171.15 258.57 175.84 254.38 177.28 260.52"/><polygon class="cls-10" points="180.51 274.3 175.81 278.5 174.37 272.35 179.07 268.15 180.51 274.3"/><polygon class="cls-10" points="183.73 288.07 179.03 292.27 177.59 286.13 182.29 281.93 183.73 288.07"/><polygon class="cls-10" points="186.96 301.85 182.26 306.05 180.82 299.9 185.52 295.7 186.96 301.85"/><polygon class="cls-14" points="354.16 308.07 360.23 308.07 381.03 219.2 374.97 219.2 354.16 308.07"/><polygon class="cls-10" points="372.93 227.92 377.94 232.4 379.47 225.84 374.46 221.36 372.93 227.92"/><polygon class="cls-10" points="369.48 242.62 374.5 247.1 376.03 240.54 371.02 236.06 369.48 242.62"/><polygon class="cls-10" points="366.04 257.33 371.06 261.81 372.59 255.25 367.58 250.77 366.04 257.33"/><polygon class="cls-10" points="362.6 272.03 367.61 276.51 369.15 269.95 364.14 265.47 362.6 272.03"/><polygon class="cls-10" points="359.16 286.73 364.17 291.21 365.71 284.65 360.69 280.17 359.16 286.73"/><polygon class="cls-10" points="355.72 301.43 360.73 305.91 362.27 299.35 357.25 294.87 355.72 301.43"/><polygon class="cls-14" points="285.09 308.07 279.41 308.07 259.92 224.8 265.6 224.8 285.09 308.07"/><polygon class="cls-10" points="267.51 232.97 262.81 237.17 261.38 231.02 266.07 226.82 267.51 232.97"/><polygon class="cls-10" points="270.74 246.75 266.04 250.94 264.6 244.8 269.3 240.6 270.74 246.75"/><polygon class="cls-10" points="273.96 260.52 269.26 264.72 267.83 258.57 272.52 254.38 273.96 260.52"/><polygon class="cls-10" points="277.19 274.3 272.49 278.5 271.05 272.35 275.75 268.15 277.19 274.3"/><polygon class="cls-10" points="280.41 288.07 275.71 292.27 274.28 286.13 278.97 281.93 280.41 288.07"/><polygon class="cls-10" points="283.64 301.85 278.94 306.05 277.5 299.9 282.2 295.7 283.64 301.85"/><ellipse class="cls-8" cx="319.31" cy="202.83" rx="21.14" ry="17.75"/><path class="cls-12" d="M345.65,394.08H330.87c.89-6.49,7-11.64,14.77-12.4Z" transform="translate(-28.31 -192.91)"/><path class="cls-12" d="M330.86,397.41h14.79v12.4C337.9,409.06,331.76,403.91,330.86,397.41Z" transform="translate(-28.31 -192.91)"/><path class="cls-12" d="M364.39,397.41c-.9,6.49-7,11.64-14.79,12.4v-12.4Z" transform="translate(-28.31 -192.91)"/><path class="cls-12" d="M364.39,394.08H349.6v-12.4C357.34,382.44,363.49,387.59,364.39,394.08Z" transform="translate(-28.31 -192.91)"/><polygon class="cls-4" points="301.78 254.38 336.84 254.38 333.73 308.07 304.89 308.07 301.78 254.38"/><polygon class="cls-14" points="340.53 248.2 340.53 255.24 322.33 255.24 308.92 255.22 298.09 255.22 298.09 248.19 305.47 248.19 316.29 248.2 340.53 248.2"/><polygon class="cls-10" points="308.91 255.24 316.3 248.19 305.48 248.19 298.09 255.23 308.91 255.24"/><polygon class="cls-10" points="333.15 255.25 340.54 248.2 329.72 248.2 322.33 255.24 333.15 255.25"/><rect class="cls-15" x="203.9" y="158.67" width="27.64" height="32.19"/><polygon class="cls-4" points="247.31 158.67 231.54 158.67 231.54 190.87 247.31 172.16 247.31 158.67"/><polygon class="cls-14" points="250.37 151.55 250.37 159.77 229.13 159.77 213.48 159.75 200.83 159.75 200.83 151.53 209.45 151.53 222.07 151.55 250.37 151.55"/><polygon class="cls-10" points="213.46 159.76 222.08 151.54 209.46 151.54 200.84 159.76 213.46 159.76"/><polygon class="cls-10" points="241.75 159.78 250.38 151.56 237.75 151.55 229.13 159.77 241.75 159.78"/><ellipse class="cls-16" cx="329.34" cy="282.8" rx="3.45" ry="2.89"/><path class="cls-17" d="M211.9,555C128.56,516,98.72,427.59,145.25,357.63s151.81-95,235.16-56,113.18,127.45,66.65,197.42S295.24,594.11,211.9,555Z" transform="translate(-28.31 -192.91)"/><path class="cls-18" d="M380.4,301.67c83.35,39.07,113.18,127.46,66.65,197.42s-151.81,95-235.16,56S98.71,427.6,145.24,357.63,297.05,262.61,380.4,301.67Z" transform="translate(-28.31 -192.91)"/><path class="cls-19" d="M380.4,301.67c83.35,39.07,113.18,127.46,66.65,197.42s-151.81,95-235.16,56S98.71,427.6,145.24,357.63,297.05,262.61,380.4,301.67Z" transform="translate(-28.31 -192.91)"/><path class="cls-20" d="M380.4,301.67c83.35,39.07,113.18,127.46,66.65,197.42s-151.81,95-235.16,56S98.71,427.6,145.24,357.63,297.05,262.61,380.4,301.67Z" transform="translate(-28.31 -192.91)"/><path class="cls-21" d="M380.4,301.67c-83.34-39.06-188.62-14-235.15,56-27,40.53-28.24,87.22-8.39,126.95a173.65,173.65,0,0,0,37.58,23.78c83.35,39.06,188.63,14,235.16-56,27-40.53,28.23-87.22,8.38-126.95A173.49,173.49,0,0,0,380.4,301.67Z" transform="translate(-28.31 -192.91)"/><path class="cls-22" d="M241.74,526.9C163,490,134.81,406.48,178.77,340.37a139.38,139.38,0,0,1,14.38-18.09,146.45,146.45,0,0,0-41.56,40.9c-44,66.11-15.77,149.62,63,186.52,71.07,33.31,159,17.26,207.8-34.78C372.12,548.11,301.06,554.69,241.74,526.9Z" transform="translate(-28.31 -192.91)"/><ellipse class="cls-23" cx="373.13" cy="162.81" rx="24.97" ry="20.97"/><ellipse class="cls-24" cx="351.94" cy="132.31" rx="8.33" ry="6.99"/><ellipse class="cls-25" cx="340.59" cy="121.83" rx="2.65" ry="2.22"/><path class="cls-26" d="M86.09,608.48C31.75,583,12.3,525.38,42.63,479.77s99-61.95,153.31-36.48S269.73,526.38,239.4,572,140.42,633.94,86.09,608.48Z" transform="translate(-28.31 -192.91)"/><path class="cls-27" d="M195.94,443.29c54.34,25.47,73.79,83.1,43.46,128.71s-99,61.95-153.31,36.48S12.29,525.38,42.63,479.77,141.61,417.82,195.94,443.29Z" transform="translate(-28.31 -192.91)"/><path class="cls-28" d="M195.94,443.29c54.34,25.47,73.79,83.1,43.46,128.71s-99,61.95-153.31,36.48S12.29,525.38,42.63,479.77,141.61,417.82,195.94,443.29Z" transform="translate(-28.31 -192.91)"/><path class="cls-29" d="M195.94,443.29c54.34,25.47,73.79,83.1,43.46,128.71s-99,61.95-153.31,36.48S12.29,525.38,42.63,479.77,141.61,417.82,195.94,443.29Z" transform="translate(-28.31 -192.91)"/><path class="cls-30" d="M195.94,443.29c-54.33-25.47-123-9.13-153.31,36.48-17.57,26.42-18.41,56.87-5.47,82.76A113.28,113.28,0,0,0,61.66,578c54.34,25.47,123,9.13,153.32-36.48,17.57-26.42,18.41-56.86,5.46-82.76A113.1,113.1,0,0,0,195.94,443.29Z" transform="translate(-28.31 -192.91)"/><path class="cls-31" d="M105.54,590.12c-51.34-24.06-69.71-78.5-41.05-121.61a90.64,90.64,0,0,1,9.38-11.79,95.4,95.4,0,0,0-27.09,26.66C18.11,526.49,36.49,580.93,87.82,605c46.34,21.72,103.67,11.25,135.48-22.67C190.54,604,144.21,608.25,105.54,590.12Z" transform="translate(-28.31 -192.91)"/><ellipse class="cls-32" cx="181.35" cy="285.61" rx="16.28" ry="13.67"/><ellipse class="cls-33" cx="167.53" cy="265.73" rx="5.43" ry="4.56"/><ellipse class="cls-34" cx="160.13" cy="258.89" rx="1.73" ry="1.45"/><path class="cls-35" d="M450.45,608.05c-39-18.29-53-59.66-31.2-92.41s71.06-44.48,110.07-26.19,53,59.66,31.2,92.41S489.46,626.34,450.45,608.05Z" transform="translate(-28.31 -192.91)"/><path class="cls-36" d="M529.32,489.45c39,18.29,53,59.66,31.2,92.41s-71.06,44.48-110.07,26.2-53-59.66-31.2-92.41S490.31,471.16,529.32,489.45Z" transform="translate(-28.31 -192.91)"/><path class="cls-37" d="M529.32,489.45c39,18.29,53,59.66,31.2,92.41s-71.06,44.48-110.07,26.2-53-59.66-31.2-92.41S490.31,471.16,529.32,489.45Z" transform="translate(-28.31 -192.91)"/><path class="cls-38" d="M529.32,489.45c39,18.29,53,59.66,31.2,92.41s-71.06,44.48-110.07,26.2-53-59.66-31.2-92.41S490.31,471.16,529.32,489.45Z" transform="translate(-28.31 -192.91)"/><path class="cls-39" d="M529.32,489.45c-39-18.29-88.29-6.56-110.07,26.19-12.61,19-13.21,40.83-3.92,59.42a81.26,81.26,0,0,0,17.58,11.13c39,18.29,88.3,6.56,110.08-26.19,12.62-19,13.22-40.83,3.92-59.42A81.11,81.11,0,0,0,529.32,489.45Z" transform="translate(-28.31 -192.91)"/><path class="cls-40" d="M464.41,594.88c-36.86-17.28-50.05-56.37-29.47-87.31a65.68,65.68,0,0,1,6.73-8.47,68.54,68.54,0,0,0-19.45,19.15c-20.58,30.94-7.39,70,29.47,87.31,33.27,15.59,74.43,8.08,97.27-16.28C525.44,604.81,492.18,607.89,464.41,594.88Z" transform="translate(-28.31 -192.91)"/><ellipse class="cls-41" cx="510.86" cy="321.84" rx="11.69" ry="9.81"/><ellipse class="cls-42" cx="500.94" cy="307.56" rx="3.9" ry="3.27"/><ellipse class="cls-43" cx="495.62" cy="302.65" rx="1.24" ry="1.04"/><path class="cls-44" d="M469.48,436.79c-29.16-13.67-39.6-44.59-23.32-69.07s53.12-33.25,82.28-19.58,39.6,44.59,23.32,69.08S498.64,450.45,469.48,436.79Z" transform="translate(-28.31 -192.91)"/><path class="cls-45" d="M528.44,348.13c29.17,13.67,39.6,44.6,23.32,69.08s-53.12,33.24-82.28,19.58-39.6-44.59-23.32-69.07S499.28,334.47,528.44,348.13Z" transform="translate(-28.31 -192.91)"/><path class="cls-46" d="M528.44,348.13c29.17,13.67,39.6,44.6,23.32,69.08s-53.12,33.24-82.28,19.58-39.6-44.59-23.32-69.07S499.28,334.47,528.44,348.13Z" transform="translate(-28.31 -192.91)"/><path class="cls-47" d="M528.44,348.13c29.17,13.67,39.6,44.6,23.32,69.08s-53.12,33.24-82.28,19.58-39.6-44.59-23.32-69.07S499.28,334.47,528.44,348.13Z" transform="translate(-28.31 -192.91)"/><path class="cls-48" d="M528.44,348.13c-29.16-13.67-66-4.9-82.27,19.58a43.51,43.51,0,0,0-2.94,44.42,60.73,60.73,0,0,0,13.15,8.32c29.16,13.67,66,4.9,82.28-19.58a43.51,43.51,0,0,0,2.93-44.42A60.75,60.75,0,0,0,528.44,348.13Z" transform="translate(-28.31 -192.91)"/><path class="cls-49" d="M479.93,426.94c-27.55-12.92-37.42-42.13-22-65.26a48.87,48.87,0,0,1,5-6.33,51.26,51.26,0,0,0-14.54,14.31c-15.38,23.13-5.52,52.35,22,65.27,24.87,11.66,55.64,6,72.71-12.17C525.54,434.36,500.68,436.67,479.93,426.94Z" transform="translate(-28.31 -192.91)"/><ellipse class="cls-50" cx="507.49" cy="174.13" rx="8.74" ry="7.33"/><ellipse class="cls-51" cx="500.08" cy="163.46" rx="2.91" ry="2.45"/><ellipse class="cls-52" cx="496.1" cy="159.79" rx="0.93" ry="0.78"/><path class="cls-53" d="M299.32,435.31c-29.16-13.67-39.6-44.59-23.32-69.08s53.11-33.25,82.28-19.58,39.6,44.6,23.32,69.08S328.47,449,299.32,435.31Z" transform="translate(-28.31 -192.91)"/><path class="cls-54" d="M358.27,346.65c29.16,13.67,39.6,44.6,23.32,69.08S328.47,449,299.31,435.31s-39.6-44.59-23.32-69.08S329.11,333,358.27,346.65Z" transform="translate(-28.31 -192.91)"/><path class="cls-55" d="M358.27,346.65c29.16,13.67,39.6,44.6,23.32,69.08S328.47,449,299.31,435.31s-39.6-44.59-23.32-69.08S329.11,333,358.27,346.65Z" transform="translate(-28.31 -192.91)"/><path class="cls-56" d="M358.27,346.65c29.16,13.67,39.6,44.6,23.32,69.08S328.47,449,299.31,435.31s-39.6-44.59-23.32-69.08S329.11,333,358.27,346.65Z" transform="translate(-28.31 -192.91)"/><path class="cls-57" d="M358.27,346.65c-29.16-13.67-66-4.9-82.28,19.58a43.51,43.51,0,0,0-2.93,44.42A60.86,60.86,0,0,0,286.2,419c29.16,13.67,66,4.9,82.28-19.58A43.51,43.51,0,0,0,371.42,355,60.87,60.87,0,0,0,358.27,346.65Z" transform="translate(-28.31 -192.91)"/><path class="cls-58" d="M309.76,425.45c-27.55-12.91-37.42-42.13-22-65.26a48.71,48.71,0,0,1,5-6.33,51.2,51.2,0,0,0-14.54,14.31c-15.38,23.13-5.52,52.35,22,65.27,24.87,11.66,55.64,6,72.71-12.17C355.38,432.88,330.51,435.19,309.76,425.45Z" transform="translate(-28.31 -192.91)"/><ellipse class="cls-59" cx="337.32" cy="172.65" rx="8.74" ry="7.33"/><ellipse class="cls-60" cx="329.91" cy="161.98" rx="2.91" ry="2.45"/><ellipse class="cls-61" cx="325.93" cy="158.31" rx="0.93" ry="0.78"/><path class="cls-62" d="M432.34,236.95c-13.51-6.33-18.34-20.65-10.8-32s24.6-15.4,38.1-9.07,18.33,20.65,10.8,32S445.84,243.28,432.34,236.95Z" transform="translate(-28.31 -192.91)"/><path class="cls-63" d="M459.64,195.9c13.5,6.33,18.33,20.65,10.8,32s-24.6,15.39-38.09,9.06S414,216.3,421.54,205,446.14,189.57,459.64,195.9Z" transform="translate(-28.31 -192.91)"/><path class="cls-64" d="M459.64,195.9c13.5,6.33,18.33,20.65,10.8,32s-24.6,15.39-38.09,9.06S414,216.3,421.54,205,446.14,189.57,459.64,195.9Z" transform="translate(-28.31 -192.91)"/><path class="cls-65" d="M459.64,195.9c13.5,6.33,18.33,20.65,10.8,32s-24.6,15.39-38.09,9.06S414,216.3,421.54,205,446.14,189.57,459.64,195.9Z" transform="translate(-28.31 -192.91)"/><path class="cls-66" d="M459.64,195.9c-13.5-6.33-30.56-2.27-38.1,9.07a20.15,20.15,0,0,0-1.36,20.57,28.19,28.19,0,0,0,6.09,3.85c13.5,6.33,30.56,2.27,38.1-9.06a20.16,20.16,0,0,0,1.36-20.57A28.38,28.38,0,0,0,459.64,195.9Z" transform="translate(-28.31 -192.91)"/><path class="cls-67" d="M437.17,232.39c-12.75-6-17.32-19.51-10.2-30.22a22.12,22.12,0,0,1,2.33-2.93,23.66,23.66,0,0,0-6.73,6.63c-7.13,10.71-2.56,24.24,10.2,30.22,11.51,5.4,25.76,2.8,33.66-5.63A30.66,30.66,0,0,1,437.17,232.39Z" transform="translate(-28.31 -192.91)"/><ellipse class="cls-68" cx="434.74" cy="11.74" rx="4.05" ry="3.4"/><ellipse class="cls-69" cx="431.3" cy="6.8" rx="1.35" ry="1.13"/><ellipse class="cls-70" cx="429.46" cy="5.1" rx="0.43" ry="0.36"/><path class="cls-71" d="M111.58,562.4c-13.5-6.33-18.33-20.65-10.8-32s24.59-15.39,38.1-9.07,18.34,20.65,10.8,32S125.08,568.72,111.58,562.4Z" transform="translate(-28.31 -192.91)"/><path class="cls-72" d="M138.87,521.34c13.5,6.33,18.34,20.65,10.8,32s-24.6,15.39-38.1,9.07-18.34-20.65-10.8-32S125.37,515,138.87,521.34Z" transform="translate(-28.31 -192.91)"/><path class="cls-73" d="M138.87,521.34c13.5,6.33,18.34,20.65,10.8,32s-24.6,15.39-38.1,9.07-18.34-20.65-10.8-32S125.37,515,138.87,521.34Z" transform="translate(-28.31 -192.91)"/><path class="cls-74" d="M138.87,521.34c13.5,6.33,18.34,20.65,10.8,32s-24.6,15.39-38.1,9.07-18.34-20.65-10.8-32S125.37,515,138.87,521.34Z" transform="translate(-28.31 -192.91)"/><path class="cls-75" d="M138.87,521.34c-13.5-6.33-30.56-2.27-38.1,9.06A20.15,20.15,0,0,0,99.42,551a28,28,0,0,0,6.09,3.85c13.5,6.33,30.56,2.27,38.1-9.06A20.14,20.14,0,0,0,145,525.2,28.3,28.3,0,0,0,138.87,521.34Z" transform="translate(-28.31 -192.91)"/><path class="cls-76" d="M116.41,557.83c-12.75-6-17.32-19.51-10.2-30.21a22.47,22.47,0,0,1,2.33-2.93,23.68,23.68,0,0,0-6.73,6.63C94.68,542,99.25,555.55,112,561.53c11.51,5.39,25.76,2.79,33.66-5.64A30.66,30.66,0,0,1,116.41,557.83Z" transform="translate(-28.31 -192.91)"/><ellipse class="cls-77" cx="113.97" cy="337.19" rx="4.05" ry="3.4"/><ellipse class="cls-78" cx="110.54" cy="332.25" rx="1.35" ry="1.13"/><ellipse class="cls-79" cx="108.7" cy="330.55" rx="0.43" ry="0.36"/><path class="cls-80" d="M249.31,647.53c-13.5-6.33-18.34-20.65-10.8-32s24.6-15.39,38.1-9.06,18.34,20.65,10.8,32S262.81,653.85,249.31,647.53Z" transform="translate(-28.31 -192.91)"/><path class="cls-81" d="M276.6,606.48c13.51,6.33,18.34,20.65,10.8,32s-24.6,15.39-38.1,9.07-18.34-20.65-10.8-32S263.1,600.15,276.6,606.48Z" transform="translate(-28.31 -192.91)"/><path class="cls-82" d="M276.6,606.48c13.51,6.33,18.34,20.65,10.8,32s-24.6,15.39-38.1,9.07-18.34-20.65-10.8-32S263.1,600.15,276.6,606.48Z" transform="translate(-28.31 -192.91)"/><path class="cls-83" d="M276.6,606.48c13.51,6.33,18.34,20.65,10.8,32s-24.6,15.39-38.1,9.07-18.34-20.65-10.8-32S263.1,600.15,276.6,606.48Z" transform="translate(-28.31 -192.91)"/><path class="cls-84" d="M276.6,606.48c-13.5-6.33-30.56-2.27-38.1,9.06a20.14,20.14,0,0,0-1.36,20.57,28.15,28.15,0,0,0,6.09,3.85c13.5,6.33,30.56,2.27,38.1-9.06a20.14,20.14,0,0,0,1.35-20.57A28.22,28.22,0,0,0,276.6,606.48Z" transform="translate(-28.31 -192.91)"/><path class="cls-85" d="M254.14,643c-12.75-6-17.32-19.51-10.2-30.22a22.47,22.47,0,0,1,2.33-2.93,23.75,23.75,0,0,0-6.73,6.63c-7.12,10.71-2.56,24.24,10.2,30.22,11.51,5.4,25.76,2.8,33.66-5.63A30.66,30.66,0,0,1,254.14,643Z" transform="translate(-28.31 -192.91)"/><ellipse class="cls-86" cx="251.7" cy="422.32" rx="4.05" ry="3.4"/><ellipse class="cls-87" cx="248.27" cy="417.38" rx="1.35" ry="1.13"/><ellipse class="cls-88" cx="246.43" cy="415.68" rx="0.43" ry="0.36"/><path class="cls-89" d="M167.31,257.36c-13.5-6.33-18.34-20.65-10.8-32s24.6-15.4,38.1-9.07,18.34,20.65,10.8,32S180.81,263.69,167.31,257.36Z" transform="translate(-28.31 -192.91)"/><path class="cls-90" d="M194.61,216.31c13.5,6.33,18.34,20.65,10.8,32s-24.6,15.39-38.1,9.07-18.34-20.65-10.8-32S181.11,210,194.61,216.31Z" transform="translate(-28.31 -192.91)"/><path class="cls-91" d="M194.61,216.31c13.5,6.33,18.34,20.65,10.8,32s-24.6,15.39-38.1,9.07-18.34-20.65-10.8-32S181.11,210,194.61,216.31Z" transform="translate(-28.31 -192.91)"/><path class="cls-92" d="M194.61,216.31c13.5,6.33,18.34,20.65,10.8,32s-24.6,15.39-38.1,9.07-18.34-20.65-10.8-32S181.11,210,194.61,216.31Z" transform="translate(-28.31 -192.91)"/><path class="cls-93" d="M194.61,216.31c-13.5-6.33-30.56-2.27-38.1,9.07a20.15,20.15,0,0,0-1.36,20.57,28.15,28.15,0,0,0,6.09,3.85c13.5,6.33,30.56,2.27,38.1-9.06a20.14,20.14,0,0,0,1.36-20.57A28.21,28.21,0,0,0,194.61,216.31Z" transform="translate(-28.31 -192.91)"/><path class="cls-94" d="M172.14,252.8c-12.75-6-17.32-19.51-10.2-30.22a22.41,22.41,0,0,1,2.33-2.93,23.7,23.7,0,0,0-6.73,6.63c-7.12,10.71-2.56,24.24,10.2,30.22,11.51,5.4,25.76,2.8,33.66-5.63A30.66,30.66,0,0,1,172.14,252.8Z" transform="translate(-28.31 -192.91)"/><ellipse class="cls-95" cx="169.7" cy="32.15" rx="4.05" ry="3.4"/><ellipse class="cls-96" cx="166.27" cy="27.21" rx="1.35" ry="1.13"/><ellipse class="cls-97" cx="164.43" cy="25.51" rx="0.43" ry="0.36"/><path class="cls-98" d="M80.66,365.86c-7.14-3.35-9.7-10.92-5.71-16.91s13-8.14,20.15-4.79,9.7,10.92,5.71,16.91S87.8,369.21,80.66,365.86Z" transform="translate(-28.31 -192.91)"/><path class="cls-99" d="M95.09,344.15c7.14,3.35,9.7,10.92,5.71,16.91s-13,8.14-20.15,4.8-9.7-10.92-5.71-16.91S88,340.8,95.09,344.15Z" transform="translate(-28.31 -192.91)"/><path class="cls-100" d="M95.09,344.15c7.14,3.35,9.7,10.92,5.71,16.91s-13,8.14-20.15,4.8-9.7-10.92-5.71-16.91S88,340.8,95.09,344.15Z" transform="translate(-28.31 -192.91)"/><path class="cls-101" d="M95.09,344.15c7.14,3.35,9.7,10.92,5.71,16.91s-13,8.14-20.15,4.8-9.7-10.92-5.71-16.91S88,340.8,95.09,344.15Z" transform="translate(-28.31 -192.91)"/><path class="cls-102" d="M95.09,344.15c-7.14-3.35-16.16-1.2-20.15,4.79a10.66,10.66,0,0,0-.72,10.88,14.91,14.91,0,0,0,3.22,2c7.14,3.35,16.16,1.2,20.15-4.79a10.65,10.65,0,0,0,.72-10.88A14.93,14.93,0,0,0,95.09,344.15Z" transform="translate(-28.31 -192.91)"/><path class="cls-103" d="M83.21,363.45c-6.74-3.16-9.16-10.32-5.39-16a11.54,11.54,0,0,1,1.23-1.55,12.51,12.51,0,0,0-3.56,3.5c-3.77,5.67-1.35,12.82,5.4,16,6.09,2.85,13.62,1.48,17.8-3A16.22,16.22,0,0,1,83.21,363.45Z" transform="translate(-28.31 -192.91)"/><ellipse class="cls-104" cx="68.58" cy="155.87" rx="2.14" ry="1.8"/><ellipse class="cls-105" cx="66.77" cy="153.25" rx="0.71" ry="0.6"/><ellipse class="cls-106" cx="65.79" cy="152.36" rx="0.22" ry="0.19"/><path class="cls-107" d="M71.09,461.23c-7.14-3.34-9.7-10.92-5.71-16.91s13-8.14,20.15-4.8,9.7,10.92,5.71,16.91S78.23,464.58,71.09,461.23Z" transform="translate(-28.31 -192.91)"/><path class="cls-108" d="M85.52,439.53c7.14,3.35,9.7,10.92,5.71,16.91s-13,8.14-20.14,4.79-9.7-10.92-5.71-16.91S78.38,436.18,85.52,439.53Z" transform="translate(-28.31 -192.91)"/><path class="cls-109" d="M85.52,439.53c7.14,3.35,9.7,10.92,5.71,16.91s-13,8.14-20.14,4.79-9.7-10.92-5.71-16.91S78.38,436.18,85.52,439.53Z" transform="translate(-28.31 -192.91)"/><path class="cls-110" d="M85.52,439.53c7.14,3.35,9.7,10.92,5.71,16.91s-13,8.14-20.14,4.79-9.7-10.92-5.71-16.91S78.38,436.18,85.52,439.53Z" transform="translate(-28.31 -192.91)"/><path class="cls-111" d="M85.52,439.53c-7.14-3.35-16.16-1.2-20.14,4.8a10.64,10.64,0,0,0-.72,10.88,14.89,14.89,0,0,0,3.22,2C75,460.58,84,458.43,88,452.44a10.64,10.64,0,0,0,.72-10.87A14.84,14.84,0,0,0,85.52,439.53Z" transform="translate(-28.31 -192.91)"/><path class="cls-112" d="M73.64,458.83c-6.74-3.16-9.16-10.32-5.39-16a12,12,0,0,1,1.23-1.55,12.56,12.56,0,0,0-3.56,3.51c-3.77,5.66-1.35,12.82,5.4,16,6.09,2.85,13.62,1.48,17.8-3A16.22,16.22,0,0,1,73.64,458.83Z" transform="translate(-28.31 -192.91)"/><ellipse class="cls-113" cx="59.01" cy="251.24" rx="2.14" ry="1.79"/><ellipse class="cls-114" cx="57.2" cy="248.63" rx="0.71" ry="0.6"/><ellipse class="cls-115" cx="56.22" cy="247.73" rx="0.23" ry="0.19"/><path class="cls-116" d="M300.88,281c-7.14-3.35-9.7-10.92-5.71-16.91s13-8.14,20.15-4.8,9.7,10.92,5.71,16.91S308,284.39,300.88,281Z" transform="translate(-28.31 -192.91)"/><path class="cls-117" d="M315.31,259.33c7.14,3.35,9.7,10.92,5.71,16.91s-13,8.14-20.14,4.79-9.7-10.92-5.71-16.91S308.17,256,315.31,259.33Z" transform="translate(-28.31 -192.91)"/><path class="cls-118" d="M315.31,259.33c7.14,3.35,9.7,10.92,5.71,16.91s-13,8.14-20.14,4.79-9.7-10.92-5.71-16.91S308.17,256,315.31,259.33Z" transform="translate(-28.31 -192.91)"/><path class="cls-119" d="M315.31,259.33c7.14,3.35,9.7,10.92,5.71,16.91s-13,8.14-20.14,4.79-9.7-10.92-5.71-16.91S308.17,256,315.31,259.33Z" transform="translate(-28.31 -192.91)"/><path class="cls-120" d="M315.31,259.33c-7.14-3.35-16.16-1.2-20.15,4.8a10.64,10.64,0,0,0-.72,10.88,14.79,14.79,0,0,0,3.21,2c7.14,3.35,16.16,1.2,20.15-4.79a10.65,10.65,0,0,0,.72-10.88A14.87,14.87,0,0,0,315.31,259.33Z" transform="translate(-28.31 -192.91)"/><path class="cls-121" d="M303.43,278.63c-6.74-3.17-9.16-10.32-5.39-16a11.41,11.41,0,0,1,1.24-1.55,12.48,12.48,0,0,0-3.56,3.51c-3.77,5.66-1.35,12.82,5.39,16,6.09,2.85,13.62,1.48,17.8-3A16.22,16.22,0,0,1,303.43,278.63Z" transform="translate(-28.31 -192.91)"/><ellipse class="cls-122" cx="288.8" cy="71.05" rx="2.14" ry="1.8"/><ellipse class="cls-123" cx="286.99" cy="68.44" rx="0.71" ry="0.6"/><ellipse class="cls-124" cx="286.02" cy="67.54" rx="0.23" ry="0.19"/><path class="cls-125" d="M442.39,483.39c-7.14-3.35-9.7-10.92-5.71-16.92s13-8.14,20.15-4.79,9.7,10.92,5.71,16.92S449.53,486.74,442.39,483.39Z" transform="translate(-28.31 -192.91)"/><path class="cls-126" d="M456.82,461.68c7.14,3.35,9.7,10.92,5.71,16.92s-13,8.14-20.15,4.79-9.7-10.92-5.71-16.92S449.69,458.34,456.82,461.68Z" transform="translate(-28.31 -192.91)"/><path class="cls-127" d="M456.82,461.68c7.14,3.35,9.7,10.92,5.71,16.92s-13,8.14-20.15,4.79-9.7-10.92-5.71-16.92S449.69,458.34,456.82,461.68Z" transform="translate(-28.31 -192.91)"/><path class="cls-128" d="M456.82,461.68c7.14,3.35,9.7,10.92,5.71,16.92s-13,8.14-20.15,4.79-9.7-10.92-5.71-16.92S449.69,458.34,456.82,461.68Z" transform="translate(-28.31 -192.91)"/><path class="cls-129" d="M456.82,461.68c-7.14-3.34-16.16-1.2-20.14,4.79a10.66,10.66,0,0,0-.72,10.88,14.83,14.83,0,0,0,3.22,2c7.14,3.35,16.16,1.2,20.15-4.79a10.65,10.65,0,0,0,.72-10.88A15,15,0,0,0,456.82,461.68Z" transform="translate(-28.31 -192.91)"/><path class="cls-130" d="M444.95,481c-6.74-3.16-9.16-10.32-5.4-16a11.8,11.8,0,0,1,1.23-1.55,12.46,12.46,0,0,0-3.56,3.5c-3.77,5.66-1.35,12.82,5.4,16,6.09,2.85,13.62,1.48,17.8-3A16.22,16.22,0,0,1,444.95,481Z" transform="translate(-28.31 -192.91)"/><ellipse class="cls-131" cx="430.32" cy="273.4" rx="2.14" ry="1.8"/><ellipse class="cls-132" cx="428.5" cy="270.79" rx="0.71" ry="0.6"/><ellipse class="cls-133" cx="427.53" cy="269.89" rx="0.22" ry="0.19"/></g></g></svg>