<svg xmlns="http://www.w3.org/2000/svg" viewBox="0 0 428.56 561.05"><defs><style>.cls-1{isolation:isolate;}.cls-2{fill:#caeaf1;}.cls-3{fill:#9dd9dc;}.cls-4{fill:#b48972;}.cls-5{fill:#582514;}.cls-6{fill:#ead7c8;}.cls-7{fill:#e4c6b3;}.cls-8{fill:#371810;}.cls-9{fill:#86471f;}.cls-10{fill:#955224;}.cls-11{fill:#a61f23;}.cls-12,.cls-17{opacity:0.2;}.cls-13{fill:#fff;}.cls-14{fill:#f69322;}.cls-15{fill:#e1c7b6;}.cls-16{fill:#dab9a4;}.cls-17,.cls-18{mix-blend-mode:multiply;}.cls-18,.cls-19{fill:none;stroke-miterlimit:10;}.cls-18{stroke:#771215;stroke-width:1.1px;opacity:0.3;}.cls-19{stroke:#f69322;stroke-width:0.52px;}.cls-20{fill:#010101;}.cls-21{fill:#eacdba;}</style></defs><title>cloud</title><g class="cls-1"><g id="Layer_1" data-name="Layer 1"><path class="cls-2" d="M503.07,545.73A17.93,17.93,0,0,0,492,541.44C429.57,539.6,368.22,552,306,555c-47.09,2.26-94.15-3.4-141-8.71-21.62-2.45-43.54-4.83-65.08-1.7-8.35,1.21-18.39,5.27-18.83,13.69-.46,9,10.51,13.93,19.5,14.37-5,6-4.12,15.33.38,21.67s11.83,10.09,19.24,12.43A75,75,0,0,0,172.44,604c-13.71,18.93-12.25,46.53,1.06,65.74s36.81,29.18,60.11,31A75.51,75.51,0,0,0,285.7,684.5c14.46-11.68,23.81-30,23-48.56-1.72,5,4.15,9.9,9.38,9.32s9.34-4.59,12.81-8.54c-7.35,9.1,21.93,30,28.35,32.67,35.12,14.58,84.06-2.74,96.16-40.95,5.35-16.88,4-35.54-2.37-52.06,4.93,1.31,10.28,1.95,15.06.18s8.75-6.51,8.24-11.59c6.59,4.71,14.83,8.28,22.66,6.23C513.31,567.44,511.74,553,503.07,545.73Z" transform="translate(-81.12 -140.41)"/><path class="cls-3" d="M100.64,572.67c-5,6-4.12,15.33.38,21.67s11.83,10.09,19.24,12.43A75,75,0,0,0,172.44,604c-13.71,18.93-12.25,46.53,1.06,65.74A70.34,70.34,0,0,0,202,693.1a44.09,44.09,0,0,1-12.64-13.31c-6.2-10.35-6.92-22.71-4.32-34.29,5.1-22.8,30.42-46.76,54.33-34.39,4-16.66,15.76-30.55,33.39-33.21,17.18-2.58,33.27,6,43.94,19,5.82-18,31.24-11.16,40.21,2.36a49.09,49.09,0,0,1,23.4-21.27c18.35-8.12,41.49-6.88,58.75,3.44,7.88,4.71,14.49,11.53,18,20.11a34.84,34.84,0,0,1,1.71,5.52A83.77,83.77,0,0,0,453,576.37c4.93,1.31,10.28,1.95,15.06.18s8.75-6.51,8.24-11.59c6.59,4.71,14.83,8.28,22.66,6.23,14.3-3.75,12.74-18.16,4.06-25.46A17.93,17.93,0,0,0,492,541.44C429.57,539.6,368.22,552,306,555c-47.09,2.26-94.15-3.4-141-8.71-21.62-2.45-43.54-4.83-65.08-1.7-8.35,1.21-18.39,5.27-18.83,13.69C80.67,567.29,91.65,572.23,100.64,572.67Z" transform="translate(-81.12 -140.41)"/><rect class="cls-4" x="109.67" y="205.58" width="188.26" height="130.53"/><rect class="cls-5" x="94.14" y="187.7" width="15.22" height="17.36"/><rect class="cls-5" x="112.7" y="187.7" width="15.22" height="17.36"/><rect class="cls-5" x="131.25" y="187.7" width="15.22" height="17.36"/><rect class="cls-5" x="149.8" y="187.7" width="15.22" height="17.36"/><rect class="cls-5" x="168.36" y="187.7" width="15.22" height="17.36"/><rect class="cls-5" x="186.91" y="187.7" width="15.22" height="17.36"/><rect class="cls-5" x="205.46" y="187.7" width="15.22" height="17.36"/><rect class="cls-5" x="224.02" y="187.7" width="15.22" height="17.36"/><rect class="cls-5" x="242.57" y="187.7" width="15.22" height="17.36"/><rect class="cls-5" x="261.12" y="187.7" width="15.22" height="17.36"/><rect class="cls-5" x="279.68" y="187.7" width="15.22" height="17.36"/><rect class="cls-5" x="298.23" y="187.7" width="15.22" height="17.36"/><rect class="cls-5" x="94.14" y="196.37" width="219.3" height="13.55"/><rect class="cls-5" x="104.49" y="208.82" width="10.35" height="17.35"/><rect class="cls-5" x="120.18" y="208.82" width="10.35" height="17.35"/><rect class="cls-5" x="135.87" y="208.82" width="10.35" height="17.35"/><rect class="cls-5" x="151.56" y="208.82" width="10.35" height="17.35"/><rect class="cls-5" x="167.25" y="208.82" width="10.35" height="17.35"/><rect class="cls-5" x="182.93" y="208.82" width="10.35" height="17.35"/><rect class="cls-5" x="198.62" y="208.82" width="10.35" height="17.35"/><rect class="cls-5" x="214.31" y="208.82" width="10.35" height="17.35"/><rect class="cls-5" x="230" y="208.82" width="10.35" height="17.35"/><rect class="cls-5" x="245.69" y="208.82" width="10.35" height="17.35"/><rect class="cls-5" x="261.37" y="208.82" width="10.35" height="17.35"/><rect class="cls-5" x="277.06" y="208.82" width="10.35" height="17.35"/><rect class="cls-5" x="292.75" y="208.82" width="10.35" height="17.35"/><rect class="cls-6" x="177.01" y="132.71" width="55.77" height="245.37"/><rect class="cls-7" x="224.21" y="132.71" width="8.57" height="245.37"/><rect class="cls-8" x="188.94" y="161.85" width="27.15" height="43.25"/><path class="cls-8" d="M298.8,311.78c0,9.21-6.47,16.74-14.37,16.74s-14.37-7.53-14.37-16.74v-6.6c0-9.21,6.47-16.74,14.37-16.74S298.8,296,298.8,305.18Z" transform="translate(-81.12 -140.41)"/><rect class="cls-5" x="192.11" y="165.02" width="25.57" height="40.08"/><path class="cls-5" d="M298.8,315.44c0,8.93-5.75,16.24-12.79,16.24s-12.79-7.31-12.79-16.24v-7.59c0-8.93,5.75-16.24,12.79-16.24s12.79,7.31,12.79,16.24Z" transform="translate(-81.12 -140.41)"/><rect class="cls-9" x="169.58" y="219.06" width="70.64" height="20.45"/><rect class="cls-10" x="169.58" y="219.06" width="70.64" height="6.18"/><path class="cls-11" d="M245.46,273.12S286,201.09,286,181c0,19.59,40.56,92.08,40.56,92.08Z" transform="translate(-81.12 -140.41)"/><g class="cls-12"><path class="cls-13" d="M292.18,203.26c-3.71-9.36-6.17-17.4-6.17-22.22,0,9.07-8.29,28.76-17.38,47.62-11,22.85-23.18,44.46-23.18,44.46h2.62c23.16-11.78,39.83-34.68,50.26-55.46C296.09,212.69,294,207.82,292.18,203.26Z" transform="translate(-81.12 -140.41)"/></g><circle class="cls-14" cx="205.14" cy="44.53" r="5.08"/><path class="cls-14" d="M287.24,188.24c0,1-.48,1.79-1.08,1.79s-1.08-.8-1.08-1.79V144.49c0-1,.48-1.79,1.08-1.79s1.08.8,1.08,1.79Z" transform="translate(-81.12 -140.41)"/><path class="cls-11" d="M309.29,156.19c-11,2.69-23.66,0-23.66,0V145.43s13.58,3.23,23.66,0l-8.07,5.38A19.7,19.7,0,0,0,309.29,156.19Z" transform="translate(-81.12 -140.41)"/><circle class="cls-14" cx="205.19" cy="2.28" r="2.28"/><rect class="cls-15" x="195.28" y="262.08" width="23.8" height="16.11"/><rect class="cls-15" x="183.39" y="347.73" width="23.79" height="16.11"/><rect class="cls-15" x="177.84" y="290.46" width="30.13" height="16.11"/><rect class="cls-6" x="116.21" y="183.77" width="41.98" height="184.69"/><rect class="cls-7" x="151.74" y="183.77" width="6.45" height="184.69"/><rect class="cls-8" x="125.19" y="214.18" width="20.44" height="32.55"/><path class="cls-8" d="M227.95,361.75c0,6.93-4.87,12.6-10.82,12.6s-10.82-5.67-10.82-12.6v-5c0-6.93,4.87-12.6,10.82-12.6s10.82,5.67,10.82,12.6Z" transform="translate(-81.12 -140.41)"/><rect class="cls-5" x="127.58" y="216.56" width="19.25" height="30.17"/><path class="cls-5" d="M227.95,364.51c0,6.72-4.33,12.23-9.62,12.23s-9.62-5.5-9.62-12.23V358.8c0-6.72,4.33-12.23,9.62-12.23s9.62,5.5,9.62,12.23Z" transform="translate(-81.12 -140.41)"/><path class="cls-11" d="M187.79,324.19s30.53-54.22,30.53-69.31c0,14.74,30.53,69.31,30.53,69.31Z" transform="translate(-81.12 -140.41)"/><g class="cls-12"><path class="cls-13" d="M223,271.6c-2.79-7-4.64-13.09-4.64-16.72,0,6.82-6.24,21.65-13.08,35.85-8.29,17.2-17.45,33.47-17.45,33.47h2c17.43-8.87,30-26.1,37.83-41.74C225.9,278.7,224.32,275,223,271.6Z" transform="translate(-81.12 -140.41)"/></g><circle class="cls-14" cx="137.38" cy="117.4" r="3.82"/><path class="cls-14" d="M219.25,260.29c0,.74-.36,1.35-.81,1.35s-.81-.61-.81-1.35V227.36c0-.74.36-1.35.81-1.35s.81.61.81,1.35Z" transform="translate(-81.12 -140.41)"/><path class="cls-11" d="M235.84,236.17c-8.3,2-17.81,0-17.81,0v-8.09s10.22,2.43,17.81,0l-6.07,4A14.84,14.84,0,0,0,235.84,236.17Z" transform="translate(-81.12 -140.41)"/><circle class="cls-14" cx="137.42" cy="85.6" r="1.72"/><rect class="cls-15" x="116.58" y="281.15" width="17.91" height="12.13"/><rect class="cls-15" x="133.56" y="348.6" width="17.91" height="12.12"/><rect class="cls-15" x="122.88" y="254.36" width="23.01" height="12.13"/><rect class="cls-6" x="249.88" y="183.77" width="41.98" height="184.69"/><rect class="cls-7" x="285.4" y="183.77" width="6.45" height="184.69"/><rect class="cls-8" x="258.86" y="214.18" width="20.44" height="32.55"/><path class="cls-8" d="M361.61,361.75c0,6.93-4.87,12.6-10.82,12.6S340,368.68,340,361.75v-5c0-6.93,4.87-12.6,10.82-12.6s10.82,5.67,10.82,12.6Z" transform="translate(-81.12 -140.41)"/><rect class="cls-5" x="261.24" y="216.56" width="19.25" height="30.17"/><path class="cls-5" d="M361.61,364.51c0,6.72-4.33,12.23-9.62,12.23s-9.62-5.5-9.62-12.23V358.8c0-6.72,4.33-12.23,9.62-12.23s9.62,5.5,9.62,12.23Z" transform="translate(-81.12 -140.41)"/><path class="cls-11" d="M321.46,324.19S352,270,352,254.87c0,14.74,30.53,69.31,30.53,69.31Z" transform="translate(-81.12 -140.41)"/><g class="cls-12"><path class="cls-13" d="M356.63,271.6c-2.79-7-4.64-13.09-4.64-16.72,0,6.82-6.24,21.65-13.08,35.85-8.28,17.2-17.45,33.47-17.45,33.47h2c17.43-8.87,30-26.1,37.83-41.74C359.57,278.7,358,275,356.63,271.6Z" transform="translate(-81.12 -140.41)"/></g><circle class="cls-14" cx="271.05" cy="117.4" r="3.83"/><path class="cls-14" d="M352.91,260.29c0,.74-.36,1.35-.81,1.35s-.81-.61-.81-1.35V227.36c0-.74.36-1.35.81-1.35s.81.61.81,1.35Z" transform="translate(-81.12 -140.41)"/><path class="cls-11" d="M369.51,236.17c-8.3,2-17.81,0-17.81,0v-8.09s10.22,2.43,17.81,0l-6.07,4A14.83,14.83,0,0,0,369.51,236.17Z" transform="translate(-81.12 -140.41)"/><circle class="cls-14" cx="271.09" cy="85.6" r="1.72"/><rect class="cls-15" x="250.25" y="281.15" width="17.91" height="12.13"/><rect class="cls-15" x="267.22" y="348.6" width="17.91" height="12.12"/><rect class="cls-15" x="256.54" y="254.36" width="23.02" height="12.13"/><rect class="cls-16" x="95.72" y="320.78" width="217.73" height="103.85"/><rect class="cls-4" x="95.72" y="326.51" width="220.39" height="3.78"/><rect class="cls-16" x="95.72" y="310.03" width="15.65" height="15.15"/><rect class="cls-16" x="124.59" y="310.03" width="15.65" height="15.15"/><rect class="cls-16" x="153.46" y="310.03" width="15.65" height="15.15"/><rect class="cls-16" x="182.32" y="310.03" width="15.65" height="15.15"/><rect class="cls-16" x="211.19" y="310.03" width="15.65" height="15.15"/><rect class="cls-16" x="240.06" y="310.03" width="15.65" height="15.15"/><rect class="cls-16" x="268.93" y="310.03" width="15.65" height="15.15"/><rect class="cls-16" x="297.8" y="310.03" width="15.65" height="15.15"/><g class="cls-17"><path class="cls-16" d="M234.58,450.44V461.2H221.36V450.44H205.71V461.2H192.49V450.44H176.84V565h3.59c10.29-41.17,45-89.78,66.23-114.61Z" transform="translate(-81.12 -140.41)"/></g><rect class="cls-8" x="175.95" y="361.71" width="48.07" height="63.03"/><path class="cls-8" d="M308.9,510.57c0,17-11.66,30.86-25.91,30.86s-25.91-13.89-25.91-30.86v-2.24c0-17,11.66-30.86,25.91-30.86s25.91,13.89,25.91,30.86Z" transform="translate(-81.12 -140.41)"/><rect class="cls-11" x="179.71" y="365.46" width="48.07" height="59.28"/><path class="cls-11" d="M308.9,515.46c0,16.35-10.82,29.72-24,29.72s-24-13.38-24-29.72v-4.52c0-16.35,10.82-29.72,24-29.72s24,13.38,24,29.72Z" transform="translate(-81.12 -140.41)"/><rect class="cls-6" x="262.87" y="335.55" width="22.51" height="9.53"/><rect class="cls-7" x="130.24" y="336.3" width="22.51" height="9.53"/><rect class="cls-7" x="238.33" y="367.94" width="22.51" height="9.53"/><rect class="cls-6" x="153.08" y="352.06" width="22.51" height="9.53"/><rect class="cls-6" x="111.37" y="378.46" width="22.51" height="9.53"/><rect class="cls-6" x="269.01" y="383.23" width="22.51" height="9.53"/><rect class="cls-6" x="309.05" y="279.48" width="32.99" height="145.16"/><rect class="cls-7" x="336.97" y="279.48" width="5.07" height="145.16"/><rect class="cls-8" x="316.11" y="303.37" width="16.06" height="25.59"/><path class="cls-8" d="M414.23,449.42c0,5.45-3.83,9.9-8.5,9.9s-8.5-4.46-8.5-9.9v-3.91c0-5.45,3.83-9.9,8.5-9.9s8.5,4.46,8.5,9.9Z" transform="translate(-81.12 -140.41)"/><rect class="cls-5" x="317.98" y="305.25" width="15.13" height="23.71"/><path class="cls-5" d="M414.23,451.59c0,5.29-3.4,9.61-7.56,9.61s-7.56-4.32-7.56-9.61V447.1c0-5.29,3.4-9.61,7.56-9.61s7.56,4.32,7.56,9.61Z" transform="translate(-81.12 -140.41)"/><rect class="cls-9" x="304.65" y="336.11" width="41.79" height="12.1"/><rect class="cls-10" x="304.65" y="336.11" width="41.79" height="3.65"/><path class="cls-11" d="M382.67,419.89s24-42.61,24-54.47c0,11.59,24,54.47,24,54.47Z" transform="translate(-81.12 -140.41)"/><g class="cls-12"><path class="cls-13" d="M410.32,378.56c-2.19-5.54-3.65-10.29-3.65-13.14,0,5.36-4.91,17-10.28,28.17-6.51,13.51-13.71,26.3-13.71,26.3h1.55c13.7-7,23.56-20.51,29.73-32.81C412.62,384.14,411.38,381.26,410.32,378.56Z" transform="translate(-81.12 -140.41)"/></g><circle class="cls-14" cx="325.69" cy="227.31" r="3.01"/><path class="cls-14" d="M407.39,369.68c0,.58-.29,1.06-.64,1.06s-.64-.48-.64-1.06V343.8c0-.58.29-1.06.64-1.06s.64.48.64,1.06Z" transform="translate(-81.12 -140.41)"/><path class="cls-11" d="M420.44,350.72c-6.52,1.59-14,0-14,0v-6.36s8,1.91,14,0l-4.77,3.18A11.66,11.66,0,0,0,420.44,350.72Z" transform="translate(-81.12 -140.41)"/><circle class="cls-14" cx="325.72" cy="202.32" r="1.35"/><rect class="cls-15" x="310.16" y="356.82" width="14.08" height="9.53"/><rect class="cls-15" x="322.68" y="409.02" width="14.08" height="9.53"/><rect class="cls-15" x="311.42" y="383.23" width="22.51" height="9.53"/><rect class="cls-7" x="295.37" y="409.02" width="13.68" height="9.53"/><rect class="cls-7" x="157.77" y="404.26" width="17.89" height="9.53"/><line class="cls-18" x1="203.8" y1="340.01" x2="203.74" y2="424.64"/><g class="cls-12"><path class="cls-13" d="M282.94,481.3c-12.13,1-21.8,11.63-22.1,24.58h0v31.74C264.44,508.59,272.73,490.86,282.94,481.3Z" transform="translate(-81.12 -140.41)"/></g><rect class="cls-6" x="67.12" y="279.48" width="32.99" height="145.16"/><rect class="cls-7" x="95.04" y="279.48" width="5.07" height="145.16"/><rect class="cls-8" x="74.18" y="303.37" width="16.06" height="25.59"/><path class="cls-8" d="M172.3,449.42c0,5.45-3.83,9.9-8.5,9.9s-8.5-4.46-8.5-9.9v-3.91c0-5.45,3.83-9.9,8.5-9.9s8.5,4.46,8.5,9.9Z" transform="translate(-81.12 -140.41)"/><rect class="cls-5" x="76.06" y="305.25" width="15.13" height="23.71"/><path class="cls-5" d="M172.3,451.59c0,5.29-3.4,9.61-7.56,9.61s-7.56-4.32-7.56-9.61V447.1c0-5.29,3.4-9.61,7.56-9.61s7.56,4.32,7.56,9.61Z" transform="translate(-81.12 -140.41)"/><rect class="cls-9" x="62.72" y="336.11" width="41.79" height="12.1"/><rect class="cls-10" x="62.72" y="336.11" width="41.79" height="3.65"/><path class="cls-11" d="M140.75,419.89s24-42.61,24-54.47c0,11.59,24,54.47,24,54.47Z" transform="translate(-81.12 -140.41)"/><g class="cls-12"><path class="cls-13" d="M168.39,378.56c-2.19-5.54-3.65-10.29-3.65-13.14,0,5.36-4.91,17-10.28,28.17-6.51,13.51-13.71,26.3-13.71,26.3h1.55c13.7-7,23.56-20.51,29.73-32.81C170.7,384.14,169.45,381.26,168.39,378.56Z" transform="translate(-81.12 -140.41)"/></g><circle class="cls-14" cx="83.76" cy="227.31" r="3.01"/><path class="cls-14" d="M165.46,369.68c0,.58-.29,1.06-.64,1.06s-.64-.48-.64-1.06V343.8c0-.58.29-1.06.64-1.06s.64.48.64,1.06Z" transform="translate(-81.12 -140.41)"/><path class="cls-11" d="M178.51,350.72c-6.52,1.59-14,0-14,0v-6.36s8,1.91,14,0l-4.77,3.18A11.66,11.66,0,0,0,178.51,350.72Z" transform="translate(-81.12 -140.41)"/><circle class="cls-14" cx="83.79" cy="202.32" r="1.35"/><rect class="cls-15" x="77.93" y="356.01" width="14.08" height="9.53"/><rect class="cls-15" x="70.89" y="406.68" width="14.08" height="9.53"/><rect class="cls-15" x="67.61" y="372.8" width="17.82" height="9.53"/><circle class="cls-19" cx="211.13" cy="385.65" r="3.44"/><circle class="cls-19" cx="195.95" cy="385.65" r="3.44"/><ellipse class="cls-8" cx="195.95" cy="382.84" rx="2.52" ry="2"/><ellipse class="cls-8" cx="211.13" cy="382.84" rx="2.52" ry="2"/><g class="cls-17"><path class="cls-20" d="M217.59,695.45c-85.13-30.58,6.74-115.24,39.51-131.74h53.83c-32.77,16.5-57.25,75.67-33.3,123h0a19.54,19.54,0,0,1-7.83,4.86,126.68,126.68,0,0,1-27.11,5.59,80.05,80.05,0,0,1-25.1-1.68Z" transform="translate(-81.12 -140.41)"/></g><path class="cls-21" d="M217.59,699.45c-85.13-30.58,6.74-115.24,39.51-131.74h53.83c-32.77,16.5-57.25,75.67-33.3,123h0a19.54,19.54,0,0,1-7.83,4.86,126.68,126.68,0,0,1-27.11,5.59,80.05,80.05,0,0,1-25.1-1.68Z" transform="translate(-81.12 -140.41)"/><rect class="cls-4" x="61.79" y="422.19" width="283.9" height="5.1"/></g></g></svg>