<svg xmlns="http://www.w3.org/2000/svg" xmlns:xlink="http://www.w3.org/1999/xlink" viewBox="0 0 556.54 489.15"><defs><style>.cls-1{isolation:isolate;}.cls-2{fill:url(#linear-gradient);}.cls-3{opacity:0.83;fill:url(#radial-gradient);}.cls-4{fill:url(#linear-gradient-2);}.cls-5{fill:url(#linear-gradient-3);}.cls-6{opacity:0.71;fill:url(#linear-gradient-4);}.cls-11,.cls-18,.cls-21,.cls-24,.cls-6{mix-blend-mode:multiply;}.cls-7{fill:url(#linear-gradient-5);}.cls-8{fill:url(#linear-gradient-6);}.cls-9{fill:url(#linear-gradient-7);}.cls-10{fill:url(#linear-gradient-8);}.cls-11{opacity:0.49;fill:url(#linear-gradient-9);}.cls-12{fill:url(#linear-gradient-10);}.cls-13{fill:url(#linear-gradient-11);}.cls-14{fill:url(#linear-gradient-12);}.cls-15{fill:url(#linear-gradient-13);}.cls-16{fill:url(#linear-gradient-14);}.cls-17{fill:url(#linear-gradient-15);}.cls-18{fill:#f37046;opacity:0.28;}.cls-19{fill:url(#radial-gradient-2);}.cls-20{fill:url(#radial-gradient-3);}.cls-21,.cls-24{opacity:0.51;}.cls-21{fill:url(#linear-gradient-16);}.cls-22{fill:#693916;}.cls-23{fill:url(#radial-gradient-4);}.cls-24{fill:url(#linear-gradient-17);}.cls-25{fill:#a25c2d;}</style><linearGradient id="linear-gradient" x1="278.27" y1="9.86" x2="278.27" y2="483.23" gradientUnits="userSpaceOnUse"><stop offset="0" stop-color="#b6e2eb"/><stop offset="1" stop-color="#ffe081"/></linearGradient><radialGradient id="radial-gradient" cx="72.16" cy="-26.63" r="580.35" gradientUnits="userSpaceOnUse"><stop offset="0.24" stop-color="#5ac7da" stop-opacity="0"/><stop offset="0.29" stop-color="#5fc8d7" stop-opacity="0.03"/><stop offset="0.37" stop-color="#6ccad0" stop-opacity="0.11"/><stop offset="0.47" stop-color="#81cec3" stop-opacity="0.24"/><stop offset="0.58" stop-color="#9fd4b2" stop-opacity="0.43"/><stop offset="0.7" stop-color="#c5db9c" stop-opacity="0.66"/><stop offset="0.83" stop-color="#f2e382" stop-opacity="0.95"/><stop offset="0.85" stop-color="#fbe57d"/></radialGradient><linearGradient id="linear-gradient-2" x1="117.89" y1="392.24" x2="117.89" y2="289.46" gradientUnits="userSpaceOnUse"><stop offset="0" stop-color="#f89642"/><stop offset="0.31" stop-color="#faa754"/><stop offset="0.7" stop-color="#fbb664"/><stop offset="1" stop-color="#fcbb6a"/></linearGradient><linearGradient id="linear-gradient-3" x1="72.38" y1="392.24" x2="72.38" y2="289.46" gradientUnits="userSpaceOnUse"><stop offset="0" stop-color="#bd6b2c"/><stop offset="0.29" stop-color="#c27b38"/><stop offset="0.69" stop-color="#c68b43"/><stop offset="1" stop-color="#c89147"/></linearGradient><linearGradient id="linear-gradient-4" x1="135.34" y1="360.56" x2="142.75" y2="365.42" gradientUnits="userSpaceOnUse"><stop offset="0.13" stop-color="#fff" stop-opacity="0"/><stop offset="0.28" stop-color="#e0d3cb" stop-opacity="0.22"/><stop offset="0.61" stop-color="#a6816b" stop-opacity="0.64"/><stop offset="0.86" stop-color="#824e2f" stop-opacity="0.9"/><stop offset="1" stop-color="#753b18"/></linearGradient><linearGradient id="linear-gradient-5" x1="275.06" y1="389.6" x2="275.06" y2="165.2" xlink:href="#linear-gradient-2"/><linearGradient id="linear-gradient-6" x1="199.36" y1="389.6" x2="199.36" y2="165.2" xlink:href="#linear-gradient-3"/><linearGradient id="linear-gradient-7" x1="299.48" y1="340" x2="268.79" y2="389.3" gradientUnits="userSpaceOnUse"><stop offset="0" stop-color="#fccc83"/><stop offset="0.53" stop-color="#fdc176"/><stop offset="1" stop-color="#fdbd70"/></linearGradient><linearGradient id="linear-gradient-8" x1="301.19" y1="337.43" x2="304.03" y2="391.91" gradientUnits="userSpaceOnUse"><stop offset="0" stop-color="#fff2a5"/><stop offset="0.49" stop-color="#ffe7a2"/><stop offset="1" stop-color="#ffe1a1"/></linearGradient><linearGradient id="linear-gradient-9" x1="327.6" y1="342.18" x2="335.62" y2="348.91" xlink:href="#linear-gradient-4"/><linearGradient id="linear-gradient-10" x1="414.18" y1="391.64" x2="414.18" y2="261.23" xlink:href="#linear-gradient-2"/><linearGradient id="linear-gradient-11" x1="356.44" y1="391.64" x2="356.44" y2="261.23" xlink:href="#linear-gradient-3"/><linearGradient id="linear-gradient-12" x1="435.2" y1="435.7" x2="405.77" y2="472.42" xlink:href="#linear-gradient-7"/><linearGradient id="linear-gradient-13" x1="427.51" y1="434.03" x2="436.62" y2="470.45" xlink:href="#linear-gradient-8"/><linearGradient id="linear-gradient-14" x1="137.93" y1="462.33" x2="119.19" y2="489.62" xlink:href="#linear-gradient-7"/><linearGradient id="linear-gradient-15" x1="132.28" y1="462.24" x2="139.51" y2="487.56" xlink:href="#linear-gradient-8"/><radialGradient id="radial-gradient-2" cx="47.45" cy="544.07" r="40.25" gradientTransform="translate(1763.73 239.73) rotate(81.5) scale(1 3.2)" gradientUnits="userSpaceOnUse"><stop offset="0" stop-color="#f7ce61"/><stop offset="0.86" stop-color="#ab6c41"/></radialGradient><radialGradient id="radial-gradient-3" cx="441.21" cy="498.56" r="179" gradientTransform="matrix(-0.23, 0.97, -3.11, -0.74, 2096.67, 440.26)" gradientUnits="userSpaceOnUse"><stop offset="0" stop-color="#f7ce61"/><stop offset="0.84" stop-color="#ab6c41"/></radialGradient><linearGradient id="linear-gradient-16" x1="378.38" y1="566.63" x2="378.38" y2="550.65" gradientUnits="userSpaceOnUse"><stop offset="0" stop-color="#fff" stop-opacity="0"/><stop offset="0.8" stop-color="#3e170b"/></linearGradient><radialGradient id="radial-gradient-4" cx="211.2" cy="502.2" r="154.48" gradientTransform="translate(1699.61 557.03) rotate(100.26) scale(1 2.94)" gradientUnits="userSpaceOnUse"><stop offset="0.49" stop-color="#dac27d"/><stop offset="0.6" stop-color="#dabc73"/><stop offset="0.74" stop-color="#daaf5f"/></radialGradient><linearGradient id="linear-gradient-17" x1="670.53" y1="599.59" x2="670.53" y2="545.51" gradientTransform="matrix(-1, 0, 0, 1, 806.44, 0)" xlink:href="#linear-gradient-16"/></defs><title>desert</title><g class="cls-1"><g id="Layer_1" data-name="Layer 1"><circle class="cls-2" cx="278.27" cy="244.57" r="244.57"/><circle class="cls-3" cx="278.27" cy="244.57" r="244.57"/><polygon class="cls-4" points="117.89 286.06 26.87 394.47 208.91 394.47 117.89 286.06"/><polygon class="cls-5" points="26.87 394.47 117.89 286.06 58.88 394.47 26.87 394.47"/><polygon class="cls-6" points="160.52 336.85 155.96 331.41 113.69 389.05 130.5 383.77 160.52 336.85"/><polygon class="cls-7" points="275.06 157.79 123.66 394.47 426.47 394.47 275.06 157.79"/><polygon class="cls-8" points="123.66 394.47 275.06 157.79 205.53 394.47 123.66 394.47"/><path class="cls-9" d="M260,388.72h0s1.76,1.68,6-1.3.64,3.52,3.84,3.79,5.11-3.49,9.06-3.5l15.52-52.82Z" transform="translate(-19.38 -177.09)"/><path class="cls-10" d="M294.45,396.62c12.32-3.79,11.89-16.52,19.35-11.92a25.78,25.78,0,0,0,14.94,3.78l-34.29-53.61L278.93,387.7h0C282.88,387.69,282.13,400.41,294.45,396.62Z" transform="translate(-19.38 -177.09)"/><polygon class="cls-11" points="371.21 308.09 364.88 298.2 291.81 387.41 315.78 374.12 371.21 308.09"/><polygon class="cls-12" points="414.18 256.92 298.69 394.47 529.66 394.47 414.18 256.92"/><polygon class="cls-13" points="298.69 394.47 414.18 256.92 331.37 394.47 298.69 394.47"/><path class="cls-14" d="M402.43,471.09s2.65,1.49,4.47,0,2.17.12,4.34,0h0L433.56,434Z" transform="translate(-19.38 -177.09)"/><path class="cls-15" d="M456.5,470.52c1.86-1.25,3.45-2.4,4.81-3.46L433.56,434l-22.33,37.09c2.18-.12,7.79-5.58,18.72-3.91S446.34,477.35,456.5,470.52Z" transform="translate(-19.38 -177.09)"/><path class="cls-16" d="M114.79,489.94s2.39.93,3.87-.72-.1,3.38,2.25,4l16.36-30.06Z" transform="translate(-19.38 -177.09)"/><path class="cls-17" d="M120.91,493.21c2.35.61,9.58-.21,17.31-5.47,7.47-5.08,10.18,8,22.52,3.36l-23.47-28-16.36,30.06Z" transform="translate(-19.38 -177.09)"/><rect class="cls-18" x="109.78" y="346.13" width="7.83" height="1.84"/><rect class="cls-18" x="113.69" y="349.22" width="7.83" height="1.84"/><rect class="cls-18" x="113.69" y="343.3" width="7.83" height="1.84"/><rect class="cls-18" x="334.22" y="441.72" width="10.96" height="2.57" transform="translate(660.01 708.92) rotate(180)"/><rect class="cls-18" x="328.74" y="446.05" width="10.96" height="2.57" transform="translate(649.06 717.58) rotate(180)"/><rect class="cls-18" x="411.93" y="512.97" width="9.15" height="2.15" transform="translate(813.62 851.01) rotate(180)"/><rect class="cls-18" x="445" y="501.58" width="9.15" height="2.15" transform="translate(879.77 828.22) rotate(180)"/><rect class="cls-18" x="439.37" y="497.74" width="9.15" height="2.15" transform="translate(868.5 820.54) rotate(180)"/><rect class="cls-18" x="439.37" y="505.68" width="9.15" height="2.15" transform="translate(868.5 836.42) rotate(180)"/><rect class="cls-18" x="407.36" y="516.59" width="9.15" height="2.15" transform="translate(804.48 858.23) rotate(180)"/><rect class="cls-18" x="99.9" y="542.97" width="7.83" height="1.84" transform="translate(188.24 910.68) rotate(180)"/><rect class="cls-18" x="103.81" y="546.17" width="7.83" height="1.84" transform="translate(196.07 917.09) rotate(180)"/><rect class="cls-18" x="110.43" y="538.59" width="7.83" height="1.84" transform="translate(209.31 901.94) rotate(180)"/><rect class="cls-18" x="316.77" y="501.5" width="10.96" height="2.57" transform="translate(625.12 828.48) rotate(180)"/><rect class="cls-18" x="311.2" y="507.07" width="10.96" height="2.57" transform="translate(613.97 839.63) rotate(180)"/><rect class="cls-18" x="305.62" y="512.65" width="10.96" height="2.57" transform="translate(602.82 850.78) rotate(180)"/><rect class="cls-18" x="271.16" y="461.36" width="10.96" height="2.57" transform="translate(533.9 748.2) rotate(180)"/><rect class="cls-18" x="278.89" y="465.69" width="10.96" height="2.57" transform="translate(549.35 756.86) rotate(180)"/><rect class="cls-18" x="259.59" y="279.94" width="10.96" height="2.57"/><rect class="cls-18" x="437.58" y="299.55" width="9.15" height="2.15"/><rect class="cls-18" x="442.16" y="303.16" width="9.15" height="2.15"/><path class="cls-19" d="M87.82,557.52h0c-24.2-2.07-44.85-4.7-59.9-6.91a7.44,7.44,0,0,0-5.85,13.07h0q8.73,7.31,17.75,14.07C40.47,577.36,58.31,566.44,87.82,557.52Z" transform="translate(-19.38 -177.09)"/><path class="cls-20" d="M570.25,562.67c-152.62-20.77-231.44-12.21-329-4.92a275.46,275.46,0,0,1,43.18,17.58c57.69,29.28,130.64,45.62,194.63,54.73a439.69,439.69,0,0,0,94.3-55.71h0A6.56,6.56,0,0,0,570.25,562.67Z" transform="translate(-19.38 -177.09)"/><path class="cls-21" d="M371.2,561.78s-3.5-2.24,2.66-1.64c0,0,.38-.34.25-.57s-.68-.29-.51-.35c0,0-2.57-.77-3.88-1s-2.6-.86-2.43-1.09-1-1.08-1.55-1.25-.79-.34-.87-.52-1.78-.67-1.89-.85,1.56,0,1.56,0a6.51,6.51,0,0,1,1.59.5c.32.25-.38.14,0,.38s.52.1.68.48a5.87,5.87,0,0,0,2.44,1.58c1,.34,3.56,1,3.66,1s-2.48-1.59-2.59-1.78a8.86,8.86,0,0,0-2.55-1.5,4.35,4.35,0,0,1-1.29-.52c-.1-.1-1.73-.26-1.89-.39s1.53-.29,2.18-.11.35.2.72.44.64.05.93.3,2.79,1.67,3.39,2a4.11,4.11,0,0,1,1.27.73,8,8,0,0,0,2.9,1.53c1,.16.75.07,1.32.19a72.34,72.34,0,0,1,7.53.68s.52,0-.53-.49-1.33-.69-1.94-1a22.61,22.61,0,0,0-3.65-1.48c-.8-.18-2.89-1.32-4.62-1.7a8.08,8.08,0,0,1-2.15-.57c-.26-.15-.74,0-1.66-.32s1.68-.09,1.68-.09,0-.07.83.27a6,6,0,0,1,1.47.5c1.22.5,5.67,1.75,6.27,1.85a10.92,10.92,0,0,1,1.93.85c1,.42,2.77,1.12,2.77,1.12a.22.22,0,0,1,.2-.34c.35,0-.64-.67-.61-1.12s-3.27-2.39-4.41-2.71a20,20,0,0,1-2.2-.54,3.77,3.77,0,0,1,2.18,0c.63.27.58.29,1,.46a6.13,6.13,0,0,1,1.52.82,38.2,38.2,0,0,0,4.61,2.27c.73.27-.9.35.73,1.24a27.58,27.58,0,0,0,4,2.13c1.73.66,1.88,2,1.15,2s-2.46.22-1.81.74-1.12.58-2.05.42-2.75-.66-3.32-.65a28,28,0,0,1-5.15-.68c-2.11-.5-4.89-1.37-6.08-1.25s.94,1.51.94,1.51a7.31,7.31,0,0,0,1.64.72,4.3,4.3,0,0,0-.8-.09c-.14,0-.72,0-.58.08a1.3,1.3,0,0,0,.37.07,2.51,2.51,0,0,1-1.06-.06,10.23,10.23,0,0,1-1.3-.19,26.16,26.16,0,0,1-2.79-.24c-.74-.24-.83,0-1.47-.31s-1-.48-.46-.47,1.75,0,1.88-.29A.61.61,0,0,0,371.2,561.78Z" transform="translate(-19.38 -177.09)"/><path class="cls-22" d="M354.88,538.15s1.19,5.2,6.1,3.82a8,8,0,0,1,1.44,1.31c.35.52-.07.67.22.82a9.3,9.3,0,0,1-1.76,2.35,1.76,1.76,0,0,0-.15,2.53,4.63,4.63,0,0,1,1.07,2.9,1.25,1.25,0,0,0,.22,1.21c.3.42-.37,1.56-.1,2s1.56,0,1.56,0,.74-.59.55-1.16-.67-.32-.82-.89.32-.22-.32-1.12a5.74,5.74,0,0,1-.87-3.67,8.94,8.94,0,0,1,1.56-2.33c.07,0,.84,3.69,1.14,4.14s.89,2.83.59,3.49-.3,1-.2,1.21-1.19.59-1.07.92,2.13.67,2.4.25-.07-.47-.2-1,.53-.12.3-.69a29.49,29.49,0,0,1-.7-4.54,2.77,2.77,0,0,0-.25-1.69c-.4-1-.92-3.17-.3-3.54s.59-.17.92-.45,4.09-.17,6.1-1.59c0,0,.47,0,.5,1.14a14.42,14.42,0,0,0,.25,2.43c.12.82-.12,3-.55,3.44s-.12,3.07-1.07,3.94-1,1-1,1.31-.72,0-1,.74,1.86.2,1.86.2.15.17.27-.62c0,0,.25,0,.42-1.16a12.27,12.27,0,0,1,2.4-4.29c.4-.22,0-1,.15-2s.42-2.6.42-2.6.5.72.92.79.77,1.56,1.73,2.6,1.73,5.55,1.26,6.29-1.26.94-1.07,1.26,2.08.59,2.16,0a7.47,7.47,0,0,0,0-1.07,3.61,3.61,0,0,0-.2-1.91,18,18,0,0,1-.15-5.28c.17-.62-1.64-.82-1.86-2.87,0,0-.79-3.42-.45-5s-2.21-4.54-3-4.66-2.92-.52-3.35-1.71-2.33-1.34-2.92-1-1.36,1.54-2,1.51a6,6,0,0,0-3.72,1.59c-1.07,1.16-2,3.17-3.47,2.9s-2.21-3.49-2.21-3.49-.23-1.43.14-1.67c0,0-.4.29-.61.21s-.76,0-.76-.19.23-.17.21-.17-.66-.22-.92.15c0,0-.72.18-.9.45s-2.05,0-2.29.56-.87,0-.82.73,0,1.12.52,1.09a3.37,3.37,0,0,1,2.48.67A5.75,5.75,0,0,1,354.88,538.15Z" transform="translate(-19.38 -177.09)"/><path class="cls-23" d="M479.1,630.06a439.91,439.91,0,0,1-439.29-52.3c.49-.31,18.37-11.29,48-20.25,36.7-11.08,91.42-19.05,153.44.23a275.45,275.45,0,0,1,43.19,17.58C342.15,604.61,415.11,621,479.1,630.06Z" transform="translate(-19.38 -177.09)"/><path class="cls-24" d="M116.65,576.45s18-3.14,27.43-1.95c0,0,4.65-.51,5.4-.27,0,0,7.86-4.87,10.25-6.22s5.26-2.52,6.08-3,8.92-4.35,9.18-4.84,2.66-.73,2.88-1.14.23-.89,1.92-1.19,5.38-.65,5.59,0c0,0,.35.43-2,.76s-2.71.22-3.45.57a15.58,15.58,0,0,1,2.59.08c.85.16,2.51,0,1.89.3a9,9,0,0,1-2.92.7,7.86,7.86,0,0,0-3.42.43c-1.61.65-8.88,4-9.24,4.33a6.9,6.9,0,0,1-2.68,2.27c-1.76.81-8.1,6.55-9.87,7.57,0,0,3.05,1,2.32,1.62,0,0,14.19-.57,14.21,2.24s-3.26,4.38-3.26,4.38,3-.41,4.12-1.22c0,0,.87.22-.11.62l1.22-.16a8.89,8.89,0,0,1-2.87,1.19c-2.07.57-.72.68-2.94,1.41s-3,1.54-.71,1c0,0-.93.59.16.68a17.77,17.77,0,0,1,4.31,1c.51.32,3.25-.35,4.11-.14s.85.16-.64.51.69,0-.51.51a26.88,26.88,0,0,1-3.67,1,14.45,14.45,0,0,1-3.75.89c-1.44,0-5,.07-5.86-.08a33.65,33.65,0,0,0-3.93.26,46.73,46.73,0,0,1-5,.3,12.19,12.19,0,0,1-2.77.5c-.8-.07,1.06-.59.91-.84s1.68-1.15,1.18-1.27.57-.51.49-1,1.09-1.93,2.14-2.42c0,0-1,.95.3.5s6.14-4,0-4-21,4.84-29.73,5.36a98.36,98.36,0,0,0-20.32,3.41c-6.06,1.51-10.26,1.12-12.31.3s-.89-4.47-4-4.55-3.43-3.73-2.15-4.71a40,40,0,0,1,6.49-3.43,17,17,0,0,1,3.87-2c1.76-.54,3.32-1.41,2.6-1.81s8.26-3.38,8.26-3.38-4.62,2-3.77,1.92,5.9-2.76,7.18-2.92c0,0-2.85,1.24-2,1.22a20.37,20.37,0,0,0,3.76-1.41,34.28,34.28,0,0,1-4.09,1.89c-2.53,1,.13.3-1.14,1,0,0,7.23-2.68,9.38-4s4.31-3.08,7.06-3.71,17.95-5.79,19.27-6.3a17,17,0,0,1,4-1.33,7,7,0,0,1,2.55-.65c1.6-.14,3.77-.27,4.82-.35s2.79-.14,1.31.49-4,.51-6.21,1.11a95.65,95.65,0,0,0-15.73,5s10.14-3.41,11.65-3.68.92-.62,3-.73,2.35.11,3.64,0,2.75-.05.61.49-2.91.16-6,.89-14.5,4.38-17.6,6-7,3.35-9.4,4.73A11.14,11.14,0,0,1,117.9,574C116.67,574.64,120.13,574.66,116.65,576.45Z" transform="translate(-19.38 -177.09)"/><path class="cls-25" d="M157.77,518.86s11.43,7.28,23.36,4.52c0,0,3.58,1.19,4.84.63,0,0-2.32,11.31-2.76,14.45s0,5.84-.25,7-.19,10.11-.94,11.24,1.13,1.7.5,2.64-1.63,2.07-.57,2.76,4,1.51,5.59,0c0,0,1.26-1-.44-1.76s-2.26-.5-2.26-1.32a7.8,7.8,0,0,0,2.76-.19c1.19-.38,2.51,0,2.51-.69a1.68,1.68,0,0,0-1.44-1.63s-2.26.5-2.51-1-.57-9.23-.19-10,2.14-3.39,2.07-5.28,5.59-15.2,6-17.58c0,0,5.09-2.26,5.71-3.77,0,0,13,1.32,18.9-5.21s5.9-10.17,5.9-10.17,2.2.94,1.57,2.83c0,0,1.32-.5,1.19-1.44l.88.38a3.36,3.36,0,0,0-.38-2.76c-.88-1.32.69-1.57,0-3.27s.25-3.58,1.44-2.39a2.09,2.09,0,0,1,1.57-1.57,28.09,28.09,0,0,0,6.41-2.32c1.19-.75,2.51.82,3.83.31s1.19-.38.44-1.19.75-.06.56-1.19-1.25-1.82-1.63-2.26-.44-2.07-1.88-2.07-4.9-.16-6,.19-1.66-.44-3.39-.6-1.13-.75-4.43-.69c0,0-.79-1.32-1.73-1.16s-.19,1.38-.85,1.95-.72,2.67-1.48,3-.5,1.19-1.6,2.32-3,4.49-2.92,5.62c0,0,1-2.2,1.35-1.16s-2.29,9.36-8.45,9.36-10.86-11.24-18.53-12.43-10.3-4.4-13.19-7.91-7.91-2.6-11.68-.7-10.24,10.37-13.56,10.56-11.24,8.67-12,10.93a22.42,22.42,0,0,0-.69,8s-1,3.45-.38,4.71a3.3,3.3,0,0,1-1.19,4.21c-1.57.94,1.19,7.85,1.19,7.85s-.38-4.71.25-4.46.13,6.41,1.07,6.78c0,0-.25-2.89.5-2.83s.82,3.27.82,3.27a14.64,14.64,0,0,0-.13-4.4c-.44-2.32.75-.69,1-2.39,0,0,1.63,6.22,1,9.29s-2.14,7.16-.69,8.6,5.84,13.44,6.09,14.63.25,2.89,1.19,3.08a1.43,1.43,0,0,0,1.19,1.51c1.32.31,3.2.63,4.08.82s2.51.31,2.32-1.13-2.89-1.19-3.89-2.57-3.71-3-5.21-11.68c0,0,3,7.91,4,8.54s-.38,1.44,1.51,1.7,2.57-.25,3.64,0,2.64.13,1.63-1.13-2.57-.38-4.14-2.07-5.34-10.17-5.15-13.82,0-7.79.5-11c0,0,3.08-5,3.27-6.59S157.52,523,157.77,518.86Z" transform="translate(-19.38 -177.09)"/></g></g></svg>