<svg id="Layer_1" data-name="Layer 1" xmlns="http://www.w3.org/2000/svg" viewBox="0 0 357.15 235.93"><defs><style>.cls-1{fill:#148341;}.cls-2{fill:#478ecc;}.cls-3{fill:#feda17;}.cls-4{fill:#feda00;}.cls-5{fill:#e86828;}.cls-6{fill:#1f78bb;}.cls-7{fill:#2b3486;}.cls-8{font-size:18.19px;fill:#fde600;}.cls-8,.cls-9{font-family:Ravie, Ravie;}.cls-9{font-size:21.49px;fill:#fee60a;}</style></defs><title>logoV1</title><circle class="cls-1" cx="178.57" cy="117.97" r="95.86"/><path class="cls-2" d="M297,522.08a101,101,0,1,1,71.42-29.58A100.34,100.34,0,0,1,297,522.08Zm0-199a98,98,0,1,0,98,98A98.14,98.14,0,0,0,297,323Z" transform="translate(-118.45 -303.11)"/><path class="cls-3" d="M411.53,427.46c-1.74-1.45-3.46-3.22-3.45-6.39s1.71-4.94,3.45-6.39,3.48-2.53,3.34-4.18-2.06-2.42-4-3.53-4-2.56-4.53-5.69.8-5.17,2.26-6.91,3-3.11,2.53-4.72-2.46-2-4.59-2.76-4.37-1.81-5.48-4.78-.14-5.23,1-7.2,2.36-3.6,1.64-5.09-2.78-1.54-5-1.88-4.62-1-6.25-3.72-1.08-5.12-.33-7.26,1.68-4,.71-5.3-3-1-5.26-1-4.72-.15-6.81-2.55-2-4.84-1.62-7.09,1-4.19-.25-5.34-3.14-.46-5.35,0-4.68.69-7.15-1.29-2.8-4.42-2.85-6.69.19-4.3-1.19-5.21-3.18.1-5.27.94-4.48,1.51-7.27,0-3.55-3.85-4-6.07-.58-4.26-2.11-4.92-3.11.67-5,1.87-4.13,2.29-7.15,1.3-4.18-3.15-5-5.26-1.34-4.09-3-4.46-2.94,1.22-4.6,2.74-3.66,3-6.8,2.56-4.67-2.35-5.88-4.27-2-3.78-3.7-3.86-2.67,1.72-4,3.52-3.06,3.6-6.23,3.73-5-1.49-6.54-3.16-2.68-3.36-4.33-3.14-2.33,2.17-3.35,4.17-2.38,4.08-5.48,4.78-5.21-.57-7-1.94-3.24-2.82-4.83-2.31-1.9,2.55-2.55,4.71-1.61,4.44-4.53,5.69-5.22.38-7.24-.65-3.7-2.2-5.16-1.41-1.41,2.85-1.66,5.09-.78,4.66-3.44,6.41-5.07,1.3-7.24.65-4-1.5-5.33-.47-.88,3.05-.72,5.3.06,4.72-2.24,6.91-4.76,2.18-7,1.93-4.23-.76-5.33.48-.32,3.16.23,5.34.9,4.64-1,7.2-4.29,3-6.55,3.14-4.3,0-5.16,1.43.24,3.17,1.18,5.22,1.71,4.4.32,7.26-3.69,3.72-5.89,4.27-4.23.78-4.82,2.33.81,3.07,2.1,4.93,2.47,4,1.62,7.09-3,4.32-5,5.26-4,1.52-4.32,3.16,1.35,2.88,2.95,4.47,3.16,3.52,2.87,6.68-2.14,4.77-4,6.06-3.68,2.21-3.69,3.87,1.83,2.59,3.69,3.87,3.73,2.9,4,6.06-1.26,5.08-2.87,6.68-3.24,2.83-2.95,4.47,2.27,2.23,4.32,3.16,4.19,2.19,5,5.26-.33,5.22-1.62,7.09-2.68,3.37-2.1,4.93,2.63,1.78,4.82,2.33,4.51,1.41,5.89,4.27.61,5.2-.32,7.26-2,3.79-1.18,5.22,2.91,1.28,5.16,1.43,4.69.57,6.55,3.14,1.53,5,1,7.2-1.32,4.09-.23,5.34,3.09.74,5.33.48,4.72-.27,7,1.93,2.39,4.65,2.24,6.91-.57,4.26.72,5.3,3.17.18,5.33-.47,4.59-1.1,7.24.66,3.18,4.15,3.43,6.4.2,4.3,1.66,5.09,3.15-.39,5.16-1.41,4.32-1.91,7.24-.65,3.88,3.52,4.53,5.69,1,4.19,2.55,4.71,3-.95,4.83-2.31,3.91-2.65,7-1.94,4.45,2.76,5.48,4.78,1.7,4,3.35,4.18,2.81-1.48,4.33-3.15,3.37-3.31,6.54-3.16,4.86,1.92,6.23,3.73,2.37,3.58,4,3.52,2.5-1.95,3.7-3.86,2.73-3.86,5.88-4.27,5.13,1,6.8,2.57,3,3.11,4.6,2.74,2.12-2.37,3-4.46,2-4.28,5-5.25,5.23.09,7.15,1.3,3.49,2.52,5,1.87,1.66-2.71,2.11-4.92,1.2-4.57,4-6.07,5.16-.85,7.27,0,3.88,1.86,5.27.94,1.15-3,1.19-5.21.36-4.71,2.85-6.68,4.93-1.75,7.15-1.3,4.15,1.14,5.35,0,.6-3.12.25-5.34-.48-4.7,1.62-7.08,4.54-2.6,6.81-2.54,4.28.38,5.26-1,0-3.17-.71-5.3-1.31-4.54.33-7.26,4-3.37,6.25-3.72,4.29-.39,5-1.88-.53-3.13-1.64-5.09-2.1-4.24-1-7.21,3.33-4,5.48-4.78,4.14-1.16,4.59-2.76-1.08-3-2.53-4.72-2.83-3.79-2.26-6.91,2.56-4.57,4.53-5.69,3.87-1.88,4-3.53S413.27,428.9,411.53,427.46Zm-16.3,25.44a103.59,103.59,0,1,1,5-31.84A102.74,102.74,0,0,1,395.24,452.91Z" transform="translate(-118.45 -303.11)"/><circle class="cls-4" cx="178.57" cy="73.78" r="28.35"/><path class="cls-5" d="M336.73,503.62a1.81,1.81,0,1,0,3.21-1.62,1.81,1.81,0,1,0-3.21,1.62Z" transform="translate(-118.45 -303.11)"/><path class="cls-5" d="M353.19,493.46a1.81,1.81,0,1,0,2.8-2.26,1.81,1.81,0,1,0-2.8,2.26Z" transform="translate(-118.45 -303.11)"/><path class="cls-5" d="M367.17,480.07a1.81,1.81,0,1,0,2.27-2.8,1.81,1.81,0,1,0-2.27,2.8Z" transform="translate(-118.45 -303.11)"/><path class="cls-5" d="M378,464.06a1.81,1.81,0,1,0,1.63-3.21,1.81,1.81,0,1,0-1.63,3.21Z" transform="translate(-118.45 -303.11)"/><path class="cls-5" d="M387.67,444.9a1.89,1.89,0,0,0-1.49-2.25,1.81,1.81,0,1,0-.91,3.48A1.89,1.89,0,0,0,387.67,444.9Z" transform="translate(-118.45 -303.11)"/><path class="cls-5" d="M390.63,425.36a1.89,1.89,0,0,0-1.93-1.89,1.81,1.81,0,1,0-.16,3.6A1.89,1.89,0,0,0,390.63,425.36Z" transform="translate(-118.45 -303.11)"/><path class="cls-5" d="M327.8,507.33a1.81,1.81,0,1,0,3.36-1.27,1.81,1.81,0,1,0-3.36,1.27Z" transform="translate(-118.45 -303.11)"/><path class="cls-5" d="M345.23,499a1.81,1.81,0,1,0,3-2,1.81,1.81,0,1,0-3,2Z" transform="translate(-118.45 -303.11)"/><path class="cls-5" d="M360.54,487.13a1.81,1.81,0,1,0,2.55-2.54,1.81,1.81,0,1,0-2.55,2.54Z" transform="translate(-118.45 -303.11)"/><path class="cls-5" d="M373,472.35a1.81,1.81,0,1,0,2-3,1.81,1.81,0,1,0-2,3Z" transform="translate(-118.45 -303.11)"/><path class="cls-5" d="M383.41,451.93a1.8,1.8,0,1,0-1.28,3.36,1.81,1.81,0,1,0,1.28-3.36Z" transform="translate(-118.45 -303.11)"/><path class="cls-5" d="M389.67,435.22a1.89,1.89,0,0,0-1.72-2.08,1.81,1.81,0,1,0-.54,3.55A1.89,1.89,0,0,0,389.67,435.22Z" transform="translate(-118.45 -303.11)"/><path class="cls-5" d="M231,484.12a1.81,1.81,0,1,0,2.53,2.56,1.81,1.81,0,1,0-2.53-2.56Z" transform="translate(-118.45 -303.11)"/><path class="cls-5" d="M248.3,496a1.92,1.92,0,0,0-2.59.67,1.81,1.81,0,1,0,3,2A1.93,1.93,0,0,0,248.3,496Z" transform="translate(-118.45 -303.11)"/><path class="cls-5" d="M265.13,504.63a1.92,1.92,0,0,0-2.38,1.2,1.81,1.81,0,1,0,3.35,1.29A1.92,1.92,0,0,0,265.13,504.63Z" transform="translate(-118.45 -303.11)"/><path class="cls-5" d="M283.39,509.5a1.92,1.92,0,0,0-2.08,1.67,1.81,1.81,0,1,0,3.55.55A1.92,1.92,0,0,0,283.39,509.5Z" transform="translate(-118.45 -303.11)"/><path class="cls-5" d="M302.32,510.42a1.92,1.92,0,0,0-1.69,2.07,1.81,1.81,0,1,0,3.6-.2A1.92,1.92,0,0,0,302.32,510.42Z" transform="translate(-118.45 -303.11)"/><path class="cls-5" d="M321,507.38a1.92,1.92,0,0,0-1.21,2.38,1.81,1.81,0,1,0,3.47-1A1.92,1.92,0,0,0,321,507.38Z" transform="translate(-118.45 -303.11)"/><path class="cls-5" d="M224.66,476.76a1.81,1.81,0,1,0,2.25,2.81,1.81,1.81,0,1,0-2.25-2.81Z" transform="translate(-118.45 -303.11)"/><path class="cls-5" d="M240.66,490.39a1.92,1.92,0,0,0-2.64.39,1.81,1.81,0,1,0,2.79,2.28A1.92,1.92,0,0,0,240.66,490.39Z" transform="translate(-118.45 -303.11)"/><path class="cls-5" d="M256.49,500.76a1.92,1.92,0,0,0-2.5.93,1.81,1.81,0,1,0,3.2,1.64A1.92,1.92,0,0,0,256.49,500.76Z" transform="translate(-118.45 -303.11)"/><path class="cls-5" d="M274.13,507.55a1.92,1.92,0,0,0-2.25,1.45,1.81,1.81,0,1,0,3.47.93A1.92,1.92,0,0,0,274.13,507.55Z" transform="translate(-118.45 -303.11)"/><path class="cls-5" d="M292.82,510.45a1.92,1.92,0,0,0-1.89,1.89,1.81,1.81,0,1,0,3.6.17A1.93,1.93,0,0,0,292.82,510.45Z" transform="translate(-118.45 -303.11)"/><path class="cls-5" d="M311.75,509.4a1.92,1.92,0,0,0-1.46,2.24,1.81,1.81,0,1,0,3.55-.58A1.92,1.92,0,0,0,311.75,509.4Z" transform="translate(-118.45 -303.11)"/><path class="cls-5" d="M216.78,377.52a1.81,1.81,0,1,0-1.65,3.19,1.81,1.81,0,1,0,1.65-3.19Z" transform="translate(-118.45 -303.11)"/><path class="cls-5" d="M208.49,398.86a1.8,1.8,0,1,0,.94-3.47,1.81,1.81,0,1,0-.94,3.47Z" transform="translate(-118.45 -303.11)"/><path class="cls-5" d="M203.91,416.12a1.89,1.89,0,0,0,1.91,1.9,1.81,1.81,0,1,0,.19-3.6A1.89,1.89,0,0,0,203.91,416.12Z" transform="translate(-118.45 -303.11)"/><path class="cls-5" d="M207.21,437.34a1.81,1.81,0,1,0-.56-3.55,1.81,1.81,0,1,0,.56,3.55Z" transform="translate(-118.45 -303.11)"/><path class="cls-5" d="M212.63,455.89a1.8,1.8,0,1,0-1.3-3.35,1.81,1.81,0,1,0,1.3,3.35Z" transform="translate(-118.45 -303.11)"/><path class="cls-5" d="M219.87,469.88a1.81,1.81,0,1,0,2,3,1.81,1.81,0,1,0-2-3Z" transform="translate(-118.45 -303.11)"/><path class="cls-5" d="M221.85,369.26a1.81,1.81,0,1,0-2,3,1.81,1.81,0,1,0,2-3Z" transform="translate(-118.45 -303.11)"/><path class="cls-5" d="M212.63,386.26a1.81,1.81,0,1,0-1.3,3.35,1.81,1.81,0,1,0,1.3-3.35Z" transform="translate(-118.45 -303.11)"/><path class="cls-5" d="M204.94,406.27a1.89,1.89,0,0,0,1.71,2.09,1.81,1.81,0,1,0,.56-3.55A1.89,1.89,0,0,0,204.94,406.27Z" transform="translate(-118.45 -303.11)"/><path class="cls-5" d="M206,427.73a1.81,1.81,0,1,0-.19-3.6,1.81,1.81,0,1,0,.19,3.6Z" transform="translate(-118.45 -303.11)"/><path class="cls-5" d="M209.42,446.76a1.81,1.81,0,1,0-.94-3.47,1.81,1.81,0,1,0,.94,3.47Z" transform="translate(-118.45 -303.11)"/><path class="cls-5" d="M215.13,461.44a1.81,1.81,0,1,0,1.65,3.19,1.81,1.81,0,1,0-1.65-3.19Z" transform="translate(-118.45 -303.11)"/><path class="cls-5" d="M312.39,328.82a1.89,1.89,0,0,0-2.1,1.7,1.81,1.81,0,1,0,3.55.58A1.88,1.88,0,0,0,312.39,328.82Z" transform="translate(-118.45 -303.11)"/><path class="cls-5" d="M292.63,327.71a1.89,1.89,0,0,0-1.7,2.1,1.81,1.81,0,1,0,3.6-.17A1.89,1.89,0,0,0,292.63,327.71Z" transform="translate(-118.45 -303.11)"/><path class="cls-5" d="M275.36,332.23a1.81,1.81,0,1,0-3.47.92,1.8,1.8,0,1,0,3.47-.92Z" transform="translate(-118.45 -303.11)"/><path class="cls-5" d="M257.19,338.81a1.81,1.81,0,1,0-3.2,1.64,1.81,1.81,0,1,0,3.2-1.64Z" transform="translate(-118.45 -303.11)"/><path class="cls-5" d="M240.8,349.09a1.81,1.81,0,1,0-2.79,2.28,1.81,1.81,0,1,0,2.79-2.28Z" transform="translate(-118.45 -303.11)"/><path class="cls-5" d="M226.91,362.58a1.81,1.81,0,1,0-2.25,2.81,1.81,1.81,0,1,0,2.25-2.81Z" transform="translate(-118.45 -303.11)"/><path class="cls-5" d="M322.05,330.92a1.88,1.88,0,0,0-2.26,1.47,1.8,1.8,0,1,0,3.47,1A1.89,1.89,0,0,0,322.05,330.92Z" transform="translate(-118.45 -303.11)"/><path class="cls-5" d="M302.55,327.75a1.89,1.89,0,0,0-1.91,1.91,1.81,1.81,0,1,0,3.6.2A1.89,1.89,0,0,0,302.55,327.75Z" transform="translate(-118.45 -303.11)"/><path class="cls-5" d="M284.87,330.42a1.81,1.81,0,1,0-3.55.55,1.81,1.81,0,1,0,3.55-.55Z" transform="translate(-118.45 -303.11)"/><path class="cls-5" d="M266.09,335a1.81,1.81,0,1,0-3.35,1.29,1.8,1.8,0,1,0,3.35-1.29Z" transform="translate(-118.45 -303.11)"/><path class="cls-5" d="M248.72,343.51a1.81,1.81,0,1,0-3,2,1.81,1.81,0,1,0,3-2Z" transform="translate(-118.45 -303.11)"/><path class="cls-5" d="M233.5,355.47A1.81,1.81,0,1,0,231,358a1.81,1.81,0,1,0,2.53-2.56Z" transform="translate(-118.45 -303.11)"/><path class="cls-5" d="M387.41,405.45a1.81,1.81,0,1,0,.54,3.55,1.81,1.81,0,1,0-.54-3.55Z" transform="translate(-118.45 -303.11)"/><path class="cls-5" d="M382.13,386.86a1.81,1.81,0,1,0,1.28,3.36,1.81,1.81,0,1,0-1.28-3.36Z" transform="translate(-118.45 -303.11)"/><path class="cls-5" d="M375,372.82a1.81,1.81,0,1,0-2-3,1.81,1.81,0,1,0,2,3Z" transform="translate(-118.45 -303.11)"/><path class="cls-5" d="M363.09,357.55a1.81,1.81,0,1,0-2.55-2.54,1.81,1.81,0,1,0,2.55,2.54Z" transform="translate(-118.45 -303.11)"/><path class="cls-5" d="M345.67,345.8a1.92,1.92,0,0,0,2.58-.69,1.81,1.81,0,1,0-3-2A1.93,1.93,0,0,0,345.67,345.8Z" transform="translate(-118.45 -303.11)"/><path class="cls-5" d="M328.78,337.29a1.92,1.92,0,0,0,2.38-1.21,1.81,1.81,0,1,0-3.36-1.27A1.92,1.92,0,0,0,328.78,337.29Z" transform="translate(-118.45 -303.11)"/><path class="cls-5" d="M388.54,415.08a1.81,1.81,0,1,0,.16,3.6,1.81,1.81,0,1,0-.16-3.6Z" transform="translate(-118.45 -303.11)"/><path class="cls-5" d="M385.26,396a1.81,1.81,0,1,0,.91,3.48,1.81,1.81,0,1,0-.91-3.48Z" transform="translate(-118.45 -303.11)"/><path class="cls-5" d="M378,378.09a1.81,1.81,0,1,0,1.63,3.21,1.81,1.81,0,1,0-1.63-3.21Z" transform="translate(-118.45 -303.11)"/><path class="cls-5" d="M369.44,364.87a1.81,1.81,0,1,0-2.27-2.8,1.81,1.81,0,1,0,2.27,2.8Z" transform="translate(-118.45 -303.11)"/><path class="cls-5" d="M353.36,351.35a1.93,1.93,0,0,0,2.64-.41,1.81,1.81,0,1,0-2.8-2.26A1.92,1.92,0,0,0,353.36,351.35Z" transform="translate(-118.45 -303.11)"/><path class="cls-5" d="M337.45,341.1a1.92,1.92,0,0,0,2.49-1,1.81,1.81,0,1,0-3.21-1.62A1.92,1.92,0,0,0,337.45,341.1Z" transform="translate(-118.45 -303.11)"/><path class="cls-6" d="M180.4,435.35l.65-.63c1.41-1.41,1.77-2.12,1.66-3.34h0c-.11-1.22-.58-1.86-2.21-3l-.75-.5c-1.89-1.25-4.73-3.14-4.75-6.79h0c0-3.64,2.86-5.54,4.75-6.79l.74-.5c1.64-1.13,2.11-1.77,2.21-3h0c.11-1.22-.25-1.93-1.65-3.33l-.65-.63c-1.64-1.57-4.11-3.94-3.46-7.55a6.26,6.26,0,0,1,2.11-3.68H158.5v50h19.64a6.24,6.24,0,0,1-1.2-2.73C176.3,439.28,178.77,436.92,180.4,435.35Z" transform="translate(-118.45 -303.11)"/><path class="cls-6" d="M411.78,397.05c-1.28,1.53-1.57,2.28-1.35,3.48h0c.22,1.2.75,1.8,2.47,2.78l.79.43c2,1.08,5,2.72,5.33,6.35h0c.31,3.64-2.36,5.77-4.13,7.19l-.7.56c-1.53,1.27-1.95,2-1.94,3.17h0c0,1.22.41,1.9,1.94,3.16l.7.57c1.77,1.41,4.44,3.55,4.13,7.19h0c-.33,3.63-3.34,5.27-5.33,6.35l-.79.43c-1.73,1-2.26,1.58-2.48,2.79h0c-.22,1.2.07,2,1.35,3.48l.45.52h23.32v-50H413l-.69.8Z" transform="translate(-118.45 -303.11)"/><polygon class="cls-6" points="34.25 111.61 0 111.61 19.06 137.19 0 161.65 59.19 161.65 59.19 148.31 34.25 148.31 34.25 111.61"/><polygon class="cls-6" points="357.15 111.61 322.9 111.61 322.9 148.31 297.96 148.31 297.96 161.65 357.15 161.65 338.09 137.19 357.15 111.61"/><path class="cls-7" d="M298.9,355.56v-21.4a.51.51,0,1,0-1,0v21.4h1Z" transform="translate(-118.45 -303.11)"/><path class="cls-7" d="M342,363.23a.51.51,0,0,0-.72-.72l-15.31,15.31c.24.24.47.49.7.74Z" transform="translate(-118.45 -303.11)"/><path class="cls-7" d="M255.52,362.51a.51.51,0,0,0-.72.72l15.32,15.33c.23-.25.46-.5.7-.74Z" transform="translate(-118.45 -303.11)"/><path class="cls-7" d="M322.16,349.77a.51.51,0,1,0-.94-.39L313,369.22l.94.4Z" transform="translate(-118.45 -303.11)"/><path class="cls-7" d="M341,388.9l14-5.82a.51.51,0,0,0-.39-.94l-16.26,6.77Z" transform="translate(-118.45 -303.11)"/><path class="cls-7" d="M241.68,383.26l13.69,5.64H258l-16-6.59a.51.51,0,1,0-.39.94Z" transform="translate(-118.45 -303.11)"/><path class="cls-7" d="M275.37,349.46a.51.51,0,1,0-.94.39l8.25,19.81.94-.4Z" transform="translate(-118.45 -303.11)"/><path class="cls-7" d="M309.36,355h.11a.51.51,0,0,0,.5-.4l.54-2.49a.51.51,0,1,0-1-.21l-.54,2.49A.51.51,0,0,0,309.36,355Z" transform="translate(-118.45 -303.11)"/><path class="cls-7" d="M307.25,364.85h.11a.51.51,0,0,0,.5-.4l1.06-4.91a.51.51,0,0,0-.39-.61.52.52,0,0,0-.61.39l-1.06,4.91A.51.51,0,0,0,307.25,364.85Z" transform="translate(-118.45 -303.11)"/><path class="cls-7" d="M342.68,378a.5.5,0,0,0,.28-.08l2.14-1.38a.51.51,0,1,0-.55-.86L342.4,377a.51.51,0,0,0,.28.94Z" transform="translate(-118.45 -303.11)"/><path class="cls-7" d="M338.89,379.92a.51.51,0,0,0-.7-.15L334,382.49a.51.51,0,0,0,.28.94.5.5,0,0,0,.28-.08l4.22-2.73A.51.51,0,0,0,338.89,379.92Z" transform="translate(-118.45 -303.11)"/><path class="cls-7" d="M274.79,370.51a.51.51,0,1,0,.85-.55l-2.72-4.22a.51.51,0,0,0-.86.55Z" transform="translate(-118.45 -303.11)"/><path class="cls-7" d="M269.34,362.07a.51.51,0,1,0,.86-.55l-1.38-2.14a.51.51,0,1,0-.85.55Z" transform="translate(-118.45 -303.11)"/><path class="cls-7" d="M328.29,363.16a.51.51,0,0,0,.42-.22l1.44-2.1a.51.51,0,1,0-.84-.58l-1.44,2.1a.51.51,0,0,0,.42.8Z" transform="translate(-118.45 -303.11)"/><path class="cls-7" d="M322.3,371.35a.51.51,0,0,0,.71-.13l2.85-4.14a.51.51,0,1,0-.84-.58l-2.85,4.14A.51.51,0,0,0,322.3,371.35Z" transform="translate(-118.45 -303.11)"/><path class="cls-7" d="M263.22,382.4a.51.51,0,0,0,.29-.93l-4.14-2.85a.51.51,0,0,0-.58.84l4.14,2.85A.5.5,0,0,0,263.22,382.4Z" transform="translate(-118.45 -303.11)"/><path class="cls-7" d="M254.66,376.61a.51.51,0,0,0,.29.09.5.5,0,0,0,.42-.22.51.51,0,0,0-.13-.71l-2.1-1.44a.51.51,0,1,0-.58.84Z" transform="translate(-118.45 -303.11)"/><path class="cls-7" d="M289.22,359.26l.91,4.94a.51.51,0,0,0,.5.42h.09a.51.51,0,0,0,.41-.59l-.91-4.94a.51.51,0,0,0-1,.19Z" transform="translate(-118.45 -303.11)"/><path class="cls-7" d="M288.81,354.74h.09a.51.51,0,0,0,.41-.59l-.46-2.5a.51.51,0,0,0-1,.19l.46,2.5A.51.51,0,0,0,288.81,354.74Z" transform="translate(-118.45 -303.11)"/><path class="cls-7" d="M296.47,483.8v12.39c0,.16.23.29.51.29s.51-.13.51-.29V483.8h-1Z" transform="translate(-118.45 -303.11)"/><path class="cls-7" d="M253.39,479.36a.22.22,0,0,0,0,.42.8.8,0,0,0,.72,0l15.31-8.86-.7-.43Z" transform="translate(-118.45 -303.11)"/><path class="cls-7" d="M339.84,479.78a.8.8,0,0,0,.72,0,.22.22,0,0,0,0-.42l-15.32-8.87-.7.43Z" transform="translate(-118.45 -303.11)"/><path class="cls-7" d="M273.2,487.15c-.11.15,0,.32.28.39a.68.68,0,0,0,.67-.16l8.18-11.48-.94-.23Z" transform="translate(-118.45 -303.11)"/><path class="cls-7" d="M254.35,464.5l-14,3.37c-.26.06-.38.24-.27.39a.69.69,0,0,0,.67.16L257,464.5Z" transform="translate(-118.45 -303.11)"/><path class="cls-7" d="M353.68,467.77,340,464.5h-2.67l16,3.81a.68.68,0,0,0,.67-.16C354.06,468,353.94,467.83,353.68,467.77Z" transform="translate(-118.45 -303.11)"/><path class="cls-7" d="M320,487.33a.69.69,0,0,0,.67.16c.26-.06.38-.24.27-.39l-8.25-11.47-.94.23Z" transform="translate(-118.45 -303.11)"/><path class="cls-7" d="M286,484.11h-.11a.52.52,0,0,0-.5.23l-.54,1.44c-.06.16.12.32.39.35s.55-.07.6-.23l.54-1.44C286.45,484.3,286.27,484.14,286,484.11Z" transform="translate(-118.45 -303.11)"/><path class="cls-7" d="M288.11,478.42H288a.53.53,0,0,0-.5.23l-1.06,2.84c-.06.16.12.32.39.35s.55-.07.61-.23l1.06-2.84C288.56,478.61,288.39,478.46,288.11,478.42Z" transform="translate(-118.45 -303.11)"/><path class="cls-7" d="M252.68,470.82a.78.78,0,0,0-.28,0l-2.14.8c-.24.09-.3.27-.15.41a.76.76,0,0,0,.71.09l2.14-.8c.24-.09.3-.27.15-.41A.66.66,0,0,0,252.68,470.82Z" transform="translate(-118.45 -303.11)"/><path class="cls-7" d="M256.47,469.7a.75.75,0,0,0,.7.09l4.22-1.58c.24-.09.3-.27.15-.41a.66.66,0,0,0-.43-.13.8.8,0,0,0-.28,0l-4.22,1.58C256.39,469.38,256.32,469.56,256.47,469.7Z" transform="translate(-118.45 -303.11)"/><path class="cls-7" d="M320.57,475.15a.66.66,0,0,0-.43-.13.78.78,0,0,0-.28,0c-.24.09-.3.27-.15.41l2.72,2.44a.76.76,0,0,0,.7.09c.24-.09.3-.27.15-.41Z" transform="translate(-118.45 -303.11)"/><path class="cls-7" d="M326,480a.66.66,0,0,0-.43-.14.79.79,0,0,0-.28,0c-.24.09-.3.27-.15.41l1.38,1.24a.76.76,0,0,0,.7.09c.24-.09.3-.27.15-.41Z" transform="translate(-118.45 -303.11)"/><path class="cls-7" d="M267.08,479.4a.67.67,0,0,0-.42.13l-1.44,1.21c-.16.13-.1.32.13.41a.77.77,0,0,0,.71-.08l1.44-1.21c.16-.13.1-.32-.13-.41A.79.79,0,0,0,267.08,479.4Z" transform="translate(-118.45 -303.11)"/><path class="cls-7" d="M273.06,474.66a.77.77,0,0,0-.29-.05.67.67,0,0,0-.42.13l-2.85,2.4c-.16.13-.1.32.13.41a.77.77,0,0,0,.71-.08l2.85-2.39C273.35,474.94,273.29,474.76,273.06,474.66Z" transform="translate(-118.45 -303.11)"/><path class="cls-7" d="M332.14,468.27a.67.67,0,0,0-.42.13c-.16.13-.1.32.13.41l4.14,1.65a.77.77,0,0,0,.71-.08c.16-.14.1-.32-.13-.41l-4.14-1.65A.78.78,0,0,0,332.14,468.27Z" transform="translate(-118.45 -303.11)"/><path class="cls-7" d="M340.7,471.62a.8.8,0,0,0-.29-.05.67.67,0,0,0-.42.13c-.16.13-.1.32.13.41l2.1.84a.77.77,0,0,0,.71-.08c.16-.13.1-.32-.13-.41Z" transform="translate(-118.45 -303.11)"/><path class="cls-7" d="M306.14,481.66l-.91-2.86c0-.14-.26-.24-.5-.24h-.09c-.28,0-.46.18-.41.34l.91,2.86c.05.16.32.27.59.24S306.19,481.82,306.14,481.66Z" transform="translate(-118.45 -303.11)"/><path class="cls-7" d="M306.55,484.28h-.09c-.28,0-.46.18-.41.34l.46,1.45c.05.16.32.27.59.24s.46-.18.41-.34l-.46-1.45C307,484.38,306.79,484.28,306.55,484.28Z" transform="translate(-118.45 -303.11)"/><path class="cls-7" d="M225.26,426.61l17.13-22.88s2.23,2.58,2.58,1.76,2.93-5.16,2.93-5.16l3.05,3.17,4.81-6.22,1.64-.47,8.69-13.38,5.16,4.34,8.22-12.68,5,3.05,13.61-19.83,9.62,13.85,4.81.94,4.93,14.32,4.69-3.64,3.52-3.87,4.93,3.17,1.17,4,6.34,8.68,2.58-1.06,10.33,13.14,2.35-.47,14.2,20.89-6.45-4.93-4.34-5.52-5.63-3.76-3.05.7-2.7-6.81.12-3.4s-4.23-6.1-4.58-6.1-4.46,4.46-4.46,4.46l-4.22-5.28h-1.41L326.43,390l-2.82,4.46-2-2.7-2,.12,1.53,1.64,3.4,2.7,7,12,2.93.23,4.11,6.1,4.58,7.63-6.34-6.81-6-6.57-7.86-10-3.4-3.52h-3.4L309.06,383l-8.45-6.57-2.23-.12-2.7-4.93-8,10.56,1.41,1.64,3.87-2.35,6.69,7.86,3.75,8.8-7.51-7.75-3.64,2.11-4.11-3.29-6.57,6.69-.94-4.58-6.34,6.22-4.81,6.22-1.29,2.93L253.9,417.11l5.4-7.75,1.06-4,7-7.28-3.87-3.29-7.39,10.33-5.63,1.29-4.58,4.23-3.17-.47Z" transform="translate(-118.45 -303.11)"/><path class="cls-5" d="M269.79,431a10.08,10.08,0,0,0-3.13,0,35,35,0,0,0-5.75,1.19,30.93,30.93,0,0,0-5.51,2.09,37.25,37.25,0,0,0-.8-7.39l-.19-.63c-1.57.28-5.31,1-11.5,2.07a25.78,25.78,0,0,0,5.94,6.63,50,50,0,0,0-11.54.15,10.68,10.68,0,0,0-4.48,1.25c-.69-1.1-1-1.65-1.66-2.74a7.46,7.46,0,0,1,1.81-.42,18.8,18.8,0,0,1,4.06,0,28.87,28.87,0,0,1-6.45-6.39,30.91,30.91,0,0,1-4-6.65c-.23-.55-1-.85-2.29-.93-.07,0-1.32,0-3.85,0a1.22,1.22,0,0,1-1.15-.84,1,1,0,0,1-.06-.27,1.09,1.09,0,0,0,0-.23c.65-.12,10-.37,24.7-1.55a11.08,11.08,0,0,0-2.39,5.18,9.82,9.82,0,0,0,.59,4.16c5.47-.66,9.35-1.09,11.88-1.27a3,3,0,0,0-.1-.56c-.72-2.72-2.91-5-7.11-6.68,5.87-1.14,12.23-2.54,18.9-4.19,0,0,.13.13.25.41a2.66,2.66,0,0,1,.22.83.8.8,0,0,1-.21.72c-2.24.71-3.35,1.26-3.3,1.68,0-.14.19.27.63,1.22a13.65,13.65,0,0,1,1,3.47,18.46,18.46,0,0,1,.22,4.54,5.63,5.63,0,0,1-.89,3.07,9.55,9.55,0,0,1,3.35-1,8.08,8.08,0,0,1,1.53,0C269,429.08,269.24,429.71,269.79,431Z" transform="translate(-118.45 -303.11)"/><path class="cls-5" d="M301.79,423.55a3.48,3.48,0,0,1-.91,2.09c-1.92,2.49-6.66,3.85-14.34,4.58l-2,.18a19.42,19.42,0,0,1-7-.46,4.77,4.77,0,0,1-3.49-3.93c-.36-2.11.35-4.74,2.25-8-1.87.28-4.25.8-7.18,1.55a.32.32,0,0,1-.37-.11,2.44,2.44,0,0,1-.13-.64,4.71,4.71,0,0,1,.32-2.63,40,40,0,0,0,7.27-.21,6.9,6.9,0,0,0-.72-2.12c-.37-.73-.57-1.1-.57-1.12s0-.12.06-.14l.17,0c.95-.14,3.18-.56,6.59-1.19s5.93-1.1,7.64-1.44a1.71,1.71,0,0,1,.45-.05s-.48.64-1.43,1.78a25.22,25.22,0,0,0-2.51,3.43l1.4-.15c3.48-.38,5.25-.63,5.34-.82a1.21,1.21,0,0,0,.12-.59c0-.58-.57-1.06-1.6-1.43a22.44,22.44,0,0,1,4.91-1.83,1.78,1.78,0,0,1,.46,1.23q0,.36,0,1t0,1a6.22,6.22,0,0,0,.8,2.2,13.82,13.82,0,0,0,1.57,2.43l-1.67.6a8.3,8.3,0,0,1-2,.49,1.23,1.23,0,0,1-.55-.07,6.82,6.82,0,0,1-1.21-1.35,2.41,2.41,0,0,0-2-1.13,16.42,16.42,0,0,0-6.43.58c-.21.07-.52,1-.81,2.51a15.63,15.63,0,0,0-.26,4.66c.32,3,1.6,4.41,3.73,4.29a14.36,14.36,0,0,0,3.71-.8c1.37-.47,2-.84,2-1.12,0-.09-.08-.15-.22-.2a29.1,29.1,0,0,1-4.14-.79c-1.79-.47-2.84-1.4-3-2.55-.05-.53.39-1,1.32-1.42a12.63,12.63,0,0,1,4.15-.85,29.72,29.72,0,0,1,4.51.08C299.85,421.39,301.71,422.27,301.79,423.55Z" transform="translate(-118.45 -303.11)"/><path class="cls-5" d="M335.82,425.86a3.45,3.45,0,0,1-1.33,2c-2.53,2.27-8,2.85-16,2.48l-2-.1a18.38,18.38,0,0,1-6.87-1.45,5.11,5.11,0,0,1-2.85-4.69c-.1-2.34.81-5.15,2.75-8.48a46.15,46.15,0,0,0-6.84.8.29.29,0,0,1-.33-.16,3.42,3.42,0,0,1-.08-.74,6.61,6.61,0,0,1,.38-2.93,35.13,35.13,0,0,0,6.84.74,9.35,9.35,0,0,0-.7-2.49c-.37-.88-.57-1.34-.57-1.36s0-.13.05-.15l.16,0c.91,0,3-.15,6.46-.26s6.12-.13,8-.15a1.93,1.93,0,0,1,.49,0s-.5.6-1.5,1.68a21.32,21.32,0,0,0-2.64,3.31l1.47.08c3.68.21,5.67.3,5.77.11a1.16,1.16,0,0,0,.14-.62c0-.63-.62-1.26-1.75-1.87a20.55,20.55,0,0,1,5.51-1,2.17,2.17,0,0,1,.52,1.42,10.18,10.18,0,0,1,0,1.12q-.05.73,0,1a7.66,7.66,0,0,0,.82,2.51,18.11,18.11,0,0,0,1.61,2.89l-1.93.31a9.4,9.4,0,0,1-2.21.15,1.49,1.49,0,0,1-.6-.18,8.81,8.81,0,0,1-1.24-1.67,3.11,3.11,0,0,0-2.07-1.58,17.41,17.41,0,0,0-6.82-.51c-.23,0-.56,1-.94,2.62a21,21,0,0,0-.63,5c0,3.27,1.06,5,3.28,5.15a15.41,15.41,0,0,0,4-.27c1.51-.27,2.29-.55,2.31-.86,0-.09-.06-.18-.2-.25a31,31,0,0,1-4.27-1.51c-1.79-.78-2.78-1.95-2.79-3.2,0-.58.49-1,1.49-1.33a12.33,12.33,0,0,1,4.46-.21,33.39,33.39,0,0,1,4.89.89C333.88,423.23,335.93,424.52,335.82,425.86Z" transform="translate(-118.45 -303.11)"/><path class="cls-5" d="M377.8,430.43a9.75,9.75,0,0,1-1.64,2.58,11,11,0,0,1-6.3,3.39,23.17,23.17,0,0,1-10.5-.45,22.6,22.6,0,0,1-10.14-5c.37,2.35.53,3.8.63,4.36a50.43,50.43,0,0,0,1.53,5.74,135.18,135.18,0,0,0-16.16-1.72,3.6,3.6,0,0,1,0-1.2c.08-.4.21-.61.42-.63,2.48-.13,3.85-.5,4-1.17,0,0,0-.33.09-1.14s.2-1.79.38-3c.71-4.44,1.64-7.93,3.17-10.42a11.79,11.79,0,0,1-4,.1,6.25,6.25,0,0,1-1.29-.33c-.15-1.44-.24-2.15-.44-3.6a23.17,23.17,0,0,0,3.52.79,49.86,49.86,0,0,0,12.19.39,8,8,0,0,0-1.36,2.58,32.06,32.06,0,0,1,10.4.09c1.9.3,3.7.65,5.38,1,4.2,1,7.26,2.18,8.88,3.49A3.35,3.35,0,0,1,377.8,430.43Zm-8.6-.27c.15-.46-.66-1.07-2.4-1.8a44.78,44.78,0,0,0-7.35-2.2,25.69,25.69,0,0,0-7.66-.54c-2.57.2-3.83.65-3.93,1.27-.05.35.48.77,1.57,1.24a33,33,0,0,0,5.62,1.62,49.94,49.94,0,0,0,9.1,1.16C367.25,431,369,430.8,369.2,430.16Z" transform="translate(-118.45 -303.11)"/><text class="cls-8" transform="translate(117.93 146.74)">Adventure</text><text class="cls-9" transform="translate(138.56 166.28)">GAME</text></svg>